<?xml version="1.0" encoding="utf-8"?>
<!-- Generator: Adobe Illustrator 21.1.0, SVG Export Plug-In . SVG Version: 6.00 Build 0)  -->
<svg version="1.1" id="Laag_1" xmlns="http://www.w3.org/2000/svg" xmlns:xlink="http://www.w3.org/1999/xlink" x="0px" y="0px"
	 viewBox="0 0 458.3 26.4" style="enable-background:new 0 0 458.3 26.4;" xml:space="preserve">
<style type="text/css">
	.st0{fill:#EDEDED;}
</style>
<g>
	<path class="st0" d="M5.7,4.2h18.1c0.5,0,0.7,0.2,0.7,0.6V6c0,0.9-0.7,1.8-2.1,2.6c-0.2,0.1-0.4,0.2-0.6,0.2H3.5
		c-0.4,0-0.6-0.3-0.6-0.9c0-1.6,0.5-2.6,1.4-3.1C4.7,4.4,5.2,4.2,5.7,4.2z M6.4,12.4h1.5c0.4,0.1,0.6,0.3,0.6,0.6v4.7
		c0,0.9,0.3,1.3,0.9,1.3h10.4c0.5,0,0.8-0.4,0.8-1.1v-0.2c0-0.7-0.3-1-0.9-1h-1.2c-1.6,0-2.7-0.4-3.1-1.3c-0.5-0.6-0.7-1.3-0.7-2.1
		v-0.1c0-0.4,0.2-0.6,0.7-0.6h7c1.3,0,2.2,0.8,2.8,2.4c0.1,0.5,0.1,1,0.1,1.3v3.4c0,1.8-0.6,3-1.8,3.6c-0.4,0.2-1.3,0.4-2.7,0.4h-14
		c-1.7,0-2.8-0.4-3.3-1.3c-0.4-0.3-0.6-1.3-0.6-2.9v-2.4c0-2,0.3-3.2,0.8-3.6C4.3,12.8,5.2,12.4,6.4,12.4z"/>
	<path class="st0" d="M31.5,4.2h1.3c1.6,0,2.7,0.7,3.2,2.1c0.2,0.5,0.3,1,0.3,1.3v10.3c0,0.8,0.3,1.2,0.9,1.2h11
		c0.8,0,1.2-0.4,1.2-1.2v-11c0-1.2,0.8-2.1,2.5-2.7c0.3,0,0.6-0.1,0.9-0.1H54c0.7,0,1,0.3,1,0.8v15.3c0,1.7-0.9,2.8-2.7,3.4
		c-0.4,0-0.8,0.1-1.2,0.1H34.5c-1.7,0-2.8-0.6-3.3-1.7c-0.4-0.4-0.6-1.2-0.6-2.4V5.2C30.6,4.6,30.9,4.2,31.5,4.2z"/>
	<path class="st0" d="M61.1,4.3h4.1c0.7,0,1.8,1,3.4,2.9c2.9,3.2,5.4,5.7,7.4,7.7c0.2,0.1,0.3,0.2,0.5,0.2c0.3,0,0.5-0.3,0.5-0.8
		V7.8c0-1.5,0.4-2.4,1.2-2.9c0.9-0.4,1.6-0.6,2.3-0.6h1.2c0.6,0,0.8,0.4,0.8,1.1V23c0,0.5-0.2,0.8-0.6,0.8h-4.7
		c-0.5,0-1.2-0.6-2.2-1.8c-0.9-0.8-2.7-2.8-5.6-6c-1.9-1.9-2.9-2.9-3-2.9h-0.2c-0.2,0.1-0.3,0.3-0.3,0.6v6.1
		c-0.1,2.1-0.3,3.3-0.9,3.5c-0.5,0.2-1.4,0.4-2.7,0.4h-1.5c-0.4,0-0.6-0.2-0.6-0.6v-5.4c0-1.7,0-3.1-0.1-3.9c0-0.9,0.1-2.2,0.1-3.9
		V4.9C60.3,4.5,60.5,4.3,61.1,4.3z"/>
	<path class="st0" d="M88.9,4.2H108c1.3,0,2.2,0.8,2.9,2.4c0,0.2,0.1,0.5,0.1,0.7v13.5c0,1.2-0.8,2.2-2.3,2.9
		c-0.6,0.1-1.1,0.1-1.5,0.1H89.3c-0.7,0-1.1-0.2-1.1-0.6v-7.9c0-1,0.6-1.9,1.8-2.5c0.7-0.2,1.2-0.3,1.8-0.3h1.3
		c0.5,0,0.8,0.4,0.8,1.1v4.7c0,0.6,0.3,0.8,0.8,0.8h9.9c0.5,0,0.8-0.4,0.8-1.3v-7.6c0-0.9-0.4-1.3-1.1-1.3H91
		c-0.9,0-1.7-0.6-2.5-1.8c-0.2-0.4-0.3-0.8-0.3-1.1V4.8C88.2,4.4,88.4,4.2,88.9,4.2z"/>
	<path class="st0" d="M126,4.2h3.6c0.8,0,1.3,0.5,1.5,1.4c0.3,0.5,1.8,3.4,4.6,8.8c0.8,1.4,2.3,4.2,4.5,8.5c0.1,0.1,0.2,0.3,0.2,0.5
		v0.1c0,0.2-0.3,0.3-0.8,0.3h-2.1c-2,0-3.2-0.6-3.7-1.8c-0.5-1-0.9-1.5-1.3-1.5h-0.2c-0.6,0-0.9,0-1-0.1c-0.5,0.1-1,0.1-1.4,0.1
		c-0.8,0-2,0-3.4-0.1c-0.2-0.1-0.3-0.1-0.3-0.2V20c0.8-2,1.6-3,2.4-3c0.3-0.2,0.8-0.4,1.6-0.5c0.2-0.1,0.3-0.3,0.3-0.5v-0.2
		c0-0.1-0.7-1.5-2.2-4.3c-0.4-0.7-0.7-1.1-0.9-1.1h-0.1c-0.3,0-0.9,1-1.8,3c-2.6,4.7-4.1,7.7-4.7,8.9c-0.7,1-1.8,1.5-3.4,1.5h-2.2
		c-0.7,0-1-0.1-1-0.3c0-0.2,2.8-5.5,8.3-16C123.6,5.3,124.7,4.2,126,4.2z"/>
	<path class="st0" d="M145.2,4.2h3.1c1.9,0,3.1,0.9,3.8,2.8c0.9,1.7,2.7,5.2,5.5,10.6l0.5,0.2c0.2,0,0.8-1,1.8-3
		c2.2-4.3,3.9-7.5,5.1-9.5c0.7-0.7,1.7-1.1,2.8-1.1h3c0.6,0,0.8,0.4,0.8,1.3c0.5,6.9,0.7,11.9,0.7,14.9v0.1c0.1,1.8,0.1,2.8,0.1,3
		c-0.2,0.2-0.4,0.3-0.6,0.3h-4.4c-0.4,0-0.6-0.6-0.6-1.8c-0.2-1.8-0.3-3.7-0.3-5.8v-0.1c0-0.7-0.1-1-0.4-1h-0.2
		c-0.2,0-0.6,0.7-1.3,2.1c-0.9,1.8-1.8,3.4-2.7,4.9c-0.4,1.1-0.9,1.7-1.3,1.7h-5.2c-0.5,0-1.2-1.1-2.1-3.2c-0.4-0.6-0.9-1.5-1.5-2.8
		l-1.4-2.6c-0.2-0.1-0.3-0.1-0.4-0.1h-0.1c-0.3,0-0.4,0.8-0.4,2.5V19c0,3.2-0.1,4.7-0.4,4.7l-0.4,0.1h-4.4c-0.4,0-0.6-0.3-0.6-0.8
		c0-3,0.3-9.1,0.9-18.3C144.7,4.4,144.9,4.2,145.2,4.2z"/>
	<path class="st0" d="M192.9,4.2h3.1c1.9,0,3.1,0.9,3.8,2.8c0.9,1.7,2.7,5.2,5.5,10.6l0.5,0.2c0.2,0,0.8-1,1.8-3
		c2.2-4.3,3.9-7.5,5.1-9.5c0.7-0.7,1.7-1.1,2.8-1.1h3c0.6,0,0.8,0.4,0.8,1.3c0.5,6.9,0.7,11.9,0.7,14.9v0.1c0.1,1.8,0.1,2.8,0.1,3
		c-0.2,0.2-0.4,0.3-0.6,0.3h-4.4c-0.4,0-0.6-0.6-0.6-1.8c-0.2-1.8-0.3-3.7-0.3-5.8v-0.1c0-0.7-0.1-1-0.4-1h-0.2
		c-0.2,0-0.6,0.7-1.3,2.1c-0.9,1.8-1.8,3.4-2.7,4.9c-0.4,1.1-0.9,1.7-1.3,1.7h-5.2c-0.5,0-1.2-1.1-2.1-3.2c-0.4-0.6-0.9-1.5-1.5-2.8
		l-1.4-2.6c-0.2-0.1-0.3-0.1-0.4-0.1h-0.1c-0.3,0-0.4,0.8-0.4,2.5V19c0,3.2-0.1,4.7-0.4,4.7l-0.4,0.1h-4.4c-0.4,0-0.6-0.3-0.6-0.8
		c0-3,0.3-9.1,0.9-18.3C192.4,4.4,192.6,4.2,192.9,4.2z"/>
	<path class="st0" d="M229.3,4.2h17c1.6,0,2.7,0.6,3.3,1.9c0.2,0.4,0.3,0.9,0.3,1.5v12.8c0,1.7-0.8,2.8-2.3,3.2
		c-0.4,0-0.9,0.1-1.3,0.1h-5.7c-0.9,0-1.6,0-1.9,0.1c-0.5,0-1.2-0.1-2-0.1h-7.9c-2.2,0-3.3-1.2-3.3-3.7V8
		C225.5,5.5,226.8,4.2,229.3,4.2z M231.1,18c0,0.9,0.4,1.3,1.3,1.3h10.3c1.1,0,1.6-0.3,1.6-1c0-0.5,0.1-0.9,0.1-1.5v-6.4
		c0-1.1-0.2-1.6-0.6-1.6c0-0.1-0.2-0.1-0.7-0.1h-10.8c-0.8,0-1.3,0.4-1.3,1.1V18z"/>
	<path class="st0" d="M255.9,4.3h20.5c1,0,1.9,0.7,2.7,2c0,0.5,0.1,0.8,0.1,1.1v3.2c0,1.4-0.5,2.3-1.6,2.9c-0.2,0.2-0.3,0.3-0.3,0.6
		c0,0.2,0.4,0.5,1.1,1c0.6,0.6,0.8,1.4,0.8,2.3v3.3c0,2.1-1.3,3.1-4,3.1h-18.9c-0.7,0-1.1-0.2-1.1-0.6v-8.3c0-1.1,0.7-2,2.2-2.7
		c0.2,0,0.4-0.1,0.6-0.1h14.2c0.8,0,1.2-0.4,1.2-1.2V10c0-0.8-0.4-1.2-1.2-1.2H258c-1.2,0-2.1-0.8-2.8-2.4c0-0.2-0.1-0.5-0.1-0.6v-1
		C255.2,4.4,255.4,4.3,255.9,4.3z M261.1,17.2v0.9c0,1.2,0.3,1.8,0.8,1.8h2.4c0.7,0,1.5,0,2.4-0.1l0.3,0.1c0.7,0,1.4-0.1,2-0.1h3.2
		c0.7,0,1.1-0.4,1.1-1.1V17c0-0.6-0.4-1-1.2-1h-9.8C261.5,16,261.1,16.4,261.1,17.2z"/>
	<path class="st0" d="M284.9,4.2h4.1c0.5,0,0.8,0.2,0.8,0.6v18.4c0,0.4-0.4,0.6-1.1,0.6h-3.4c-0.7,0-1.1-0.2-1.1-0.7V4.8
		C284.1,4.4,284.4,4.2,284.9,4.2z"/>
	<path class="st0" d="M296.2,4.3h1.1c2.6,0,3.9,1.3,3.9,3.8v10.3c0,0.7,0.5,1.1,1.4,1.1h12.6c1.2,0,2.1,0.8,2.7,2.5
		c0.1,0.3,0.1,0.6,0.1,1.1c0,0.5-0.2,0.8-0.6,0.8h-18.6c-1.5,0-2.5-0.6-3-1.8l-0.1-0.8V5C295.6,4.5,295.8,4.3,296.2,4.3z"/>
	<path class="st0" d="M323.7,4.3h19.4c0.5,0,0.8,0.3,0.8,0.8c0,2-0.9,3.2-2.7,3.7h-19.8c-0.4,0-0.6-0.3-0.6-0.8V7.9
		c0-1.7,0.7-2.9,2.2-3.5C323.1,4.3,323.3,4.3,323.7,4.3z M324.7,11.9h14c0.5,0,0.8,0.2,0.8,0.6v0.3c0,1.3-0.7,2.2-2.2,2.9
		c-0.2,0-0.4,0.1-0.5,0.1h-9.4c-0.6,0-1,0.3-1,1v1.4c0,0.6,0.3,0.9,0.8,0.9h12.6c2.2,0,3.6,0.9,4,2.8c0,0.1,0,0.5,0.1,1.1
		c0,0.6-0.3,0.9-1,0.9h-17.6c-1.8,0-2.8-0.3-3.2-0.8c-0.8-0.7-1.3-1.7-1.3-2.9v-4.7c0-1.6,0.8-2.7,2.3-3.3
		C323.6,12,324.2,11.9,324.7,11.9z"/>
	<path class="st0" d="M373.7,4.2c1.7,0,5.5,0,11.6,0.1c0.3,0,0.5,0.2,0.5,0.6v0.6c0,1.1-0.3,1.8-0.9,2.4c0,0.3-0.8,0.7-2.4,1.1
		h-19.2c-0.5,0-0.7-0.4-0.7-1.1V7.8c0-1.6,0.7-2.7,2-3.3c0.2-0.1,0.5-0.2,0.8-0.2C369.8,4.2,372.5,4.2,373.7,4.2z M363.5,11.5h20.4
		c0.7,0,1.5,0.4,2.3,1.3c0.3,0.2,0.4,1,0.4,2.2v5.5c0,1.3-0.3,2.1-0.9,2.4c-0.5,0.6-1.4,0.9-2.6,0.9h-18.5c-0.7,0-1-0.3-1-0.8v-0.3
		c0-1.3,0.3-2.2,0.8-2.6c0.6-0.6,1.5-1,2.6-1h13c0.6,0,1-0.5,1-1.5v-0.1c0-1-0.3-1.5-1-1.5c-4.9,0-8.4,0.1-10.3,0.1
		c-0.9,0-2.3,0-4.4-0.1c-0.4,0-0.9-0.4-1.6-1.2c-0.5-0.5-0.7-1.3-0.7-2.2v-0.4C362.8,11.8,363,11.5,363.5,11.5z"/>
	<path class="st0" d="M392.8,4.2h1.3c1.6,0,2.7,0.7,3.2,2.1c0.2,0.5,0.3,1,0.3,1.3v10.3c0,0.8,0.3,1.2,0.9,1.2h11
		c0.8,0,1.2-0.4,1.2-1.2v-11c0-1.2,0.8-2.1,2.5-2.7c0.3,0,0.6-0.1,0.9-0.1h1.2c0.7,0,1,0.3,1,0.8v15.3c0,1.7-0.9,2.8-2.7,3.4
		c-0.4,0-0.8,0.1-1.2,0.1h-16.5c-1.7,0-2.8-0.6-3.3-1.7c-0.4-0.4-0.6-1.2-0.6-2.4V5.2C391.9,4.6,392.2,4.2,392.8,4.2z"/>
	<path class="st0" d="M422.4,4.2h4.1c0.5,0,0.8,0.2,0.8,0.6v18.4c0,0.4-0.4,0.6-1.1,0.6h-3.4c-0.7,0-1.1-0.2-1.1-0.7V4.8
		C421.6,4.4,421.8,4.2,422.4,4.2z"/>
	<path class="st0" d="M436.2,4.2H455c0.4,0,0.6,0.1,0.8,0.4v1c0,1-0.5,1.9-1.5,2.6c-0.8,0.4-1.4,0.6-1.9,0.6h-4.1
		c-0.8,0-1.2,0.3-1.2,1V23c0,0.6-0.3,0.8-1,0.8h-3.5c-0.7,0-1.1-0.2-1.1-0.7V9.8c0-0.6-0.4-0.9-1.3-0.9h-6.8c-0.4,0-0.6-0.2-0.6-0.6
		V7c0-1.2,0.8-2.1,2.5-2.7C435.6,4.2,435.9,4.2,436.2,4.2z"/>
</g>
</svg>
