<!DOCTYPE svg PUBLIC "-//W3C//DTD SVG 1.1//EN" "http://www.w3.org/Graphics/SVG/1.1/DTD/svg11.dtd">
<svg version="1.1" id="Layer_1" xmlns="http://www.w3.org/2000/svg" xmlns:xlink="http://www.w3.org/1999/xlink" x="0px" y="0px"
	 width="20.4px" height="431.799px" viewBox="0 0 20.4 431.799" enable-background="new 0 0 20.4 431.799" xml:space="preserve">
<g>
	<path fill="#DADBDB" d="M13.6,20.4v-6.8H6.8v-3.4H17v13.6H3.536L0,20.264V3.536L3.536,0h9.928L17,3.536V6.8h-3.4V4.964
		C13.101,4.42,12.58,3.898,12.036,3.4H4.964C4.42,3.898,3.898,4.42,3.4,4.964v13.872c0.498,0.544,1.02,1.065,1.564,1.564H13.6z"/>
	<path fill="#DADBDB" d="M17,40.8v20.264L13.464,64.6H3.536L0,61.063V40.8h3.4v18.836c0.498,0.544,1.02,1.065,1.564,1.564h7.072
		c0.544-0.499,1.065-1.02,1.564-1.564V40.8H17z"/>
	<path fill="#DADBDB" d="M17,81.6v23.8h-3.434c-1.36-2.289-2.664-4.499-3.91-6.63c-0.544-0.906-1.1-1.841-1.666-2.805
		c-0.567-0.963-1.128-1.904-1.683-2.822c-0.556-0.918-1.083-1.796-1.581-2.635c-0.499-0.838-0.94-1.586-1.326-2.244V105.4H0V81.6
		h3.4c1.36,2.29,2.674,4.5,3.944,6.63c0.544,0.907,1.105,1.848,1.683,2.822c0.578,0.975,1.139,1.927,1.683,2.856
		c0.544,0.93,1.065,1.814,1.564,2.652c0.498,0.839,0.94,1.576,1.326,2.21V81.6H17z"/>
	<path fill="#DADBDB" d="M13.464,122.4L17,125.936v16.728l-3.536,3.536H0v-23.8H13.464z M3.4,125.8v17h8.636
		c0.544-0.498,1.065-1.02,1.564-1.563v-13.872c-0.499-0.544-1.02-1.065-1.564-1.564H3.4z"/>
	<path fill="#DADBDB" d="M17,170.169V187h-3.4v-6.8H3.4v6.8H0v-16.83l6.698-6.97h3.57L17,170.169z M13.6,176.799v-5.27
		c-0.182-0.182-0.493-0.505-0.935-0.97c-0.442-0.464-0.918-0.957-1.428-1.479c-0.51-0.521-0.992-1.015-1.445-1.479
		c-0.454-0.464-0.771-0.799-0.952-1.003H8.16c-0.182,0.204-0.499,0.539-0.952,1.003c-0.454,0.465-0.935,0.958-1.445,1.479
		c-0.51,0.521-0.986,1.015-1.428,1.479c-0.442,0.465-0.754,0.788-0.935,0.97v5.27H13.6z"/>
	<path fill="#DADBDB" d="M20.4,204v23.8H17v-16.49c-0.544,1.021-1.111,2.097-1.7,3.23c-0.59,1.134-1.145,2.176-1.666,3.128
		c-0.59,1.11-1.179,2.222-1.768,3.332H8.534c-0.589-1.11-1.179-2.222-1.768-3.332c-0.521-0.952-1.083-1.994-1.683-3.128
		c-0.601-1.134-1.162-2.21-1.683-3.23v16.49H0V204h3.366c1.042,1.972,2.017,3.808,2.924,5.508c0.385,0.726,0.77,1.462,1.156,2.21
		c0.385,0.748,0.753,1.451,1.105,2.108c0.351,0.657,0.668,1.252,0.952,1.784c0.283,0.533,0.515,0.958,0.697,1.275
		c0.158-0.317,0.379-0.742,0.663-1.275c0.283-0.532,0.6-1.127,0.952-1.784c0.351-0.657,0.725-1.36,1.122-2.108
		c0.396-0.748,0.787-1.484,1.173-2.21c0.906-1.7,1.881-3.536,2.924-5.508H20.4z"/>
	<path fill="#DADBDB" d="M17,295.664l-1.836,1.836L17,299.335V309.4h-3.4v-8.636c-0.499-0.544-1.02-1.065-1.564-1.564H3.4v10.2H0
		v-23.8h13.464L17,289.136V295.664z M12.036,295.8c0.544-0.499,1.065-1.021,1.564-1.564v-3.672c-0.499-0.544-1.02-1.065-1.564-1.564
		H3.4v6.801H12.036z"/>
	<path fill="#DADBDB" d="M17,334.423l-4.76,3.876l4.76,3.876v8.024h-3.4v-6.426c-0.227-0.182-0.566-0.453-1.02-0.816
		c-0.454-0.362-0.918-0.736-1.394-1.122c-0.476-0.385-0.924-0.753-1.343-1.104c-0.419-0.352-0.72-0.596-0.901-0.731H8.024
		c-0.182,0.136-0.476,0.38-0.884,0.731c-0.408,0.352-0.85,0.72-1.326,1.104c-0.476,0.386-0.941,0.76-1.394,1.122
		c-0.454,0.363-0.794,0.635-1.02,0.816v6.426H0v-8.024l4.76-3.876L0,334.423V326.4h3.4v6.426c0.226,0.182,0.566,0.454,1.02,0.816
		c0.453,0.362,0.918,0.736,1.394,1.122c0.476,0.385,0.918,0.753,1.326,1.104c0.408,0.352,0.703,0.595,0.884,0.731h0.918
		c0.181-0.137,0.481-0.38,0.901-0.731c0.419-0.352,0.867-0.72,1.343-1.104c0.476-0.386,0.94-0.76,1.394-1.122
		s0.793-0.635,1.02-0.816V326.4H17V334.423z"/>
	<path fill="#DADBDB" d="M17,367.2v10.268c-1.202,0.816-2.324,1.564-3.366,2.244c-0.454,0.295-0.901,0.59-1.343,0.884
		c-0.442,0.295-0.856,0.573-1.241,0.833c-0.386,0.261-0.726,0.493-1.02,0.697c-0.295,0.204-0.521,0.352-0.68,0.442V391h-3.4v-10.268
		l7.65-5.101v-5.032H0V367.2H17z"/>
	<path fill="#DADBDB" d="M17,418.063c-0.182,0.204-0.386,0.408-0.612,0.612c-0.182,0.182-0.386,0.38-0.612,0.595
		c-0.227,0.216-0.431,0.426-0.612,0.629c0.408,0.454,0.816,0.862,1.224,1.225L17,421.735v6.528l-3.536,3.536H3.536L0,428.263v-6.528
		l0.612-0.611c0.181-0.182,0.379-0.38,0.595-0.596c0.215-0.215,0.425-0.425,0.629-0.629l-1.224-1.224
		c-0.227-0.204-0.431-0.408-0.612-0.612v-6.527L3.536,408h9.928L17,411.536V418.063z M3.4,416.635
		c0.498,0.544,1.02,1.065,1.564,1.564h7.072c0.544-0.499,1.065-1.021,1.564-1.564v-3.672c-0.499-0.544-1.02-1.065-1.564-1.564H4.964
		c-0.544,0.499-1.066,1.021-1.564,1.564V416.635z M13.6,423.164c-0.499-0.544-1.02-1.065-1.564-1.564H4.964
		c-0.544,0.499-1.066,1.021-1.564,1.564v3.672c0.498,0.544,1.02,1.065,1.564,1.563h7.072c0.544-0.498,1.065-1.02,1.564-1.563
		V423.164z"/>
</g>
</svg>