<?xml version="1.0" standalone="no"?>
<!DOCTYPE svg PUBLIC "-//W3C//DTD SVG 20010904//EN"
 "http://www.w3.org/TR/2001/REC-SVG-20010904/DTD/svg10.dtd">
<svg version="1.0" xmlns="http://www.w3.org/2000/svg"
 width="20.000000pt" height="55.400000pt" viewBox="0 0 2000.000000 5540.000000"
 preserveAspectRatio="xMidYMid meet">
<metadata>
Created by potrace 1.15, written by Peter Selinger 2001-2017
</metadata>
<g transform="translate(0.000000,5540.000000) scale(0.100000,-0.100000)"
fill="#000000" stroke="none">
<path d="M8750 55270 l0 -130 -24 0 c-51 0 -221 -51 -309 -93 -438 -208 -943
-758 -1236 -1347 -149 -299 -232 -576 -277 -925 -23 -178 -24 -544 0 -714 9
-68 15 -125 14 -126 -2 -1 -79 -13 -173 -26 l-170 -25 -3 -195 c-2 -146 1
-199 10 -211 15 -18 279 -113 493 -178 77 -23 143 -45 148 -49 4 -4 3 -39 -3
-77 -5 -38 -15 -164 -21 -281 -26 -452 27 -885 133 -1084 26 -50 39 -62 116
-108 211 -125 322 -262 372 -456 22 -86 40 -250 40 -365 0 -47 12 -128 31
-215 46 -208 66 -326 79 -460 24 -240 -20 -464 -135 -699 -50 -103 -79 -146
-99 -146 -6 0 -61 -16 -121 -36 -457 -151 -1432 -660 -2560 -1337 -621 -373
-1142 -711 -1349 -877 -463 -371 -857 -875 -1151 -1475 -181 -371 -331 -804
-419 -1215 -23 -107 -38 -191 -117 -645 -116 -673 -340 -2208 -1214 -8315
-506 -3536 -695 -4843 -791 -5452 -9 -59 -14 -114 -11 -123 5 -11 23 -15 75
-15 38 0 116 -3 174 -6 l104 -7 -3 -331 c-4 -388 -12 -522 -58 -946 -65 -602
-69 -659 -70 -1060 0 -250 4 -412 13 -485 32 -270 89 -528 153 -690 156 -400
501 -707 961 -854 148 -47 221 -56 448 -55 169 1 223 4 304 22 201 43 276 112
236 217 -17 44 -58 87 -185 192 -236 196 -395 387 -505 608 -107 215 -148 376
-157 610 -8 234 27 353 118 397 94 47 222 -66 265 -232 19 -75 14 -152 -16
-248 -23 -75 -26 -183 -6 -257 78 -294 417 -505 598 -372 39 29 76 104 89 185
9 55 9 110 0 234 -6 90 -16 323 -21 518 -18 634 -38 903 -85 1179 -69 396
-194 722 -395 1026 -55 84 -91 162 -78 170 2 0 57 -2 123 -6 66 -4 158 -8 205
-8 l85 -1 67 203 c194 583 431 1510 718 2802 164 737 248 1132 594 2780 290
1383 403 1900 516 2360 54 223 145 554 154 563 9 9 37 -62 56 -140 90 -383
223 -1757 320 -3303 11 -176 25 -399 31 -495 6 -96 11 -368 10 -605 -5 -1314
93 -8093 245 -17035 33 -1923 47 -3027 50 -3820 4 -1124 12 -1619 39 -2270 62
-1476 168 -2575 295 -3055 37 -139 67 -207 119 -270 53 -62 133 -226 160 -325
175 -640 21 -1882 -315 -2553 -66 -131 -108 -188 -231 -312 -257 -260 -387
-556 -448 -1017 -17 -133 -35 -490 -35 -709 l0 -146 68 -30 c289 -129 664
-221 1089 -269 304 -34 1045 -28 1266 11 259 45 527 175 817 394 136 103 159
121 461 382 255 219 367 308 494 391 293 194 435 441 555 968 102 447 134 562
208 725 24 55 56 143 70 195 24 87 26 112 26 300 0 164 -5 233 -22 345 -65
407 -66 415 -66 615 0 178 2 203 26 291 14 53 43 131 63 174 119 255 183 816
216 1905 13 433 7 1967 -10 2405 -25 634 -56 1121 -85 1320 -45 306 -57 887
-63 2940 -7 2406 17 5173 67 7895 23 1216 39 1687 61 1790 37 174 102 144 224
-105 296 -603 443 -1235 530 -2270 14 -168 40 -574 65 -990 38 -651 84 -1127
140 -1465 34 -203 84 -1023 330 -5465 249 -4495 321 -5729 376 -6453 3 -42 21
-133 40 -202 57 -211 102 -451 243 -1295 153 -917 243 -1304 350 -1500 105
-193 152 -386 201 -830 51 -457 109 -655 251 -860 81 -117 452 -472 729 -697
637 -516 1280 -814 1930 -892 220 -27 473 -38 970 -43 504 -5 547 -3 715 38
164 40 221 66 275 127 136 153 198 369 187 656 -9 236 -64 444 -173 658 -79
153 -151 246 -291 371 -241 216 -425 451 -541 689 -157 324 -191 649 -97 949
121 385 160 961 185 2724 6 391 15 779 20 863 6 85 8 157 6 161 -3 4 -14 99
-25 211 -97 961 -276 4219 -371 6715 -55 1449 -74 2290 -67 2976 4 458 7 535
23 609 17 77 18 141 18 665 1 656 -14 1077 -80 2265 -173 3163 -612 8513 -869
10620 -36 294 -89 632 -105 675 -42 110 -42 1590 0 2590 26 610 64 1156 106
1495 19 155 53 360 62 377 4 7 49 -155 100 -360 681 -2746 955 -3839 1208
-4817 367 -1414 656 -2453 841 -3019 11 -34 25 -56 38 -61 11 -4 99 -10 195
-14 96 -4 201 -9 233 -13 l57 -6 0 -96 c0 -167 -43 -280 -218 -568 -192 -317
-211 -378 -247 -773 -70 -781 -19 -1408 155 -1914 47 -136 77 -193 125 -235
120 -105 285 12 415 292 41 90 91 244 111 342 17 85 15 227 -5 313 -20 90 -21
172 -2 197 13 18 17 18 40 5 33 -17 79 -85 107 -159 30 -77 36 -211 15 -334
-65 -385 -275 -670 -726 -991 -150 -107 -216 -167 -241 -221 -24 -51 -24 -69
2 -121 81 -168 601 -260 918 -162 128 39 343 158 511 281 121 89 316 286 398
402 177 250 294 540 357 879 35 192 45 297 52 531 11 407 -17 684 -186 1830
-37 252 -84 626 -78 631 1 1 114 9 252 18 137 10 252 19 254 22 20 19 -313
3001 -515 4619 -743 5965 -1492 9832 -2169 11210 -138 281 -257 441 -378 508
-175 98 -971 505 -2447 1252 -1492 756 -2323 1184 -2610 1346 l-105 59 -17
118 c-9 64 -46 241 -82 392 -82 346 -96 424 -103 585 -4 109 -2 147 16 235
104 510 276 787 586 943 39 19 89 40 112 47 40 12 44 17 74 88 35 85 72 240
91 387 15 116 18 608 5 925 l-9 205 69 19 c106 29 565 182 609 203 l39 18 7
105 c4 58 4 150 1 206 l-6 101 -174 23 -174 24 5 30 c32 179 41 599 17 791
-29 238 -98 514 -177 718 -243 620 -802 1293 -1285 1546 -108 57 -247 106
-332 116 l-57 7 0 129 0 129 -1120 0 -1120 0 0 -130z"/>
</g>
</svg>
