
<svg width="44px" height="44px" viewBox="0 0 44 44" version="1.1" xmlns="http://www.w3.org/2000/svg" xmlns:xlink="http://www.w3.org/1999/xlink">
    <!-- Generator: Sketch 50.2 (55047) - http://www.bohemiancoding.com/sketch -->
    <desc>Created with Sketch.</desc>
    <defs></defs>
    <g id="Social-Icons" stroke="none" stroke-width="1" fill="none" fill-rule="evenodd">
        <g id="social-icons" transform="translate(-40.000000, -100.000000)">
            <rect id="Rectangle" x="40" y="100" width="44" height="44"></rect>
            <path d="M49.8246822,115.755865 C49.1486872,114.618964 47.9797201,113.495098 47.1360192,113.170936 L47,113.118675 L47,112.571268 L47,112.023861 L47.0870442,112.01193 L54.7484051,112 C54.7529266,112.208486 54.7573145,112.642949 54.7512692,113.050631 C53.7380861,113.176568 52.51679,113.671768 52.8552214,114.80752 C54.7868016,119.075206 56.5444188,123.419624 58.4513954,127.698083 L61.7245279,121.577629 C60.4579702,118.983296 59.5352732,116.358842 58.1487959,113.813631 C57.6967489,113.080715 56.4742932,113.060266 55.6084993,113.031936 L55.6114234,112.018761 L62.8532742,112.043709 L62.8740767,113.022081 C62.2212404,113.112314 61.4516844,113.267445 61.5389522,114.058637 L63.5943444,118.604437 C64.2707704,117.161446 65.0225908,115.749064 65.6191446,114.270114 C65.8899524,113.099137 64.5725755,113.0409 63.7324074,113.008294 L63.7176519,112.043687 L70.1889301,112.018761 L70.1889301,113.005587 C69.2429818,113.072449 68.348145,113.345278 67.8264447,114.044628 C66.5582549,116.005128 65.6175421,118.229726 64.6297716,120.359148 C65.6057363,122.66705 66.6229226,124.971774 67.6204578,127.087913 L73.1359046,114.365872 C72.7638318,113.527278 71.9212353,113.231065 71.0941621,113.039199 L71.0519507,112.012866 L77.1681248,112.06213 L77.167998,113.060012 C76.8954768,113.1024 76.6345694,113.186434 76.3822345,113.296535 C75.9040029,113.518492 75.4522533,113.95902 75.1492437,114.498893 L67.5469129,131.990133 L66.2729187,132 L62.6562809,123.482072 L58.2661435,131.999357 L56.9480902,131.999516 C54.3831421,126.656718 52.5274385,121.034351 49.8246822,115.755865 Z" id="path1873-path" fill="#ffffff"></path>
        </g>
    </g>
</svg>