<?xml version="1.0" encoding="utf-8"?>
<!-- Generator: Adobe Illustrator 21.1.0, SVG Export Plug-In . SVG Version: 6.00 Build 0)  -->
<svg version="1.1" id="Laag_1" xmlns="http://www.w3.org/2000/svg" xmlns:xlink="http://www.w3.org/1999/xlink" x="0px" y="0px"
	 viewBox="0 0 40 40" style="enable-background:new 0 0 40 40;" xml:space="preserve">
<style type="text/css">
	.st0{fill:#439347;}
</style>
<g>
	<path class="st0" d="M34,4.8c-0.1,0.5-0.1,0.9-0.2,1.4c-0.3,2.4-0.9,4.7-2.4,6.7c-1.6,2.1-3.7,3.2-6.3,3.2c-1.2,0-2.4-0.2-3.8-0.2
		c-0.2,0.7-0.4,1.4-0.5,2.2c-0.2,1.2-0.3,2.4-0.5,3.5c0,0.4-0.1,0.6-0.6,0.6c-0.4,0-0.5-0.3-0.5-0.6c0-1.4-0.1-2.8-0.5-4.2
		c-0.1-0.4-0.3-0.9-0.5-1.3c-0.1-0.3-0.3-0.3-0.5-0.2c-0.9,0.3-1.7,0.6-2.6,0.7c-1.9,0.3-3.6-0.4-4.9-1.9C8.7,13,8,10.9,7.5,8.7
		C7.4,8.4,7.5,8.2,7.8,8.1c2.4-0.5,4.8-0.8,7.1,0.4c2.1,1,3.3,2.9,3.8,5.1c0.1,0.4,0.1,0.7,0.2,1.1c0.1,0.5,0.3,1,0.5,1.5
		c0.1,0.3,0.3,0.7,0.4,1.2c0.1-0.3,0.1-0.6,0.2-0.7c0.5-1,0.3-2.1,0.3-3.2c-0.1-4.2,1.7-8.3,6.5-10.2c2-0.8,4.2-1,6.4-1.1
		c0.3,0,0.5,0.2,0.7,0.4C34,3.2,34,4,34,4.8z M21.3,13.2c0.1,0,0.1,0,0.2,0c0.1-0.1,0.2-0.2,0.2-0.4c1.6-2.6,3.6-4.7,6.1-6.4
		c0.4-0.2,0.7-0.2,0.8,0.1c0.2,0.4,0,0.6-0.3,0.8c-2.2,1.4-3.9,3.3-5.4,5.4c-0.4,0.6-0.8,1.3-1.2,2c0.2,0.1,0.3,0.1,0.3,0.1
		c0.6,0.1,1.2,0.2,1.8,0.2c3.2,0.3,5.8-1,7.3-3.9c1.1-2.1,1.5-4.4,1.7-6.8c0-0.4,0-0.9,0-1.3c-0.2,0-0.4,0-0.5,0
		c-1.4,0.2-2.8,0.3-4.2,0.7c-3.4,1-5.7,3.1-6.5,6.6C21.5,11.3,21.5,12.2,21.3,13.2z M17.5,14.9c-0.5-0.5-1-0.9-1.6-1.3
		c-0.8-0.5-1.6-0.9-2.4-1.3c-0.3-0.2-0.5-0.3-0.4-0.7c0.1-0.4,0.4-0.4,0.8-0.3c0.2,0.1,0.3,0.1,0.5,0.2c1,0.6,1.9,1.2,2.9,1.8
		c0.1,0.1,0.2,0.2,0.4,0.3c0-0.2,0-0.2,0-0.3c-0.4-1.2-1-2.3-1.9-3.2c-1.2-1-2.6-1.5-4.1-1.5c-1,0-2.1,0.1-3.2,0.2
		c0.7,2.4,1.5,4.5,3.5,6C13.5,16,15.7,15.9,17.5,14.9z"/>
</g>
<g>
	<path class="st0" d="M26.9,21.8h3.7v9.8c0,0.9-0.2,1.7-0.5,2.4s-0.8,1.4-1.3,1.9c-0.6,0.5-1.2,1-2,1.3c-0.7,0.3-1.5,0.5-2.4,0.5
		c-0.8,0-1.6-0.2-2.3-0.5c-0.7-0.3-1.4-0.7-2-1.3c-0.6,0.5-1.2,1-2,1.3c-0.7,0.3-1.5,0.5-2.3,0.5s-1.6-0.2-2.4-0.5
		c-0.7-0.3-1.4-0.8-2-1.3c-0.6-0.6-1-1.2-1.3-2c-0.3-0.7-0.5-1.5-0.5-2.4v-9.8h3.7v9.8c0,0.4,0.1,0.7,0.2,1c0.1,0.3,0.3,0.6,0.5,0.8
		c0.2,0.2,0.5,0.4,0.8,0.5c0.3,0.1,0.6,0.2,0.9,0.2c0.3,0,0.7-0.1,1-0.2c0.3-0.1,0.6-0.3,0.8-0.5c0.2-0.2,0.4-0.5,0.5-0.8
		c0.1-0.3,0.2-0.6,0.2-0.9v-9.8h3.7v9.8c0,0.4,0.1,0.7,0.2,1c0.1,0.3,0.3,0.6,0.5,0.8c0.2,0.2,0.5,0.4,0.8,0.5
		c0.3,0.1,0.6,0.2,0.9,0.2c0.3,0,0.7-0.1,1-0.2c0.3-0.1,0.6-0.3,0.8-0.5c0.2-0.2,0.4-0.5,0.5-0.8c0.1-0.3,0.2-0.6,0.2-1V21.8z"/>
</g>
</svg>
