<svg id="Layer_1" data-name="Layer 1" xmlns="http://www.w3.org/2000/svg" viewBox="0 0 380.19 380.19"><defs><style>.cls-1{fill:#fefefe;}.cls-2{fill:#5f291f;}.cls-3{fill:#a7645e;}.cls-4{fill:#865043;}.cls-5{fill:#95524c;}.cls-6{fill:#612c22;}.cls-7{fill:#80493c;}.cls-8{fill:#653026;}.cls-9{fill:#794134;}.cls-10{fill:#703c32;}.cls-11{fill:#bddbbc;}.cls-12{fill:#a9b398;}.cls-13{fill:#7d4538;}.cls-14{fill:#966a68;}.cls-15{fill:#e5ebce;}.cls-16{fill:#a9cfa5;}</style></defs><title>adele</title><path class="cls-1" d="M381,191.5q0,92.75.1,185.5c0,3.42-.67,4.1-4.1,4.1q-186-.17-372,0c-3.42,0-4.1-.67-4.1-4.1Q1.07,191,.9,5C.9,1.58,1.58.9,5,.9q186,.17,372,0c3.42,0,4.1.67,4.1,4.1Q380.9,98.25,381,191.5ZM289,117c-1.21-1.19-1.88-3.07-4-3.1-4-5.26-9.57-8.47-15-11.9-9.5-7.7-20.09-13.61-31-19-1.11-2-3-2.07-5-2.11L233,80a3.67,3.67,0,0,0-4-1.87L227,77a3,3,0,0,0-3-1.73l-3-.37c-3.6-3.3-8.44-4.45-12.75-5.29C202.63,68.5,196.14,66.88,191,72l-1,0a53.75,53.75,0,0,0-5-5.5c-3.18-2.67-6.88-1.8-10.39-.72-3.36,1-3.74,3.79-3.6,6.83.12,2.49,0,5,0,7.48a13.5,13.5,0,0,0-8.56,1.8c-12.12,6.47-24.67,12.06-36.56,19a233.37,233.37,0,0,0-43.14,31.92C72.57,142.49,63.08,152.69,56.2,165a80,80,0,0,0-8.76,20.51C45,194.69,43.06,204,43.87,213.76c.79,9.55-1,19.27,1.53,28.74,1.58,5.82,3.22,11.62,4.83,17.42,1.83,6.32,4.94,12,8.11,17.77a141,141,0,0,0,21.12,29.49c2.46,2.59,4.79,2.58,7.41,1.46,17-7.27,34.9-10.15,53.11-11.77,11.7,1,23.43-.77,35.21,1.7,10.53,2.21,21.07,4.21,31.33,7.49a107.45,107.45,0,0,1,11,4c6.24,2.78,12.07,6.46,18.53,8.79,7.05-1.22,14.22-1.06,21.27-3.24,4.21-1.3,8.67-2.43,13.05-3.43,11.64-2.67,22-7.9,31.7-14.64a87.12,87.12,0,0,0,17-15.6,77.73,77.73,0,0,0,15.85-30.81,128.54,128.54,0,0,0,3.49-20.65c1.16-12.91,1.46-25.86-2.2-38.54l-.32-1.94c.16-.69-.27-.94-.82-1.12l-.18-3.88c.16-.69-.27-.94-.82-1.11l-.18-1.88c.21-.71-.26-1-.79-1.18l-.25-1.82c-.8-5.76-4.14-10.41-6.48-15.53C319.74,149.07,310,137.14,299,126a52.46,52.46,0,0,0-8.74-8.24Z" transform="translate(-0.9 -0.9)"/><path class="cls-2" d="M336.18,191.92c3.66,12.68,3.36,25.62,2.2,38.54a128.54,128.54,0,0,1-3.49,20.65A77.73,77.73,0,0,1,319,281.91a87.12,87.12,0,0,1-17,15.6c-9.72,6.74-20.06,12-31.7,14.64-4.38,1-8.84,2.13-13.05,3.43-7,2.18-14.22,2-21.27,3.24,6.5-7.94,13.66-15.39,18.12-24.82,1.38-.12,1.86-.94,1.73-2.23,2.23-4.52,2.33-9.94,5.89-13.9,1.17.53,2.08,3.22,3.64.38.6-1.09,2.28-2.29,1.1-3.33-1.73-1.53-2.12,1.07-3.2,1.68a6.15,6.15,0,0,1-1.39.41l1.08-6c4,1.42,6.54.43,8.78-3.49,1.08-1.89,2.35-3.37,2.2-5.65a4.82,4.82,0,0,1,4.71-5.45c6.87.06,6.93-8.46,12.86-9.75.66-.14-1.1-7.15,4.89-6.42A8.52,8.52,0,0,0,297,238c.13-1.16.76-2,1.83-2,5.75.06,5.72-6.36,9.77-8.81,3.37-2,6.25-6.6,8.93-10.35s6.58-3.53,10.16-3.3c5.68.37,9-3.45,8.74-9.2C336.26,200.22,333.15,196.08,336.18,191.92Z" transform="translate(-0.9 -0.9)"/><path class="cls-3" d="M261.79,277.87c-3.56,4-3.66,9.38-5.89,13.9-1.11.33-1.86.94-1.73,2.23-4.46,9.43-11.62,16.88-18.12,24.82-6.46-2.33-12.29-6-18.53-8.79a107.45,107.45,0,0,0-11-4c-10.25-3.29-20.79-5.29-31.33-7.49-11.78-2.47-23.51-.73-35.21-1.7,0-.16.07-.38,0-.49-2.8-3.63-4.6-7.25,0-10.88,18.36-1.52,36.49-.36,54.34,4.46,11.07,3,21.81,6.72,31.61,12.83,2.16,1.34,4.3,1.58,6.27-.48a74.09,74.09,0,0,0,18.64-34.5,96.27,96.27,0,0,0,.52-42.92q-8.15-39.11-42.26-58.57c-15.2-8.65-32.08-12.14-49.61-12.45-11.37-.21-22.46,1.64-33.54,3.77L129,145l18-4c8.56.34,17.1-.14,25.7.73,6.57.66,12.6,4.09,19.34,3.22,4.06,1.37,8.09,2.88,12.2,4.08,7.43,2.18,13.18,7.31,19.76,11l16.9,15c3.29,5.89,8,10.78,11.47,16.6,3,5,3.88,10.88,7.67,15.36a161.36,161.36,0,0,0,4.91,19c.56,4.61.92,9.22,1.14,13.87.5,10.56-1.2,20.84-3.06,31.13l-1.08,6Q261.88,277.44,261.79,277.87Z" transform="translate(-0.9 -0.9)"/><path class="cls-4" d="M147,141l-18,4c-13.77,1.93-26.05,7.87-37.64,15-8.37,5.16-16.46,11-22.3,19.32-.93,1.32-2.09,2.63-4,2.71q-2.87-6.23-5.73-12.47c-.79-1.7-.59-4.09-3.16-4.55,6.88-12.33,16.37-22.53,26.51-32.16a233.37,233.37,0,0,1,43.14-31.92c11.89-7,24.44-12.56,36.56-19A13.5,13.5,0,0,1,171,80.1c.71,4.11,2.5,7.3,7,8.21,0,2.9,2,3.6,4.22,3.62a11.34,11.34,0,0,0,10-5c3-.59,6-1.41,5.73-5.36-.2-2.79-2-4-4.77-3.56-.15-2.22.25-4.62-2.14-6,5.13-5.1,11.63-3.48,17.28-2.37,4.3.84,9.15,2,12.75,5.29.35,1.94,1.36,4-1.86,4.73-.84.18-2.66,1.34-.59,2.74-4.88,3.25-7.57,7.58-6.7,13.65-3.41-.47-.62-4.28-3.24-5.62-1.15,2.23-.37,4.55-.69,6.7-3.83-3.82-1.75-7.7-.17-11.63.89-2.22,3.3-5.42,1.43-6.7-2.84-1.93-4.16,2.08-5.93,3.75-6.49,6.13-13.18,11.57-23,10.56-3.79-.39-7.53-.25-10.94-2.52-1.64-1.09-4.24-1.33-5.61.11-1.53,1.61.18,3.52,1.37,4.75,2.08,2.16,2.73,5,3.72,7.53,3.2,8.27-1.69,18.58-10,21.59C146.9,128.87,135,123.14,131,111c-1.14-3.49-3-3.67-5.56-1.86-3.79,2.68-7.57,5.38-11.15,8.32-7.05,5.78-14.43,11.24-20.18,18.42-1,1.26-3,2.73-1.62,4.8s3.47,1.51,5.42.91c6-1.84,11.85-4.07,17.92-5.47,16.92-3.92,34.14-4.66,51.44-4,1.3,0,2.71-.26,3.68,1-1.94,1.45-5.15.79-6.11,4.13-.29,1-3.43,1.51-3.31-.4.23-3.67-2.06-2.41-3.76-2.81C151.72,132.55,150.4,138.38,147,141Zm13-36c-.63-3.06-1.6-5.9-4.78-7.28-3.66-4.09-8.09-3.16-12.1-1.19a10,10,0,0,0-5.61,10.26c.42,4.17,2.33,8,7.37,8.61,2.37,3.24,5.77.73,8.57,1.54a19.31,19.31,0,0,0,8.43-2.16c2.23-1.13,5.29-2.05,4.62-4.84A6.25,6.25,0,0,0,160,105Z" transform="translate(-0.9 -0.9)"/><path class="cls-5" d="M65.1,182c1.88-.08,3-1.39,4-2.71C74.9,171,83,165.16,91.36,160c11.59-7.14,23.87-13.07,37.64-15L126,157.64l-1.05,1.21a18.39,18.39,0,0,0-4.41.63c-11.21,4.52-22,9.84-31.21,17.85-13.39,11.62-23.14,25.75-27,43.11-3.55,16.07-.82,32.14,2.5,48,.45,2.15,1.72,3.52,3.08,5,2.61,2.78,5.06,5.64,6.54,9.27,2.36,5.77,8,8.68,11.87,13.13,1.33,1.52,2.61.53,4,.07,11.18-3.57,22.28-7.44,34.18-8.18,2.9-.18,6-.6,8.54-2.34,2.3,1.34,4.63-.25,6.95.08-4.61,3.63-2.8,7.25,0,10.88.08.1,0,.32,0,.49-18.21,1.63-36.14,4.5-53.11,11.77-2.62,1.12-5,1.13-7.41-1.46a141,141,0,0,1-21.12-29.49c-3.17-5.76-6.28-11.45-8.11-17.77,3.66-3.94-.23-7.74-.21-11.61,0-9.28-.46-18.59.13-27.83.54-8.41,4-16.13,7.51-23.8C59.92,191.67,64.43,187.83,65.1,182Z" transform="translate(-0.9 -0.9)"/><path class="cls-6" d="M263,271c1.86-10.29,3.55-20.57,3.06-31.13-.22-4.65-.58-9.26-1.14-13.87,2.68.12,5.15,0,5.09-3.7,0-1,.24-2.21,1.55-2.09,5.79.55,8.52-4,11.94-7.21,7.88-7.31,15.6-14.88,22.94-22.67,5.08-5.39,12.42-9,15-16.77.52-1.57,2.35-4.06,4.34-1.31s5.05,4.15,7.05,6.76l.25,1.82L333,182l-.2.45.26-.4.84,0,.18,1.88.82,1.11.18,3.88.82,1.12.32,1.94c-3,4.16.09,8.3.28,12.39.27,5.75-3.06,9.57-8.74,9.2-3.59-.23-7.5-.43-10.16,3.3s-5.56,8.3-8.93,10.35c-4,2.45-4,8.87-9.77,8.81-1.08,0-1.7.85-1.83,2a8.52,8.52,0,0,1-.56,2.26c-6-.73-4.23,6.28-4.89,6.42-5.93,1.29-6,9.81-12.86,9.75a4.82,4.82,0,0,0-4.71,5.45c.15,2.28-1.12,3.76-2.2,5.65C269.56,271.43,267,272.42,263,271Z" transform="translate(-0.9 -0.9)"/><path class="cls-7" d="M207.94,97.08c.32-2.15-.46-4.47.69-6.7,2.62,1.35-.17,5.16,3.24,5.62,1.16,2.79,2.28,5.61,5.71,6.36,3.51,4,7.3,1.7,11,.49.61.26,1.2.58,1.83.78a8.94,8.94,0,0,0,10-2.56c2.08-2.62-1.67-4.83-2.92-7.19-.15-.29-.33-.57-.49-.86.3-2.85-1.58-3.63-3.84-4l-.26-1.67-1.16-1.23-1.59-.25-1.14-2c-.3-1.13-.17-2.91-2.19-1.45l-8.23,0c-2.07-1.4-.24-2.56.59-2.74,3.23-.71,2.21-2.79,1.86-4.73l3,.37c.23,1.91,1.67,1.74,3,1.73l2,1.12c.83,1.71,2.32,2,4,1.87l1,.88c-.83,6.58,3.36,1.31,5,2.11,10.93,5.36,21.52,11.28,31,19l-.24.16c-3.32-1.46-6-.35-8.46,2C248.44,116.28,235.07,128,223,141c-3.46-.08-6.83.81-10.24,1.16-6.92.71-14,.79-20.73,2.81-6.74.87-12.77-2.56-19.34-3.22-8.6-.87-17.14-.39-25.7-.73,3.41-2.64,4.72-8.47,10.83-7,1.7.39,4-.86,3.76,2.81-.12,1.91,3,1.43,3.31.4,1-3.35,4.17-2.68,6.11-4.13l3.92.91A1.78,1.78,0,0,0,177,132c2-2.52,1.81-5.52,2-8.51,1-12.13,12.67-22.66,25.35-18.47,4.14,1.37,7.34,4.32,10.53,7.12,1.52,1.34,3.05,2.78,4.57,1,1.36-1.6-.8-3-1.71-4.21-.52-.71-1.72-.9-2.51-1.46C211.6,104.92,207.83,102.37,207.94,97.08Zm-5.82,13.81-1.09-1a1.06,1.06,0,0,0-.64-.24c-.73-1.58-2-1.74-3.49-1.35l-2.78.1a2.13,2.13,0,0,0-2.56,1.15c-5.46,3.32-7.59,6.94-6.36,12,.95,3.95,2.8,7.48,7.73,7.65,2.1,3.11,4.75,1.12,7.22.78,3,1.54,5.59-.08,8.36-.91,3.71-1.12,4.76-3.56,2.44-6.57-.87-1.14-1.81-2.38-3.48-2.49-1.11-3.46-.68-7.81-5.34-9.21Z" transform="translate(-0.9 -0.9)"/><path class="cls-8" d="M332.82,179c-2-2.6-5.07-4-7.05-6.76s-3.82-.26-4.34,1.31c-2.56,7.79-9.91,11.38-15,16.77-7.34,7.79-15.05,15.36-22.94,22.67-3.42,3.17-6.15,7.76-11.94,7.21-1.31-.12-1.56,1.05-1.55,2.09.06,3.68-2.41,3.82-5.09,3.7A161.31,161.31,0,0,1,260,207c6-.47,7.52-6.12,10.55-9.64a105.52,105.52,0,0,0,18.65-31.42c2.87-7.57,6.33-15.23,6.58-23.43.17-5.44,2.84-10.5,1.86-16A6.45,6.45,0,0,1,299,126c11,11.13,20.77,23.07,27.36,37.47C328.69,168.6,332,173.25,332.82,179Z" transform="translate(-0.9 -0.9)"/><path class="cls-9" d="M299,126a6.45,6.45,0,0,0-1.3.51c1,5.5-1.69,10.56-1.86,16-.26,8.2-3.71,15.86-6.58,23.43a105.52,105.52,0,0,1-18.65,31.42c-3,3.53-4.58,9.17-10.55,9.64-3.8-4.48-4.71-10.39-7.67-15.36-3.47-5.82-8.17-10.71-11.47-16.6,1.3-.62,2.55-1.66,1.86-3.05-1.65-3.3.58-4.91,2.48-6.72,5.26-5,10.91-9.6,15.74-15,7.31-8.12,15.77-15,23.42-22.71,2.5-2.52,7.74-4.09,5.55-9.56l.29-.27A52.57,52.57,0,0,1,299,126Z" transform="translate(-0.9 -0.9)"/><path class="cls-10" d="M65.1,182c-.67,5.79-5.18,9.64-7.45,14.65-3.47,7.67-7,15.39-7.51,23.8-.6,9.24-.1,18.55-.13,27.83,0,3.87,3.88,7.67.21,11.61-1.61-5.81-3.25-11.61-4.83-17.42-2.57-9.47-.74-19.18-1.53-28.74-.81-9.72,1.16-19.07,3.57-28.23A80,80,0,0,1,56.2,165c2.57.46,2.38,2.85,3.16,4.55Q62.24,175.8,65.1,182Z" transform="translate(-0.9 -0.9)"/><path class="cls-11" d="M177.93,88.31c-4.48-.91-6.26-4.1-7-8.21,0-2.49.11-5,0-7.48-.14-3,.24-5.8,3.6-6.83,3.51-1.08,7.21-2,10.39.72a53.77,53.77,0,0,1,5,5.5c-3.78.53-4.17,3.23-4,6.27.22,3.69-.35,6.72-5.06,6.77C178.9,85.07,178.05,86.41,177.93,88.31Z" transform="translate(-0.9 -0.9)"/><path class="cls-12" d="M177.93,88.31c.12-1.9,1-3.24,3-3.26,4.71-.06,5.27-3.09,5.06-6.77-.18-3,.21-5.74,4-6.27l1,0c2.38,1.42,2,3.83,2.14,6l-1,8.92a11.34,11.34,0,0,1-10,5C179.91,91.91,177.89,91.22,177.93,88.31Z" transform="translate(-0.9 -0.9)"/><path class="cls-4" d="M270.05,102c5.42,3.43,11,6.65,15,11.9L285,115c-3.38-1.93-6.17-4.67-9.43-6.8-2.11-1.38-5.58-2.42-5.73-6Z" transform="translate(-0.9 -0.9)"/><path class="cls-4" d="M239,83c-1.62-.8-5.81,4.47-5-2.11C236,80.92,237.93,81,239,83Z" transform="translate(-0.9 -0.9)"/><path class="cls-9" d="M285,115l.07-1.09c2.11,0,2.78,1.91,4,3.1l-.08.11C287.39,116.82,285.26,117.61,285,115Z" transform="translate(-0.9 -0.9)"/><path class="cls-4" d="M233,80c-1.69.13-3.18-.16-4-1.87A3.67,3.67,0,0,1,233,80Z" transform="translate(-0.9 -0.9)"/><path class="cls-4" d="M227,77c-1.34,0-2.78.18-3-1.73A3,3,0,0,1,227,77Z" transform="translate(-0.9 -0.9)"/><path class="cls-2" d="M335.86,190l-.82-1.12C335.59,189,336,189.3,335.86,190Z" transform="translate(-0.9 -0.9)"/><path class="cls-9" d="M289,117l1.2.8-.29.27-1-1Z" transform="translate(-0.9 -0.9)"/><path class="cls-2" d="M333.86,182l-.84,0L333,182l.1-1.15C333.6,181,334.07,181.29,333.86,182Z" transform="translate(-0.9 -0.9)"/><path class="cls-2" d="M334.86,185l-.82-1.11C334.59,184,335,184.3,334.86,185Z" transform="translate(-0.9 -0.9)"/><path class="cls-6" d="M261.79,277.87q.09-.43.15-.86a6.15,6.15,0,0,0,1.39-.41c1.08-.61,1.47-3.21,3.2-1.68,1.18,1-.51,2.24-1.1,3.33C263.88,281.09,263,278.4,261.79,277.87Z" transform="translate(-0.9 -0.9)"/><path class="cls-6" d="M254.17,294c-.13-1.29.63-1.9,1.73-2.23C256,293.06,255.55,293.88,254.17,294Z" transform="translate(-0.9 -0.9)"/><path class="cls-11" d="M140,285.5c-2.31-.33-4.65,1.26-6.95-.08C126.47,270.91,121.29,256,120,240c1.69-4.08-.31-7.49-2-11-.55-4.48-1.8-9-1.53-13.44.83-13.85,1.65-27.69,5-41.32a154.91,154.91,0,0,0,3.41-15.41l1.05-1.21c11.08-2.14,22.17-4,33.54-3.77,17.53.32,34.41,3.8,49.61,12.45q34.18,19.47,42.26,58.57a96.27,96.27,0,0,1-.52,42.92,74.09,74.09,0,0,1-18.64,34.5c-2,2.06-4.12,1.82-6.27.48-9.8-6.11-20.54-9.84-31.61-12.83C176.46,285.14,158.33,284,140,285.5ZM165.5,161a27.83,27.83,0,0,0-9.38,1c-1,.31-2.72-.31-2.58,1.46.1,1.36,1.65,1.27,2.72,1.7,7.7,3.08,16,2.52,23.94,3.85,1.35.23,2.78,0,3.41-1.47.78-1.79-.4-2.73-1.77-3.57C176.76,160.79,171,161.43,165.5,161Zm-2.71,25c-3.14,0-5.3,0-7.46,0-1.1,0-2.57-.34-3,1.12-.52,1.84,1.2,2.21,2.34,2.6,9.58,3.21,19.64,2.11,29.46,3.18a2,2,0,0,0,2.32-1.48c.26-1.54-1.24-2.06-2.25-2.12C176.66,188.81,169.6,184.88,162.79,186Zm-17.07,59.06c-2.33,0-4.79-.49-7,.11-3.2.89-6.19,2.55-9.26,3.88,1.66,3.79,5.31,1.77,7.9,2.38,6.53,1.53,13.09-.29,19.57-1.49,1.15-.21,2.86-.78,2.74-2.45-.14-2-1.95-1.24-3.13-1.53A34.16,34.16,0,0,0,145.72,245.06ZM166.56,264c2.59.48,5-.39,7.38-1,1.52-.38,3.83-.27,3.49-2.55-.26-1.7-2.05-2.45-3.9-2.45-7.26,0-14.53,0-21.79,0-1,0-2.18-.06-2.42,1.2-.33,1.68,1.22,1.65,2.21,2.09C156.32,263.42,161.56,263.14,166.56,264Zm-14.8,5.94c-4,.2-7-.33-9.9,1-1.82.82-2.71,1.92-.49,3,5.45,2.55,11.09,3.19,16.76.53.89-.42,1.87-.89,1.62-2.16a2.39,2.39,0,0,0-2.17-1.79C155.32,270.08,153,270,151.76,269.93Zm-.26-90.83V179c1.82,0,3.64,0,5.45,0,1.42-.05,2.68-.56,2.83-2.18s-1.3-1.67-2.34-2c-4.19-1.42-8.51-.53-12.78-.64a2,2,0,0,0-2.22,1.6,2.55,2.55,0,0,0,2.17,2.88A53.33,53.33,0,0,0,151.5,179.11ZM183.19,200c-2.28,0-3.44,0-4.59,0s-2.13.07-2.33,1.3a2,2,0,0,0,1.87,2.45c4.68.1,9.08,3.06,13.95,1.27,1-.38,2.55,0,2.7-1.49s-1-2.32-2.48-2.49C188.9,200.67,185.48,200.29,183.19,200Zm-5-24.07c-1.7.56-5.09.61-4.71,2.31.74,3.29,4.7,2.76,7.37,3.56,1.68.5,2.22-1,2.12-2.51C182.77,176.33,180.45,176.28,178.17,176Z" transform="translate(-0.9 -0.9)"/><path class="cls-13" d="M289,117.07l1,1c2.19,5.47-3,7-5.55,9.56-7.65,7.72-16.11,14.59-23.42,22.71-4.83,5.36-10.49,10-15.74,15-1.9,1.8-4.13,3.42-2.48,6.72.69,1.39-.56,2.43-1.86,3.05L224,160c-.53-6.33,1.15-12.77-1-19,12.07-13,25.45-24.73,38.36-36.89,2.49-2.35,5.14-3.46,8.46-2,.15,3.62,3.61,4.65,5.73,6,3.26,2.14,6.05,4.88,9.43,6.8C285.26,117.61,287.39,116.82,289,117.07Zm-61.73,28.56a3,3,0,0,0,2.3-2.22c.22-1-.66-1.31-1.53-1.3a1.68,1.68,0,0,0-1.89,1.71C226.06,144.66,226.18,145.42,227.22,145.63Zm40.5-38.21-.36.83c.28.12.61.39.82.31s.26-.51.38-.79Z" transform="translate(-0.9 -0.9)"/><path class="cls-10" d="M223,141c2.15,6.24.47,12.68,1,19-6.59-3.65-12.34-8.78-19.76-11-4.11-1.2-8.14-2.71-12.2-4.08,6.76-2,13.8-2.1,20.73-2.81C216.17,141.82,219.54,140.93,223,141Z" transform="translate(-0.9 -0.9)"/><path class="cls-14" d="M174.92,133.95,171,133c-1-1.27-2.37-1-3.68-1-17.3-.62-34.52.12-51.44,4-6.07,1.41-11.95,3.64-17.92,5.47-2,.6-4.05,1.16-5.42-.91s.6-3.54,1.62-4.8c5.75-7.18,13.13-12.64,20.18-18.42,3.58-2.94,7.37-5.64,11.15-8.32,2.55-1.8,4.42-1.62,5.56,1.86,4,12.19,15.85,17.92,27.77,13.59,8.28-3,13.17-13.32,10-21.59-1-2.57-1.65-5.37-3.72-7.53-1.19-1.24-2.9-3.15-1.37-4.75,1.38-1.44,4-1.21,5.61-.11,3.41,2.27,7.15,2.13,10.94,2.52,9.84,1,16.53-4.43,23-10.56,1.77-1.67,3.1-5.69,5.93-3.75,1.87,1.27-.54,4.48-1.43,6.7-1.58,3.92-3.66,7.8.17,11.63-.12,5.28,3.66,7.84,7.35,10.43.8.56,2,.74,2.51,1.46.91,1.25,3.07,2.61,1.71,4.21-1.52,1.78-3,.34-4.57-1-3.19-2.8-6.39-5.75-10.53-7.12-12.69-4.19-24.4,6.34-25.35,18.47-.24,3,0,6-2,8.5A1.87,1.87,0,0,0,174.92,133.95Z" transform="translate(-0.9 -0.9)"/><path class="cls-11" d="M229,83.84l1.14,2a24,24,0,0,0-1.12,3.7c-1,7-4.63,11.18-11.44,12.83-3.43-.75-4.55-3.57-5.71-6.36-.86-6.07,1.82-10.4,6.7-13.65l8.24,0A2,2,0,0,0,229,83.84Z" transform="translate(-0.9 -0.9)"/><path class="cls-11" d="M144.89,115.4c-5-.65-6.95-4.44-7.37-8.61a10,10,0,0,1,5.61-10.26c4-2,8.44-2.9,12.1,1.19a16.19,16.19,0,0,1-3.73,11.92C149.7,111.88,147.12,113.5,144.89,115.4Z" transform="translate(-0.9 -0.9)"/><path class="cls-12" d="M144.89,115.4c2.23-1.9,4.82-3.52,6.6-5.77a16.19,16.19,0,0,0,3.73-11.92c3.18,1.39,4.15,4.22,4.78,7.28-.32,5-3,8.72-6.54,11.94C150.66,116.13,147.25,118.64,144.89,115.4Z" transform="translate(-0.9 -0.9)"/><path class="cls-10" d="M153.46,116.94C157,113.71,159.68,110,160,105a6.25,6.25,0,0,1,6.51,4.94c.67,2.79-2.39,3.71-4.62,4.84A19.31,19.31,0,0,1,153.46,116.94Z" transform="translate(-0.9 -0.9)"/><path class="cls-10" d="M192.18,86.95l1-8.92c2.81-.45,4.57.77,4.77,3.56C198.19,85.54,195.22,86.35,192.18,86.95Z" transform="translate(-0.9 -0.9)"/><path class="cls-12" d="M124.9,158.86a154.91,154.91,0,0,1-3.41,15.41c-3.35,13.63-4.17,27.47-5,41.32-.27,4.43,1,9,1.53,13.44a23.7,23.7,0,0,0,2,11c1.28,16,6.46,30.93,13,45.44-2.58,1.74-5.64,2.16-8.54,2.34-11.89.73-23,4.61-34.18,8.18-1.43.46-2.72,1.45-4-.07-3.88-4.45-9.51-7.36-11.87-13.13-1.48-3.62-3.93-6.48-6.54-9.27-1.36-1.45-2.63-2.81-3.08-5-3.32-15.9-6.05-32-2.5-48,3.84-17.36,13.59-31.49,27-43.11,9.23-8,20-13.32,31.21-17.85A18.39,18.39,0,0,1,124.9,158.86Z" transform="translate(-0.9 -0.9)"/><path class="cls-2" d="M333,182l-.26.4.2-.45Z" transform="translate(-0.9 -0.9)"/><path class="cls-11" d="M200.39,109.68a1.06,1.06,0,0,1,.64.24l1.09,1v0a27.38,27.38,0,0,1-9.2,18.4c-4.93-.16-6.78-3.7-7.73-7.65-1.22-5.09.91-8.71,6.36-12,1.25.5,2.16.22,2.56-1.15l2.78-.1C197.46,110.33,198.95,109.94,200.39,109.68Z" transform="translate(-0.9 -0.9)"/><path class="cls-12" d="M192.93,129.26a27.38,27.38,0,0,0,9.2-18.4c4.66,1.4,4.23,5.75,5.34,9.2-1,4.36-3,8-7.31,10C197.68,130.39,195,132.37,192.93,129.26Z" transform="translate(-0.9 -0.9)"/><path class="cls-12" d="M217.58,102.37c6.82-1.65,10.47-5.8,11.44-12.83a24,24,0,0,1,1.12-3.7l1.59.25,1.16,1.23.26,1.67q.09,3.53.19,7.06c-.33,3.13-2.79,4.78-4.72,6.81C224.88,104.07,221.09,106.33,217.58,102.37Z" transform="translate(-0.9 -0.9)"/><path class="cls-10" d="M228.62,102.86c1.93-2,4.38-3.68,4.72-6.81,2.51.55.3-4.6,3.65-3,.16.29.34.57.49.86,1.25,2.36,5,4.58,2.92,7.19a8.94,8.94,0,0,1-10,2.56C229.82,103.44,229.23,103.13,228.62,102.86Z" transform="translate(-0.9 -0.9)"/><path class="cls-10" d="M200.15,130c4.28-2,6.29-5.61,7.31-10,1.68.11,2.61,1.35,3.49,2.49,2.32,3,1.27,5.45-2.44,6.57C205.75,130,203.15,131.58,200.15,130Z" transform="translate(-0.9 -0.9)"/><path class="cls-4" d="M237,93c-3.36-1.58-1.14,3.58-3.65,3q-.09-3.53-.19-7.06C235.41,89.4,237.29,90.18,237,93Z" transform="translate(-0.9 -0.9)"/><path class="cls-12" d="M200.39,109.68c-1.44.26-2.93.66-3.49-1.35C198.39,107.94,199.66,108.1,200.39,109.68Z" transform="translate(-0.9 -0.9)"/><path class="cls-4" d="M229,83.84a2,2,0,0,1-2.19-1.45C228.84,80.93,228.7,82.71,229,83.84Z" transform="translate(-0.9 -0.9)"/><path class="cls-12" d="M194.12,108.43c-.41,1.38-1.31,1.65-2.56,1.15A2.13,2.13,0,0,1,194.12,108.43Z" transform="translate(-0.9 -0.9)"/><path class="cls-4" d="M174.92,133.95A1.87,1.87,0,0,1,177,132,1.78,1.78,0,0,1,174.92,133.95Z" transform="translate(-0.9 -0.9)"/><path class="cls-4" d="M232.89,87.32l-1.16-1.23Z" transform="translate(-0.9 -0.9)"/><path class="cls-12" d="M202.12,110.89l-1.09-1Z" transform="translate(-0.9 -0.9)"/><path class="cls-15" d="M165.5,161c5.53.47,11.25-.17,16.33,2.94,1.38.84,2.56,1.78,1.77,3.57-.63,1.44-2.06,1.69-3.41,1.47-8-1.33-16.24-.76-23.94-3.85-1.07-.43-2.61-.34-2.72-1.7-.14-1.77,1.58-1.15,2.58-1.46A27.83,27.83,0,0,1,165.5,161Z" transform="translate(-0.9 -0.9)"/><path class="cls-15" d="M162.79,186c6.81-1.12,13.87,2.81,21.43,3.32,1,.07,2.5.58,2.25,2.12a2,2,0,0,1-2.32,1.48c-9.82-1.07-19.88,0-29.46-3.18-1.15-.38-2.86-.76-2.34-2.6.41-1.46,1.88-1.09,3-1.12C157.49,186,159.65,186,162.79,186Z" transform="translate(-0.9 -0.9)"/><path class="cls-16" d="M145.71,245.06a34.09,34.09,0,0,1,10.86.91c1.19.29,3-.43,3.13,1.53.12,1.66-1.6,2.23-2.74,2.45-6.47,1.2-13,3-19.57,1.49-2.59-.61-6.24,1.41-7.9-2.38,3.08-1.33,6.06-3,9.26-3.88C140.92,244.57,143.39,245.06,145.71,245.06Z" transform="translate(-0.9 -0.9)"/><path class="cls-16" d="M166.56,264c-5-.85-10.23-.58-15-2.69-1-.44-2.54-.41-2.21-2.09.25-1.26,1.44-1.19,2.42-1.2,7.26,0,14.53,0,21.79,0,1.85,0,3.65.74,3.9,2.45.34,2.28-2,2.17-3.49,2.55C171.53,263.61,169.15,264.47,166.56,264Z" transform="translate(-0.9 -0.9)"/><path class="cls-16" d="M151.76,269.93c1.24.09,3.55.15,5.83.49a2.39,2.39,0,0,1,2.17,1.79c.25,1.27-.73,1.74-1.62,2.16-5.67,2.66-11.31,2-16.76-.53-2.22-1-1.34-2.14.49-3C144.73,269.6,147.73,270.13,151.76,269.93Z" transform="translate(-0.9 -0.9)"/><path class="cls-15" d="M151.5,179.11a53.33,53.33,0,0,1-6.87-.54,2.55,2.55,0,0,1-2.17-2.88,2,2,0,0,1,2.22-1.6c4.26.11,8.58-.78,12.78.64,1,.35,2.49.41,2.34,2s-1.41,2.13-2.83,2.18c-1.82.06-3.63,0-5.45,0Z" transform="translate(-0.9 -0.9)"/><path class="cls-15" d="M183.19,200c2.3.26,5.71.64,9.13,1,1.47.17,2.63.91,2.48,2.49s-1.68,1.11-2.7,1.49c-4.87,1.79-9.27-1.17-13.95-1.27a2,2,0,0,1-1.87-2.45c.2-1.23,1.33-1.28,2.33-1.3S180.9,200,183.19,200Z" transform="translate(-0.9 -0.9)"/><path class="cls-15" d="M178.17,176c2.28.33,4.59.37,4.79,3.37.1,1.51-.45,3-2.12,2.51-2.67-.8-6.64-.27-7.37-3.56C173.08,176.56,176.48,176.52,178.17,176Z" transform="translate(-0.9 -0.9)"/><path class="cls-15" d="M120,240a23.7,23.7,0,0,1-2-11C119.69,232.49,121.69,235.9,120,240Z" transform="translate(-0.9 -0.9)"/><path class="cls-7" d="M227.22,145.63c-1-.21-1.16-1-1.12-1.81A1.68,1.68,0,0,1,228,142.1c.87,0,1.75.26,1.53,1.3A3,3,0,0,1,227.22,145.63Z" transform="translate(-0.9 -0.9)"/><path class="cls-7" d="M267.73,107.42l.83.36c-.12.28-.18.71-.38.79s-.54-.19-.82-.31Z" transform="translate(-0.9 -0.9)"/></svg>