<?xml version="1.0" encoding="utf-8"?>
<!-- Generator: Adobe Illustrator 21.1.0, SVG Export Plug-In . SVG Version: 6.00 Build 0)  -->
<svg version="1.1" id="Layer_1" xmlns="http://www.w3.org/2000/svg" xmlns:xlink="http://www.w3.org/1999/xlink" x="0px" y="0px"
	 viewBox="0 0 380 380" style="enable-background:new 0 0 380 380;" xml:space="preserve">
<style type="text/css">
	.st0{fill:#FEFEFE;}
	.st1{fill:#7C584F;}
	.st2{fill:#F7E1C5;}
	.st3{fill:#EFD1B4;}
	.st4{fill:#E8C1A4;}
	.st5{fill:#F5E4CC;}
	.st6{fill:#4D2019;}
	.st7{fill:#E1B79E;}
	.st8{fill:#D9A58B;}
	.st9{fill:#996B59;}
	.st10{fill:#F0E1D2;}
	.st11{fill:#EED5BD;}
	.st12{fill:#755245;}
	.st13{fill:#F8EBDA;}
	.st14{fill:#E8CBBB;}
	.st15{fill:#F8ECDB;}
</style>
<g>
	<g>
		<path class="st0" d="M191,381c-62,0-124,0-186,0.1c-3.4,0-4.1-0.7-4.1-4.1C1,253,1,129,0.9,5c0-3.4,0.7-4.1,4.1-4.1
			C129,1,253,1,377,0.9c3.4,0,4.1,0.7,4.1,4.1c-0.1,124-0.1,248,0,372c0,3.4-0.7,4.1-4.1,4.1C315,381,253,381,191,381z M96.2,108
			c-5.6,4.1-9.1,9.6-11.2,16.2c-4.8,5-7.9,10.9-8.9,17.8c-1,0.5-2,1.1-2.9,1.6c-2.6-2-4.3-2.5-5.4,1.6c-2.1,7.8-4.7,15.4-6.9,23.1
			c-1.5,5.5-2.3,5.8-6.4,1.8c-0.7-0.7-1.4-1.5-2.5-1.2c-1.6,0.5-0.9,1.8-0.9,2.9c0.4,4,1.1,8,2.7,11.7c2.8,6.4,5.1,13.1,6.9,19.7
			c3.6,13.3,9,25.9,13.1,39c4.1,13,9.6,25.5,14.3,38.3c4.4,12.1,12.4,20.6,23.9,26.4c8.8,4.5,18.1,7.4,27.6,9.6
			c11.8,2.8,23.6,5.2,35.8,5.1c17.4-0.1,34.7,0.4,52.2-2.4c16.5-2.7,32.4-6.1,47.8-12.5c12.8-5.3,21.8-13.8,25.8-27.6
			c2.8-9.7,6.5-19.2,10.1-28.5c3.9-10.1,6.8-20.4,10.2-30.6c3.4-10,6.2-20.2,8.6-30.5c1.4-6.2,4.7-12.1,3.6-18.8
			c-0.1-1.2,0.6-2.4-0.4-3.7c-0.7,1.7-3.3,1.4-3.1,3.7l0.3-0.2c0,0-0.2-0.3-0.2-0.3c-4.4,0.1-4.7-3.2-5.4-6.3
			c-1.6-6.6-3.5-13-6.6-18.8c-2.1,0.5-2.1,3-4.1,3.1c-2.5-5.4-5-10.9-7.4-16.3c-3.2-7.3-6.9-14.1-12.3-20.1
			c-4.6-5-8.9-10.2-12.9-15.7c-2.5-3.5-5.1-6.4-9.3-7.6c-3.6-1-6.4-3.3-9.1-5.8c-2-1.9-4-4.1-7.2-3.8c-5.1-4.2-11.1-6.5-17.1-9
			c-5.4-2.2-11.1-3.5-16.9-4.5c-8.3-1.9-16.5-4.8-25.2-4.4c-6.7,0-13.6-1-19.6,3c-4.8-0.2-9.6-0.9-14.2,1
			c-8.7,3.6-17.9,5.7-26.3,10.5c-8.2,4.7-16.6,9.1-24.1,15c-1.2,0.9-1.7,1.9-1.6,3.3C104.2,96.7,99.6,101.7,96.2,108z"/>
		<path class="st1" d="M333.8,170.9c1.1,6.7-2.2,12.6-3.6,18.8c-2.4,10.3-5.2,20.6-8.6,30.5c-3.5,10.2-6.3,20.5-10.2,30.6
			c-3.6,9.4-7.3,18.9-10.1,28.5c-4,13.8-13.1,22.3-25.8,27.6c-15.4,6.4-31.3,9.8-47.8,12.5c-17.5,2.8-34.8,2.3-52.2,2.4
			c-12.1,0.1-24-2.3-35.8-5.1c-9.5-2.3-18.8-5.2-27.6-9.6c-11.5-5.8-19.5-14.3-23.9-26.4c-4.7-12.8-10.2-25.3-14.3-38.3
			c-4.1-13.1-9.5-25.7-13.1-39c-1.8-6.6-4.1-13.3-6.9-19.7C52.1,180,51.4,176,51,172c2.4,0.2,2.9,2.4,4,3.9c4,5.9,8,11.9,11.8,18
			c1.6,2.5,1.3-0.4,1.9-0.5c1.1,5.5,4.8,9.7,7.3,14.5c2.9,5.9,5.9,11.7,8.6,17.6c4.9,10.6,9.8,21.2,14.2,32
			c3.2,7.8,7.5,14.9,10.6,22.8c2.2,5.5,5.2,10.9,9.8,16.8c-1.8-13.2-4.5-25-7.8-36.5c-3.9-13.6-6.9-27.4-10.7-41.1
			c-1.6-5.7-5.1-11.3-3.6-17.7c6.6,7.1,11.8,15.3,18.1,22.7c3.4,4,5.3,9.5,10.8,11.6c-0.2,7.1,3.1,13.4,5.2,20
			c3.4,11,7.1,21.9,11,32.7c1.9,5,2.9,10.6,7.6,15.4c-0.4-4.7-0.6-8.4-1-12.2c-1.3-13.8-2.9-27.6-3.7-41.4
			c-0.4-7.6-1.8-15.1-2.7-22.6c-0.3-2.4-1.3-4.9,0.6-7.1c0.8,1,1.6,2.1,2.4,3.1c5.4,6.2,9.2,13.8,15.5,19.3
			c1.6,15.4,14,60.7,18.8,66.6c0.6-9.6,0.5-18.5,1.1-27.3c1.1-15.7-0.7-31.5,1.1-47.2c0.4-4,1.1-8.3-0.8-12.3c2.6-2.9,3.7,0.5,5,1.5
			c6.5,5.4,12.1,11.8,19,16.7c-0.6,13.8,0.8,27.5,2.2,41.2c0.7,6.5,0.3,12.9,1,19.3c0.2,1.6,0.3,4.4,2.3,4.6
			c2.5,0.3,1.4-2.8,2.2-4.2c0.8-1.4,1-3.2,1.2-4.8c3-19.9,6.1-39.8,8.8-59.7c0.5-3.8,1.5-8-0.2-11.9c1-2.8,2.6-3.3,5.3-1.8
			c3.2,1.7,6.3,3.9,10.2,4.1c3,0.7,4.3,4.7,8,4c-0.4,8.7-2.3,17.3-2.1,26.2c0.2,10.9-0.7,21.8-1.7,32.7c-0.4,4.1-0.8,8.4,1,12.4
			c1.6-3.2,3-6.5,3.7-9.8c2.5-12.4,4.6-24.9,7-37.4c2.5-13.1,4.8-26.2,6.3-39.5c0.4-3.3,3-6.3,1.7-10c1-5.6,3.9-1.7,5.5-0.8
			c6.3,3.8,11.9,8.8,18.7,11.7c-0.7,3.9-1.4,7.8-2,11.7c-1.9,13.1-4,26.1-5.6,39.2c-0.8,6.6-2.5,13.2-0.7,20.5
			c3.8-3.5,4.2-8.1,5.1-12c3.3-14.3,6.8-28.5,9.7-42.9c2.4-11.9,4.9-23.8,7.3-35.8c0.3-1.6,0.5-3.1-1.7-3.4c0.3-3,2.6-5,3.8-8.2
			c1.8,2.1,3.2,3.8,4.6,5.3c2.3,2.4,3.3,7.6,7,6.6c3.9-1.1,3.5-6.1,4.1-9.8c1-0.1,2.3,1.4,2.8-0.5c0.6-2.2,2.4-3.4,3.6-5.1
			c2.8-3.9,5.7-7.9,6.5-12.9l0.2,0.3c0,0-0.3,0.2-0.3,0.2C331.4,170.9,332.6,170.9,333.8,170.9z"/>
		<path class="st2" d="M238.9,70.1c6,2.5,12.1,4.7,17.1,9c1.3,8.5,5.3,16.4,5,25.4c-0.2,10-0.9,20-2.8,29.6
			c-1.8,9.5-3.8,19.1-7.9,28.3c-4.2,9.4-8.9,18.3-14.3,26.9c-3.3,5.3-8.3,9.4-10.2,15.6c-2.5,0-3.4,3.2-5.9,3.1
			c-1,0.1-2,0.2-2.9,0.5c-9.2,3-18.4,5.6-28.2,5.6c-3.8-1.7-7.6-2-11.3,0c-0.1,0.1-0.3,0-0.5,0c-5.4,0-10.9-0.3-16.3,0
			c-3.1,0.2-5.6-3.1-8.9-1c-1.1-1.1-2-2.4-3.9-2.1c-0.2-3.3-2.9-5.2-5.2-6.4c-1.4-0.7-3.7,1-3.9,3.5c-1,0-1.9,0.1-2.9,0.1
			c-1.2-0.4-2.8-0.4-3.7-1.2c-3-2.8-8.3-0.5-10.5-4.9c5.6-2.9,12.3-4.2,16-10c8.1,0.9,16,2.8,24.5,2.3c9.6-0.6,19.2-0.6,28.7-3.1
			c14.3-3.8,26.5-10.6,36.2-21.9c11.1-13,16.8-27.9,16.7-45c-0.1-5.9,0-11.7-1.7-17.6c-2-7-5.6-12.5-10.3-17.7c0-0.3,0-0.7,0-1
			C236.1,82.7,237.8,76.6,238.9,70.1z"/>
		<path class="st3" d="M226,204.9c1.9-6.2,7-10.3,10.2-15.6c5.3-8.7,10.1-17.5,14.3-26.9c4.1-9.2,6.1-18.9,7.9-28.3
			c1.9-9.6,2.5-19.6,2.8-29.6c0.2-9-3.7-16.9-5-25.4c3.2-0.4,5.2,1.9,7.2,3.8c2.7,2.5,5.5,4.8,9.1,5.8c4.3,1.2,6.8,4.1,9.3,7.6
			c4,5.5,8.3,10.7,12.9,15.7c5.4,5.9,9.1,12.8,12.3,20.1c-2.1,0.1-2.3,1.6-3,3.3c-2.2,5.1-4.5,10.3-7.3,15.1
			c-5.8,9.7-14.1,17.4-21.8,25.6C261.1,190.2,244,198.3,226,204.9z"/>
		<path class="st4" d="M226,204.9c18-6.7,35.2-14.7,48.8-29c7.8-8.1,16-15.8,21.8-25.6c2.8-4.8,5.1-9.9,7.3-15.1
			c0.7-1.6,0.9-3.1,3-3.3c2.5,5.4,5,10.9,7.4,16.3c-0.1,2,0.3,3.8,0.7,5.8c1.7,7.8,3.5,15.6,2.7,23.7c-2.1,0-2.7,1.2-3,3.1
			c-0.6,3.5-1.5,6.9-2.5,11.3c-3.8-4-6.5-8-10.3-10.8c-1.4-1-2.6-1.9-3.6,0.1c-3.1,6.1-7,11.8-9.5,18.3c-2.4,6.2-5.3,7.2-11,3.5
			c-3.6-2.4-7.5-4.5-10.5-7.5c-3.8-3.9-6-1.9-7.8,1.4c-3.8,7-9.5,12.7-13.2,19.7c-2.6,5-4,5-8.4,1.6c-2.8-2.1-5.5-4.2-8.3-6.3
			c-3.3-2.5-6.5-2.8-9.8,0.4c-3.6,3.5-7.4,6.7-11,10.1c-2.5,2.3-5.1,4.2-8.8,3.3c0-0.6,0-1.3,0-1.9c8.6-2.9,14.8-8.8,20-16
			C222.6,208.1,223.4,204.9,226,204.9z"/>
		<path class="st5" d="M138,192c-3.8,5.9-10.4,7.1-16,10c-2.2,0.2-4.1-0.7-6.1-1.6c-3.4-1.5-6-4.7-9.9-5.4c-0.4-0.5-0.7-1.2-1.2-1.5
			C93.3,187,82.9,179,73.9,169.4c-1.3-1.4-2.8-1.5-4.5-1.2c0.2-5.8,1.2-11.4,3-16.9c0.8-2.4,1.8-4.9,0.9-7.6c1-0.5,2-1.1,2.9-1.6
			c4.9-0.4,8.7,4.4,13.9,3c0,0.7,0,1.3,0.1,2c-1.1,0.8-1.1,2-1.1,3.1c-0.2,15,9.1,23.8,20.6,30.9C118.3,186.3,128,189.7,138,192z"/>
		<path class="st5" d="M111,94c-0.1-1.4,0.4-2.4,1.6-3.3c7.5-5.9,15.9-10.2,24.1-15c8.4-4.8,17.6-6.9,26.3-10.5
			c4.6-1.9,9.5-1.2,14.2-1c-0.3,3.8-4.9,5.1-5.2,8.9c-5.2,0.4-10.2,1.7-14.9,3.9c-11.2,1.5-20.3,7.6-29.6,13.1
			c-1.5,0.9-3.5,1.6-3.4,3.9c-1.3,2.4-3.7-1.1-5,1C116.3,94.7,113.7,94.3,111,94z"/>
		<path class="st6" d="M73.2,143.6c0.9,2.7-0.1,5.2-0.9,7.6c-1.8,5.5-2.8,11.1-3,16.9c-2,8.4-0.9,16.9-0.6,25.3
			c-0.6,0.1-0.4,3-1.9,0.5c-3.8-6.1-7.8-12.1-11.8-18c-1-1.5-1.6-3.7-4-3.9c0-1.1-0.6-2.4,0.9-2.9c1.1-0.4,1.8,0.5,2.5,1.2
			c4.2,3.9,4.9,3.6,6.4-1.8c2.2-7.7,4.8-15.4,6.9-23.1C68.9,141.1,70.6,141.6,73.2,143.6z"/>
		<path class="st6" d="M317.8,177.8c0.7-8.1-1.1-15.9-2.7-23.7c-0.4-1.9-0.9-3.8-0.7-5.8c2-0.1,2-2.6,4.1-3.1
			c3.1,5.8,5,12.3,6.6,18.8c0.8,3.1,1,6.4,5.4,6.3c-0.8,5-3.7,9-6.5,12.9c-1.2,1.7-3,2.9-3.6,5.1c-0.5,1.9-1.9,0.4-2.8,0.5
			c0.1-0.3,0.1-0.5-0.2-0.7c0.1-1.4,0.2-2.8,0.3-4.2C319.3,182,318.9,179.9,317.8,177.8z"/>
		<path class="st7" d="M238.9,70.1c-1.1,6.4-2.8,12.6-6.9,17.9c-1-0.8-1.9-1.8-3-2.4c-4-2.2-6.7-6.8-12-6.6c0.4-4.9,2.7-9.1,5-13.4
			C227.8,66.6,233.5,67.9,238.9,70.1z"/>
		<path class="st5" d="M222,65.6c-2.3,4.2-4.7,8.4-5,13.4c-0.7,0-1.3,0-2,0.1c-0.7-3-3.5-3.1-5.7-4c-4.9-2.2-10.4-1.4-15.4-3.1
			c1.8-3.4,3.6-6.7,2.9-10.7C205.5,60.9,213.7,63.7,222,65.6z"/>
		<path class="st7" d="M90,145c-5.1,1.4-9-3.3-13.9-3c1-6.9,4.1-12.8,8.9-17.8c2.1,3.3,5.9,2.6,8.9,4C92.4,133.7,89.6,139,90,145z"
			/>
		<path class="st7" d="M196.8,61.2c0.8,4-1.1,7.4-2.9,10.7c-0.3,0-0.6,0-0.9,0.1c-5.8,0.3-11.7-1.1-17.3,1.2c-1.3,0-2.5-0.1-3.8-0.1
			c0.4-3.8,4.9-5.1,5.2-8.9C183.3,60.2,190.1,61.2,196.8,61.2z"/>
		<path class="st5" d="M93.9,128.1c-2.9-1.4-6.8-0.7-8.9-4c2.1-6.5,5.6-12,11.2-16.2c2.6,0.4,5.2,0.8,7.8,1.2
			c0.1,2.6-1.1,4.6-2.5,6.8c-2.4,3.8-5.9,7.1-6.6,12C94.6,128.1,94.3,128.1,93.9,128.1z"/>
		<path class="st7" d="M104,109.2c-2.6-0.4-5.2-0.8-7.8-1.3c3.4-6.3,8-11.3,14.8-14c2.7,0.3,5.3,0.7,8,1c0.9,1.4-0.2,1.8-1,2.7
			c-3.6,3.5-7.5,6.8-10,11.3C106.7,109.1,105.4,109.2,104,109.2z"/>
		<path class="st6" d="M333.8,170.9c-1.2,0-2.3,0-3.5,0c-0.2-2.3,2.5-2,3.1-3.7C334.4,168.5,333.7,169.8,333.8,170.9z"/>
		<path class="st8" d="M317.3,188.2c0.3,0.2,0.3,0.4,0.2,0.7c-0.5,3.7-0.2,8.8-4.1,9.8c-3.7,1-4.7-4.2-7-6.6
			c-1.5-1.5-2.8-3.2-4.6-5.3c-1.2,3.2-3.5,5.1-3.8,8.2c-1,1.9-2,3.8-3.1,5.6c-3.2,5.6-5.1,11.8-8.9,17c-6.9-2.9-12.4-7.9-18.7-11.7
			c-1.6-1-4.5-4.8-5.5,0.8c-0.8,0.6-1.8,1-2.3,1.8c-4.5,7.8-9,15.7-13.4,23.6c-3.7,0.7-5-3.3-8-4c-2.3-5.6-8-7.5-12.4-10.8
			c-1.2-0.9-2.2,0.6-3.2,1.6c-4.4,4.3-8.9,8.4-13.3,12.7c-4.6,4.5-4.9,4.6-9.5,0.1c-0.7-0.7-1.2-1.6-1.7-2.4c0.1-1.5,0.1-3,2.1-3.2
			c3.7,0.9,6.3-1,8.8-3.3c3.7-3.4,7.5-6.6,11-10.1c3.2-3.2,6.4-2.9,9.8-0.4c2.8,2.1,5.6,4.2,8.3,6.3c4.5,3.4,5.8,3.4,8.4-1.6
			c3.7-7.1,9.4-12.8,13.2-19.7c1.8-3.2,4-5.3,7.8-1.4c2.9,3,6.9,5.2,10.5,7.5c5.6,3.7,8.6,2.7,11-3.5c2.5-6.5,6.4-12.2,9.5-18.3
			c1-2,2.2-1.1,3.6-0.1c3.8,2.8,6.5,6.8,10.3,10.8c1-4.4,1.9-7.8,2.5-11.3c0.3-1.9,0.9-3.1,3-3.1c1.1,2.1,1.5,4.2-0.2,6.2
			C315.3,185.3,315.7,186.7,317.3,188.2z"/>
		<path class="st9" d="M97.1,201.9c-1.4,6.4,2,12.1,3.6,17.7c3.9,13.6,6.8,27.5,10.7,41.1c3.3,11.5,6,23.2,7.8,36.5
			c-4.6-5.9-7.6-11.3-9.8-16.8c-3.1-7.9-7.4-15-10.6-22.8c-4.4-10.8-9.4-21.4-14.2-32c-2.7-5.9-5.7-11.8-8.6-17.6
			c3.1,0.8,5.4-0.3,7.3-2.7c3.7-0.7,6.4-3.5,9.7-5.1c1.3-0.6,2.2-1.6,3,0.3c0.4,0.5,0.7,1,1.1,1.5L97.1,201.9z"/>
		<path class="st9" d="M181,223c1.9,4,1.3,8.3,0.8,12.3c-1.7,15.7,0.1,31.5-1.1,47.2c-0.6,8.8-0.4,17.7-1.1,27.3
			c-4.7-5.9-17.2-51.2-18.8-66.6C167.3,236.2,174,229.5,181,223z"/>
		<path class="st10" d="M181,223c-7,6.4-13.8,13.1-20,20.3c-6.2-5.6-10.1-13.1-15.5-19.3c-0.9-1-1.6-2-2.4-3.1
			c-0.8-1.2-1.5-0.9-2.3,0c-4.9,5.1-9.8,10.2-14.7,15.3c-5.5-2.1-7.4-7.6-10.8-11.6c-6.3-7.3-11.6-15.5-18.1-22.7c0,0,0,0.1,0,0.1
			c-0.4-0.5-0.7-1-1.1-1.5c-0.8-1.9-1.7-0.9-3-0.3c-3.3,1.6-6,4.4-9.7,5.1c-0.6-0.4-1.3-1-0.9-1.5c3.8-3.9,7.6-7.7,11.5-11.5
			c1.4-1.3,2.3-0.1,2.9,1.1c1.2,2.3,2.4,4.6,5,5.6c0,0.8,0.2,1.6,1.1,2c0,2,1.6,2.3,2.9,3l0,0c0,0.5-0.1,1.1,0.1,1.5
			c5.9,7.9,11.7,15.8,17.7,23.5c1.2,1.6,2.2,0.2,3.2-0.8c3.9-4,8-7.8,11.7-12c2.3-2.6,3.5-2.8,5.6,0.2c4.2,5.9,8.7,11.5,13.1,17.3
			c1.8,2.4,3.2,3,5.8,0.3c5.4-5.6,11.4-10.6,17.1-15.8c1.8-1.6,3.1-1.1,4.7,0.3c4.2,3.7,8.6,7.2,12.9,10.7c0.6,0.8,1,1.8,1.7,2.4
			c4.6,4.5,4.9,4.4,9.5-0.1c4.4-4.3,9-8.4,13.3-12.7c1-1,2.1-2.5,3.2-1.6c4.4,3.3,10,5.2,12.4,10.8c-3.9-0.1-7-2.4-10.2-4.1
			c-2.8-1.4-4.3-1-5.3,1.8c-1,0.2-1.7,0.7-2.5,1.4c-5,4.7-10,9.3-15.1,14c-6.9-4.9-12.5-11.3-19-16.7
			C184.8,223.5,183.6,220.2,181,223z"/>
		<path class="st9" d="M126,236.2c4.9-5.1,9.8-10.2,14.7-15.3c0.8-0.8,1.6-1.2,2.3,0c-1.9,2.2-0.9,4.7-0.6,7.1
			c0.9,7.5,2.2,15,2.7,22.6c0.8,13.8,2.4,27.6,3.7,41.4c0.3,3.7,0.6,7.5,1,12.2c-4.7-4.8-5.7-10.4-7.6-15.4
			c-4-10.8-7.7-21.7-11-32.7C129.2,249.6,125.9,243.3,126,236.2z"/>
		<path class="st9" d="M205,241.2c5-4.7,10.1-9.3,15.1-14c0.8-0.7,1.5-1.3,2.5-1.4c1.7,3.9,0.7,8,0.2,11.9
			c-2.7,19.9-5.8,39.8-8.8,59.7c-0.2,1.6-0.4,3.4-1.2,4.8c-0.8,1.4,0.3,4.4-2.2,4.2c-1.9-0.2-2.1-3-2.3-4.6
			c-0.7-6.4-0.3-12.9-1-19.3C205.7,268.7,204.4,255,205,241.2z"/>
		<path class="st9" d="M246,232c4.5-7.9,8.9-15.8,13.4-23.6c0.4-0.8,1.5-1.2,2.3-1.8c1.3,3.7-1.3,6.7-1.7,10
			c-1.4,13.3-3.8,26.4-6.3,39.5c-2.4,12.5-4.5,24.9-7,37.4c-0.7,3.4-2.1,6.6-3.7,9.8c-1.8-4.1-1.4-8.4-1-12.4
			c1-10.9,1.9-21.8,1.7-32.7C243.7,249.3,245.6,240.8,246,232z"/>
		<path class="st11" d="M102,199c-2.7-1-3.9-3.3-5-5.6c-0.6-1.2-1.6-2.4-2.9-1.1c-3.9,3.7-7.8,7.6-11.5,11.5
			c-0.5,0.5,0.3,1.2,0.9,1.5c-1.9,2.3-4.2,3.5-7.3,2.7c-2.5-4.8-6.2-9-7.3-14.5c-0.3-8.4-1.4-16.9,0.6-25.3c1.7-0.3,3.3-0.1,4.5,1.2
			c9.1,9.6,19.4,17.6,30.9,24.1c0.5,0.3,0.8,1,1.2,1.5C105.8,197.5,102.8,197.1,102,199z"/>
		<path class="st12" d="M286,217.6c3.8-5.2,5.8-11.4,8.9-17c1.1-1.9,2.1-3.8,3.1-5.6c2.2,0.3,2,1.8,1.7,3.4
			c-2.3,11.9-4.9,23.9-7.3,35.8c-2.9,14.4-6.4,28.6-9.7,42.9c-0.9,3.9-1.3,8.4-5.1,12c-1.8-7.3-0.1-13.9,0.7-20.5
			c1.6-13.1,3.7-26.2,5.6-39.2C284.6,225.4,285.3,221.5,286,217.6z"/>
		<path class="st13" d="M138,192c-10-2.3-19.7-5.7-28.4-11.1c-11.5-7-20.8-15.9-20.6-30.9c0-1.2,0-2.3,1.1-3.1
			c4.9,1.1,9.9,0.6,14.8,1.3c11.8,1.9,23.5,0.6,35.1-1c6.9-0.9,13.8-3.1,20.6-4.9c11.5-3,22-8,32-13.8c16.5-9.7,30.2-22.5,39.4-39.6
			c4.7,5.2,8.3,10.7,10.3,17.7c1.7,5.9,1.6,11.7,1.7,17.6c0.2,17.1-5.6,32-16.7,45c-9.7,11.3-21.9,18.1-36.2,21.9
			c-9.5,2.5-19,2.6-28.7,3.1C154,194.8,146.1,192.9,138,192z"/>
		<path class="st14" d="M232,89c-9.2,17.1-23,29.9-39.4,39.6c-10,5.9-20.5,10.8-32,13.8c-6.8,1.8-13.7,3.9-20.6,4.9
			c-11.6,1.6-23.3,2.8-35.1,1c-4.9-0.8-9.9-0.2-14.8-1.3c0-0.7,0-1.3-0.1-2c-0.4-6,2.4-11.3,3.9-16.8c0.4,0,0.7-0.1,1.1-0.1
			c1,0,2,0,2.9,0.1c0.7,3,3.2,1.5,5,2c-0.3,3-2.1,5.5-1.9,8.6c0.2,4.9,2.9,6.9,7.4,5c2.6-1.1,4.9-2.5,7.2-4.2
			c4.2-3,7.1-7.8,12.3-9.6c9.1,1.2,17.9-1.5,26.4-3.8c10.8-3,21-7.6,30.6-13.8c13.1-8.5,23.5-19.1,30.1-33.2c0.7,0,1.3,0,2-0.1
			c5.3-0.2,8,4.3,12,6.6c1.1,0.6,2,1.6,3,2.4C232,88.3,232,88.7,232,89z"/>
		<path class="st7" d="M197.9,229.1c-4.3-3.6-8.6-7.1-12.9-10.7c-1.6-1.4-3-1.9-4.7-0.3c-5.7,5.3-11.7,10.3-17.1,15.8
			c-2.6,2.7-4,2.1-5.8-0.3c-4.4-5.8-8.9-11.4-13.1-17.3c-2.1-2.9-3.3-2.8-5.6-0.2c-3.7,4.2-7.8,8-11.7,12c-1,1-1.9,2.4-3.2,0.8
			c-6-7.8-11.9-15.7-17.7-23.5c-0.2-0.3-0.1-1-0.1-1.5c0.8,0.3,1.7,0.4,2.3,0.8c5.3,4.4,10.6,8.8,15.8,13.3c0.7,0.6,1.6,2,2.3,1.2
			c3.3-3.7,8.1-6.2,9.7-11.3c1,0,1.9-0.1,2.9-0.1c2.4,3,5.8,2.7,9.1,2.9c1.8-0.3,2.8,1,3.9,2.1c1.5,4.9,5.7,7.9,8.3,12
			c0.5,0.8,1.5,1.2,2.1,0.8c5.1-3.7,11.3-6,14.7-11.7c0.2,0,0.4,0,0.5,0c3.8-2,7.6-1.7,11.3,0c2.4,4.7,7.7,6.3,11.1,9.9
			c0,0.6,0,1.3,0,1.9C197.9,226.1,198,227.7,197.9,229.1z"/>
		<path class="st3" d="M136.1,208.1c-1.7,5.1-6.5,7.5-9.7,11.3c-0.7,0.8-1.6-0.5-2.3-1.2c-5.2-4.5-10.5-8.9-15.8-13.3
			c-0.6-0.5-1.5-0.6-2.3-0.8c0,0,0,0,0,0c0-2-1.7-2.3-2.9-3c-0.8-0.4-1-1.2-1.1-2c0.8-1.9,3.8-1.5,4-4c3.9,0.6,6.4,3.8,9.9,5.4
			c2,0.9,3.9,1.8,6.1,1.6c2.1,4.4,7.5,2.1,10.5,4.9C133.3,207.7,134.9,207.7,136.1,208.1z"/>
		<path class="st3" d="M200,224c-3.4-3.7-8.7-5.2-11.1-9.9c9.8,0,19-2.6,28.2-5.6c0.9-0.3,1.9-0.3,2.9-0.5
			C214.8,215.2,208.6,221.1,200,224z"/>
		<path class="st3" d="M177.1,214.1c-3.4,5.7-9.7,8-14.7,11.7c-0.6,0.4-1.6,0-2.1-0.8c-2.6-4.1-6.8-7.1-8.3-12
			c3.2-2.1,5.8,1.2,8.9,1C166.2,213.8,171.7,214.1,177.1,214.1z"/>
		<path class="st4" d="M148.1,210.9c-3.3-0.3-6.7,0-9.1-2.9c0.2-2.5,2.5-4.2,3.9-3.5C145.2,205.7,147.9,207.6,148.1,210.9z"/>
		<path class="st14" d="M108,109c2.4-4.5,6.3-7.9,10-11.3c0.9-0.8,1.9-1.3,1-2.7c1.3-2.1,3.8,1.4,5-1c10.5,0.5,19.7-3.8,28.9-7.9
			c1.6,4.2,4.8,5.8,9,4.8c3.8-0.9,7.7-2.1,10.9-4.3c7.3-5.1,7.4-6.1,2.9-13.3c5.6-2.3,11.5-0.9,17.3-1.2c-0.1,1.5,0,2.9-0.9,4.3
			c-11.5,17-28.2,26-47.4,31.3c-1.7,0.5-2.5,0-2.8-1.7c0.2-8.2-3.8-10.8-11.1-7.2c-3.4,1.7-6.3,4.1-9.4,6.1
			c-2.8,1.8-3.7,5.7-7.4,6.2c-0.9-1.4-2.1-0.9-3.4-0.4C109.2,111.2,108.2,110.7,108,109z"/>
		<path class="st0" d="M175.7,73.3c4.6,7.2,4.4,8.2-2.9,13.3c-3.3,2.3-7.1,3.4-10.9,4.3c-4.2,1-7.4-0.6-9-4.8
			c-0.1-3.7,2.2-6.3,4.1-9.1c4.7-2.2,9.7-3.5,14.9-3.9C173.2,73.2,174.5,73.2,175.7,73.3z"/>
		<path class="st15" d="M157,77c-1.9,2.8-4.2,5.4-4.1,9.1c-9.2,4.1-18.4,8.5-28.9,7.9c-0.1-2.4,1.9-3,3.4-3.9
			C136.7,84.6,145.8,78.5,157,77z"/>
		<path class="st4" d="M317.3,188.2c-1.6-1.5-2.1-2.9,0.3-4.2C317.5,185.4,317.4,186.8,317.3,188.2z"/>
		<path class="st15" d="M141.9,105.9c0.2,1.7,1.1,2.2,2.8,1.7c19.2-5.3,36-14.3,47.4-31.3c0.9-1.4,0.8-2.8,0.9-4.3
			c0.3,0,0.6-0.1,0.9-0.1c5,1.7,10.5,0.9,15.4,3.1c2.2,1,5,1,5.7,4c-6.7,14.1-17,24.8-30.1,33.2c-9.6,6.2-19.8,10.8-30.6,13.8
			c-8.5,2.4-17.2,5-26.4,3.8c0.2-0.8,0.1-1.8,0.5-2.4c5.2-6.3,10.6-12.6,12.1-21.1C140.6,106.3,141.4,106.1,141.9,105.9z"/>
		<path class="st15" d="M108,109c0.2,1.7,1.2,2.1,2.6,1.6c1.2-0.4,2.4-1,3.4,0.4c-3.7,6-7.3,12-11,17.9c-1.4-1.7-3.4-0.8-5.1-0.9
			c-1,0-2,0-2.9-0.1c0.6-4.8,4.1-8.1,6.6-12c1.4-2.2,2.6-4.2,2.5-6.8C105.4,109.2,106.7,109.1,108,109z"/>
		<path class="st1" d="M96.1,200.4c0.4,0.5,0.7,1,1.1,1.5C96.8,201.5,96.4,201,96.1,200.4z"/>
		<path class="st7" d="M103,201c1.2,0.8,2.9,1.1,2.9,3C104.7,203.3,103.1,203,103,201z"/>
		<path class="st0" d="M103,129c3.7-6,7.3-12,11-17.9c3.7-0.5,4.6-4.4,7.4-6.2c3.2-2,6.1-4.4,9.4-6.1c7.3-3.6,11.3-1,11.1,7.2
			c-0.5,0.2-1.3,0.3-1.3,0.6c-1.5,8.5-6.9,14.7-12.1,21.1c-0.5,0.6-0.4,1.6-0.5,2.4c-5.2,1.8-8.1,6.5-12.3,9.6
			c-2.3,1.7-4.7,3.1-7.2,4.2c-4.5,1.9-7.2-0.1-7.4-5c-0.1-3.1,1.7-5.7,1.9-8.6C102.9,129.7,103,129.4,103,129z"/>
		<path class="st5" d="M103,129c0,0.3-0.1,0.7-0.1,1c-1.7-0.4-4.2,1-5-2C99.7,128.2,101.6,127.3,103,129z"/>
	</g>
</g>
</svg>
