<?xml version="1.0" encoding="utf-8"?>
<!-- Generator: Adobe Illustrator 21.1.0, SVG Export Plug-In . SVG Version: 6.00 Build 0)  -->
<svg version="1.1" id="Layer_1" xmlns="http://www.w3.org/2000/svg" xmlns:xlink="http://www.w3.org/1999/xlink" x="0px" y="0px"
	 viewBox="0 0 380 380" style="enable-background:new 0 0 380 380;" xml:space="preserve">
<style type="text/css">
	.st0{fill:#FEFEFE;}
	.st1{fill:#54260F;}
	.st2{fill:#4E2310;}
	.st3{fill:#2F1C15;}
	.st4{fill:#E13740;}
	.st5{fill:#642D14;}
	.st6{fill:#7D3617;}
	.st7{fill:#C2C505;}
	.st8{fill:#EC7B80;}
	.st9{fill:#CD3139;}
	.st10{fill:#6E3114;}
	.st11{fill:#401C0C;}
	.st12{fill:#382217;}
	.st13{fill:#49210D;}
	.st14{fill:#D6DC05;}
	.st15{fill:#5F3A27;}
</style>
<g>
	<g>
		<path class="st0" d="M1,381C1,255.8,1,130.7,0.9,5.5c0-3.7,0.8-4.6,4.6-4.6c123.7,0.1,247.3,0.1,371,0c3.7,0,4.6,0.8,4.6,4.6
			c-0.1,123.7-0.1,247.3,0,371c0,3.7-0.8,4.6-4.6,4.6C251.3,381,126.2,381,1,381z M86.4,143.6c-1.4,1.2-2.7,2.4-2.3,4.5
			c-0.2,0.4-0.4,0.8-0.6,1.2c-2.6,1.1-2.1,3.8-3.1,5.7c-5.1,10.4-8.3,21.4-8.4,33c-0.1,11.3-1.7,22.5-1,33.8
			c0.1,1.5-0.4,2.7-1.2,4.2c-5.2,9.3-5.5,18.2,0.8,27.5c4.2,6.3,9.4,10.8,15.8,14.7c9,5.5,18.6,8.6,28.7,10.9
			c6,1.4,12.4,1.5,18.1,2.7c8.6,1.8,17,3.3,25.8,3.1c3,0,6,0,9,0c6,0,12,0,18,0c1.7,0,3.3,0,5,0c6.4,0.5,12.7-0.2,19-0.9
			c0,10.9,8.1,19.6,19.2,20c7.5,0.3,15-0.3,22.5,0.2c2.6,0.2,3.4-3.2,5.9-1.9c2.9,1.5,6,0.9,8.6-0.3c5.1-2.3,10.6-3,15.9-4.4
			c10.8-2.9,20-7.5,28.3-15.2c9.1-8.5,7.7-20.9-0.7-28.4c-1.3-1.2-3.9-1.4-3.9-4c6.2-1.6,7.9-6.1,7.4-11.9c-0.2-2.2-0.5-4.3-0.7-6.4
			c-0.4-4.8-2.3-9.3-2.6-14.1c-1-14.4-5.2-28-11.2-41c-6.8-14.6-15-28.5-22.9-42.5c-1.9-6.6-7.3-10.1-12.3-14
			c-5-3.9-11.1-5.7-16.5-8.9c0.1-2-0.2-3.5-2.8-2.7c-1.3,0.4-2.8,0.4-4.2,0.6c-0.7-1.3-1.9-0.9-3-0.9c-2.1-0.5-4.2-1-6.3-1.5
			c-9.4-2.2-18.7-5.4-28.7-4.6c-2.2,0.1-3.2-0.7-3-3.2c0.5-5.9-1.1-11.3-4-16.4c-0.9-1.5-2.1-4.2-2.9-4.2c-2,0.1-2.2,2.7-3.1,4.4
			c-3,5.4-5.1,11.2-8.8,16.2c-2-1.7-4.9-2.3-6.4-4.7c-3.7-6-7-7.5-13.6-6.2c-0.3-0.2-0.6-0.2-0.9-0.2c-1.6-1.7-4.5-0.6-5.8-2.8
			c-0.4-1.1-1.3-1.3-2.3-1.1c-4.8-1-8.6,0.6-11.1,4.9c-3.3,3.5-8.5,5.7-7.9,11.7c0.5,5-2.1,8.1-6.1,10.3c-3-0.6-5.3,1.4-7.8,2.4
			c-11.5,4.8-21.7,11.3-27.9,22.7c-0.1,0.6-0.2,1.2-0.3,1.8c-2,1.3-2.9,3.3-3.4,5.6L86.4,143.6z"/>
		<path class="st1" d="M83.6,149.3c0.2-0.4,0.4-0.8,0.6-1.2c2.6-0.6,3.3-2.1,2.3-4.5c0,0,0.1-0.1,0.1-0.1c3.9-0.2,3.1-3.2,3.4-5.6
			c0.1-0.6,0.2-1.2,0.3-1.8c1.5,0.8,1.8,2.2,1.8,3.8c-0.1,4.7,1.6,8.1,5.8,10.8c4.2,2.7,8.8,4.3,13.3,6.1c16.4,6.7,33.5,8.8,51,9.3
			c8.7,0.2,17.2-1.2,25.9-1c6,0.1,11.9-1.1,17.7-2c1.3-0.2,2.2-0.6,2.3-2c0.9,0.1,1.4,0.6,2.1,1.1c3.5,2.8,2.8,7.5,4.9,10.9
			c0.6,4.5,0.7,9.1,1.2,13.6c0.5,4.5,0.4,9.2,2.8,13.3c-0.3,5.5,1,10.8,1.5,16.2c1.2,13.6,5,27,4.5,40.8c-1.8,1.8-2.6,4.1-3.1,6.6
			c-1.5,7.9-4.8,10.7-12.3,12.6c-9.2,2.3-18.4-0.7-27.5,0.8c-1.4,0.2-2.5-0.6-3.1-2c0.8-1.9,5.9-1.6,3-5.3c-2.4-3.1-5.2-1.8-7.8,0.2
			c-1.5,1.1-1.1,2.6-1.2,4.1c-10.9,2-20.6-2.1-30.5-5.8c4.1-1.8,8.2-2.4,12.5-2.2c1.7,0.1,3.6-0.1,3.8-2.2c0.2-2.1-1.4-3.3-3.4-3.6
			c-1.1-0.2-2.3-0.1-3.5-0.1c-12.5,0.6-25.2,2.6-36.9-4c-1.1-3.1,0-8.1-6-7c0.2-1.8-0.8-3-1.8-4.4c-1.6-2.3-3.2-4.7-4.1-7.3
			c-2.6-8.4-6.1-16.1-13.1-21.8c-1.4-1.1-2.5-2.6-3.4-4.2c-8.4-14.5-6.5-30.4-6.2-46.1C80.5,159.6,84.2,154.9,83.6,149.3z
			 M147.6,194.9c-3.8,0.2-5.7,2.4-8.1,3.5c-1.7,0.8-3.3,2.4-2.2,4.4c1.2,2.3,3.9,1.8,5.2,0.7c2.6-2.1,5.2-2.6,8.3-2.5
			c1.3,0.1,2.7-0.9,1.7-2.1C151,197.2,149.8,194.4,147.6,194.9z M195,204.8c0.2-2.9-0.5-5.6-3.9-5.7c-3.2-0.1-4.8,2.5-4.6,5.3
			c0.2,2.7,1.3,5.6,5,5.6C195.2,210,195,207.3,195,204.8z M117,218c0-3-1.1-5.6-4.2-5.7c-3.1-0.1-4.4,3-4.5,5.5
			c-0.1,2.4,1.5,5,4.4,5.1C115.8,223,117,220.9,117,218z M150.9,250.3c-0.3-0.4-0.7-0.9-1.1-1.3c-2.4-2-9.8-0.5-11.2,2.2
			c-0.7,1.4-1,3.6,0.9,3.5c3.8-0.3,7-3.1,11-3.3C150.6,251.4,150.7,250.8,150.9,250.3z M156,229.1c0-3.4-1.6-4.1-3.9-4.1
			c-3.1,0-5.1,1.5-5.8,4.3c-0.5,1.7,1.3,3.2,2.7,2.4C151.2,230.3,155.3,232.9,156,229.1z"/>
		<path class="st2" d="M83.6,149.3c0.6,5.6-3,10.4-3.2,15.9c-0.4,15.7-2.2,31.5,6.2,46.1c0.9,1.6,2,3.1,3.4,4.2
			c7.1,5.7,10.5,13.4,13.1,21.8c0.8,2.6,2.5,5,4.1,7.3c1,1.4,2,2.6,1.8,4.4c-1.6,0-3.3-0.1-4.9,0.1c-2.2,0.3-4.2,1.3-4.9,3.5
			c-0.8,2.4,0.6,4,2.6,5.3c1.6,1.1,3,2.5,4.5,3.8c3.1,2.9,5.9,2.4,7.5-1.5c0.6-1.4,0.8-2.8,1.2-4.2c11.7,6.7,24.4,4.7,36.9,4
			c1.2-0.1,2.3-0.1,3.5,0.1c2,0.4,3.5,1.5,3.4,3.6c-0.2,2.2-2.1,2.3-3.8,2.2c-4.3-0.2-8.4,0.4-12.5,2.2c9.9,3.7,19.6,7.9,30.5,5.8
			c1.9,1.2,3.9,1,6,1c0.6,1.3,1.7,2.2,3.1,2c9.1-1.5,18.3,1.5,27.5-0.8c7.6-1.9,10.9-4.7,12.3-12.6c0.5-2.5,1.3-4.7,3.1-6.6
			c3.2,7.9,4.9,15.8,1,24c-5,1-10,2-15,3c-0.3,0-0.7,0-1,0c-6.3,0.7-12.6,1.4-19,0.9c-1.7-1.3-3.3-1.3-5,0c-6,0-12,0-18,0
			c-3-1.4-6-1.4-9,0c-8.8,0.2-17.2-1.3-25.8-3.1c-5.7-1.2-12.1-1.3-18.1-2.7c-10.1-2.4-19.8-5.4-28.7-10.9
			c-6.3-3.9-11.5-8.4-15.8-14.7c-6.3-9.3-6-18.2-0.8-27.5c0.8-1.4,1.3-2.7,1.2-4.2c-0.7-11.3,0.9-22.5,1-33.8
			c0.1-11.6,3.3-22.6,8.4-33C81.4,153,80.9,150.3,83.6,149.3z"/>
		<path class="st3" d="M210,284c0.3,0,0.7,0,1,0c1.2,1.7,0.5,4.5,2.8,5.7c5.9,3.1,11.6,7,18.6,7.3c9.8,0.3,18.9-2.6,28-5.9
			c11.1-4.1,22.5-7.6,32.1-15.1c7-5.5,7.6-11.9,1.1-17.9c-4.2-3.9-9.8-4.5-15.1-6c-5.3-1.5-11.3-1.5-15.8-5.1
			c-4.4-3.5-6.6-8.7-7.5-14.2c-0.8-4.6-2.4-9-3.7-13.3c-3.3-10.2-9.7-18.7-16.8-26.6c-4.5-5-9.4-9.7-12.5-15.8
			c0.8,0.1,1.8,0,2.4,0.4c15.9,10.2,29,22.8,36.6,40.6c2.2,5.1,4.3,10.5,9,14c2.5,3.2,6.4,4.6,9.9,6.1c5.6,2.5,10.7,6.4,17.1,6.9
			c2.2,3,5.4,4.1,8.8,5c0,2.5,2.5,2.8,3.9,4c8.5,7.5,9.8,19.9,0.7,28.4c-8.2,7.7-17.5,12.3-28.3,15.2c-5.3,1.4-10.8,2.1-15.9,4.4
			c-2.7,1.2-5.7,1.8-8.6,0.3c-2.5-1.3-3.4,2.1-5.9,1.9c-7.5-0.5-15,0.1-22.5-0.2C218.1,303.6,210,294.9,210,284z"/>
		<path class="st4" d="M153.4,85.2c1.3,2.2,4.2,1.1,5.8,2.8c-1.6,0.3-3.4-0.2-4.7,1.1c-1.6,1.5-2.3,3.2-0.1,4.4
			c2.3,1.3,4.6,0,6.4-1.3c2.3-1.5-0.5-2.7-0.8-4.1c6.7-1.3,9.9,0.2,13.6,6.2c1.5,2.4,4.4,2.9,6.4,4.7c0,0.5,0,1,0.1,1.5
			c-1.1,2.6,2.5,9-5.2,6.4c-0.9-0.3-0.7,0.9-1,1.4c-3.8,6.5-3.3,8.5,3.6,13.5c-0.9-6,1.6-10.7,4.8-15.1c2.6,1.1,3.8,3.6,5.5,5.6
			c0,1,0.1,1.9,0.1,2.9c0,0.3-0.1,0.7-0.1,1c0.4,1.3,0.9,2.6,1.3,3.9c-1,4.5-2,8.9-3,13.4c0.3,2.3-3.5,3.1-2.1,5.8
			c-0.4,0.6-0.7,1.2-1.1,1.8c-1.5,0.5-3,0.9-4.5,1.4c-3.8-1.2-1.6-2.6-0.2-4c5.6-5.7,5.7-9.2-0.6-15.9c2.6,9.9-2.1,14-10.9,15.6
			c5.3,1.2,4.3,3.5,1.6,4.8c-3.1,1.5-5.2,4-7.9,5.8c-3.2,2.1-6.7,1.5-9.9-0.2c-2.2-1.1-4.5-2.6-2.8-6.1c0.9-1.8-1.9-3.4-1.3-5.6
			c0-0.1-0.7-0.6-1.1-0.6c-0.8,0-1.2,0.6-1,1.3c0.1,0.9,1,1.8,0,2.8c-2-0.4-4-1.1-5.1-2.7c-2.1-3-4.4-4-8-2.8
			c-2.5,0.9-4.6-0.1-5.7-3.2c-0.6-1.7-0.9-4.5-3.7-4.7c3.2-4.1,2.5-9.4,4.2-14c2.4,3.6-1,7.2,0,10.8c0.7,3.4,3.5,3.5,6,4.2
			c1.9,0.6,2.8,4,5.2,2.4c1.5-1,0.8-3.4,0.6-5.1c-0.3-3.4-2.9-2.1-4.9-2.2c-1-1.4,2.6-2.1,0.8-3c-3.1-1.7-4.2-4.4-5-7.4
			c-0.5-2.1-1.8-0.2-2.7-0.5c-0.1-0.4-0.2-0.9-0.3-1.3c4-2.2,6.7-5.3,6.2-10.3c-0.6-6,4.6-8.2,7.9-11.7c1.6,0.3,3.1,0.6,4.7,0.9
			C148.6,90.2,152.5,90.5,153.4,85.2z M166.1,119c-1.7-1.7-5.8-2.5-2.4-6.3c4.3-4.8,2.7-13.1-3-16.2c-0.5-0.3-1.3-0.3-1.8-0.1
			c-0.8,0.3-0.6,1.2-0.1,1.7c7.1,6.1,1.1,11.8-0.9,17.3c-1,2.7-2,4.1,0,6.9c3.3,4.5,1.2,7.6-4.4,7.9c-1.3,0.1-3-0.8-3.9,1.1
			c10.1,4.6,16.1,3.5,17.6-8.4c3.1,0.1,5.8,0.9,7.1,4.2c0.4,0.9,1,2,2.1,1.3c0.9-0.6,0.7-1.8,0.3-2.7
			C174.5,121.2,171.1,118.7,166.1,119z M141.1,110.9c-0.3-2.2,1.1-5.9-3.5-5.8c-3.7,0-5.7,2.3-5.6,6c0,3.6,1.7,6.4,5.3,6.6
			C141.7,118,141,114.2,141.1,110.9z M152.2,108c2.3-0.6,3.6-1.8,3.8-4.1c0.2-2.7-1.4-4.2-3.7-4.4c-2.2-0.2-3.9,1.7-4,3.6
			C148.3,105.3,150.3,106.9,152.2,108z M152.7,120.4c0.4-2.1,0-3.3-2.1-3.4c-2.5,0-3.7,1.3-3.7,3.7c0,2.4-0.7,5.9,2.8,5.8
			C153.7,126.3,150.9,121.8,152.7,120.4z M141.4,91.1c-2.7,1-4.8,3-5.9,5.8c-0.5,1.2,1.1,2.2,2.2,1.8c2.5-0.9,5.7-1.1,6.4-4.5
			C144.3,92.6,143.4,91.5,141.4,91.1z M151.4,143c5.2,2.5,8.2-0.7,10.8-4.3c0.4-0.5,3.1-0.1,1.1-2c-1.2-1.2-2.1-1.2-3,0.4
			C158.5,140.6,155.5,142.6,151.4,143z M182.2,119.9c1.4-0.6,2-2,1.9-3.7c-0.1-1.3-0.6-2.3-2.1-1.9c-1.7,0.4-2,1.9-2,3.5
			C179.9,118.9,180.1,120,182.2,119.9z M168.9,131.8c-1.2,0.5-3.5-0.8-3.4,1.5c0.1,1.7,2.1,1.7,3.6,1.7c1.4,0,3-0.3,3.1-1.8
			C172.2,130.8,170,132.4,168.9,131.8z"/>
		<path class="st5" d="M305.8,250c-3.4-0.9-6.6-2.1-8.8-5c0.4-14.9-3.6-29.2-6.6-43.5c-3.4-16.1-12.7-30-20.7-44.3
			c-3.7-6.6-8.4-9.6-16-8.3c-2.1,0.3-4.7,1-6.7-0.9c1.8-1.8,4.1-0.6,6.1-1c4.6-0.8,9.3,1.5,13.9,0c1.3-0.6,2-1.5,2-3l0,0
			c2.3,0.1,3.3-0.8,4.2-3.2c0.8-2.3-0.6-5.5,2.6-6.8c8,14,16.1,27.9,22.9,42.5c6.1,13,10.2,26.7,11.2,41c0.3,4.9,2.2,9.3,2.6,14.1
			c0.2,2.2,0.5,4.3,0.7,6.4C313.8,244,312,248.4,305.8,250z"/>
		<path class="st6" d="M126,113c-1.8,4.5-1,9.9-4.2,14c-1.7,0.3-1.7,1.7-1.8,3c-0.7,5.3,0.6,10,4.2,13.9c0.5,4.3,5.9,10,12,12
			c11.2,3.6,22.5,7.1,34.7,6.3c8.8-0.6,17.6-0.2,26.4-0.1c2.7,0,5.3-0.3,7.8-1.1c1,0,2,0,2.9,0.1c-0.1,1.4-1,1.8-2.3,2
			c-5.9,0.9-11.7,2.1-17.7,2c-8.6-0.2-17.2,1.3-25.9,1c-17.5-0.5-34.6-2.6-51-9.3c-4.6-1.9-9.1-3.5-13.3-6.1
			c-4.2-2.6-5.9-6.1-5.8-10.8c0-1.6-0.3-3-1.8-3.8c6.2-11.4,16.4-17.9,27.9-22.7c2.5-1,4.8-3,7.8-2.4c0.1,0.4,0.2,0.9,0.3,1.3
			C126.1,112.4,126,112.7,126,113z"/>
		<path class="st7" d="M187.9,112.1c-1.7-2-2.9-4.5-5.5-5.6c-0.5-2.1,0.7-4.8-2.2-6.1c0-0.5,0-1-0.1-1.5c3.7-5,5.8-10.8,8.8-16.2
			c0.9-1.6,1.2-4.2,3.1-4.4c0.9-0.1,2.1,2.6,2.9,4.2c2.9,5.1,4.5,10.5,4,16.4c-0.2,2.5,0.8,3.3,3,3.2c-1.2,4.2-0.9,8.7-3.5,12.6
			c3.5,0.4,6.3,0,9.1-0.8c7.4-2.1,14.9-2.9,22.5-3.1c1.6,0,3.4,0.2,4.5-1.5c0.8,0,1.6-0.1,2.4-0.1c1-0.1,2-0.1,2.9-0.2
			c1.4-0.2,2.9-0.2,4.2-0.6c2.7-0.8,2.9,0.7,2.8,2.7c-1.3,2.3-2.6,4.6-3.9,6.9c-3.9,4.6-6.4,10.6-12.1,13.4
			c-2.9,1.4-4.8,2.3-1.6,5.2c-0.5,0.1-1,0.2-1.5,0.3c-1,0.4-2,0.8-2.9,1.2c-1.4,0.5-2.8,1.1-4.2,1.6c-0.3,0-0.5,0.1-0.8,0.2
			c-0.7,0-1.1,0.4-1.2,1l0-0.1c-0.9,0.1-1.9,0.2-2.8,0.3c-0.3,0-0.7,0-1,0.1c-2,0-4.2-0.6-5.5,1.6c-4.9-0.2-9.7-0.4-14.6-0.5
			c-1.4-1.6-3.2-1-4.9-1c-1-0.1-1.9-0.2-2.9-0.3c-0.5-0.7-1-1.4-1.4-2.1c1.1-1.2,2.3-2.4,3.4-3.5c0.6-0.1,1.1-0.3,1.7-0.4
			c3.6,4.1,8.3,3.4,12.9,2.7c10.6-1.5,19.1-7.3,27.2-13.9c1-0.8,3.5-1.2,2.5-3c-0.9-1.5-3-0.8-4.5,0.1c-8.3,4.8-17.5,7.6-26.4,10.6
			c-3.7,1.2-7.2,4-11.5,3.5c2.6-4.9-1.5-9.7-0.3-14.5c5.4-7.5,6.5-24.9,1.8-29.9C192,98,189.4,105,187.9,112.1z"/>
		<path class="st6" d="M234.6,109.4c-1.1,1.7-2.8,1.5-4.5,1.5c-7.6,0.1-15.2,1-22.5,3.1c-2.8,0.8-5.7,1.1-9.1,0.8
			c2.6-3.9,2.3-8.5,3.5-12.6c9.9-0.8,19.2,2.3,28.7,4.6c-1.2,0.2-2.4,0.4-5,0.8C229.6,108.3,232.1,108.9,234.6,109.4z"/>
		<path class="st6" d="M243.1,118c1.3-2.3,2.6-4.6,3.9-6.9c5.4,3.2,11.5,5,16.5,8.9c5,3.9,10.4,7.4,12.3,14
			c-3.2,1.3-1.8,4.6-2.6,6.8c-0.8,2.3-1.9,3.3-4.2,3.2c2.7-11.3,0-17.8-13-21.5C251.8,121.3,246.8,121.2,243.1,118z"/>
		<path class="st8" d="M144.7,89.9c-1.6-0.3-3.1-0.6-4.7-0.9c2.6-4.3,6.3-5.9,11.1-4.9c0.5,1.4,0.3,2.5-1.4,2.9
			C147.7,87.4,146.2,88.7,144.7,89.9z"/>
		<path class="st8" d="M160.1,88.1c0.3,1.4,3.1,2.6,0.8,4.1c-1.8,1.2-4.1,2.6-6.4,1.3c-2.2-1.3-1.5-3,0.1-4.4
			c1.4-1.3,3.1-0.8,4.7-1.1C159.5,87.9,159.8,88,160.1,88.1z"/>
		<path class="st9" d="M144.7,89.9c1.5-1.2,3-2.5,5-2.9c1.7-0.4,1.9-1.5,1.4-2.9c1.1-0.2,1.9,0,2.3,1.1
			C152.5,90.5,148.6,90.2,144.7,89.9z"/>
		<path class="st10" d="M234.6,109.4c-2.5-0.5-5-1.1-8.9-1.9c2.6-0.4,3.8-0.6,5-0.8c2.1,0.5,4.2,1,6.3,1.5c0,0.4,0,0.7,0.1,1.1
			C236.2,109.3,235.4,109.3,234.6,109.4z"/>
		<path class="st2" d="M89.9,137.8c-0.3,2.4,0.5,5.4-3.4,5.6C87,141.2,88,139.2,89.9,137.8z"/>
		<path class="st2" d="M86.4,143.6c1,2.4,0.3,4-2.3,4.5C83.7,146,85,144.7,86.4,143.6z"/>
		<path class="st11" d="M159,284.9c3-1.4,6-1.4,9,0C165,284.9,162,284.9,159,284.9z"/>
		<path class="st11" d="M186,284.9c1.6-1.3,3.3-1.3,5,0C189.3,284.9,187.7,284.9,186,284.9z"/>
		<path class="st6" d="M237,109.3c0-0.4,0-0.7-0.1-1.1c1.1,0,2.3-0.5,3,0.9C239,109.1,238,109.2,237,109.3z"/>
		<path class="st12" d="M222,177c3.1,6.1,8,10.8,12.5,15.8c7.2,8,13.6,16.5,16.8,26.6c1.4,4.3,3,8.7,3.7,13.3
			c0.9,5.5,3.2,10.7,7.5,14.2c4.5,3.6,10.5,3.6,15.8,5.1c5.2,1.5,10.8,2.1,15.1,6c6.6,6,5.9,12.5-1.1,17.9
			c-9.6,7.5-20.9,11.1-32.1,15.1c-9,3.3-18.2,6.2-28,5.9c-6.9-0.2-12.7-4.1-18.6-7.3c-2.2-1.2-1.5-3.9-2.8-5.7c5-1,10-2,15-3
			c2.9,1.4,4.1-1,5.3-2.7c4-6,4-12.8,3.6-19.6c-0.6-11.6-5.8-22.2-8.5-33.3c-1.5-6.4-4.4-12.4-4.6-19.2c0-2,0.4-5.2-2.8-6.2
			c-2.3-4.1-2.3-8.9-2.8-13.3c-0.5-4.5-0.6-9.1-1.2-13.6C217.8,173.5,220.1,174.9,222,177z M238.1,228.5c-0.3,0.2-0.7,0.3-1,0.5
			c0.1,0.6,0,1.3,0.3,1.8c4.3,7.5,6.9,15.6,9.7,23.7c3.8,11.3,2.7,21.3-5.4,30.3c-0.9,1-3,1.9-2.1,3.6c0.9,1.7,3.1,1.8,4.9,1.6
			c14.4-1.7,26.4-7.6,35.4-19.3c3.5-4.6,2.5-7.9-2.9-9.7c-2.5-0.8-5.1-1.4-7.7-1.9c-6.3-1.1-11.4-3.7-15.2-9.2
			C249.1,242.5,243.5,235.6,238.1,228.5z"/>
		<path class="st13" d="M222,177c-1.9-2.1-4.2-3.5-7-4c-2.1-3.4-1.5-8-4.9-10.9c-0.7-0.5-1.2-1-2.1-1.1c-1,0-2,0-2.9-0.1
			c-0.1-0.8-0.4-1.5-1.2-2c-5.2-2.9-10.4-6-15.7-8.7c-1.5-0.8-3-1.2-3.2-3.2c10.8-0.9,20.3,3.8,29.9,7.4c4.8,1.8,13.5,1.3,12,10.8
			c0,0.1,0.2,0.3,0.3,0.4c4,7.3,9,9.7,17.2,8c4.6-0.9,7.8,1,8.5,5.6c0.3,2,1,3.7,2.6,4.6c4.5,2.7,5.7,7.6,8,11.7
			c0.7,1.2,2.2,3.4,0.3,5.4c-3.2,3.2-2.1,8,2.2,9.1c1.7,0.4,2.7,1.1,3,2.8c1,5.4,2,10.7,2.9,16.1c0.3,1.5-0.6,2.5-1.9,3.2
			c-4.7-3.6-6.9-8.9-9-14c-7.6-17.8-20.6-30.5-36.6-40.6C223.8,177,222.8,177.1,222,177z"/>
		<path class="st3" d="M219,200c3.3,1,2.8,4.1,2.8,6.2c0.2,6.8,3.1,12.8,4.6,19.2c2.7,11.2,7.8,21.7,8.5,33.3
			c0.4,6.7,0.4,13.6-3.6,19.6c-1.1,1.7-2.3,4.1-5.3,2.7c3.9-8.2,2.2-16.1-1-24c0.5-13.8-3.3-27.2-4.5-40.8
			C220,210.8,218.7,205.5,219,200z"/>
		<path class="st11" d="M115,256c-0.4,1.4-0.7,2.9-1.2,4.2c-1.6,3.9-4.4,4.4-7.5,1.5c-1.4-1.3-2.9-2.7-4.5-3.8c-2-1.3-3.3-3-2.6-5.3
			c0.7-2.2,2.7-3.3,4.9-3.5c1.6-0.2,3.3-0.1,4.9-0.1C115.1,247.8,113.9,252.9,115,256z"/>
		<path class="st11" d="M147.6,194.9c2.2-0.4,3.4,2.3,4.9,4c1,1.1-0.3,2.1-1.7,2.1c-3.1-0.1-5.7,0.4-8.3,2.5c-1.3,1.1-4,1.5-5.2-0.7
			c-1-2,0.5-3.6,2.2-4.4C141.9,197.2,143.8,195.1,147.6,194.9z"/>
		<path class="st11" d="M195,204.8c0,2.5,0.2,5.2-3.5,5.2c-3.8,0-4.8-2.9-5-5.6c-0.2-2.7,1.4-5.3,4.6-5.3
			C194.5,199.2,195.2,201.9,195,204.8z"/>
		<path class="st11" d="M117,218c0,2.9-1.2,5-4.3,4.9c-2.9-0.1-4.5-2.7-4.4-5.1c0.1-2.4,1.4-5.6,4.5-5.5
			C115.9,212.4,117,215,117,218z"/>
		<path class="st11" d="M150.9,250.3c-0.2,0.5-0.3,1.1-0.5,1.1c-4,0.2-7.2,3.1-11,3.3c-1.9,0.1-1.6-2.1-0.9-3.5
			c1.4-2.7,8.8-4.2,11.2-2.2C150.2,249.4,150.6,249.9,150.9,250.3z"/>
		<path class="st11" d="M156,229.1c-0.6,3.8-4.8,1.2-7.1,2.6c-1.4,0.8-3.1-0.7-2.7-2.4c0.7-2.8,2.8-4.3,5.8-4.3
			C154.4,225,156,225.7,156,229.1z"/>
		<path class="st11" d="M179,275c-2.1,0-4.1,0.2-6-1c0.1-1.4-0.3-2.9,1.2-4.1c2.6-2,5.4-3.3,7.8-0.2
			C184.9,273.4,179.8,273.1,179,275z"/>
		<path class="st11" d="M270,232c1.3-0.6,2.2-1.7,1.9-3.2c-0.9-5.4-2-10.7-2.9-16.1c-0.3-1.7-1.3-2.4-3-2.8
			c-4.3-1.2-5.5-5.9-2.2-9.1c1.9-1.9,0.4-4.1-0.3-5.4c-2.4-4-3.5-9-8-11.7c-1.6-0.9-2.2-2.6-2.6-4.6c-0.7-4.6-4-6.5-8.5-5.6
			c-8.2,1.7-13.3-0.7-17.2-8c-0.1-0.1-0.3-0.3-0.3-0.4c1.5-9.6-7.3-9-12-10.8c-9.6-3.6-19.1-8.3-29.9-7.4c-1,0-1.9,0-2.9-0.1
			c0.7-1.8,1.5-2.7,4-2.3c10.6,1.7,21.3,2,32,2.2c9.7-0.1,19.4,0.1,29,1c2,1.8,4.6,1.2,6.7,0.9c7.6-1.2,12.3,1.8,16,8.3
			c8,14.3,17.3,28.2,20.7,44.3c3,14.3,7.1,28.6,6.6,43.5c-6.4-0.4-11.5-4.4-17.1-6.9C276.4,236.6,272.5,235.3,270,232z"/>
		<path class="st9" d="M124.1,143.9c-3.6-4-5-8.6-4.2-13.9c0.2-1.3,0.1-2.7,1.8-3c2.9,0.2,3.1,3,3.7,4.7c1.2,3.1,3.2,4.1,5.7,3.2
			c3.7-1.2,5.9-0.2,8,2.8c1.1,1.6,3.1,2.3,5.1,2.7c1-1,0.1-1.9,0-2.8c-0.1-0.8,0.3-1.3,1-1.3c0.4,0,1.2,0.5,1.1,0.6
			c-0.6,2.2,2.2,3.8,1.3,5.6c-1.8,3.5,0.6,4.9,2.8,6.1c3.1,1.7,6.7,2.3,9.9,0.2c2.7-1.8,4.8-4.3,7.9-5.8c2.7-1.3,3.7-3.6-1.6-4.8
			c8.8-1.6,13.5-5.7,10.9-15.6c6.3,6.7,6.2,10.3,0.6,15.9c-1.4,1.4-3.7,2.8,0.2,4c-0.6,1.2-1.9,2-1.3,3.6c1.3,5,0.1,6.7-5,6.9
			C155.4,153.9,139.1,152.5,124.1,143.9z"/>
		<path class="st9" d="M167.1,122.8c-1.5,11.9-7.4,13-17.6,8.4c0.8-1.9,2.6-1.1,3.9-1.1c5.7-0.2,7.7-3.4,4.4-7.9c-2-2.7-1-4.1,0-6.9
			c2-5.4,8-11.2,0.9-17.3c-0.5-0.4-0.7-1.3,0.1-1.7c0.5-0.2,1.3-0.1,1.8,0.1c5.7,3.1,7.3,11.4,3,16.2c-3.4,3.8,0.6,4.6,2.4,6.3
			C165.7,120.5,166.3,121.7,167.1,122.8z"/>
		<path class="st5" d="M177.1,146c-0.6-1.6,0.8-2.5,1.3-3.6c1.5-0.5,3-0.9,4.5-1.4c1.4,0,2.8,0,4.2-0.1c1,0.1,1.9,0.2,2.9,0.3
			c1.1,2.8,3,2.1,4.9,1c4.9,0.2,9.7,0.4,14.6,0.5c1.8,0.1,3.7,0.2,5.5,0.3c-0.3,2.3,3.3,1.7,3,4c-10.7-0.2-21.4-0.5-32-2.2
			c-2.5-0.4-3.3,0.5-4,2.3C180.4,146.7,178.8,146.3,177.1,146z M212,144c-1.3,0.1-2.6,0.1-3.9,0.2c0,0.3,0,0.5,0.1,0.8
			c1.3,0,2.6,0,3.9,0C212.7,144.7,212.7,144.3,212,144z"/>
		<path class="st14" d="M187.9,112.1c1.6-7.1,4.1-14,4.4-21.6c4.8,5,3.6,22.4-1.8,29.9c-0.5-0.1-0.9-0.3-1.4-0.4
			c-0.4-1.3-0.9-2.6-1.3-3.9c0.7-0.2,0.9-0.6,0.1-1C187.9,114,187.9,113.1,187.9,112.1z"/>
		<path class="st8" d="M141.1,110.9c-0.1,3.3,0.6,7-3.9,6.8c-3.6-0.2-5.2-3.1-5.3-6.6c0-3.8,2-6,5.6-6
			C142.2,105.1,140.8,108.8,141.1,110.9z"/>
		<path class="st9" d="M180.1,100.4c2.9,1.2,1.7,4,2.2,6.1c-3.2,4.5-5.7,9.2-4.8,15.1c-6.9-5-7.4-7-3.6-13.5c0.3-0.5,0.1-1.7,1-1.4
			C182.6,109.5,179,103,180.1,100.4z"/>
		<path class="st9" d="M128.9,112.7c0.9,3,2,5.7,5,7.4c1.7,1-1.8,1.6-0.8,3c-1.1,1.5-1.1,3.2-0.9,4.9c-2.5-0.7-5.4-0.8-6-4.2
			c3.7,0.3,2.9-2.2,2.5-4.2C128.1,117.2,127.2,114.9,128.9,112.7z"/>
		<path class="st9" d="M189.1,119.9c0.5,0.1,0.9,0.3,1.4,0.4c-1.2,4.9,3,9.6,0.3,14.5l0,0c-0.6,0.1-1.1,0.3-1.7,0.4
			c0.2-2.5-0.8-3.1-3-1.9C187.1,128.8,188.1,124.4,189.1,119.9z"/>
		<path class="st8" d="M152.2,108c-2-1.1-4-2.7-3.8-5c0.1-1.8,1.8-3.8,4-3.6c2.3,0.2,3.8,1.7,3.7,4.4
			C155.8,106.2,154.5,107.4,152.2,108z"/>
		<path class="st8" d="M152.7,120.4c-1.8,1.4,1,6-2.9,6.1c-3.5,0.1-2.8-3.4-2.8-5.8c0-2.4,1.2-3.7,3.7-3.7
			C152.7,117,153.1,118.3,152.7,120.4z"/>
		<path class="st8" d="M141.4,91.1c2,0.3,3,1.5,2.7,3.2c-0.7,3.4-3.9,3.6-6.4,4.5c-1.1,0.4-2.7-0.6-2.2-1.8
			C136.6,94.2,138.7,92.1,141.4,91.1z"/>
		<path class="st8" d="M167.1,122.8c-0.8-1.1-1.4-2.3-1-3.8c5.1-0.3,8.5,2.1,10.6,6.5c0.4,0.9,0.6,2.2-0.3,2.7
			c-1.1,0.7-1.8-0.4-2.1-1.3C172.9,123.7,170.2,122.9,167.1,122.8z"/>
		<path class="st8" d="M132.1,128c-0.1-1.7-0.1-3.4,0.9-4.9c1.9,0.1,4.6-1.2,4.9,2.2c0.2,1.7,0.9,4-0.6,5.1
			C134.9,132,134,128.6,132.1,128z"/>
		<path class="st9" d="M151.4,143c4.1-0.3,7-2.4,8.9-5.9c0.9-1.7,1.8-1.6,3-0.4c2,1.9-0.7,1.4-1.1,2
			C159.6,142.3,156.7,145.5,151.4,143z"/>
		<path class="st8" d="M128.9,112.7c-1.6,2.3-0.8,4.6-0.3,6.9c0.4,2,1.2,4.5-2.5,4.2c-1.1-3.6,2.3-7.2,0-10.8c0-0.3,0.1-0.5,0.2-0.8
			C127.1,112.5,128.3,110.6,128.9,112.7z"/>
		<path class="st8" d="M182.2,119.9c-2,0.1-2.3-1-2.2-2.2c0-1.5,0.3-3,2-3.5c1.5-0.4,2,0.6,2.1,1.9
			C184.1,117.9,183.5,119.3,182.2,119.9z"/>
		<path class="st8" d="M168.9,131.8c1.1,0.6,3.4-1,3.3,1.5c0,1.5-1.6,1.8-3.1,1.8c-1.5,0-3.5,0-3.6-1.7
			C165.4,131,167.7,132.3,168.9,131.8z"/>
		<path class="st8" d="M186.1,133.3c2.2-1.2,3.2-0.5,3,1.9c-1.1,1.2-2.3,2.4-3.4,3.5c-0.5,0.1-1.1,0.2-1.6,0.4
			C182.6,136.5,186.4,135.6,186.1,133.3z"/>
		<path class="st6" d="M184.1,139.2c0.5-0.1,1.1-0.2,1.6-0.4c0.5,0.7,1,1.4,1.4,2.1c-1.4,0-2.8,0-4.2,0.1
			C183.3,140.4,183.7,139.8,184.1,139.2z"/>
		<path class="st7" d="M188,115c0.8,0.4,0.6,0.7-0.1,1C187.9,115.7,187.9,115.3,188,115z"/>
		<path class="st10" d="M218,147c0.2-2.3-3.3-1.7-3-4c0-0.6,0-1.2,0-1.9c0.3,0,0.7,0,1-0.1c0.4,0.8,0.9,1.7,2,1.6
			c1-0.2,0.8-1.1,0.8-1.8c0,0,0,0.1,0,0.1c0.4-0.3,0.8-0.7,1.2-1c0.2-0.1,0.5-0.2,0.8-0.2c2.4,2,4,2.1,4.2-1.6c1-0.4,2-0.8,2.9-1.2
			c0.4,0.7,1.1,1.4,1.9,0.9c0.9-0.5,0-0.9-0.4-1.2c-3.2-2.9-1.3-3.8,1.6-5.2c5.7-2.8,8.2-8.8,12.1-13.4c3.7,3.1,8.7,3.2,12.9,4.4
			c13,3.7,15.7,10.3,13,21.5c0,0,0,0,0,0c-2,0.1-2,1.5-2,3c-4.6,1.5-9.3-0.8-13.9,0c-2,0.4-4.3-0.8-6.1,1
			C237.4,147.1,227.7,146.9,218,147z"/>
		<path class="st6" d="M267,147c0-1.5,0-2.9,2-3C269,145.4,268.3,146.4,267,147z"/>
		<path class="st10" d="M177.1,146c1.6,0.3,3.3,0.7,4.9,1c1,0,1.9,0,2.9,0.1c0.2,2,1.6,2.4,3.2,3.2c5.3,2.7,10.5,5.8,15.7,8.7
			c0.8,0.4,1.1,1.1,1.2,2c-2.5,0.8-5.1,1.1-7.8,1.1c-8.8-0.1-17.6-0.5-26.4,0.1c-12.2,0.8-23.4-2.7-34.7-6.3c-6.2-2-11.5-7.6-12-12
			c14.9,8.6,31.2,10,47.9,9.1C177.3,152.6,178.4,151,177.1,146z"/>
		<path class="st14" d="M190.8,134.9c4.3,0.5,7.8-2.2,11.5-3.5c9-3,18.1-5.9,26.4-10.6c1.5-0.9,3.6-1.5,4.5-0.1
			c1.1,1.8-1.4,2.2-2.5,3c-8.1,6.5-16.5,12.4-27.2,13.9C199.1,138.2,194.4,139,190.8,134.9C190.8,134.9,190.8,134.9,190.8,134.9z"/>
		<path class="st6" d="M215,141.1c0,0.6,0,1.2,0,1.9c-1.8-0.1-3.7-0.2-5.5-0.3C210.8,140.5,213,141.2,215,141.1z"/>
		<path class="st6" d="M194.9,142.2c-1.9,1.1-3.8,1.8-4.9-1C191.7,141.2,193.5,140.6,194.9,142.2z"/>
		<path class="st5" d="M225,138c-0.2,3.7-1.8,3.7-4.2,1.6C222.2,139.1,223.6,138.6,225,138z"/>
		<path class="st5" d="M218.9,140.8c0,0.7,0.2,1.7-0.8,1.8c-1.1,0.2-1.5-0.7-2-1.6C217,141,217.9,140.9,218.9,140.8z"/>
		<path class="st5" d="M229.4,136.6c0.4,0.4,1.3,0.7,0.4,1.2c-0.8,0.4-1.4-0.2-1.9-0.9C228.4,136.8,228.9,136.7,229.4,136.6z"/>
		<path class="st5" d="M220,139.9c-0.4,0.3-0.8,0.7-1.2,1C219,140.3,219.4,139.9,220,139.9z"/>
		<path class="st15" d="M238.1,228.5c5.3,7.1,10.9,14,16,21.3c3.8,5.5,8.9,8.1,15.2,9.2c2.6,0.5,5.2,1,7.7,1.9
			c5.4,1.8,6.4,5.1,2.9,9.7c-8.9,11.7-21,17.6-35.4,19.3c-1.8,0.2-4,0.1-4.9-1.6c-0.9-1.6,1.1-2.5,2.1-3.6c8.1-9,9.3-19,5.4-30.3
			c-2.8-8.1-5.4-16.3-9.7-23.7c-0.3-0.5-0.2-1.2-0.3-1.8C237.5,228.8,237.8,228.6,238.1,228.5z"/>
		<path class="st6" d="M212,145c-1.3,0-2.6,0-3.9,0c0-0.3,0-0.5-0.1-0.8c1.3-0.1,2.6-0.1,3.9-0.2C212,144.3,212,144.7,212,145z"/>
		<path class="st10" d="M212,145c0-0.3,0-0.7,0-1C212.7,144.3,212.7,144.7,212,145z"/>
	</g>
</g>
</svg>
