<?xml version="1.0" encoding="utf-8"?>
<!-- Generator: Adobe Illustrator 21.1.0, SVG Export Plug-In . SVG Version: 6.00 Build 0)  -->
<svg version="1.1" id="Layer_1" xmlns="http://www.w3.org/2000/svg" xmlns:xlink="http://www.w3.org/1999/xlink" x="0px" y="0px"
	 viewBox="0 0 380 380" style="enable-background:new 0 0 380 380;" xml:space="preserve">
<style type="text/css">
	.st0{fill:#FEFEFE;}
	.st1{fill:#612D22;}
	.st2{fill:#663127;}
	.st3{fill:#A8655F;}
	.st4{fill:#753D30;}
	.st5{fill:#885144;}
	.st6{fill:#7A4336;}
	.st7{fill:#844D41;}
	.st8{fill:#9C5852;}
	.st9{fill:#71372A;}
	.st10{fill:#713C34;}
	.st11{fill:#80493C;}
	.st12{fill:#E2D7CC;}
	.st13{fill:#F3F0E7;}
	.st14{fill:#E5DBD1;}
	.st15{fill:#D4BFB6;}
</style>
<g>
	<g>
		<path class="st0" d="M1,191C1,129,1,67,0.9,5c0-3.4,0.7-4.1,4.1-4.1C129,1,253,1,377,0.9c3.4,0,4.1,0.7,4.1,4.1
			c-0.1,124-0.1,248,0,372c0,3.4-0.7,4.1-4.1,4.1c-124-0.1-248-0.1-372,0c-3.4,0-4.1-0.7-4.1-4.1C1,315,1,253,1,191z M168,81.9
			c-1.5,0.2-3,0.3-4.5,0.5c-1.4-0.2-2.5,0.3-3.5,1.3c-1.2,1.4-3,1-4.6,1.4c-4.1,1.1-8.4,1.6-11.5,4.9c-3,0-6,0.3-8.9,0
			c-3.5-0.3-3.9,1.2-3,3.9c-0.5,0.6-1,1.2-1.5,1.8c-0.8,0.5-1.7,0.9-2.5,1.4c-2.4,2.3-6.3,2.6-8.1,5.8c-1.7,0.3-2.6,1.4-3.1,2.9
			c-2.4,0.4-3.9,1.6-4.1,4.1c-5,2.2-9.9,4.5-10.8,10.8c-3.1,3-5.2,6.7-7.4,10.3c-5.7,9.1-10.1,18.8-14,28.8
			c-2.9,7.5-5.3,15.1-7.1,22.9c-1.7,7.3-3.7,14.6-4.3,22.2c0.4,3.4-1.2,6.3-1.8,9.5c-2.2,10.3-1.4,20.8-2.1,31.2
			c-0.8,12.4,0,24.9-0.3,37.4c-0.2,8.1,4.3,13.3,9.9,17.9c0.4,0.3,0.7,0.6,1.1,1c0.3,0.1,0.6,0.3,1,0.4c0.4,1,1.1,1.1,2,0.7
			c7.1-3,14.5-4.7,22.1-5.9c2.9-0.5,6,0,8.9-0.7c9.7-2.6,19.4-1.3,29.2-1.1c0.6,0,1.2,0.1,1.9,0.1c1.9,0.4,3.9,0.9,5.8,1.1
			c16.7,1.3,32.9,4.5,48.9,9.8c10.2,3.4,20.1,7.4,29.8,12c4.8,2.3,9.2,5.6,14.6,6.5c13.9,0.4,26.5-4.6,39-10
			c10.5-4.2,20.4-9.3,28.9-16.9c5.9-5.2,10.5-10.7,10.1-19.4c-0.9-20.3,1-40.6-2.6-61c-2-11.1-3.7-22.3-5.8-33.4
			c-0.9-4.5-2.6-8.7-3.8-13c-2-7.1-4.1-14.3-8.7-20.4c-0.1-0.6-0.1-1.3-0.2-1.9c0.2-0.3,0.1-0.6-0.1-0.9c-3.9-8.7-9-16.6-14.9-24.1
			c0-1.3-0.8-1.9-1.7-2.5c-0.6-1.1-1.2-2.1-1.8-3.2c3.2-2.6,1.7-5.5-0.3-7.4c-2.4-2.4-3.4,0.8-4.8,2.1c-7.5-6-14.5-12.6-23.2-16.9
			c-3.2-2.9-7.2-4.2-11-6c-0.2-6.7-1.5-7.4-7.3-4c-1.2,0.7-2.3,1.2-3.7,1.1c-0.3-0.5-0.5-1.6-0.8-1.6c-5.3-0.1-9.9-3-15.2-3.2
			c-0.7,0-1.3-0.1-2-0.1c-4,0-8,0-12,0c-4.9-1.5-10-1.5-15-1.9c0.3-3.6-1-6.4-4.6-7c-3.3-0.5-4.3,2.1-4.5,5.1
			c-0.1,1.5-1.3,1.7-2.5,1.7C170,80.1,168.4,79.9,168,81.9z"/>
		<path class="st1" d="M297.1,150.9c4.7,6,6.7,13.3,8.7,20.4c1.2,4.3,3,8.5,3.8,13c2.2,11.1,3.9,22.3,5.8,33.4
			c3.6,20.4,1.7,40.7,2.6,61c0.4,8.7-4.2,14.1-10.1,19.4c-8.5,7.6-18.4,12.7-28.9,16.9c-2.3-2.6-4.9-4.4-9.6-4.5
			c2.7-1.7,5.3-2.4,4.5-5.2c-1.6-5.4-1-10.9-0.7-16.3c0.4-7.2-0.9-13.7-4.6-19.8c-0.4-0.7-0.8-1.5-1.1-2.2c-0.5-1.4-0.6-2.9,1.6-2.3
			c4.6,1.3,5.5-1.5,4.9-4.8c-1.8-9.9-0.6-19.9-0.9-29.8c-0.2-9.3,0-18.6,0-27.9c4.7-7.6,10.9-14.4,14.3-22.8
			C291,169.9,296.3,161.1,297.1,150.9z"/>
		<path class="st2" d="M273,202c0,9.3-0.2,18.6,0,27.9c0.2,9.9-0.9,19.9,0.9,29.8c0.6,3.4-0.2,6.2-4.9,4.8c-2.2-0.6-2.1,0.8-1.6,2.3
			c0.3,0.8,0.7,1.5,1.1,2.2c3.7,6.1,5,12.6,4.6,19.8c-0.3,5.4-0.9,10.9,0.7,16.3c0.8,2.8-1.7,3.5-4.5,5.2c4.7,0.1,7.3,2,9.6,4.5
			c-12.5,5.4-25,10.4-39,10c0-12.1-0.1-24.2,0-36.3c0.1-10.8-0.3-21.5-2.1-32.2c-1.4-8.1-2.6-16.3-3.9-24.4c2.9,0.4,4.1-3.3,6.9-3
			c10.9-6.6,20.4-14.7,28-25C270.7,204.1,271.6,202.6,273,202z"/>
		<path class="st3" d="M234.1,232c1.3,8.1,2.5,16.3,3.9,24.4c1.8,10.7,2.2,21.4,2.1,32.2c-0.1,12.1,0,24.2,0,36.3
			c-5.4-0.9-9.8-4.2-14.6-6.5c-9.7-4.7-19.5-8.6-29.8-12c-16-5.3-32.2-8.5-48.9-9.8c-2-0.2-3.9-0.7-5.8-1.1c0-0.5,0.1-1,0.1-1.5
			c0-2.7,0.1-5.5,0.1-8.2c2.3-0.1,4.7-0.1,7-0.2c8.9,0,17.5,2,26.1,3.8c16.9,3.7,33.3,8.9,48.8,16.6c3.1,1.5,4.9,2,5.4-2.7
			c1.5-12.6,0.8-25.2-0.2-37.8c-1.9-24.5-6.7-48.3-18.4-70.2c-11.9-22.2-30.7-37.1-59.8-33.5c1.6-3.5,2.5-7.1,3.1-10.9
			c3,0,6,0,8.9,0c0.8,2.7,2.3,2.3,4,0.9c4.1,0.3,7.8,2.8,12,2c12.9,4.9,23.5,12.8,32.4,23.5c4.3,5.2,6.3,11.9,11.4,16.6
			c0.1,0.7,0.1,1.3,0.2,2c0,1.3,0.6,2,1.9,2.2c0.1,0.8,0.1,1.7,0.4,2.4C228,210.9,231.6,221.3,234.1,232z"/>
		<path class="st4" d="M269,204c-7.6,10.3-17.1,18.4-28,25c1.8-5.8,2-11.8,2-17.8c0-14.1-0.5-28.3,0.2-42.3c0.3-6.4-0.7-12.7-0.4-19
			c0.1-1.3-0.4-2.3-1.8-2.6c-1-0.2-3.3,1.4-2.8-1.1c0.4-2,1.5-5.2,4.1-4.7c3.6,0.7,3.9-0.9,3.4-3.3c-0.7-3.8-2.5-0.5-3.9-0.4
			c-2.4,0.1-5,0.9-7-1.3c-1.9-2.1,0.5-4.3,0.2-5.7c-1-4.4,2.4-7.2,2.8-10.9c1.6,0.4,3.3,0.8,4.9,1.3c0.7,2.8,2.9,1.7,4.5,1.6
			c3.5-0.1,6.8,0.9,10.2,1.5c1.4,0.3,3.9,1.9,3.9,0.3c0-1.9,2.5-4.6-0.7-6.4c-2.1-1.2-4.1-2.7-6.1-4.1c0.1-0.6-0.1-0.9-0.7-0.6
			c-1.4,0-2.8,0-4.1,0c-0.3-0.9-1-1.2-1.9-1.1c-0.6-0.2-1.3-0.4-1.9-0.6c0.4-1.7,1.1-3.3-0.2-5.1c-4.5-5.9-3.4-8.5,4.2-10.7
			c8.6,4.4,15.7,11,23.2,16.9c0.3,0.7,0.7,1.4,1,2.1c-2.7,2.8-0.2,4.2,1.6,6c6.4,6.1,5.8,13.6-1.5,18.5c-1.9,1.3-2.6,3.1-2.2,5.2
			c1.6,9.1-0.7,18.1-0.1,27.1c0.4,6.7-1.9,13.4,0,20.2c0.4,1.4,0.4,3.2-0.8,4.2C268.6,198.4,269,201.2,269,204z M256,139.1l-0.2,0
			c-0.5-1.6-1.5-3-2.7-4.1c-0.5-0.9,2.1-3.3-1.4-2.7c-0.8,0.3-1.7,0.6-2.5,0.8c-2.7,0.2-2.1,1.9-1.5,3.5c0,0.6,0,1.2,0,1.8
			c-0.6,1.5-1.1,3,1.2,3.7c0.4,2.2,0.7,4.4,2.1,6.4c1.6,2.4,3.9,5.4,6.1,4.4c2.5-1.2,2.9-4.9,1.1-7.9c-0.2-1.3-0.3-2.6-0.5-3.9
			C257.9,139.7,257.4,139,256,139.1z"/>
		<path class="st5" d="M69.2,205.1c0.5-7.6,2.6-14.9,4.3-22.2c1.8-7.8,4.3-15.4,7.1-22.9c3.8-10,8.3-19.7,14-28.8
			c2.3-3.6,4.3-7.4,7.4-10.3c10.5,1.1,19.5-3.2,28.5-7.8c0.6,2.4,0.9,4.9,3.3,6.4c1.3,0.8,1.8,2.6,0.9,3.5
			c-4.1,3.7-3.2,8.6-3.6,13.1c-0.1,1.3,0,2.8-1.5,3.4c-1.3,0.6-2.1-0.6-2.9-1.4c-4.6-5-10.1-9-15.2-13.5c-0.9-0.7-1.4-2.1-2.7-1.1
			c-1.2,1-0.3,2.2,0.2,3.1c1.8,3,4.7,5,7.2,7.5c6,6,14.6,10.1,15.9,19.9c0,1.8-1.5,1.9-2.7,2.4c-10.8,3.8-18.8,11.1-26.1,19.7
			c-7,8.3-12,17.7-15.4,27.9c-1.5,4.5-5,8.7-3.9,14.1C78.3,214.5,73.3,210.3,69.2,205.1z M104.7,123.6c0.1,0,0.3,0.1,0.4,0.1
			c0,0,0.1-0.2,0.1-0.3c-0.1,0-0.3-0.1-0.4-0.1C104.8,123.3,104.8,123.5,104.7,123.6z"/>
		<path class="st6" d="M250,96c-7.6,2.2-8.7,4.8-4.2,10.7c1.4,1.8,0.6,3.4,0.2,5.1c-1.6,0-3.2,0.1-4.8,0.1c-0.6-0.8-0.9-2-2.3-1.1
			c-4.1-0.8-8.2-1.9-11.9,1.1c-0.2,0.1-0.4,0.3-0.7,0.4c0.2,0.2,0.4,0.5,0.7,0.7c0.1,0.3,0.2,0.6,0.2,0.9c0.1,1.3,1,1,1.8,1
			c0.8,0.5,1.7,0.9,2.5,1.4c0.6,0.9,1.4,1.5,2.6,1.4c1.3,0.4,2.6,0.9,3.9,1.3c0,0.3,0.1,0.5,0.1,0.8c-0.4,3.7-3.8,6.6-2.8,10.9
			c0.3,1.5-2.1,3.7-0.2,5.7c2,2.2,4.5,1.5,7,1.3c1.3-0.1,3.1-3.5,3.9,0.4c0.5,2.4,0.1,4-3.4,3.3c-2.6-0.5-3.7,2.7-4.1,4.7
			c-0.5,2.4,1.7,0.9,2.8,1.1c1.4,0.3,1.8,1.2,1.8,2.6c-0.3,6.3,0.7,12.6,0.4,19c-0.7,14.1-0.2,28.2-0.2,42.3c0,6-0.2,12-2,17.8
			c-2.9-0.2-4,3.4-6.9,3c-2.4-10.7-6.1-21.1-9.8-31.4c-0.3-0.8-0.3-1.6-0.4-2.4c0.1-1.4-0.5-2.1-1.9-2.2c-0.1-0.7-0.1-1.3-0.2-2
			c5.9,0.5,4.5-4,3.9-6.7c-0.7-3.4-1.6-6.6-0.8-10.1c0.7-2.9,0.3-7.4-1.7-8.3c-4.9-2.2-2.3-4.2-1-6.7c0.9-1.7,1.1-3.8,1.8-5.6
			c2.4-6.3-0.7-13.2,2.8-19.4c0.9-1.6-0.3-3.5-2.3-4.3c0.2-0.6,0.4-1.2,0.6-1.8c1.2-0.1,2.6,0.1,2.6-1.7c-0.2-1.8,3-3.5,0.3-5.4
			c-1.7-3-3.3-3-5,0c-4.2,1.3-8.2,3.2-11.9,5.7c-1.4-3.1,1.2-9.7-6.4-7.1c2.5-2.8,0.3-5-1-7.3c2.5-1.6,3.8-4.8,7.6-4.8
			c1.1,0,0.3-1.9-0.8-2.5c-3.8-2.2-3-4.9-1-7.9c1.8-2.6-0.5-7.9-3.6-8.9c-0.6-5.6-1.4-6.2-6.6-4.8c-1.7-0.9-1.2-2.6-1.3-4
			c4,0,8,0,12,0c0.1,0.6,0.2,1.4,1,1.4c0.8,0,0.9-0.7,1-1.3c5.2,0.2,9.9,3,15.2,3.2c0.3,0,0.6,1,0.8,1.6c-3,2-6.1,4-9.1,6
			c-0.3,0.3-0.6,0.5-0.9,0.8c-0.6,0.4-1.2,0.8-1.8,1.2c-1.5,0-2.3,0.7-2.2,2.3c-0.6,2.9-5.5,5.4-1,8.9c0.1,0.8,0.3,1.6,1.3,1.7
			c1.3,0.1,1.6-0.7,1.7-1.7c2.8-1.4,5.7-2.9,8.5-4.3c1.5,0.2,2.4-0.3,2.5-1.9c4.2-3.1,6.4-8.5,12-9.9C242.7,91.8,246.8,93.1,250,96z
			 M208.7,88.4c-0.1,0.3-0.4,0.6-0.3,0.8c0.1,0.2,0.5,0.3,0.8,0.4c0.1-0.3,0.4-0.6,0.3-0.8C209.4,88.6,209,88.5,208.7,88.4z"/>
		<path class="st7" d="M132,154c-1.3-9.8-9.9-13.9-15.9-19.9c-2.4-2.4-5.3-4.4-7.2-7.5c-0.6-0.9-1.4-2.2-0.2-3.1
			c1.3-1.1,1.9,0.3,2.7,1.1c5.1,4.4,10.6,8.5,15.2,13.5c0.8,0.8,1.6,2,2.9,1.4c1.5-0.6,1.4-2.1,1.5-3.4c0.4-4.6-0.5-9.4,3.6-13.1
			c1-0.9,0.4-2.7-0.9-3.5c-2.4-1.5-2.7-4.1-3.3-6.4c0.9-1.2,2-2.4,2-4.1c0.6-0.2,1.3-0.5,1-1.2c-0.4-1-1.3-0.6-2.1-0.5
			c-3.2,0-6.5,0-9.7,0.1c-1.6-0.5-3.3-0.9-4.9-1.4c0.5-1.6,1.5-2.6,3.1-2.9c1.2,1.4,1.4,6.1,4.3,1.1c0.9-1.6,2.1-0.4,3.1-0.1
			c2.3,0.9,2.3-0.6,3.1-2.2c1.5-3-2.7-2.6-2.3-4.6c0.8-0.5,1.7-0.9,2.5-1.4c1.4,1.6,2.7,4,4.8,0.6c1.8,0.6,2.7,2.1,3.7,3.5
			c0,1.4,0.8,2.1,2.2,2c0.3,0.3,0.6,0.6,0.9,0.8c-0.1,1.7,0.9,2.3,2.4,2.1c1.5,0.6,2.8,1.4,3.6,2.8c0.1,0.9,0.7,1.3,1.5,1.4
			c1.8,2.7,5.2,2.6,7.6,4.3c2.7,1.8,6.7,3.8,9,0.9c2.1-2.5-1.3-5.4-3-7.6c-5.4-6.7-12.5-11.6-19.3-16.6c3.1-3.3,7.5-3.8,11.5-4.9
			c1.5-0.4,3.3,0,4.6-1.4c0.8,0.2,2,0.9,1.7,1.5c-2.8,6.1,2.5,6.7,5.7,9c3.2,2.3,7.2,2.1,10.4,4.2c-1.7,1.2-1.7,1.4-1.2,1.5
			c5.6,0.7,3.5,4,2.2,6.7c-0.7,1.6-1,2.7,0.8,3.6c-2.1,3.1,1,4.4,2.2,6.4c-3.3,1.8-3.2,5.1-2.7,7.9c1.8,9.9,1,19.7-1.1,29.5
			c-4.2,0.7-7.9-1.8-12-2c-1.1-1.5-2.6-0.9-4-0.9c-3,0-6,0-8.9,0c-2.1,0.1-4.2,0-6.3,0.2C141.7,151.7,137.2,154.5,132,154z
			 M146.8,127c0.5,2.2,1.5,4,3.1,5.4c1.3,1.2,2.6,2.9,4.7,1.9c2-1,2.2-3,2-5.1c-0.3-3.5-2-6.2-4.5-8.4c-0.3-1.5-0.8-2.5-2-0.5
			c-1.1,0.6-2.5,0.4-3.2,1.7C144.1,123.7,144.1,125.3,146.8,127z M143.9,124.1c0-0.9-0.1-1.8-1.2-1.7c-0.8,0.1-1.5,0.7-1.4,1.7
			c0.1,0.5,0.6,1.2,1.1,1.4C143.6,125.8,143.8,125,143.9,124.1z"/>
		<path class="st8" d="M132,154c5.2,0.4,9.7-2.3,14.7-2.8c2.1-0.2,4.2-0.1,6.3-0.2c-0.6,3.8-1.4,7.4-3.1,10.9c0,0,0.2,0.3,0.2,0.3
			c-1.8,0-3.7-0.5-5.4,0c-22.8,6-37.1,21.3-45.7,42.6c-5.4,13.3-8.7,27.1-9.7,41.5c-0.9,12.4-2.8,24.7,0.5,37.1
			c1,3.8,2.2,4.6,6.1,3.7c9.3-2.2,18.8-4.2,28.5-2.8c5.1,0.7,10.2,0.8,15.4,0.1l0.3,0.1l0.3-0.1c0.2,0.5,0.4,0.9,0.7,1.4
			c0,2.7-0.1,5.5-0.1,8.2c-1,0-1.7,0.3-1.9,1.4c-9.7-0.1-19.5-1.5-29.2,1.1c-2.8,0.8-5.9,0.2-8.9,0.7c-7.6,1.2-15,3-22.1,5.9
			c-0.9,0.4-1.6,0.3-2-0.7c0.2-1.3,0.7-2.6,0.7-3.9c-1.1-21.2-1.8-42.4,2.5-63.4c1.2-5.7,0.4-11.9,3.8-17.1
			c-1.1-5.3,2.4-9.5,3.9-14.1c3.4-10.1,8.4-19.6,15.4-27.9c7.3-8.6,15.3-16,26.1-19.7C130.5,156,132,155.8,132,154z"/>
		<path class="st9" d="M269,204c0-2.8-0.4-5.6,2.1-7.8c1.2-1.1,1.2-2.9,0.8-4.2c-1.9-6.8,0.4-13.5,0-20.2
			c-0.6-9.1,1.7-18.1,0.1-27.1c-0.4-2.1,0.3-3.9,2.2-5.2c7.3-4.9,8-12.4,1.5-18.5c-1.8-1.7-4.2-3.1-1.6-6c0,0,0.1,0.2,0.1,0.2
			c0,1,0.6,1.5,1.5,1.5c0.8,0.5,1.7,1,2.5,1.6c0.6,1.1,1.2,2.1,1.8,3.2c-0.2,1.4,0.2,2.3,1.7,2.5c5.9,7.4,11,15.4,14.9,24.1
			c-0.1,0.1-0.3,0.3-0.3,0.3c0.1,0.2,0.3,0.4,0.4,0.6c0.1,0.6,0.1,1.3,0.2,1.9c-0.8,10.3-6.1,19-9.8,28.3
			c-3.4,8.5-9.6,15.2-14.3,22.8C271.6,202.6,270.7,204.1,269,204z"/>
		<path class="st10" d="M83.9,218.1c-3.4,5.2-2.7,11.4-3.8,17.1c-4.3,21-3.6,42.2-2.5,63.4c0.1,1.3-0.4,2.6-0.7,3.9
			c-0.3-0.1-0.6-0.3-1-0.4c-0.4-0.3-0.7-0.6-1.1-1c-5.7-4.7-10.1-9.8-9.9-17.9c0.3-12.5-0.5-25,0.3-37.4c0.7-10.4-0.1-20.9,2.1-31.2
			c0.7-3.1,2.3-6.1,1.8-9.5C73.3,210.3,78.3,214.5,83.9,218.1z"/>
		<path class="st11" d="M179.6,110.3c-1.8-0.9-1.5-2-0.8-3.6c1.3-2.8,3.4-6.1-2.2-6.7c-0.5-0.1-0.5-0.2,1.2-1.4
			c0.8,0,1.6,0.1,2.4,0.1c1.4,0,3.2,0.6,4-1c1-1.9-0.8-3-1.9-4.1c-1.6-1.5-3.5-2.7-5.3-4.1c1.5-0.4,3.2-0.7,2.8-2.7
			c-0.5-2.3-2.6-2.9-4.5-3.1c-1.6-0.2-3.7,1.4-4.3-1.5c3.9-1.3,8.4,1.4,12-1.9c5,0.4,10.1,0.5,15,1.9c0.1,1.4-0.4,3.1,1.3,4
			c-1.4,3.1-4.2,5.6-4.2,9.3c0,1.3-0.2,2.7,1.1,3.6c1.5,1,2.6,0,3.6-0.7c1.9-1.4,3.6-3,5.5-4.6c0.3-0.1,0.6-0.3,0.9-0.4
			c-0.2-0.2-0.5-0.3-0.7-0.5c0.2-0.6,0.3-1.2,0.5-1.9c3.1,1,5.4,6.4,3.6,8.9c-2.1,3-2.8,5.7,1,7.9c1.1,0.6,1.9,2.5,0.8,2.5
			c-3.8,0-5.1,3.2-7.6,4.8c-1.2,0-2-1-3-1.4C194,110.7,187.3,107,179.6,110.3z"/>
		<path class="st12" d="M139,99.9c-1-1.4-1.9-2.9-3.7-3.5c-0.3-2-1.6-2.5-3.4-2.5c-0.9-2.8-0.5-4.3,3-3.9c2.9,0.3,5.9,0,8.9,0
			c6.9,5.1,13.9,9.9,19.3,16.6c1.8,2.2,5.1,5.1,3,7.6c-2.3,2.8-6.3,0.9-9-0.9c-2.4-1.7-5.8-1.6-7.6-4.3c0.1-1.1-0.7-1.2-1.5-1.4
			c-0.8-1.4-2.1-2.2-3.6-2.8c-0.4-1.2-1.1-2-2.4-2.1c-0.3-0.3-0.6-0.6-0.9-0.8C141,100.7,140.3,100,139,99.9z"/>
		<path class="st12" d="M213,106.2c-4.5-3.5,0.4-6,1-8.9c1.3-0.2,2-1,2.2-2.3c0.6-0.4,1.2-0.8,1.8-1.2c0.6,0.1,0.9-0.2,0.9-0.8
			c3-2,6.1-4,9.1-6c1.4,0.1,2.5-0.3,3.7-1.1c5.8-3.4,7.1-2.6,7.3,4c-5.6,1.4-7.9,6.8-12,9.9c-1.3,0-2.1,0.8-2.5,1.9
			c-2.8,1.4-5.7,2.9-8.5,4.3C215,106.1,214,106.2,213,106.2z"/>
		<path class="st12" d="M121.7,107.3c3.2,0,6.5,0,9.7-0.1c0.4,0.6,0.7,1.2,1.1,1.8c0,1.7-1.1,2.9-2,4.1c-9,4.5-18,8.9-28.5,7.8
			c0.8-6.4,5.7-8.6,10.8-10.8C115.6,108.9,119.2,110,121.7,107.3z"/>
		<path class="st12" d="M177,89.4c1.8,1.3,3.7,2.5,5.3,4.1c1.1,1,2.9,2.2,1.9,4.1c-0.8,1.6-2.6,0.9-4,1c-0.8,0-1.6,0-2.4-0.1
			c-3.2-2.1-7.2-2-10.4-4.2c-3.2-2.3-8.5-2.9-5.7-9c0.3-0.6-0.9-1.3-1.7-1.5c1-1,2.1-1.5,3.5-1.3c-0.6,1.1-1.1,2.4,0.7,2.5
			c3.5,0.3,6.4,2.4,9.8,3c0.2,0.2,0.4,0.3,0.7,0.2C175.5,88.6,176.3,89,177,89.4z"/>
		<path class="st12" d="M183,80.2c-3.6,3.3-8.1,0.6-12,1.9c-1-0.1-2-0.1-3-0.2c0.4-2,2-1.8,3.5-1.9c1.2-0.1,2.4-0.2,2.5-1.7
			c0.2-2.9,1.2-5.6,4.5-5.1C182,73.8,183.3,76.7,183,80.2z"/>
		<path class="st7" d="M168,81.9c1,0.1,2,0.1,3,0.2c0.6,2.9,2.7,1.4,4.3,1.5c1.9,0.2,4.1,0.7,4.5,3.1c0.4,2-1.3,2.4-2.8,2.7
			c-0.8-0.4-1.6-0.8-2.4-1.2c0.5-0.3,1.1-0.7,0.9-1.4c-0.1-0.2-0.7-0.4-0.7-0.3c-0.3,0.5-0.6,1-0.8,1.5c-3.4-0.6-6.3-2.7-9.8-3
			c-1.9-0.2-1.3-1.4-0.7-2.5C165,82.2,166.5,82.1,168,81.9z"/>
		<path class="st5" d="M128,97.2c-0.4,2.1,3.9,1.6,2.3,4.6c-0.8,1.6-0.8,3.1-3.1,2.2c-0.9-0.3-2.2-1.5-3.1,0.1
			c-2.9,5-3.1,0.2-4.3-1.1C121.7,99.7,125.6,99.5,128,97.2z"/>
		<path class="st13" d="M278.3,118.3c-0.8-0.5-1.7-1-2.5-1.6c-0.1-0.9-0.7-1.4-1.5-1.5c0,0-0.1-0.2-0.1-0.2c-0.3-0.7-0.7-1.4-1-2.1
			c1.4-1.3,2.4-4.4,4.8-2.1C280,112.8,281.5,115.7,278.3,118.3z"/>
		<path class="st5" d="M121.7,107.3c-2.5,2.7-6,1.6-9,2.7c0.1-2.6,1.7-3.8,4.1-4.1C118.4,106.4,120,106.8,121.7,107.3z"/>
		<path class="st5" d="M132,93.9c1.8,0,3.1,0.5,3.4,2.5c-2.1,3.4-3.4,1-4.8-0.6C131,95.2,131.5,94.6,132,93.9z"/>
		<path class="st11" d="M212,82.3c-0.1,0.6-0.2,1.4-1,1.3c-0.8,0-0.9-0.8-1-1.4C210.7,82.2,211.3,82.2,212,82.3z"/>
		<path class="st4" d="M281.9,124c-1.5-0.2-1.9-1.2-1.7-2.5C281,122.1,281.9,122.8,281.9,124z"/>
		<path class="st7" d="M139.1,295.4c0.2-1.1,1-1.4,1.9-1.4c0,0.5-0.1,1-0.1,1.5C140.3,295.5,139.7,295.4,139.1,295.4z"/>
		<path class="st1" d="M296.9,149c-0.1-0.2-0.3-0.4-0.4-0.6c0-0.1,0.2-0.2,0.3-0.3C297,148.3,297,148.6,296.9,149z"/>
		<path class="st8" d="M74.9,301.1c0.4,0.3,0.7,0.6,1.1,1C75.6,301.7,75.3,301.4,74.9,301.1z"/>
		<path class="st14" d="M140.4,284.4l-0.3,0.1c0,0-0.3-0.1-0.3-0.1c-0.6-6.6-1.4-13.1-1.7-19.7c-0.8-17.1,1.2-34,2.9-51
			c1-10.3,2.7-20.6,4.6-30.8c1.3-7,3.1-13.8,4.6-20.7c0,0-0.2-0.3-0.2-0.3c29.1-3.6,47.9,11.3,59.8,33.5
			c11.7,21.9,16.5,45.7,18.4,70.2c1,12.6,1.7,25.2,0.2,37.8c-0.6,4.7-2.3,4.2-5.4,2.7c-15.5-7.8-31.9-12.9-48.8-16.6
			c-8.6-1.9-17.2-3.8-26.1-3.8C146,282.6,143.1,284.4,140.4,284.4z M189.1,207.9c-1.6,1.1-3.4,2-2.7,4.5c2.1,0.2,1.7-2.6,3.8-2.5
			c6,0.2,4.1-5.5,5.9-8.5c0.2-0.3-1.4-0.4-2.2-0.5c-0.3-0.4-0.8-0.7-0.8-1.2c-0.5-2.5-2.2-3.1-4.4-2.7c-2.4,0.4-1.4,2.5-1.8,4
			C186.3,203.8,188.6,205.6,189.1,207.9z M203.4,233c1.9-0.2,4.2,0.6,5.3-1.7c0.7-1.5-0.3-2.6-1.3-3.4c-7.2-6.1-16-7.1-24.9-7.5
			c-0.6,0-1.2,0.4-1.9,0.6c-1.2,0.3-2.4,0.8-2.3,2.2c0.1,1.2,0.7,2.1,1.8,2.7C187.5,229.6,195,232.8,203.4,233z M156,216.4
			c0.3,1-0.6,2.9,1.4,3.4c1.5,0.4,2.9,0.1,4.2-0.9c4-3.1,6.5-7.4,9-11.6c0.8-1.4,0.9-3.4-0.3-4.7c-1.1-1.1-2.9-0.8-4.3-0.4
			C162.4,203.2,155.9,212.3,156,216.4z M157.4,188c6.6,0.3,11.6-2.9,16.4-6.4c1.2-0.8,2.5-1.9,1.9-3.7c-0.6-2.1-2.4-2-4.1-1.9
			c-6.1,0.4-11.1,3.2-15.5,7.2c-1.2,1-3.5,1.4-2.8,3.5C154,188.9,156.1,187.7,157.4,188z M192.1,195.1c-1.2-4.5-4.3-4.9-7.1-3.7
			c-3.3,1.4-1.9,4.5-1.4,8.2C186,196,188.5,194.4,192.1,195.1z"/>
		<path class="st11" d="M178,154c2.1-9.8,2.9-19.5,1.1-29.5c-0.5-2.8-0.6-6.1,2.7-7.9c0.7,0.5,1.5,0.9,2.2,1.4
			c0.3,1.3-0.7,3.3,1.4,3.7c1.3,0.3,1.5-1,1.6-2c5.5,1.7,10.8,4.5,16.9,3.2c0.2,0.2,0.4,0.3,0.6,0.5c0.1-0.3,0.1-0.5,0.2-0.8
			l-0.1-0.2c7.6-2.6,5.1,4,6.4,7.1c-2,1.7-4.2,3.3-6.1,5c-1.1,1-2,2.5-1.4,4c0.8,1.8,2.5,0.9,3.9,0.7c2.7-0.3,5-1.5,7.5-2.4
			c3.2-1.2,5.6-4.3,9.4-4.1c2.1,0.8,3.3,2.7,2.3,4.3c-3.5,6.2-0.5,13.2-2.8,19.4c-0.7,1.8-0.9,3.9-1.8,5.6c-1.3,2.6-3.9,4.5,1,6.7
			c2,0.9,2.4,5.4,1.7,8.3c-0.8,3.6,0.1,6.7,0.8,10.1c0.6,2.8,2,7.2-3.9,6.7c-5.1-4.6-7.1-11.3-11.4-16.6
			C201.5,166.8,190.9,158.9,178,154z"/>
		<path class="st15" d="M140.4,284.4c2.6-0.1,5.5-1.8,7.6,1.2c-2.3,0.1-4.7,0.1-7,0.2C140.9,285.4,140.6,284.9,140.4,284.4z"/>
		<path class="st8" d="M162,151.1c1.4,0.1,3-0.5,4,0.9C164.3,153.4,162.8,153.7,162,151.1z"/>
		<path class="st11" d="M222,196c1.4,0.1,2,0.8,1.9,2.2C222.7,198,222,197.3,222,196z"/>
		<path class="st14" d="M227.2,114c-0.1-0.3-0.1-0.6-0.2-0.9c0-0.4,0-0.8,0-1.1c3.7-3,7.9-1.8,11.9-1.1c0.4,1.1,1.3,1.3,2.3,1.1
			c1.6,0,3.2-0.1,4.8-0.1c0.6,0.2,1.3,0.4,1.9,0.6c0.2,1.1,0.5,2.1,1.9,1.1c1.4,0,2.8,0,4.1,0c0.1,0.3,0.4,0.5,0.7,0.6
			c2,1.4,4,2.9,6.1,4.1c3.2,1.8,0.7,4.4,0.7,6.4c0,1.6-2.5,0-3.9-0.3c-3.4-0.6-6.7-1.6-10.2-1.5c-1.5,0.1-3.8,1.2-4.5-1.6
			c-0.6-3.3-3.2-1.6-5-2.1c-1.3-0.4-2.6-0.9-3.9-1.3c-0.3-1.5-1.2-1.8-2.6-1.4c-0.8-0.5-1.7-0.9-2.5-1.4
			C228.4,114.6,227.8,114.3,227.2,114z"/>
		<path class="st12" d="M247.6,138.4c0-0.6,0-1.2,0-1.8c1.3-0.8,1.5-2.1,1.6-3.5c0.8-0.3,1.7-0.6,2.5-0.8c0.1,1.1-0.1,2.3,1.4,2.7
			c1.2,1.2,2.2,2.5,2.7,4.1c-0.6,0-1.2,0-1.8,0c-0.3,0.3-0.6,0.6-0.9,0.9c0,0.7,0,1.4-0.1,2.1c-1.9,1.9-0.8,3.8,0.5,5.1
			c1.1,1.2,1.9-0.2,2.5-1.2c0.7-0.4,1.5-0.7,2.2-1.1c1.8,3,1.4,6.7-1.1,7.9c-2.3,1.1-4.5-2-6.1-4.4c-1.4-2-1.7-4.2-2.1-6.4
			C248.9,140.7,249,139.3,247.6,138.4z"/>
		<path class="st14" d="M252.9,142.1c0-0.7,0-1.4,0.1-2.1c0.3-0.3,0.6-0.6,0.9-0.9c0.6,0,1.2,0,1.8,0c0,0,0.2,0,0.2,0
			c0.1,1.1,0.5,1.8,1.7,2c0.2,1.3,0.3,2.6,0.5,3.9c-0.7,0.4-1.5,0.7-2.2,1.1C253.6,145.7,253.4,143.9,252.9,142.1z"/>
		<path class="st12" d="M238,119c1.8,0.4,4.4-1.3,5,2.1c-1.6-0.4-3.3-0.8-4.9-1.3C238,119.5,238,119.3,238,119z"/>
		<path class="st8" d="M247.6,138.4c1.4,0.9,1.3,2.3,1.2,3.7C246.5,141.4,247,139.9,247.6,138.4z"/>
		<path class="st8" d="M249.1,133.1c-0.1,1.4-0.2,2.7-1.6,3.5C247,135,246.5,133.3,249.1,133.1z"/>
		<path class="st8" d="M253,135c-1.5-0.4-1.3-1.6-1.4-2.7C255.1,131.6,252.5,134.1,253,135z"/>
		<path class="st15" d="M257.6,141.1c-1.1-0.2-1.6-0.9-1.7-2C257.4,139,257.9,139.7,257.6,141.1z"/>
		<path class="st15" d="M249.9,113.4c-1.4,1-1.7,0-1.9-1.1C248.9,112.2,249.5,112.5,249.9,113.4z"/>
		<path class="st15" d="M254.7,114c-0.3-0.1-0.6-0.3-0.7-0.6C254.7,113.1,254.8,113.4,254.7,114z"/>
		<path class="st7" d="M104.7,123.6c0-0.1,0.1-0.3,0.1-0.3c0.1,0,0.3,0.1,0.4,0.1c0,0.1-0.1,0.3-0.1,0.3
			C105,123.7,104.9,123.7,104.7,123.6z"/>
		<path class="st12" d="M184,118c-0.7-0.5-1.5-0.9-2.2-1.4c-1.2-2-4.3-3.3-2.1-6.4c7.7-3.3,14.3,0.5,21,3.4c1,0.4,1.8,1.4,3,1.4
			c1.4,2.3,3.5,4.5,1,7.3c0,0,0.1,0.2,0.1,0.2c-0.3-0.1-0.6,0-0.8,0.3c-6.1,1.3-11.4-1.5-16.9-3.2C186.3,118.7,185.4,117.9,184,118z
			"/>
		<path class="st12" d="M224.5,132.8c-3.8-0.2-6.2,2.9-9.4,4.1c-2.5,0.9-4.8,2.1-7.5,2.4c-1.4,0.2-3.1,1.1-3.9-0.7
			c-0.6-1.5,0.3-3,1.4-4c1.9-1.8,4.1-3.4,6.1-5c3.7-2.5,7.6-4.3,11.9-5.7c1.7,0,3.3,0,5,0c2.8,1.9-0.4,3.6-0.3,5.4
			c-0.9,0.5-2.2,0.5-2.6,1.7C224.9,131.6,224.7,132.2,224.5,132.8z"/>
		<path class="st12" d="M205.9,91c-0.2,0.6-0.3,1.2-0.5,1.9c-0.2,0.3-0.3,0.5-0.2,0.9c-1.8,1.5-3.5,3.2-5.5,4.6
			c-1,0.7-2.1,1.7-3.6,0.7c-1.3-0.9-1.1-2.3-1.1-3.6c0-3.7,2.8-6.2,4.2-9.3C204.6,84.8,205.4,85.4,205.9,91z"/>
		<path class="st11" d="M228,123.9c-1.7,0-3.3,0-5,0C224.7,120.9,226.3,120.9,228,123.9z"/>
		<path class="st11" d="M213,106.2c1,0,2-0.1,3-0.1c-0.2,1-0.4,1.9-1.7,1.7C213.3,107.8,213.1,107,213,106.2z"/>
		<path class="st11" d="M208.7,88.4c0.3,0.1,0.7,0.2,0.8,0.4c0.1,0.2-0.2,0.5-0.3,0.8c-0.3-0.1-0.7-0.2-0.8-0.4
			C208.3,89,208.6,88.7,208.7,88.4z"/>
		<path class="st11" d="M216.3,95c-0.2,1.3-0.9,2-2.2,2.3C214,95.8,214.7,95,216.3,95z"/>
		<path class="st15" d="M231.5,116.3c1.3-0.4,2.3-0.1,2.6,1.4C232.9,117.8,232.1,117.2,231.5,116.3z"/>
		<path class="st11" d="M224.5,101.8c0.4-1.2,1.1-1.9,2.5-1.9C226.9,101.5,226,102,224.5,101.8z"/>
		<path class="st15" d="M241.2,111.9c-1,0.2-1.9,0.1-2.3-1.1C240.3,109.9,240.7,111.1,241.2,111.9z"/>
		<path class="st11" d="M225.1,131c0.4-1.3,1.7-1.3,2.6-1.7C227.7,131.1,226.3,130.9,225.1,131z"/>
		<path class="st15" d="M227.2,114c0.6,0.3,1.2,0.7,1.8,1C228.2,114.9,227.3,115.3,227.2,114z"/>
		<path class="st11" d="M218.9,93c0,0.6-0.3,0.9-0.9,0.8C218.3,93.5,218.6,93.3,218.9,93z"/>
		<path class="st15" d="M227,111.9c0,0.4,0,0.8,0,1.1c-0.2-0.2-0.4-0.5-0.7-0.7C226.5,112.2,226.7,112.1,227,111.9z"/>
		<path class="st12" d="M146.8,122c0.7-1.3,2.2-1.1,3.2-1.7c0.7,0.2,1.3,0.3,2,0.5c2.6,2.2,4.2,4.9,4.5,8.4c0.2,2.1,0.1,4.1-2,5.1
			c-2,1-3.4-0.7-4.7-1.9c-1.6-1.4-2.7-3.3-3.1-5.4C146.8,125.3,146.8,123.7,146.8,122z"/>
		<path class="st5" d="M143.9,124.1c-0.1,0.9-0.3,1.7-1.4,1.4c-0.5-0.2-1-0.9-1.1-1.4c-0.2-0.9,0.5-1.6,1.4-1.7
			C143.8,122.3,143.9,123.2,143.9,124.1z"/>
		<path class="st5" d="M146.8,122c0,1.7,0,3.3,0,5C144.1,125.3,144.1,123.7,146.8,122z"/>
		<path class="st5" d="M132.5,109c-0.4-0.6-0.7-1.2-1.1-1.8c0.8,0,1.7-0.4,2.1,0.5C133.8,108.5,133.1,108.8,132.5,109z"/>
		<path class="st5" d="M139,99.9c1.3,0.1,2,0.8,2.2,2C139.8,102,139,101.3,139,99.9z"/>
		<path class="st5" d="M152,120.8c-0.7-0.2-1.3-0.3-2-0.5C151.2,118.4,151.7,119.4,152,120.8z"/>
		<path class="st5" d="M142.1,102.8c1.3,0.1,2,0.9,2.4,2.1C143,105,142,104.5,142.1,102.8z"/>
		<path class="st5" d="M148.1,107.6c0.7,0.2,1.6,0.3,1.5,1.4C148.8,108.9,148.2,108.5,148.1,107.6z"/>
		<path class="st15" d="M150.1,162.3c-1.6,6.9-3.3,13.8-4.6,20.7c-1.9,10.2-3.5,20.4-4.6,30.8c-1.7,17-3.7,33.9-2.9,51
			c0.3,6.6,1.1,13.1,1.7,19.7c-5.1,0.7-10.2,0.6-15.4-0.1c-9.7-1.3-19.2,0.6-28.5,2.8c-3.9,0.9-5.1,0.1-6.1-3.7
			c-3.3-12.4-1.3-24.8-0.5-37.1c1-14.3,4.3-28.1,9.7-41.5c8.6-21.3,22.9-36.6,45.7-42.6C146.4,161.8,148.3,162.3,150.1,162.3z"/>
		<path class="st4" d="M274.3,115.2c0.9,0.2,1.4,0.7,1.5,1.5C274.8,116.7,274.3,116.2,274.3,115.2z"/>
		<path class="st6" d="M205.2,93.7c-0.1-0.3,0-0.6,0.2-0.9c0.2,0.2,0.5,0.3,0.7,0.5C205.8,93.5,205.5,93.6,205.2,93.7z"/>
		<path class="st11" d="M174,88c0.3-0.5,0.5-1,0.8-1.5c0,0,0.7,0.2,0.7,0.3c0.2,0.7-0.3,1.1-0.9,1.4C174.4,88.3,174.2,88.2,174,88z"
			/>
		<path class="st13" d="M203.4,233c-8.4-0.2-15.9-3.4-23.2-7.1c-1.2-0.6-1.8-1.6-1.8-2.7c-0.1-1.4,1.1-1.9,2.3-2.2
			c0.6-0.2,1.3-0.6,1.9-0.6c8.9,0.5,17.7,1.4,24.9,7.5c1,0.9,2,2,1.3,3.4C207.6,233.7,205.3,232.8,203.4,233z"/>
		<path class="st13" d="M156,216.4c-0.1-4.1,6.4-13.2,10-14.2c1.4-0.4,3.1-0.7,4.3,0.4c1.3,1.3,1.1,3.3,0.3,4.7
			c-2.5,4.2-5,8.5-9,11.6c-1.3,1-2.7,1.3-4.2,0.9C155.4,219.3,156.3,217.4,156,216.4z"/>
		<path class="st13" d="M157.4,188c-1.2-0.3-3.4,0.9-4.1-1.2c-0.6-2.1,1.7-2.5,2.8-3.5c4.4-4,9.4-6.8,15.5-7.2
			c1.6-0.1,3.5-0.2,4.1,1.9c0.5,1.8-0.8,2.9-1.9,3.7C169,185.1,164,188.2,157.4,188z"/>
		<path class="st13" d="M189.1,207.9c-0.5-2.3-2.8-4.1-2.1-6.9c0.3-1.5-0.6-3.5,1.8-4c2.2-0.4,3.9,0.2,4.4,2.7
			c0.1,0.4,0.5,0.8,0.8,1.2C194.1,204.5,194.1,208,189.1,207.9z"/>
		<path class="st13" d="M192.1,195.1c-3.7-0.7-6.1,0.9-8.5,4.4c-0.5-3.7-1.9-6.7,1.4-8.2C187.8,190.2,190.9,190.5,192.1,195.1z"/>
		<path class="st12" d="M189.1,207.9c5,0.1,5-3.4,4.9-6.9c0.8,0.1,2.4,0.1,2.2,0.5c-1.8,3,0.1,8.7-5.9,8.5c-2.1-0.1-1.8,2.7-3.8,2.5
			C185.7,209.9,187.5,209,189.1,207.9z"/>
		<path class="st7" d="M184,118c1.4-0.2,2.3,0.6,3.1,1.7c-0.2,1-0.4,2.3-1.6,2C183.3,121.3,184.3,119.4,184,118z"/>
		<path class="st6" d="M204,122.9c0.2-0.3,0.5-0.4,0.8-0.3c-0.1,0.3-0.1,0.5-0.2,0.8C204.4,123.2,204.2,123.1,204,122.9z"/>
		<path class="st15" d="M252.9,142.1c0.4,1.8,0.6,3.6,3,3.9c-0.6,1-1.3,2.4-2.5,1.2C252.1,145.9,251.1,144,252.9,142.1z"/>
		<path class="st15" d="M253.9,139c-0.3,0.3-0.6,0.6-0.9,0.9C253.3,139.7,253.6,139.4,253.9,139z"/>
	</g>
</g>
</svg>
