<?xml version="1.0" encoding="utf-8"?>
<!-- Generator: Adobe Illustrator 21.1.0, SVG Export Plug-In . SVG Version: 6.00 Build 0)  -->
<svg version="1.1" id="Layer_1" xmlns="http://www.w3.org/2000/svg" xmlns:xlink="http://www.w3.org/1999/xlink" x="0px" y="0px"
	 viewBox="0 0 380 380" style="enable-background:new 0 0 380 380;" xml:space="preserve">
<style type="text/css">
	.st0{fill:#FEFEFE;}
	.st1{fill:#A66859;}
	.st2{fill:#954E37;}
	.st3{fill:#85483B;}
	.st4{fill:#6E3326;}
	.st5{fill:#6A3022;}
	.st6{fill:#713629;}
	.st7{fill:#7B3F31;}
	.st8{fill:#804336;}
	.st9{fill:#74392B;}
	.st10{fill:#622E22;}
	.st11{fill:#6B3328;}
	.st12{fill:#592619;}
	.st13{fill:#753828;}
	.st14{fill:#85422B;}
	.st15{fill:#B9857E;}
</style>
<g>
	<g>
		<path class="st0" d="M191,381c-62,0-124,0-186,0.1c-3.4,0-4.1-0.7-4.1-4.1C1,253,1,129,0.9,5c0-3.4,0.7-4.1,4.1-4.1
			C129,1,253,1,377,0.9c3.4,0,4.1,0.7,4.1,4.1c-0.1,124-0.1,248,0,372c0,3.4-0.7,4.1-4.1,4.1C315,381,253,381,191,381z M259.8,80
			c0-0.7,0-1.3,0-2c0-1.8,0.1-3.7-0.1-5.5c-0.6-6.5-4.1-8.9-10.6-7.7c-1.9,0.3-4.1,0.3-5.9-0.4c-2.1-0.7-3.9-0.4-5.7,0.4
			c-5.5,2.7-11.5,4.5-16.7,8c-9,6.1-17.9,12.4-23.7,21.9c-1.7,2.8-2,2.4-3.8,0.2c-9.1-10.9-18.8-20.9-32.5-26.2
			c-6.7-2.6-13.1-5.9-20.6-4.6c-3.5-0.1-5.1,2-6.2,5c-1.2,3.2-0.7,6.5-0.9,9.7c-1.8,7.2-2,14.6-2.1,21.9
			c-12.1-2.2-24.3-2.4-36.6-1.8c-7.5,0.4-15,1.5-19.2,9.3c-1.8,3.2-0.8,6.4-1,9.6c0,12.3,0,24.7,0,37c-0.1,0.3-0.1,0.7-0.2,1
			c-2.2,3.8-5.9,6.1-8.5,9.4c-2.9,3.7-6.6,7.1-4.8,12.6c-0.1,0.8-0.1,1.5-0.2,2.3c-2.1,3-1.1,6.4-1.2,9.7c-0.6,13-1.1,26-1.7,39
			c0,1-0.1,2.1-0.1,3.1c-2.1,7.8-1.4,15.7-0.9,23.6c0.2,2.5,2.4,4.7,4.8,5.9c9.7,4.7,19.8,7.2,30.6,6.1c3.3,0,6.6-0.1,10-0.1
			c2.9,0.1,2.2,2.3,2.2,4c0,9.3-0.2,18.6,0.1,27.8c0.1,4.8,1,10.1,5.2,12.8c8.5,5.3,18,4.6,27.5,2.5c2.6,0.5,4.6-1.5,7-1.8
			c10-1.1,18.6-6,27.1-10.9c9.4-5.2,16.7-12.6,22.9-21.2c0.5,0.3,1.3,0.5,1.6,1c7.5,10.3,16.5,18.9,28.4,24.1c1.8,0.7,2.8,3,5,3
			c0.3,0.2,0.5,0.3,0.9,0.3c2,0.9,4.1,2.1,6,2.5c4.2,1,7.6,4.2,12.1,4c7.8,3.2,16,3.5,24.3,3.1c7.9-0.5,12.5-4.7,12.7-12
			c0.2-7.3-0.1-14.6-0.1-21.9c0.6-3.7-0.5-7.3-1-11c1-2.7-1.3-5.7,1.1-8.2c2,0,4,0,6,0.1c6.8,0.4,13.7,0.6,20.3-1
			c5.3-1.3,10.8-2.9,13.8-8.3c1.8-2.7,0.6-5.7,0.8-8.6c0-0.7,0-1.3,0-2c0-1.7,0-3.3,0-5c0-7.1,0.3-14.3,0-21.4
			c-0.6-13.5-0.8-27.1-3-40.6c0.4-4.1,0-7.7-2.4-11.6c-2.4-4-6-6.8-8.6-10.5c-0.4-0.9,1.3-2.4-0.8-2.9l-0.3,0l0.1,0.1
			c0.6-0.5,1.2-1,1-2c0-0.7,0-1.4,0-2.2c-0.3-3-0.7-6-1-9c0-8,0-15.9,0-23.9c1.3-6.8-0.6-12.3-6.8-16c-2.5-1.5-5.4-1.4-8-2.4
			c-0.5-0.1-0.9-0.1-1.4-0.2c-0.9-1.1-2.3-1.2-3.6-1.3c-6.6-0.3-13.1-0.5-19.5,1.6c-3.4,1.1-6.9,2.1-10.6,1c-0.4-1.3,0.7-3-0.9-4
			c-0.1-1-0.2-2-0.3-2.9c0-2.7,0-5.3,0-8c0-1,0-2,0-3C259.9,81.3,259.8,80.7,259.8,80z"/>
		<path class="st1" d="M60.6,178.1c-1.8-5.5,1.9-9,4.8-12.6c2.6-3.3,6.4-5.7,8.5-9.4c0.4-0.3,0.8-0.6,1.2-1c1.6-0.3,3.1-0.7,4.7-1
			c0.8-0.1,1.8,0.1,2.4-0.3c9.4-4.7,18.9-8.9,28.9-12c0.5-0.2,1.2-0.8,1.3-1.3c0.2-1.1-0.8-1.1-1.6-1.5c-11.6-5.5-23.2-10.9-32-20.7
			c-0.5-0.6-1.4-1-2.1-0.1c-0.9,0-1.8,0-2.7,0c0.2-3.2-0.7-6.4,1-9.6c4.2-7.8,11.7-8.9,19.2-9.3c12.2-0.6,24.5-0.4,36.6,1.8
			c4.4,2.5,9.1,4.2,15.6,5.4c-6.7-9.2-9.6-18.5-13.5-27.3c0.2-3.3-0.3-6.5,0.9-9.7c1.1-3,2.7-5.1,6.2-5c8.5,2.4,17.2,4.2,24.5,9.5
			c5.3,3.9,10.3,8.1,15.2,12.5c1.4,1.3,2.6,2.6,2.2,4.7c-1.5,0-2.2-1.2-3.1-2.2c-8-8.1-17.2-14.2-28.7-16.4c-2.6-0.5-5.2-0.8-7,1.2
			c-1.9,2.1-1.7,4.9-0.2,7.4c0.3,5.2,3.3,9.1,5.6,13.5c8.5,16.6,21.5,28.9,36.6,39.4c2.7,1.9,3,0.9,3.9-1.3
			c2.6-6.1,1.9-12.4,1.8-18.7c0-1.2-0.7-1.8-1.7-2.1c0.4-7.9-4.1-14.1-7.2-20.8c4.8,0.3,5.8,4.9,8.1,7.8c5.2,6.4,4.7,6.3,10,0.4
			c3.3-3.8,5.8-9.1,12.1-9.2c-6.1,6.8-9.6,14.7-9.2,24c-2.5,5.6,0.9,11.1,0.1,16.6c-0.5,3.9,1.9,3.8,4.2,2.1
			c4.7-3.4,9.2-7,13.6-10.6c7-5.8,11.8-13.7,18.1-20.2c0.7,5.7-2.9,9.9-5.1,14.6c-0.6,1.3-2.4,2.5-1.1,3.9c1.2,1.3,2.8,0.2,4.1-0.5
			c0.7-0.4,1.3-1.2,2.1-1.3c4.2-0.6,7-5.9,12-3.7c-11.1,6.3-21.9,12.9-31.9,20.9c-0.8,0.6-1.9,1.1-1.6,2.2c0.3,1.3,1.6,0.9,2.5,0.9
			c2.7,0,5.3-0.1,8-0.2c10.1,0.5,19.9-3.1,30-3c1.1,0.1,2.3,0.3,3-0.9c1.3-0.3,2.7-0.6,4-0.9c0.1,0.7,1.8,1.5,0.9,1.7
			c-2.8,0.6-4.7,2.9-7.7,3.4c-5.3,0.8-10.2,3.2-16.8,3.4c6.1,3.6,11.8,1.1,16.6,3.5c-4.3,0.1-8.6,0.1-12.9,0.2
			c-0.9-0.2-1.6-0.1-2.1,0.7c-4.5,1.4-9.2,0.6-13.8,1.1c-5.6,0.6-11.2,1.6-17.6,2.5c3.6,3.3,7.1,4.8,10.4,6.5
			c7.4,5.2,15.3,9.3,23.9,12c-0.2,1.5,1.7,1.5,2,2.8c-3.4,0.5-6.2-1.5-9.4-1.4c-0.4,2.4,1.4,3.2,2.7,4.3c5.8,4.7,11.6,9.4,16.3,15.2
			c8.2,10.1,15.4,20.5,14.6,34.6c-0.2,4.2-2.9,7.4-3.2,11.3c-1.3,1.6-3.1,2-5,2.1c-1,0-2-0.1-3-0.1c-4.9,0-10.3,1.3-14.7-0.2
			c-7.7-2.6-15.8-4.8-23-8.9c-7.6-4.4-15.1-8.6-20.6-16c-2.3-3.1-4.4-7.1-8.8-8.3c-3.7,3.1-8,5.7-9.2,10.9c-4.2,1.2-6.7,4.6-9.7,7.4
			c-0.7,0.4-1.5,0.7-2.1,1.1c-10,7-20.7,12.2-32.9,14c-1.6,0.1-3.6-0.8-4.1,1.8l0,0c-5.4,0.7-10.7-0.5-15.7-2.2
			c-5.5-1.8-7.8-7-10.1-11.8c-0.4-11.1,3.1-21.1,8.1-30.8c1.3-2.4,3.8-6.2,3-7.3c-1.7-2.4-5.1,0-7.8,0.2c-1.8,0.1-3.6,0.6-5.4,0.9
			c-1.5-1.5-2.5-1-3.2,0.8c-1.9,0.1-3.9,0.1-5.8,0.2c-6.5-0.7-13.1-1-19.5-2.2C72.3,186.6,65,184.9,60.6,178.1z M86,116
			c2,3.7,5.2,6.1,8.8,8.1c9.5,5.3,19.7,8.3,30.4,10.1c11.8,2.1,23.6,5,35.7,4.8c4.1,0.6,8.2,1.8,13,0.4
			c-7.3-6.3-14.5-11.4-21.6-16.7c-17.9-13.3-37.6-19.6-59.9-16.7C86.8,106.8,82.6,109.5,86,116z M161.1,157.2
			c3.8,0.3,5.8-2.8,8.6-4.4c0.5-0.3,1-1.1,0.9-1.6c-0.1-1-1.1-1-2-1.1c-4.3-0.4-8.6-0.7-12.9-1.1c-22.1-2.1-44-2.5-64.5,7.9
			c-5.7,2.9-11.5,5.9-16,10.5c-3.2,3.3-2.4,6.1,1.7,7.7c1.4,2.1,3.6,2.7,6,2.9c22.6,1.4,44.7-0.6,64.8-12.2
			C152.4,163.2,158,162.1,161.1,157.2z M188,165c0-1.2,0-2.3,0-3.5c0.2-3.6-0.1-5.5-4.5-3c-4.5,2.6-9.4,4.7-13.9,7.4
			c-10.8,6.4-21.8,12.7-31,21.4c-7.1,6.7-13.4,14.2-14.7,24.5c-3.8,2.9-1.6,6.4-0.5,9.4c1.3,3.6,3.9,5.8,8.2,6
			c18.6,0.8,32.8-8.2,44.3-21.4C185.8,194.3,188.9,180,188,165z M200.1,166c0.1,5.8-0.4,11.5,0.9,17.3c3.1,13.6,9.8,24.9,21.1,32.9
			c5.9,4.2,12.8,7.1,19.8,9.1c5.8,1.7,11.7,3.5,17.9,1.2c5.8-2.1,8.2-10.1,4.3-14.8c-0.4-3.6-1.3-7.1-3.1-10.3
			c-12-21-31.7-32.2-52.9-41.2C200.1,156.9,199.9,157.4,200.1,166z"/>
		<path class="st2" d="M269,236c0.2-4,2.9-7.1,3.2-11.3c0.8-14.1-6.4-24.5-14.6-34.6c-4.7-5.9-10.5-10.5-16.3-15.2
			c-1.4-1.1-3.2-1.9-2.7-4.3c3.2-0.2,6,1.9,9.4,1.4c-0.3-1.3-2.3-1.3-2-2.8c5.2,0.8,9,4.9,14,5.8c9.7,1.9,19.4,3.4,29.2,4.9
			c6.2,0.9,12.1-0.9,18.1-2.1c1.3-0.3,1.7-1.4,1.9-2.7c3.5-1.2,1.8-3.4,0.8-5.2c-2.1-3.8-4.9-7.1-8.4-9.6
			c-10.4-7.6-21.9-12.1-34.8-13.3c-2.9-0.3-6,1-8.7-0.9c-4.8-2.4-10.5,0.1-16.6-3.5c6.6-0.3,11.5-2.7,16.8-3.4
			c3-0.4,4.9-2.7,7.7-3.4c0.9-0.2-0.8-1-0.9-1.7c8.2-1.6,16.5-2.8,24-7.1c5.4-3.2,10.6-6.4,14-11.9c3-4.8,0.9-8.7-5.1-9
			c-5.1-0.2-10.3,0-15.4-0.1c-11.4-0.2-21.6,4-31.5,9c-5.1-2.2-7.8,3.1-12,3.7c-0.7,0.1-1.4,0.9-2.1,1.3c-1.3,0.7-2.9,1.8-4.1,0.5
			c-1.2-1.4,0.5-2.6,1.1-3.9c2.2-4.7,5.8-8.9,5.1-14.6c0,0,0,0,0,0c0.7-0.3,0.8-0.6,0-1c3.9-5.9,7.1-12.2,9-19c0-6.4-1.9-7.9-8-6.8
			c-5.2,0.9-9.9,3.1-14.6,5.5c-4.9,2.5-8.2,7.1-13.2,9.4c-6.3,0.1-8.7,5.4-12.1,9.2c-5.3,6-4.8,6-10-0.4c-2.3-2.9-3.3-7.5-8.1-7.8
			c0,0,0,0,0,0c0.4-2.1-0.8-3.5-2.2-4.7c-4.9-4.4-9.9-8.7-15.2-12.5c-7.4-5.4-16-7.2-24.5-9.5c7.5-1.3,13.9,2,20.6,4.6
			c13.7,5.3,23.4,15.3,32.5,26.2c1.8,2.2,2.1,2.6,3.8-0.2c5.8-9.5,14.7-15.7,23.7-21.9c5.2-3.5,11.1-5.3,16.7-8
			c1.8-0.9,3.6-1.2,5.7-0.4c1.8,0.6,4,0.7,5.9,0.4c6.6-1.2,10,1.2,10.6,7.7c0.2,1.8,0.1,3.7,0.1,5.5c-0.3,0.6-0.6,1.3-0.8,1.9
			c0,0.7,0,1.3,0,2c-2,0.1-2,1.6-1.9,3c0,0.7-0.1,1.3-0.1,2c-3.5,1.7-2.6,5.8-4.6,8.4c-2.9,3.9-5,8.4-7.4,12.6
			c-0.1,0.1-0.2,0.3-0.2,0.4c0.1-0.1,0.2-0.3,0.2-0.4c5.5-1.1,10.5-3.5,15-6.9c0.3-0.4,0.7-0.8,1-1.2c3.7,1,7.2,0,10.6-1
			c6.4-2.1,13-1.9,19.5-1.6c1.3,0.1,2.6,0.2,3.6,1.3c-6.2,0-12.4,0-18.7,0c0,0.5,0,1,0,1.4c3.7,0,7.4,0.2,11.1-0.1
			c3-0.2,6.3,1.3,8.9-1.2c2.6,1,5.5,0.9,8,2.4c6.2,3.7,8.1,9.1,6.8,16c-0.9,2-1.9,3.9-2.8,5.9c-5.9,6.2-11.6,12.7-20.1,16.8
			c6.2,4.1,12.3,7.1,17.5,11.3c1.6,1.3,2.9,3.3,5.5,3l-0.1-0.1c0,0,0.3,0,0.3,0c-0.3,1.1-0.1,2.1,0.8,2.9c2.6,3.7,6.1,6.5,8.6,10.5
			c2.4,3.9,2.8,7.5,2.4,11.6c-3.4,5.1-8.6,6.6-14.1,8c-8.8,2.3-17.8,1.9-26.8,1.9c-2.3-0.5-4.6-1.2-7-0.9c-0.7-1.2-1.9-1-3-0.9
			c-1.2,0-2.3-0.1-3.5-0.1c-2.3,0-2.5,0.8-1.3,2.7c7.9,11.9,12.1,24.8,10.7,39.2C274.4,230.6,273.9,236.1,269,236z"/>
		<path class="st3" d="M60.6,178.1c4.4,6.9,11.7,8.5,18.9,9.8c6.4,1.1,13,1.5,19.5,2.2c0.1,6.3-0.8,12.6-0.8,18.8
			c0.2,17.2-2.6,33.9-5.2,50.7c-0.4,2.8-1.4,5.5-1,8.3c-10.8,1.1-21-1.5-30.6-6.1c-2.4-1.2-4.7-3.4-4.8-5.9
			c-0.5-7.9-1.2-15.8,0.9-23.6c1.5,7.8-0.1,15.7,1.2,23.5c0.3-8,0.3-15.9,0.3-23.9c0-1.2,0-2.4-1.4-2.8c0.6-13,1.1-26,1.7-39
			c3.2-2.9,1.4-6.4,1.2-9.7C60.5,179.6,60.5,178.8,60.6,178.1z"/>
		<path class="st4" d="M269,236c4.9,0,5.4-5.4,8.9-7.1c0.7,1.7,1.9,3.3,2,5c0.1,4.8,1.1,9.5,1.3,14.3c0.3,6,0.7,12.1,3.8,17.6
			c-2.4,2.5-0.2,5.5-1.1,8.2c-2.6,2.7-2.2,7.6,1,11c0.1,7.3,0.3,14.6,0.1,21.9c-0.2,7.3-4.8,11.6-12.7,12
			c-8.3,0.5-16.4,0.2-24.3-3.1c1.9-2.1,3.4-4.1-0.5-5.7c-1.3-0.5-1.4-1.6-1.1-2.9c2.3-11,1.5-22.1,1.7-33.2c0.1-3.1-0.8-5.7-2.5-8.4
			c-2.2-3.5-5.2-6.4-7.1-10.2c2.9,0.8,5.5,2.7,8.1,0.6c1.7-1.3,1.6-3.6,1.3-5.6c-1.4-10.6-1.4-10.5,9.1-10.7c2.3,0,5.4,1.8,7-1.8
			C265.9,238,267.7,237.6,269,236z"/>
		<path class="st5" d="M282,188.9c9,0,17.9,0.4,26.8-1.9c5.5-1.4,10.8-2.9,14.1-8c2.2,13.4,2.4,27,3,40.6c0.3,7.1,0,14.3,0,21.4
			c-3,1.7-3,3.3,0,5c0,0.7,0,1.3,0,2c-4.4,2.5,0.1,5.8-0.8,8.6c-3,5.4-8.5,7-13.8,8.3c-6.6,1.6-13.5,1.4-20.3,1
			c-1.2-6.5-0.1-13.3-1.3-19.8c-3.2-17-1.9-34.3-4.6-51.2C284.7,192.3,284.7,190.1,282,188.9z"/>
		<path class="st6" d="M264,238.1c-1.5,3.6-4.7,1.7-7,1.8c-10.5,0.2-10.5,0.1-9.1,10.7c0.3,2,0.4,4.3-1.3,5.6
			c-2.6,2.1-5.2,0.2-8.1-0.6c1.9,3.8,4.9,6.7,7.1,10.2c1.7,2.7,2.5,5.2,2.5,8.4c-0.2,11.1,0.6,22.2-1.7,33.2
			c-0.3,1.3-0.1,2.4,1.1,2.9c3.9,1.6,2.5,3.6,0.5,5.7c-4.5,0.3-7.9-2.9-12.1-4c-1.9-0.5-4-1.6-6-2.5c-0.1-0.8,0.6-1.7-0.4-2.4
			c-0.2,0.7-0.3,1.4-0.5,2.1c-2.3,0-3.2-2.3-5-3c1.7-1.3,4.4-2.2,1.7-5.2c-1.2-1.3-0.7-3.2-0.7-4.8c0-11.8,0-23.5,0-35.3
			c0-10.4-0.1-10.8-9.7-8.6c-3.2,0.7-7.4,0.5-9.7,3.7c-4.8,6.8-4.7,6.9-11.6,4c0-3.3,0-6.7,0-10c0.3-8.6-1.4-17-2.7-25.4
			c-0.3-2-1.1-4.5,0.1-5.8c3.9-4.3,2.2-9.3,2.5-14.1c4.4,1.2,6.5,5.2,8.8,8.3c5.4,7.4,12.9,11.6,20.6,16c7.2,4.1,15.2,6.3,23,8.9
			c4.4,1.5,9.8,0.2,14.7,0.2C262,238.1,263,238.1,264,238.1z"/>
		<path class="st7" d="M140,238.1c12.2-1.8,22.9-7,32.9-14c0.6-0.5,1.4-0.8,2.1-1.1c0.6,19.8-2.4,39.4-2.1,59.2
			c0.1,6.7,1,13.5-1.9,19.9c-8.5,4.9-17.1,9.8-27.1,10.9c-2.4,0.3-4.4,2.3-7,1.8c-1-0.5-2-0.9-3-1.4c1-1.1,4,0.3,3.5-1.6
			c-1.7-6.4,0.5-12.7-0.5-19c-0.5-3-2.4-3.3-4.8-2.2c-1.1,0.5-2.4,2.2-3.4,0.8c-1.1-1.6,1.1-2.4,1.9-3.5c2.4-2.9,6.4-4.9,6.3-9.2
			c-0.3-12.9,1.2-25.9-1-38.8c0,0,0,0,0,0C137.5,239.8,139.5,240.7,140,238.1z"/>
		<path class="st8" d="M135.9,239.9c2.2,12.9,0.7,25.8,1,38.8c0.1,4.3-3.9,6.3-6.3,9.2c-0.9,1-3.1,1.9-1.9,3.5
			c1,1.4,2.3-0.3,3.4-0.8c2.4-1.1,4.3-0.8,4.8,2.2c1,6.3-1.1,12.7,0.5,19c0.5,1.8-2.5,0.5-3.5,1.6c1,0.5,2,0.9,3,1.4
			c-9.4,2.1-19,2.8-27.5-2.5c-4.2-2.6-5-8-5.2-12.8c-0.3-9.3-0.1-18.6-0.1-27.8c0-1.7,0.7-3.9-2.2-4c1-2,2.8-3.8,2.9-6.1
			c0.4-7.6,1.9-15,2.4-22.7c0.2-4.3-1-9.3,2.8-13c2.4,4.8,4.6,10,10.1,11.8C125.2,239.4,130.5,240.7,135.9,239.9z"/>
		<path class="st9" d="M194,260c6.8,2.8,6.8,2.8,11.6-4c2.3-3.2,6.5-3,9.7-3.7c9.6-2.2,9.7-1.8,9.7,8.6c0,11.8,0,23.5,0,35.3
			c0,1.6-0.5,3.5,0.7,4.8c2.6,2.9,0,3.8-1.7,5.2c-11.8-5.2-20.9-13.8-28.4-24.1c-0.3-0.5-1.1-0.7-1.6-1C194,274,194,267,194,260z"/>
		<path class="st10" d="M194,260c0,7,0,14,0,21c-6.3,8.5-13.6,16-22.9,21.2c2.9-6.4,2-13.3,1.9-19.9c-0.4-19.8,2.7-39.4,2.1-59.2
			c3-2.7,5.6-6.2,9.7-7.4c0.1,9.6,0.3,19.2,0.2,28.8c-0.1,4.2,1.7,5.7,5.6,5.5c1.2-0.1,2.3,0,3.5,0C194,253.3,194,256.7,194,260z"/>
		<path class="st11" d="M110.1,226c-3.8,3.7-2.6,8.7-2.8,13c-0.4,7.6-1.9,15.1-2.4,22.7c-0.1,2.4-1.9,4.1-2.9,6.1
			c-3.3,0-6.6,0.1-10,0.1c-0.4-2.9,0.5-5.6,1-8.3c2.6-16.8,5.5-33.6,5.2-50.7c-0.1-6.2,0.9-12.5,0.8-18.8c1.9-0.1,3.9-0.1,5.8-0.2
			c1.2,0.2,2.4,0.4,3.2-0.8c1.8-0.3,3.6-0.8,5.4-0.9c2.7-0.2,6.1-2.6,7.8-0.2c0.8,1.1-1.7,4.9-3,7.3
			C113.2,204.8,109.6,214.9,110.1,226z"/>
		<path class="st12" d="M282,188.9c2.7,1.1,2.7,3.4,3.1,5.9c2.7,17,1.4,34.3,4.6,51.2c1.2,6.4,0.1,13.2,1.3,19.8c-2,0-4,0-6-0.1
			c-3.1-5.5-3.5-11.6-3.8-17.6c-0.2-4.8-1.2-9.5-1.3-14.3c0-1.7-1.3-3.3-2-5c1.4-14.4-2.8-27.3-10.7-39.2c-1.3-1.9-1-2.7,1.3-2.7
			c1.2,0,2.3,0.1,3.5,0.1c0.5,2,1.5,2.4,3,0.9C277.4,187.7,279.7,188.4,282,188.9z"/>
		<path class="st3" d="M79.9,154c-1.6,0.3-3.1,0.7-4.7,1c-0.4,0-0.7,0-1.1,0c0-12.3,0-24.7,0-37c0.9,0,1.8,0,2.7,0
			c1,4.1,4.5,6.2,7.4,8.8c6.3,5.5,13.9,8.9,22.2,13.1c-4.7,2-8.5,3.3-12.1,5.2C89.4,147.8,83.7,149.3,79.9,154z"/>
		<path class="st5" d="M310.9,154.1c-2.6,0.4-3.9-1.7-5.5-3c-5.2-4.3-11.3-7.2-17.5-11.3c8.6-4.1,14.2-10.6,20.1-16.8
			c2.1,4.4,0.4,9,1,13.5c0.2,1.6-0.9,3.8,1.8,4.4c0.3,3,0.7,6,1,9c-0.7,0.1-1.5,0.3-1.4,1c0.1,0.4,0.9,0.8,1.4,1.1
			C312.1,153.1,311.5,153.6,310.9,154.1z"/>
		<path class="st3" d="M133,79c3.9,8.8,6.8,18.1,13.5,27.3c-6.5-1.1-11.2-2.8-15.6-5.4C131,93.6,131.2,86.2,133,79z"/>
		<path class="st6" d="M245,108c2.4-4.2,4.5-8.8,7.4-12.6c2-2.7,1.1-6.7,4.6-8.4c2.4,1.3-0.7,5.3,2.9,6c0.1,1,0.2,2,0.3,2.9
			c-2.4,1.7,0.2,3.5-0.1,5.2C255.5,104.5,250.5,106.9,245,108L245,108z"/>
		<path class="st12" d="M310.8,141c-2.7-0.6-1.6-2.8-1.8-4.4c-0.6-4.5,1.1-9.1-1-13.5c0.9-2,1.9-3.9,2.8-5.9
			C310.8,125.1,310.8,133,310.8,141z"/>
		<path class="st13" d="M57.6,229c1.5,0.4,1.4,1.6,1.4,2.8c0,7.9,0,15.9-0.3,23.9c-1.4-7.8,0.3-15.7-1.2-23.5
			C57.5,231.1,57.5,230.1,57.6,229z"/>
		<path class="st12" d="M284.8,285c-3.2-3.3-3.6-8.2-1-11C284.4,277.7,285.4,281.2,284.8,285z"/>
		<path class="st14" d="M296.1,98.7c-2.7,2.5-6,1-8.9,1.2c-3.7,0.3-7.4,0.1-11.1,0.1c0-0.5,0-1,0-1.4c6.2,0,12.4,0,18.7,0
			C295.2,98.6,295.7,98.7,296.1,98.7z"/>
		<path class="st1" d="M60.4,180.3c0.2,3.3,2.1,6.8-1.2,9.7C59.3,186.8,58.4,183.4,60.4,180.3z"/>
		<path class="st5" d="M259.9,93c-3.6-0.7-0.5-4.7-2.9-6c0-0.7,0.1-1.3,0.1-2c0.9,0,1.9,0,2.8,0C259.9,87.7,259.9,90.3,259.9,93z"/>
		<path class="st12" d="M325.1,256.6c0.9-2.8-3.6-6.1,0.8-8.6C325.7,250.9,326.9,253.9,325.1,256.6z"/>
		<path class="st12" d="M325.9,246c-3-1.7-3-3.3,0-5C325.9,242.7,325.9,244.3,325.9,246z"/>
		<path class="st6" d="M259.9,85c-0.9,0-1.9,0-2.8,0c-0.1-1.4-0.1-2.9,1.9-3c0,0,0.4,0,0.4,0l0.4,0C259.9,83,259.9,84,259.9,85z"/>
		<path class="st5" d="M260,101.1c0.2-1.7-2.3-3.5,0.1-5.2c1.7,1,0.5,2.7,0.9,4C260.7,100.3,260.4,100.7,260,101.1z"/>
		<path class="st12" d="M311.8,152.2c-0.5-0.4-1.3-0.7-1.4-1.1c-0.1-0.7,0.7-0.9,1.4-1C311.8,150.7,311.8,151.5,311.8,152.2z"/>
		<path class="st12" d="M311.9,156.9c-1-0.8-1.2-1.7-0.8-2.9C313.2,154.5,311.5,156,311.9,156.9z"/>
		<path class="st9" d="M229,309.1c0.2-0.7,0.3-1.4,0.5-2.1c0.9,0.7,0.3,1.6,0.4,2.4C229.5,309.4,229.3,309.3,229,309.1z"/>
		<path class="st5" d="M259.9,82l-0.4,0c0,0-0.4,0-0.4,0c0-0.7,0-1.3,0-2c0.3,0,0.6,0,0.9,0C259.8,80.7,259.9,81.3,259.9,82z"/>
		<path class="st6" d="M259.8,80c-0.3,0-0.6,0-0.9,0c0.3-0.6,0.6-1.3,0.8-1.9C259.8,78.7,259.8,79.4,259.8,80z"/>
		<path class="st13" d="M74.1,155c0.3,0,0.7,0,1.1,0c-0.4,0.3-0.8,0.6-1.2,1C74,155.7,74.1,155.3,74.1,155z"/>
		<path class="st14" d="M264.2,211.8c3.9,4.7,1.5,12.7-4.3,14.8c-6.2,2.2-12.1,0.5-17.9-1.2c-7-2.1-13.9-4.9-19.8-9.1
			c-11.3-8.1-18-19.4-21.1-32.9c-1.3-5.8-0.8-11.5-0.9-17.3c1.3,0.3,2.6,0.5,3.8,1c13.7,5.1,26,12.7,37.5,21.7
			c9,7.1,16.3,15.6,22.5,25.2C264,213.1,264.1,212.5,264.2,211.8z"/>
		<path class="st14" d="M188,165c0.9,15-2.1,29.3-12.1,40.7c-11.5,13.1-25.7,22.1-44.3,21.4c-4.3-0.2-6.9-2.4-8.2-6
			c-1.1-3-3.3-6.5,0.5-9.4c0.1,0.8,0.3,1.6,0.5,3.3c0.7-2.7,1.5-4.2,2.6-5.7c6.6-10,15.9-17,25.7-23.5
			C164.1,178.4,175.4,170.5,188,165z"/>
		<path class="st14" d="M309,175.1c-0.1,1.2-0.6,2.4-1.9,2.7c-6,1.2-11.9,3-18.1,2.1c-9.7-1.4-19.5-3-29.2-4.9c-5-1-8.8-5.1-14-5.8
			c-8.6-2.7-16.6-6.8-23.9-12c0.8-1.8,2.4-1.8,4.1-2.1c10.9-1.3,21.8-0.8,32.7-1c7.3-0.1,14.5,1.7,21.3,3.6
			C291.1,160.7,300.7,167,309,175.1z"/>
		<path class="st14" d="M189.2,111.8c1,0.3,1.7,1,1.7,2.1c0,6.3,0.8,12.6-1.8,18.7c-0.9,2.2-1.2,3.2-3.9,1.3
			c-15.2-10.4-28.1-22.8-36.6-39.4c-2.3-4.4-5.3-8.4-5.6-13.5c4.9-2.6,9.6,0.1,13.8,1.6c15.2,5.6,26.7,15.3,32.1,31.8
			C189,113.1,189.1,112.4,189.2,111.8z"/>
		<path class="st14" d="M161.1,157.2c-3.1,4.9-8.7,6-13.3,8.6c-20.2,11.5-42.2,13.5-64.8,12.2c-2.4-0.1-4.6-0.7-6-2.9
			c9.3-11.2,22.7-15.4,35.9-17.7c14.4-2.5,29.4-3,44.2-1.4C158.5,156.1,160.1,155.6,161.1,157.2z"/>
		<path class="st14" d="M248,82c-1.9,6.9-5.1,13.1-9,19c0,0.3,0,0.7,0,1c0,0,0,0,0,0c-6.3,6.5-11,14.4-18.1,20.2
			c-4.4,3.7-9,7.2-13.6,10.6c-2.3,1.7-4.7,1.8-4.2-2.1c0.7-5.6-2.7-11.1-0.1-16.6c3.1-5.6,4.6-11.9,9.8-16.5
			C223,88.8,234.1,82.3,248,82z"/>
		<path class="st14" d="M161,139c-12.2,0.2-23.9-2.7-35.7-4.8c-10.6-1.9-20.9-4.8-30.4-10.1c-3.6-2-6.8-4.4-8.8-8.1
			c13.1-3.3,26-3,39,0.7c12.7,3.6,22.9,11.3,33.6,18.3C160.1,136,161.4,137,161,139z"/>
		<path class="st14" d="M303,115c-3.4,5.5-8.6,8.7-14,11.9c-7.5,4.4-15.8,5.5-24,7.1c-1.3,0.3-2.7,0.6-4,0.9c-1.6-1.6-2.5-1.1-3,0.9
			c-10.1,0-19.8,3.5-30,3c0.2-2.1,1.8-3,3.3-4.1c4.7-3.3,9.7-6.3,14.6-9.2c13.7-8.2,28.5-12.4,44.4-12.7
			C294.7,112.9,298.6,115.2,303,115z"/>
		<path class="st13" d="M161.1,157.2c-1-1.6-2.6-1.1-4.1-1.2c-14.8-1.5-29.8-1.1-44.2,1.4c-13.2,2.3-26.6,6.5-35.9,17.7
			c-4.1-1.6-4.9-4.4-1.7-7.7c4.5-4.7,10.3-7.6,16-10.5c20.5-10.4,42.4-10,64.5-7.9c4.3,0.4,8.6,0.7,12.9,1.1c0.8,0.1,1.8,0.1,2,1.1
			c0.1,0.5-0.4,1.3-0.9,1.6C166.9,154.4,164.9,157.5,161.1,157.2z"/>
		<path class="st13" d="M309,175.1c-8.3-8-17.9-14.4-28.9-17.5c-6.8-1.9-14-3.7-21.3-3.6c-10.9,0.1-21.8-0.4-32.7,1
			c-1.7,0.2-3.3,0.2-4.1,2.1c-3.3-1.7-6.8-3.2-10.4-6.5c6.4-0.9,12-1.9,17.6-2.5c4.6-0.5,9.3,0.3,13.8-1.1c1.3,1.5,1.7,0.4,2.1-0.7
			c4.3-0.1,8.6-0.1,12.9-0.2c2.7,1.9,5.8,0.6,8.7,0.9c12.8,1.2,24.4,5.7,34.8,13.3c3.5,2.6,6.4,5.8,8.4,9.6
			C310.8,171.6,312.5,173.9,309,175.1z"/>
		<path class="st13" d="M161,139c0.4-2-0.9-3-2.4-4c-10.7-7.1-20.9-14.7-33.6-18.3c-13-3.7-25.9-4.1-39-0.7
			c-3.4-6.5,0.8-9.2,6.5-9.9c22.3-3,42,3.4,59.9,16.7c7.1,5.3,14.4,10.4,21.6,16.7C169.2,140.9,165.1,139.6,161,139z"/>
		<path class="st13" d="M303,115c-4.4,0.2-8.3-2.1-12.7-2.1c-16,0.2-30.7,4.5-44.4,12.7c-5,3-9.9,5.9-14.6,9.2
			c-1.5,1.1-3.1,2-3.3,4.1c-2.7,0.1-5.3,0.2-8,0.2c-0.9,0-2.2,0.4-2.5-0.9c-0.3-1.1,0.9-1.6,1.6-2.2c9.9-8,20.8-14.7,31.9-20.9
			c9.9-5,20.1-9.2,31.5-9c5.1,0.1,10.3-0.1,15.4,0.1C303.9,106.3,306.1,110.2,303,115z"/>
		<path class="st13" d="M264.2,211.8c-0.1,0.7-0.2,1.3-0.3,2.1c-6.3-9.6-13.5-18.1-22.5-25.2c-11.5-9-23.7-16.6-37.5-21.7
			c-1.2-0.5-2.5-0.7-3.8-1c-0.2-8.6,0.1-9.1,8-5.7c21.2,9,40.9,20.2,52.9,41.2C262.9,204.7,263.8,208.2,264.2,211.8z"/>
		<path class="st13" d="M188,165c-12.6,5.5-23.9,13.4-35.3,20.9c-9.8,6.5-19.1,13.5-25.7,23.5c-1,1.5-1.8,3-2.6,5.7
			c-0.3-1.7-0.4-2.5-0.5-3.3c1.4-10.3,7.6-17.8,14.7-24.5c9.2-8.7,20.2-15,31-21.4c4.5-2.7,9.3-4.8,13.9-7.4c4.5-2.5,4.7-0.6,4.5,3
			C188,162.7,188,163.8,188,165z"/>
		<path class="st13" d="M189.2,111.8c-0.1,0.7-0.2,1.3-0.4,2.7c-5.4-16.5-16.9-26.3-32.1-31.8c-4.2-1.5-8.8-4.2-13.8-1.6
			c-1.5-2.5-1.8-5.3,0.2-7.4c1.8-1.9,4.4-1.7,7-1.2c11.5,2.2,20.7,8.3,28.7,16.4c0.9,1,1.6,2.1,3.1,2.2c0,0,0,0,0,0
			C185,97.7,189.6,103.9,189.2,111.8z"/>
		<path class="st13" d="M248,82c-13.9,0.3-24.9,6.8-35.2,15.6c-5.3,4.5-6.8,10.9-9.8,16.5c-0.4-9.3,3.1-17.2,9.2-24
			c5-2.3,8.3-6.9,13.2-9.4c4.7-2.4,9.4-4.6,14.6-5.5C246.1,74.1,248,75.6,248,82z"/>
		<path class="st12" d="M194,250c-1.2,0-2.3,0-3.5,0c-3.9,0.2-5.7-1.3-5.6-5.5c0.2-9.6-0.1-19.2-0.2-28.8c1.2-5.2,5.5-7.9,9.2-10.9
			c-0.3,4.8,1.4,9.8-2.5,14.1c-1.2,1.3-0.4,3.8-0.1,5.8C192.6,233,194.3,241.4,194,250z"/>
		<path class="st15" d="M79.9,154c3.8-4.6,9.5-6.2,14.6-8.9c3.6-1.9,7.4-3.2,12.1-5.2c-8.3-4.2-16-7.6-22.2-13.1
			c-2.9-2.5-6.4-4.7-7.4-8.8c0.7-0.9,1.6-0.5,2.1,0.1c8.8,9.8,20.4,15.2,32,20.7c0.7,0.3,1.8,0.4,1.6,1.5c-0.1,0.5-0.7,1.2-1.3,1.3
			c-10,3.1-19.6,7.3-28.9,12C81.6,154.1,80.7,153.9,79.9,154z"/>
		<path class="st8" d="M140,238.1c-0.5,2.6-2.5,1.7-4.1,1.8C136.4,237.4,138.4,238.2,140,238.1z"/>
		<path class="st2" d="M258,135.9c0.5-2,1.5-2.5,3-0.9C260.2,136.2,259.1,136,258,135.9z"/>
		<path class="st3" d="M108,189c-0.8,1.2-2,1-3.2,0.8C105.5,188,106.5,187.5,108,189z"/>
		<path class="st2" d="M245.1,146.3c-0.4,1.1-0.8,2.2-2.1,0.7C243.5,146.2,244.3,146,245.1,146.3z"/>
		<path class="st5" d="M275,188c-1.5,1.5-2.5,1.1-3-0.9C273.1,187,274.2,186.8,275,188z"/>
		<path class="st6" d="M245,108c-0.1,0.1-0.2,0.3-0.2,0.4C244.8,108.3,244.9,108.1,245,108C245,108,245,108,245,108z"/>
		<path class="st1" d="M239,102c0-0.3,0-0.7,0-1C239.7,101.4,239.6,101.7,239,102z"/>
	</g>
</g>
</svg>
