<?xml version="1.0" encoding="utf-8"?>
<!-- Generator: Adobe Illustrator 21.1.0, SVG Export Plug-In . SVG Version: 6.00 Build 0)  -->
<svg version="1.1" id="Layer_1" xmlns="http://www.w3.org/2000/svg" xmlns:xlink="http://www.w3.org/1999/xlink" x="0px" y="0px"
	 viewBox="0 0 380 380" style="enable-background:new 0 0 380 380;" xml:space="preserve">
<style type="text/css">
	.st0{fill:#FEFEFE;}
	.st1{fill:#542318;}
	.st2{fill:#672D1F;}
	.st3{fill:#713627;}
	.st4{fill:#5A2619;}
	.st5{fill:#F3D9BB;}
	.st6{fill:#F1E2CF;}
	.st7{fill:#A75A45;}
	.st8{fill:#F3E0C7;}
	.st9{fill:#7F4334;}
	.st10{fill:#763929;}
	.st11{fill:#7C3624;}
	.st12{fill:#BDACC4;}
	.st13{fill:#9F503B;}
	.st14{fill:#9C4E39;}
	.st15{fill:#A3553F;}
</style>
<g>
	<g>
		<path class="st0" d="M191,381c-62,0-124,0-186,0.1c-3.4,0-4.1-0.7-4.1-4.1C1,253,1,129,0.9,5c0-3.4,0.7-4.1,4.1-4.1
			C129,1,253,1,377,0.9c3.4,0,4.1,0.7,4.1,4.1c-0.1,124-0.1,248,0,372c0,3.4-0.7,4.1-4.1,4.1C315,381,253,381,191,381z M97,85L97,85
			c-1.4-0.2-2,0.6-2.1,2c-9,6.2-15.4,14.1-17.6,25.1c0,0.3-0.1,0.7-0.1,1c0.8,3.2-2.3,5.7-1.6,8.9c-0.1,0.7-0.3,1.4-0.4,2.2
			c-1.6,1.8-1,3.9-0.9,5.9c-1,15.2-2.6,30.4-2.8,45.7c-0.5,31.3-0.3,62.6-0.4,93.8c0,3.2,0.7,6.1,3,8.5c-0.3,1.5,0.6,2.5,1.3,3.6
			c9.4,13.6,23,21.8,37.7,28c10.2,4.3,20.9,7.4,31.9,9.9c9.5,2.2,18.8,2.9,28.3,3.4c9.8,0.5,19.7,0.7,29.5-0.1
			c6.2-0.5,12.7,0.3,18.7-1.6c10.5-3.2,21.3-4.5,31.8-7.9c15.7-5.1,30.4-11.6,43.4-21.6c5.9-4.5,11-9.9,12.5-17.7
			c1.3-0.5,1.7-1.6,1.7-2.8c0.2-8.1,0.7-16.2-1.2-24.2c-0.1-2.7-0.3-5.4-0.4-8c0.3-2.8,1.2-5.7-1.1-8.2c0-15.2-1.6-30.3-2.7-45.4
			c-1-14.8-1.7-29.7-3.5-44.4c0.6-8.8-0.8-17.5-3-26c0-0.7,0-1.4,0-2c0-0.6,0-1.3,0-1.9c0.1-6.2-1.9-11.7-5.9-16.2
			c-4.3-4.9-8.4-10.3-14.9-12.8c-1.1-0.3-0.9-2.3-2.5-2.1c-4.8-3.5-10.3-5.6-15.5-8.1c-1.3-4-4-5.6-8.1-4.8
			c-1.3,0.2-2.6,0.1-3.9,0.1c-1.7-0.4-3.5,0.2-5.3-0.7c-6.3-3.3-13.7-2.4-20.1-5.1c-2-0.9-4.2-0.1-6,1.2c-2-1.6-4-2.8-6.6-1.5
			c-1.4-1.9-3.3-0.6-4.9-0.8c-4.3,0-8.7,0-13,0c-0.3-0.1-0.6-0.1-1,0c-4.2-0.7-6.5,3.1-9.9,4.2c-2.4,1.2-4.1,3.6-7,4
			c-1.4-1.9-2.8-3.8-4.3-5.6c0.5-1.3,1.9-1.4,2.7-2.5c-7.7,0.8-15.3,0.5-22.9,2.4c-9,2.2-17.9,4.7-26.5,7.9
			c-5.3,1.9-10.7,3.8-15.1,7.7c-1,0.4-2,0.8-3,1.2c-0.7-0.1-0.9,0.2-0.9,0.8c-0.7,0.6-1.4,1.2-2.1,1.9c-1.3,0.1-2.7,0.2-3.4,1.6
			l-0.1,0C98,84,97.5,84.5,97,85z"/>
		<path class="st1" d="M301.9,141c1.9,14.8,2.5,29.6,3.5,44.4c1.1,15.1,2.6,30.2,2.7,45.4c0.3,2.7-1.2,5.7,1.1,8.2
			c0.1,2.7,0.3,5.4,0.4,8c-1.3,9-0.1,18-0.5,27c-1.5,7.8-6.7,13.2-12.5,17.7c-13,10-27.7,16.5-43.4,21.6
			c-10.5,3.4-21.3,4.7-31.8,7.9c-6,1.8-12.5,1.1-18.7,1.6c-9.8,0.8-19.7,0.6-29.5,0.1c-9.5-0.5-18.8-1.2-28.3-3.4
			c-11-2.5-21.7-5.6-31.9-9.9c-14.7-6.1-28.3-14.4-37.7-28c-0.8-1.1-1.6-2.1-1.3-3.6c0.4-0.6,1.1-1.1,1.6-0.5
			c4.6,5.8,11.1,8.9,17.1,12.9c5.3,3.5,11.2,5.6,16.7,8.6c7.4,4,15.3,6.5,23.3,7.6c8.9,1.3,18,1.5,27.2,0.6
			c14.5-1.4,25-8.7,34.2-18.7c5.5-6,8.9-13.4,12.8-20.5c5.4-9.6,7.7-20.2,10.8-30.5c1.9-6.3,2.9-13.1,4.1-19.7
			c1.8-10.3,2.3-20.7,4.2-30.9c2.9-0.2,5.8-0.3,8.7-0.8c8.4-1.4,15.7-5.6,23.5-8.5c12.7-4.7,21.9-13.5,30.7-22.7
			C293.3,150.5,298.3,146.3,301.9,141z"/>
		<path class="st2" d="M226,187c-1.9,10.2-2.3,20.6-4.2,30.9c-1.2,6.6-2.2,13.4-4.1,19.7c-3.2,10.3-5.5,20.8-10.8,30.5
			c-3.9,7.1-7.3,14.6-12.8,20.5c-9.2,10-19.7,17.4-34.2,18.7c-9.2,0.9-18.3,0.7-27.2-0.6c-8-1.1-15.9-3.6-23.3-7.6
			c-5.5-3-11.4-5-16.7-8.6c-5.9-4-12.5-7.1-17.1-12.9c-0.5-0.6-1.2-0.2-1.6,0.5c-2.3-2.4-3-5.3-3-8.5c0.1-31.3-0.1-62.6,0.4-93.8
			c0.3-15.2,1.8-30.5,2.8-45.7c2-0.2,1.6-1.8,1.7-3.1c0.4,0,0.7,0,1.1,0c-0.3,3.9-0.2,7.6,5,8c0,0.3,0,0.7,0,1c0,2.4,0,4.9,0,7.3
			c-3.7-0.2-5.1,1.8-4.8,5.2c0.5,6.4,3.4,11.6,8.3,15.6c4.5,3.7,7.6,2.6,9.5-3c3.2,1,3.3,4.9,6.1,6.2c-3.7,3.8-1.7,7.4,1.1,9.9
			c11.1,10,23.9,16.2,39.3,16c3.6-0.1,6-1.5,6.7-5.2c0.2-0.3,0.5-0.6,0.7-1c6.7,0.9,13,3.9,20,2.8c4.7-0.7,9.5-3.4,14,0.9
			c0.7,0.6,2.3,0.4,3.4,0.3c9.1-1.1,18.3,0.6,27.3-2.7c5.3-1.9,10.6-2.7,11.7-9.4c0.1-0.4,1-0.6,1.6-0.9
			C226.7,181,226.3,184,226,187z M129,211.7c0-2,0-4,0-6c0-1.9-0.7-3.1-2.6-3.7c-2.7-0.8-5.2-2-7.9-2.8c-10.7-3.2-20.7-7.8-29.9-14
			c-1.2-0.8-2.1-2.6-3.8-1.7c-1.8,1-2,3-1.8,4.9c1.2,10.4,1.1,20.9,2.2,31.2c0.8,6.8-0.3,13.6,1.5,20.3c2.3,8.7,2.3,17.8,4.9,26.7
			c2.1,7.1,4.2,13.9,8.3,20c0.9,1.4,1.9,2.3,3.8,2.8c6.9,1.8,11.7-0.8,15.3-8.4c5.5-11.7,6.7-24.5,8.7-36.9
			C129.4,233.4,127.6,222.4,129,211.7z"/>
		<path class="st3" d="M227,178c-0.6,0.3-1.5,0.5-1.6,0.9c-1.1,6.7-6.4,7.4-11.7,9.4c-9,3.3-18.2,1.6-27.3,2.7
			c-1.1,0.1-2.7,0.3-3.4-0.3c-4.5-4.2-9.3-1.6-14-0.9c-7,1.1-13.3-2-20-2.8c0,0,0,0,0,0c-0.5-0.3-1-0.6-1.5-0.9
			c-3.9-4-8.5-7.3-13.6-9.7c-10.4-5-20.7-10.5-32.9-9.2c-2.8-1.4-2.9-5.3-6.1-6.2c-1.8-7.7-6.6-13.3-13-17.7c0-2.4,0-4.9,0-7.3
			c0.9-0.1,1.9-0.3,2.8-0.4c0,0,0.1,0.2,0.1,0.2c0.3,0.4,0.6,0.8,0.9,1.2l0.2,0.2l-0.1,0.3c0.3,0.4,0.5,1,0.8,1.1
			c0.8,0.2,1-0.6,1.3-1.2c0.9-2.2,2.7-3.5,4.8-4.6c2.3,6.3,6.9,10.3,13,12.6c-1.1,2.7-2,5.3,0.8,7.5c3.1,2.4,5.1,0.1,7.2-1.6
			c0.5-0.4,1.2-0.5,1.8-0.8c0.4,0.9,0.5,2.3,1.1,2.6c6,2.6,11.5,6.7,18.4,7c0,0.8-0.1,1.7-0.1,2.5c-0.1,1.2-0.5,2.6,1.6,1.7
			c0.7,0.1,1.3,0.3,2,0.4c0.4,0.5,0.7,1,1.1,1.5c3.1,5.3,9.2,5.2,13.9,6.5c10.7,3.1,22,3.8,33.3,3.5c5.4-0.1,8.2-2.5,9.9-7.1
			c8-0.9,15.8-2.5,23.7-4.7c7.7-2.2,15.5-4.5,22.7-7.9c3.2-1.5,7.6-1.7,9.7-5.4c1.1-0.2,2.4-0.2,3.3-0.8c9-4.8,17.1-11,23.5-19
			c5-6.2,8.8-13.3,6.6-22c0.9-3.8-1.3-5.2-4.4-6c1.5-2.9-0.7-4.7-2.2-6.3c-2.8-2.9-6-5.5-9.1-8.2c2.4-2.3,4.9-4.6,7.3-6.8
			c6.5,2.5,10.5,7.9,14.9,12.8c4,4.5,6,10.1,5.9,16.2c-0.9,0.7-0.9,1.3,0,1.9c0,0.7,0,1.4,0,2c-1.2,0.1-1.9,0.7-1.8,1.9
			c1.7,14-6,24.2-14.8,32.9c-14.3,14-32.1,21.9-51.6,26.1C229.1,176.3,227.7,176.4,227,178z"/>
		<path class="st4" d="M227,178c0.7-1.6,2.1-1.7,3.7-2.1c19.5-4.2,37.3-12.1,51.6-26.1c8.9-8.7,16.5-19,14.8-32.9
			c-0.1-1.2,0.7-1.8,1.8-1.9c2.2,8.5,3.5,17.2,3,26c-3.6,5.3-8.5,9.5-12.9,14.1c-8.9,9.2-18.1,18-30.7,22.7
			c-7.8,2.9-15.2,7-23.5,8.5c-2.8,0.5-5.8,0.5-8.7,0.8C226.3,184,226.7,181,227,178z"/>
		<path class="st5" d="M278,82c-2.4,2.3-4.9,4.6-7.3,6.8c-4.1,3-8.4,6-11.8,9.9c-3.4,1.8-6.3,4.3-8.9,7.2
			c-11.2,8-21.4,17.1-31.9,25.8c-6.2,5.1-12.9,9.7-18.2,15.8c-3.7,1.4-5.6,5-9,6.9c-0.8,0.4-1.6,0.9-2.4,1.3
			c-0.4-0.2-0.7-0.4-1.1-0.5c-3.6-3-3.3-5.8,0.1-9c9.5-8.9,19.4-17.3,29.7-25.3c9.8-7.5,19.6-15.1,29.4-22.6c0.8-0.5,1.6-1,2.4-1.5
			c1.3,0.1,2-0.7,2.4-1.8c4.9-2.4,9.4-5.5,13.7-8.8c3.4-2.2,7.8-2.9,10.4-6.4C277.1,79.7,276.9,81.7,278,82z"/>
		<path class="st6" d="M169.8,62.6c1.4,1.9,2.8,3.8,4.3,5.6c-0.6,0.6-1.1,1.2-1.7,1.7c-5.1,3.9-10.9,7-15.5,11.6
			c-0.7,0.4-1.3,0.8-2,1.1c-4.6,3-9.1,6.1-12.9,10c-2.4,0.9-4.2,2.5-5.9,4.4c-1.2,0-1.9,0.7-2.3,1.8c-1.8,0.7-3.3,1.8-4.1,3.6l0,0.1
			c-0.6,0.3-1.3,0.6-1.9,0.9c-1.2,0.6-2.3,1.2-2.8,2.5c-2,0.2-2.7,1.9-3.9,3.1c-1.3,0-1.9,0.7-2.3,1.9c-3.6,2.4-7.2,5-10,8.3
			c-2.2,1.2-4.3,2.6-5.7,4.7c-1.3,0-2,0.8-2.3,1.9c-1.1,0.8-2.3,1.5-3.4,2.3c-1.3-0.7-1.9-2.4-3.7-2.3c0.2-2.1,2-2.9,3.2-4.2
			c4.5-4.7,9.1-9.3,13.6-13.9c7.1-4.8,12.7-11.4,19.4-16.7c9.5-7.3,19-14.6,28.4-22C162.3,67.3,165.5,64,169.8,62.6z"/>
		<path class="st5" d="M248,67.1c1.3,0,2.6,0.2,3.9-0.1c4.1-0.7,6.8,0.8,8.1,4.8c-3.5,1.3-5.5,4.3-7.9,6.9c-4.4,2.2-7.6,6-11.1,9.3
			c-0.9,0.1-1.4,0.6-2.1,1.2c-8.9,7.1-17.3,14.7-26.8,21c-0.5-4.3,3.5-7.4,3.2-11.8c0-0.4,0.8-1,1.3-1.2c6-3,6-4,0.4-8.2
			c6.6-6.1,14.7-10,21.6-15.5C241.9,71.6,246.3,71.3,248,67.1z"/>
		<path class="st7" d="M156.8,81.5c4.6-4.6,10.4-7.6,15.5-11.6c0.6-0.5,1.1-1.1,1.7-1.7c2.9-0.3,4.6-2.8,7-4
			c1.4,2.3,3.7,1.4,5.8,1.7c3.8,0.5,7.8-1.4,11.3,1.3c-0.9,1.3-2.1,1.9-3.4,2.8c-8.3,5.5-17.1,10.4-24.8,16.9
			c-0.3,0.3-0.6,0.6-0.9,0.8c-0.8,0.1-1.7,0.1-2,1.2c-0.6,0.1-1.1,0.1-1.7,0.2c-0.2-0.2-0.4-0.3-0.6-0.5c0.2,0.2,0.3,0.4,0.5,0.5
			c-0.1,0.8-0.5,1.3-1.3,1.5c-0.9-0.8-1.5-0.7-1.8,0.6l0.1,0c-0.5-0.1-1.2-0.4-1.4,0.4c0,0.1,0.4,0.4,0.6,0.6
			c-0.4,1.4-1.4,2-2.8,1.9c-0.5,0.3-1.1,0.6-1.6,0.9c-1,0.3-3.5-0.7-1.9,2.1c-0.5,1.3-1.7,1.9-2.8,2.5c-0.3-0.5-0.5-1.3-1.3-1.1
			c-1.1,0.3-0.7,1.2-0.6,1.9c0,0,0-0.1,0-0.1c-0.9-0.5-2.6,0.2-2.8-1.4c-0.2-1.2,0.5-2.3,1.7-2.7c2.5-0.8,3.9-3.1,6.6-3.9
			c2.3-0.6,4.8-2.7,5.8-4.7c0.9-1.8-3-1.4-3.5-3.4C157.8,83.3,157.3,82.4,156.8,81.5z"/>
		<path class="st8" d="M169.9,87c7.7-6.5,16.5-11.4,24.8-16.9c1.3-0.8,2.5-1.5,3.4-2.8c3.3-0.8,5.8-2.9,8.4-4.9
			c1.1-0.5,2.3-0.9,3.4-1.4c2.6-1.3,4.7-0.1,6.6,1.5c-0.9,1.1-1.9,2.2-2.8,3.2c-3.8,2.8-7.7,5.6-11.4,8.5
			c-10.4,8.1-20.8,16.2-31.2,24.3c-3.3-2.8-4.8-5.7-0.4-9C172.4,88.3,171.9,87.3,169.9,87z"/>
		<path class="st9" d="M169.8,62.6c-4.3,1.4-7.5,4.7-11.5,6.5c-1.8-0.1-3.6,0.1-5.4,0.3c-6.5,0.9-12.2,4.5-18.7,5.5
			c-1.5-4.4-4.2-2.4-6.6-1.3c-4.8,2.4-9.6,4.9-14.3,7.4c-2.6,0.4-3-3.1-5.3-3.1c4.4-3.8,9.9-5.7,15.1-7.7c8.6-3.2,17.6-5.7,26.5-7.9
			c7.6-1.8,15.2-1.6,22.9-2.4C171.7,61.3,170.2,61.4,169.8,62.6z"/>
		<path class="st10" d="M107.9,78c2.4,0,2.7,3.5,5.3,3.1c-2.5,2-5.1,4.1-7.6,6.1c-0.8,0.1-1.3,0.5-1.5,1.3c0.1,0.2,0,0.4-0.2,0.5
			c-1.2,0.3-2.8-0.7-3.4,1.1c-0.3,0.7,0.7,1,1.2,1.3c-0.1,0.3-0.3,0.5-0.6,0.7c-1.6,0-2.2,0.9-2,2.4c-1.2,3.2-4.9,4.9-5.4,8.6
			c-3.1,2.6-4.3,6.4-5.8,10c-2.5-1.9-1.7-4.2-1.1-6.7c0.3-1.4,0.9-3.7-1.5-4.1c-2.1-0.3-3.9,0.4-4.4,2.9c-0.3,1.6-0.8,3.2-1,4.8
			c-0.2,1.8-1.3,2.1-2.8,2.1c2.2-10.9,8.6-18.9,17.6-25.1c1.4,0,2.1-0.6,2.1-2c0,0,0,0,0,0c0.9-0.1,1.7-0.2,1.6-1.5c0,0,0.1,0,0.1,0
			c1.8,0.8,2.7-0.1,3.4-1.6c0.7-0.6,1.4-1.2,2.1-1.9c0.3-0.3,0.6-0.5,0.9-0.8C106,78.8,107,78.4,107.9,78z"/>
		<path class="st3" d="M77.3,112c1.4,0,2.6-0.3,2.8-2.1c0.2-1.6,0.7-3.2,1-4.8c0.5-2.5,2.4-3.3,4.4-2.9c2.4,0.4,1.8,2.7,1.5,4.1
			c-0.5,2.5-1.4,4.8,1.1,6.7c-1.6,5.4-0.9,10.5,1.4,15.6c-0.2,0.9-0.4,1.8-1.7,1.6c-0.9,0.1-1.4,0.6-1.5,1.6l0.2,0.1
			c-0.8,0.4-1.2,0.9-1.2,1.8c-0.1,0.2-0.1,0.5-0.1,0.7c-1,0.2-2,0.4-3,0.6c-5.2-0.4-5.3-4.1-5-8c0-1.6,0-3.3,0-4.9
			c1.9-3,3.7-5.9,0.2-9C77.2,112.7,77.2,112.3,77.3,112z"/>
		<path class="st9" d="M213.8,65.7c0.9-1.1,1.9-2.2,2.8-3.2c1.8-1.3,3.9-2.1,6-1.2c6.5,2.7,13.9,1.9,20.1,5.1
			c1.8,0.9,3.6,0.3,5.3,0.7c-1.7,4.3-6,4.6-9.4,6.4c-7.3-2.1-14.6-4.3-22.2-5.3C214.9,67.9,214,67.2,213.8,65.7z"/>
		<path class="st10" d="M252.1,78.7c2.4-2.6,4.4-5.6,7.9-6.9c5.2,2.6,10.7,4.7,15.5,8.1c-2.6,3.6-7,4.2-10.4,6.4
			C261.6,82.5,257,80.3,252.1,78.7z"/>
		<path class="st9" d="M206.5,62.4c-2.6,2.1-5.1,4.2-8.4,4.9c-3.5-2.7-7.5-0.8-11.3-1.3c-2-0.3-4.3,0.6-5.8-1.7
			c3.4-1.1,5.7-5,9.9-4.2c0.3,0.6,0.6,0.5,1,0c4.3,0,8.7,0,13,0C205,61.2,205.6,61.9,206.5,62.4z"/>
		<path class="st9" d="M309.1,274.1c0.4-9-0.8-18,0.5-27c1.9,8,1.4,16.1,1.2,24.2C310.7,272.5,310.4,273.6,309.1,274.1z"/>
		<path class="st2" d="M77.2,113c3.6,3.1,1.7,6-0.2,9c-0.5,0-1-0.1-1.5-0.1C74.9,118.7,77.9,116.2,77.2,113z"/>
		<path class="st9" d="M309.2,239.1c-2.3-2.5-0.8-5.5-1.1-8.2C310.4,233.4,309.5,236.3,309.2,239.1z"/>
		<path class="st7" d="M75.9,127c-0.1,1.3,0.3,2.8-1.7,3.1c-0.1-2-0.7-4.2,0.9-5.9C76.2,124.8,75.8,125.9,75.9,127z"/>
		<path class="st3" d="M206.5,62.4c-0.9-0.5-1.5-1.2-1.5-2.2c1.7,0.2,3.6-1.1,4.9,0.8C208.8,61.4,207.7,61.9,206.5,62.4z"/>
		<path class="st10" d="M75.9,127c-0.1-1,0.3-2.1-0.8-2.9c0.1-0.7,0.3-1.4,0.4-2.2c0.5,0,1,0.1,1.5,0.1c0,1.6,0,3.3,0,4.9
			C76.6,127,76.3,127,75.9,127z"/>
		<path class="st9" d="M102,81.9c-0.7,1.5-1.6,2.4-3.4,1.6C99.3,82,100.6,81.9,102,81.9z"/>
		<path class="st9" d="M97,85c0,1.4-0.8,2-2.1,2C94.9,85.6,95.5,84.8,97,85z"/>
		<path class="st9" d="M98.5,83.5c0.2,1.2-0.6,1.4-1.6,1.5C97.5,84.5,98,84,98.5,83.5z"/>
		<path class="st4" d="M298.9,113c-1-0.6-1-1.3,0-1.9C298.8,111.7,298.9,112.3,298.9,113z"/>
		<path class="st9" d="M105,79.2c-0.3,0.3-0.6,0.5-0.9,0.8C104.1,79.4,104.3,79.1,105,79.2z"/>
		<path class="st3" d="M192,60.1c-0.3,0.5-0.6,0.6-1,0C191.3,60,191.7,60,192,60.1z"/>
		<path class="st11" d="M129,211.7c-1.4,10.7,0.4,21.8-1.3,32.3c-2,12.4-3.2,25.2-8.7,36.9c-3.6,7.6-8.3,10.2-15.3,8.4
			c-1.9-0.5-2.9-1.5-3.8-2.8c-4.1-6.1-6.2-12.9-8.3-20c-2.6-8.8-2.6-17.9-4.9-26.7c-1.8-6.7-0.7-13.5-1.5-20.3
			c-1.2-10.3-1.1-20.8-2.2-31.2c-0.2-1.9,0.1-3.9,1.8-4.9c1.7-0.9,2.6,0.9,3.8,1.7c9.2,6.2,19.2,10.9,29.9,14c2.7,0.8,5.2,2,7.9,2.8
			c1.9,0.6,2.6,1.8,2.6,3.7C129,207.7,129,209.7,129,211.7z"/>
		<path class="st12" d="M101.1,167.2c12.2-1.3,22.5,4.2,32.9,9.2c5.1,2.4,9.6,5.7,13.6,9.7c0.1,0.3,0.3,0.6,0.4,0.9
			c0.1,0.3,0.2,0.6,0.3,1c-0.7,3.7-3.1,5.2-6.7,5.2c-15.4,0.2-28.2-6.1-39.3-16C99.4,174.6,97.4,171,101.1,167.2z"/>
		<path class="st12" d="M82,143.3c6.4,4.4,11.2,10,13,17.7c-2,5.6-5,6.7-9.5,3c-4.9-4-7.8-9.2-8.3-15.6
			C76.9,145.1,78.3,143.1,82,143.3z"/>
		<path class="st10" d="M82,135c1-0.2,2-0.4,3-0.6c-0.1,0.4-0.2,0.8-0.2,1.2c-0.9,0.1-1.9,0.3-2.8,0.4C82,135.7,82,135.3,82,135z"/>
		<path class="st3" d="M148.3,188c-0.1-0.3-0.2-0.6-0.3-1c0.3,0,0.7,0,1,0c0,0,0,0,0,0C148.8,187.3,148.5,187.6,148.3,188z"/>
		<path class="st13" d="M190.9,154.5c3.3-1.9,5.3-5.5,9-6.9c1.5,3.4,5.1,0.6,7.2,2.4c2.7,1.9,1.6,7.5,6.8,7.1l0.2,0.1
			c0.1,0.6,0.2,1.4,1,1.4c0.8,0,0.9-0.7,1.1-1.4c9.9-4.9,19-11.2,28.2-17.2c8.4-5.4,16.1-12,24.8-17c0.2,0.8,0.9,1.9,0.6,2.3
			c-3.8,4.7-4.1,11.6-9.6,15.3c-3.3,2.2-2.4,7.8-6.9,9.4c-0.1,0,0,0.6,0,1c-2.1,3.7-6.4,3.9-9.7,5.4c-7.2,3.4-14.9,5.7-22.7,7.9
			c-7.8,2.2-15.6,3.8-23.7,4.7c-7.9,0-15.9,0.5-23.8-0.1c-10.1-0.8-20.3-1.9-29.7-6.3c4.6-3.6,9.1-7.3,14.3-10.1
			c0.2,1.8,1.2,2.4,3,2.6c5.1,0.5,10.1,1.8,15.1,1.7c3.8,0,8.2,3.1,11.4-1.5c0.4,0.2,0.7,0.4,1.1,0.5
			C189.6,155.9,190.6,155.9,190.9,154.5z"/>
		<path class="st8" d="M157.8,152.5c-5.2,2.8-9.7,6.4-14.3,10.1c-0.5,0.2-1,0.4-1.4,0.7c-1,0.5-2.1,1-3.1,1.5
			c-0.7-0.1-1.3-0.3-2-0.4c-0.2-0.9-0.8-1.3-1.6-1.7c0-0.8,0.1-1.7,0.1-2.5c4.1-4.3,8.2-8.6,12.3-12.8c9.4-8.5,18.7-17.1,28.2-25.5
			c11.5-10.2,23.4-19.9,36-28.8c1.3,0.1,2.1-0.4,2.2-1.8c1-0.7,1.5-2.1,3-2.2c5.6,4.2,5.5,5.2-0.4,8.2c-0.5,0.3-1.3,0.9-1.3,1.2
			c0.4,4.3-3.7,7.5-3.2,11.8c-8.4,6.6-16.7,13.2-25.1,19.8C177.4,137.6,167,144.3,157.8,152.5z"/>
		<path class="st6" d="M169.9,87c1.9,0.3,2.4,1.3,0.8,2.5c-4.4,3.3-2.9,6.1,0.4,9c0,0.3-0.2,0.5-0.4,0.6c-0.2,0.3-0.5,0.5-0.7,0.8
			c-1.8,1.5-3.6,2.9-5.4,4.4c-4.2-0.8-6.2,0.7-5.5,5.1c-0.5,0.6-0.9,1.1-1.4,1.7c-0.8,0.1-1.5,0.4-1.8,1.2c-0.7,0.9-1.3,1.9-2.1,2.7
			c-6.7,6.5-13.8,12.6-20,19.6c-6.2,5.1-12.6,10-18,16c-0.6,0.2-1.3,0.4-1.8,0.8c-2.2,1.7-4.1,4-7.2,1.6c-2.9-2.2-1.9-4.9-0.8-7.6
			c3.3-2.6,5.6-6.1,8.1-9.4c1-0.3,1.6-0.9,1.8-1.9c0.5-0.6,1-1.2,1.6-1.9c3.5-3.7,7.1-7.4,10.6-11.2c1.4-0.6,2.4-1.6,3-3l0,0
			c2.3-1.7,4.7-3.3,6.2-5.9c0.3-0.2,0.6-0.4,0.9-0.6c0.5-0.5,1-1,1.4-1.4c1.5-1.1,3.5-1.6,4-3.8c0.9-0.4,1.8-0.9,2.6-1.3
			c1.5,0,2.8-0.2,2.7-2.1c0.4-0.9,0.9-1.7,1.3-2.6c0,0,0,0.1,0,0.1c0.6-0.3,1.3-0.6,1.9-0.8c1.2-0.6,2.3-1.2,2.8-2.5
			c0.8-0.1,1.6-0.4,1.8-1.3c0.3-0.3,0.7-0.5,1-0.8c0.2-0.3,0.4-0.6,0.6-0.9c1.4,0.1,2.4-0.5,2.8-1.9c0.3-0.3,0.6-0.6,0.9-1
			c0,0-0.1,0-0.1,0c0.6-0.2,1.2-0.4,1.8-0.6c0.8-0.2,1.2-0.7,1.3-1.5l0.1-0.1c0.6-0.1,1.1-0.1,1.7-0.2c0.9,0,1.7-0.2,2-1.2
			C169.3,87.6,169.6,87.3,169.9,87z M148.7,113.4c-0.1,0.3-0.4,0.6-0.3,0.8c0.1,0.2,0.5,0.3,0.8,0.4c0.1-0.3,0.4-0.6,0.3-0.8
			C149.4,113.6,149,113.5,148.7,113.4z"/>
		<path class="st5" d="M269,123.1c-8.7,5-16.4,11.5-24.8,17c-9.3,6-18.3,12.3-28.2,17.2c-0.7,0-1.4,0-2.1-0.1c0,0-0.2-0.1-0.2-0.1
			c0.2-2,1.7-3.1,3-4.4c2.7-2.6,5.5-5.1,8.2-7.7c1.3,0,2-0.7,2.3-1.9c2-1.5,4-3,5.9-4.6c1.1-0.6,2.4-1.2,2.9-2.5
			c2-0.2,2.7-1.9,3.9-3c1.9,0,2.4-1.7,3.4-2.8c5.6-2.7,9.6-7.7,15.1-10.8c2.9-1.6,6-3.3,8.1-6.2c5.2-3.3,10.3-6.6,15.5-10
			c3.1,0.8,5.3,2.2,4.4,6C280.7,113.9,274.8,118.5,269,123.1z"/>
		<path class="st14" d="M269,123.1c5.8-4.6,11.6-9.2,17.5-13.7c2.1,8.6-1.7,15.8-6.6,22c-6.4,7.9-14.5,14.1-23.5,19
			c-1,0.5-2.2,0.5-3.3,0.8c0-0.3-0.1-0.9,0-1c4.5-1.6,3.6-7.2,6.9-9.4c5.6-3.7,5.8-10.6,9.6-15.3C269.9,125,269.2,123.8,269,123.1z"
			/>
		<path class="st15" d="M115.8,150.5c5.4-6,11.8-10.9,18-16c1.2,2.1-4,4.5,0.4,6.7c4.4,2.2,8.7,4.7,13.5,6.1
			c-4.1,4.3-8.2,8.6-12.3,12.8c-6.9-0.3-12.4-4.4-18.4-7C116.3,152.8,116.2,151.4,115.8,150.5z"/>
		<path class="st10" d="M142,163.2c0.5-0.2,1-0.4,1.4-0.7c9.4,4.4,19.6,5.5,29.7,6.3c7.9,0.7,15.9,0.1,23.8,0.1
			c-1.6,4.7-4.5,7-9.9,7.1c-11.3,0.3-22.6-0.4-33.3-3.5c-4.6-1.3-10.8-1.2-13.9-6.5C141.7,165.9,142.1,164.7,142,163.2z"/>
		<path class="st14" d="M282,103.3c-5.2,3.3-10.3,6.6-15.5,10c-0.8-2.6-2.2-4.4-5.2-4.3c-2,0-3-1.3-1.7-2.8c2.4-2.9,0.8-5.1-0.8-7.4
			c3.4-3.9,7.7-6.8,11.8-9.9c3.1,2.7,6.3,5.2,9.1,8.2C281.3,98.7,283.5,100.5,282,103.3z"/>
		<path class="st14" d="M117.4,132.1c-0.5,0.6-1,1.2-1.6,1.9c-1.2,0.1-1.7,0.8-1.8,1.9c-2.4,3.3-4.8,6.8-8.1,9.4
			c-6.1-2.3-10.7-6.3-13-12.6c1.4-1.5,2.9-3.1,4.3-4.6c1.1-0.8,2.3-1.5,3.4-2.3c1.4,0.1,2.2-0.5,2.3-1.9c1.5-2.1,3.5-3.5,5.7-4.7
			c-0.4,2.8,2,4.7,2.2,7.3C111.3,130.5,113.3,132.4,117.4,132.1z"/>
		<path class="st8" d="M97.3,128.2c-1.4,1.5-2.9,3.1-4.3,4.6c-2,1.1-3.8,2.4-4.8,4.6c-0.7,0-1.4,0.1-2.1,0.1l0.1-0.3
			c0,0-0.2-0.2-0.2-0.2c0-0.6-0.3-1.1-0.9-1.2c0,0-0.1-0.2-0.1-0.2c0.1-0.4,0.1-0.8,0.2-1.2c0-0.2,0.1-0.5,0.1-0.7
			c0.4-0.6,0.8-1.2,1.2-1.8c0,0-0.2-0.1-0.2-0.1c0.9-0.2,1.3-0.7,1.5-1.6c1.3,0.2,1.5-0.7,1.7-1.6c1.4-0.9,2.8-1.8,4.2-2.7
			C95.4,125.8,96,127.4,97.3,128.2z"/>
		<path class="st15" d="M142,163.2c0,1.5-0.3,2.7-2.1,3c-0.4-0.5-0.7-1-1.1-1.5C139.9,164.2,141,163.7,142,163.2z"/>
		<path class="st15" d="M135.3,162.6c0.7,0.4,1.4,0.8,1.6,1.7C134.8,165.2,135.2,163.8,135.3,162.6z"/>
		<path class="st2" d="M86.1,137.4c0.7,0,1.4-0.1,2.1-0.1c-0.3,0.6-0.4,1.4-1.3,1.2C86.6,138.4,86.4,137.8,86.1,137.4z"/>
		<path class="st10" d="M85,135.8c0.7,0.1,0.9,0.6,0.9,1.2C85.6,136.6,85.3,136.2,85,135.8z"/>
		<path class="st2" d="M149,187c-0.3,0-0.7,0-1,0c-0.1-0.3-0.3-0.6-0.4-0.9C148,186.4,148.5,186.7,149,187z"/>
		<path class="st7" d="M157.8,152.5c9.2-8.2,19.6-14.8,29.2-22.5c8.4-6.6,16.7-13.2,25.1-19.8c9.5-6.3,17.9-14,26.8-21
			c0.7-0.5,1.2-1.1,2.1-1.2c1.9,3.5,3.7,7,5.6,10.4c-9.8,7.5-19.6,15.1-29.4,22.6c-10.3,7.9-20.2,16.4-29.7,25.3
			c-3.4,3.2-3.7,5.9-0.1,9c-3.2,4.6-7.6,1.5-11.4,1.5c-5,0.1-10.1-1.2-15.1-1.7C159,154.9,158,154.3,157.8,152.5z"/>
		<path class="st15" d="M258.9,98.8c1.6,2.3,3.2,4.5,0.8,7.4c-1.3,1.5-0.3,2.8,1.7,2.8c3,0,4.5,1.7,5.2,4.3
			c-2.1,2.9-5.1,4.6-8.1,6.2c-5.5,3-9.4,8.1-15.1,10.8c-3.6-2.1-3.5,0.4-3.4,2.8c-1.2,1.2-1.9,2.9-3.9,3c-1.8-0.1-3.2,0.2-2.9,2.5
			c-2,1.5-4,3-5.9,4.6c-1.4-0.1-2.2,0.5-2.3,1.9c-2.7,2.6-5.5,5.1-8.2,7.7c-1.3,1.2-2.8,2.4-3,4.4c-5.2,0.5-4.1-5.2-6.8-7.1
			c4.3-2.4,10-2.2,13.2-6.2c6.4-8.1,14.9-14.1,21.3-22.1c3.8-4.7,8.4-9,8.5-15.8C252.6,103.1,255.4,100.6,258.9,98.8z"/>
		<path class="st7" d="M250,105.9c-0.1,6.7-4.7,11.1-8.5,15.8c-6.4,8-14.9,14-21.3,22.1c-3.2,4-8.9,3.8-13.2,6.2
			c-2-1.8-5.7,1-7.2-2.4c5.3-6.1,12-10.7,18.2-15.8C228.6,123,238.8,113.9,250,105.9z"/>
		<path class="st15" d="M246.6,98.4c-1.9-3.5-3.7-7-5.6-10.4c3.6-3.3,6.7-7.1,11.1-9.3c4.9,1.6,9.5,3.8,13,7.7
			c-4.3,3.3-8.8,6.4-13.7,8.8c-1.4-0.2-2.3,0.3-2.4,1.8C248.2,97.4,247.4,97.9,246.6,98.4z"/>
		<path class="st7" d="M249,97c0.1-1.5,1-2,2.4-1.8C251,96.3,250.3,97,249,97z"/>
		<path class="st7" d="M190.9,154.5c-0.3,1.4-1.3,1.5-2.4,1.3C189.3,155.3,190.1,154.9,190.9,154.5z"/>
		<path class="st15" d="M117.4,132.1c-4,0.3-6-1.6-6.4-5.6c-0.3-2.5-2.6-4.5-2.2-7.3c2.8-3.4,6.4-5.9,10-8.3
			c1.4,0.1,2.2-0.4,2.3-1.9c1.2-1.2,1.9-2.9,3.9-3.1c1.4,0,1.7,1.2,2.4,2.1c1.2,1.5,3.3,1.7,4.9,1.5c2.1-0.2,1.7-2.6,2-4.1
			c0.7-4.4-3.4-1.5-4.6-2.9c0.9-1.8,2.3-2.9,4.1-3.6c1.4,0.1,2.2-0.4,2.3-1.8c1.6-1.9,3.5-3.5,5.9-4.4c0.6,3.6,2.7,2.2,4.3,1.2
			c1.9-1.2,3.7-2.6,5.9-3.5c3.7-1.4,5.9-3.7,2.7-7.7c0.7-0.4,1.3-0.8,2-1.1c0.4,0.9,1,1.7,1.3,2.7c0.5,2,4.4,1.6,3.5,3.4
			c-1.1,2.1-3.6,4.1-5.8,4.7c-2.7,0.8-4.1,3.1-6.6,3.9c-1.2,0.4-1.9,1.5-1.7,2.7c0.2,1.6,1.9,0.9,2.8,1.4c-0.4,0.9-0.9,1.7-1.3,2.6
			c-0.5,0.1-1.1,0.2-1.6,0.3c-1.2,0-1.7-3.2-3.3-1c-0.8,1.1-3.4,2.4-0.5,4.1c-0.5,2.2-2.6,2.6-4,3.8c-0.8,0.1-1.3,0.6-1.4,1.4
			c-0.3,0.2-0.6,0.4-0.9,0.6c-3.6-2.9-4.9,1.4-7.2,2.4c-1.7,0.7,1.6,2,1,3.5c0,0,0,0,0,0c-3.1-1.2-3.2,0.8-3,3
			C124.4,124.7,120.9,128.4,117.4,132.1z M138.6,99.7c-0.3-0.1-0.6-0.4-0.8-0.3c-0.2,0.1-0.3,0.5-0.4,0.8c0.3,0.1,0.6,0.4,0.8,0.3
			C138.5,100.5,138.5,100,138.6,99.7z"/>
		<path class="st7" d="M134.2,75c6.5-1,12.1-4.7,18.7-5.5c1.8-0.2,3.6-0.4,5.4-0.3c-9.5,7.3-19,14.6-28.4,22
			c-6.8,5.2-12.3,11.8-19.4,16.7c-0.6-2.3-0.7-4.6,0.6-6.8c1.7-2.9,1.1-5.3-1.2-7.6c4.9-4.7,11-7.6,16.3-11.7
			C128.9,79.6,132.9,78.8,134.2,75z"/>
		<path class="st14" d="M109.8,93.5c2.3,2.2,2.9,4.7,1.2,7.6c-1.3,2.2-1.1,4.4-0.6,6.8c-4.6,4.6-9.2,9.2-13.6,13.9
			c-1.2,1.2-3,2.1-3.2,4.2c-1.4,0.9-2.8,1.8-4.2,2.7c-2.3-5-3-10.2-1.4-15.6c1.5-3.6,2.6-7.3,5.8-10c4.8-1.4,7.8-5.9,12.7-7.3
			c1.5,0.3,2.4-0.2,2.5-1.8C109.2,93.7,109.5,93.6,109.8,93.5z"/>
		<path class="st7" d="M154.8,82.7c3.2,4,1.1,6.3-2.7,7.7c-2.2,0.8-4,2.2-5.9,3.5c-1.6,1-3.8,2.4-4.3-1.2
			C145.8,88.8,150.3,85.7,154.8,82.7z"/>
		<path class="st7" d="M129.6,102.5c1.3,1.5,5.4-1.5,4.6,2.9c-0.2,1.5,0.1,3.9-2,4.1c-1.6,0.2-3.8,0-4.9-1.5c-0.7-0.9-1-2-2.4-2.1
			c0.5-1.3,1.7-1.9,2.8-2.5c0.3,0.5,0.5,1.3,1.3,1.1C130.1,104.2,129.8,103.3,129.6,102.5L129.6,102.5z"/>
		<path class="st15" d="M129.6,102.6c0.2,0.7,0.5,1.6-0.6,1.9c-0.8,0.2-1-0.6-1.3-1.1C128.4,103.2,129,102.9,129.6,102.6z"/>
		<path class="st7" d="M121,109c-0.1,1.4-0.9,2-2.3,1.9C119.1,109.7,119.7,109,121,109z"/>
		<path class="st7" d="M136,97.1c-0.1,1.4-0.9,2-2.3,1.8C134.1,97.8,134.8,97.1,136,97.1z"/>
		<path class="st15" d="M103,124c-0.1,1.5-0.9,2-2.3,1.9C101,124.7,101.7,124,103,124z"/>
		<path class="st7" d="M147.7,147.3c-4.8-1.4-9-3.9-13.5-6.1c-4.4-2.2,0.8-4.5-0.4-6.7c6.2-7,13.3-13.1,20-19.6
			c0.8-0.8,1.4-1.8,2.1-2.7c0.8-0.2,1.6-0.2,1.8-1.2c0.5-0.6,0.9-1.1,1.4-1.7c2.3-1.2,4.2-2.8,5.5-5.1c1.8-1.5,3.6-2.9,5.4-4.4
			c0.2-0.3,0.5-0.5,0.7-0.8c0.2-0.1,0.4-0.3,0.4-0.6c10.4-8.1,20.8-16.2,31.2-24.3c3.8-2.9,7.6-5.7,11.4-8.5
			c0.2,1.5,1.1,2.2,2.6,2.4c7.6,1,14.9,3.2,22.2,5.3c-6.9,5.5-15,9.4-21.6,15.5c-1.5,0.1-2,1.5-3,2.2c-1.3,0-1.9,0.7-2.2,1.8
			c-12.5,8.9-24.4,18.7-36,28.8C166.3,130.1,157,138.7,147.7,147.3z"/>
		<path class="st15" d="M156.9,95.8c-0.3,0.9-1,1.1-1.8,1.3c-1.6-2.7,0.9-1.7,1.9-2.1c0,0,0,0,0,0C157,95.3,157,95.5,156.9,95.8z"/>
		<path class="st15" d="M152.3,99.6c-0.6,0.3-1.3,0.6-1.9,0.8c-0.1-0.7-0.4-1.6,0.6-1.9C151.7,98.3,151.9,99.1,152.3,99.6z"/>
		<path class="st15" d="M162.3,91.2c-0.3,0.3-0.6,0.6-0.9,1c-0.2-0.2-0.6-0.5-0.6-0.6C161.1,90.9,161.7,91.2,162.3,91.2z"/>
		<path class="st8" d="M169,87.8c-0.4,0.9-1.2,1.1-2,1.2C167.3,88,168.2,87.9,169,87.8z"/>
		<path class="st15" d="M163.9,90.7c-0.6,0.2-1.2,0.4-1.8,0.6C162.4,90.1,163,89.9,163.9,90.7z"/>
		<path class="st15" d="M158.6,94.1c-0.2,0.3-0.4,0.6-0.6,0.9c-0.3,0-0.6,0-0.9,0c0,0,0,0,0,0C157.5,94.7,158,94.4,158.6,94.1z"/>
		<path class="st15" d="M165.2,89.3c-0.2-0.2-0.3-0.4-0.5-0.5C164.9,88.9,165.1,89,165.2,89.3C165.3,89.2,165.2,89.3,165.2,89.3z"/>
		<path class="st6" d="M109.8,93.5c-0.3,0.1-0.6,0.2-0.8,0.5c-1.3-0.1-2.1,0.7-2.5,1.8c-4.8,1.4-7.9,5.9-12.7,7.3
			c0.4-3.7,4.2-5.4,5.4-8.6c1.2-0.4,2-1.1,2-2.4c0.3-0.1,0.5-0.3,0.6-0.7c1.2-0.4,2.2-0.9,2.2-2.4c0.2-0.1,0.3-0.3,0.2-0.5
			c0.5-0.4,1-0.9,1.5-1.3c2.5-2,5.1-4.1,7.6-6.1c4.8-2.5,9.5-5,14.3-7.4c2.4-1.2,5.2-3.1,6.6,1.3c-1.3,3.9-5.3,4.7-8.1,6.8
			C120.8,85.9,114.7,88.8,109.8,93.5z"/>
		<path class="st9" d="M104,89c0,1.4-1,2-2.2,2.4c-0.6-0.3-1.5-0.6-1.2-1.3C101.2,88.3,102.8,89.3,104,89z"/>
		<path class="st9" d="M101.2,92c-0.1,1.3-0.8,2.1-2,2.4C99,92.9,99.6,92.1,101.2,92z"/>
		<path class="st9" d="M105.6,87.2c-0.5,0.4-1,0.9-1.5,1.3C104.3,87.7,104.8,87.3,105.6,87.2z"/>
		<path class="st10" d="M87.7,130.2c-0.2,0.8-0.6,1.4-1.5,1.6C86.3,130.8,86.8,130.3,87.7,130.2z"/>
		<path class="st10" d="M86.4,131.9c-0.4,0.6-0.8,1.2-1.2,1.8C85.2,132.8,85.7,132.2,86.4,131.9z"/>
		<path class="st7" d="M213.9,157.2c0.7,0,1.4,0,2.1,0.1c-0.1,0.6-0.2,1.4-1.1,1.4C214.2,158.6,214.1,157.8,213.9,157.2z"/>
		<path class="st5" d="M211.8,92.9c0.3-1.1,1-1.8,2.2-1.8C213.9,92.5,213.1,93,211.8,92.9z"/>
		<path class="st7" d="M131,118c0.6-1.5-2.8-2.7-1-3.5c2.3-1,3.6-5.4,7.2-2.4C135.7,114.6,133.3,116.3,131,118z"/>
		<path class="st8" d="M164.6,104.2c-1.3,2.3-3.2,3.9-5.5,5.1C158.4,104.9,160.4,103.4,164.6,104.2z"/>
		<path class="st7" d="M143.6,106.3c-2.9-1.7-0.4-3,0.5-4.1c1.6-2.2,2.1,1,3.3,1c-0.4,0.6-0.8,1.2-1.1,1.8
			C145.4,105.4,144.5,105.9,143.6,106.3z"/>
		<path class="st7" d="M128,121c-0.1-2.2-0.1-4.1,3-3C130.4,119.4,129.4,120.4,128,121z"/>
		<path class="st8" d="M146.2,105c0.4-0.6,0.8-1.2,1.1-1.8c0.5-0.1,1.1-0.2,1.6-0.3C149,104.8,147.7,105,146.2,105z"/>
		<path class="st8" d="M148.7,113.4c0.3,0.1,0.7,0.2,0.8,0.4c0.1,0.2-0.2,0.5-0.3,0.8c-0.3-0.1-0.7-0.2-0.8-0.4
			C148.3,114,148.6,113.7,148.7,113.4z"/>
		<path class="st15" d="M114,135.9c0-1.2,0.6-1.8,1.8-1.9C115.6,135,115,135.6,114,135.9z"/>
		<path class="st8" d="M157.7,111c-0.2,1-1,1.1-1.8,1.2C156.3,111.4,156.9,111,157.7,111z"/>
		<path class="st7" d="M157,95c0.3,0,0.6,0,0.9,0c-0.3,0.3-0.7,0.5-1,0.8C157,95.5,157,95.3,157,95z"/>
		<path class="st7" d="M138.1,111.5c0.1-0.8,0.6-1.3,1.4-1.4C139.1,110.6,138.6,111.1,138.1,111.5z"/>
		<path class="st8" d="M170.8,99c-0.2,0.3-0.5,0.5-0.7,0.8C170.3,99.5,170.5,99.3,170.8,99z"/>
		<path class="st7" d="M240,133c-0.1-2.4-0.2-4.9,3.4-2.8C242.4,131.3,241.9,133,240,133z"/>
		<path class="st7" d="M233.2,138.5c-0.3-2.3,1.1-2.6,2.9-2.5C235.6,137.4,234.3,137.9,233.2,138.5z"/>
		<path class="st7" d="M225,145c0.1-1.4,0.9-2,2.3-1.9C227,144.3,226.3,145,225,145z"/>
		<path class="st7" d="M138.6,99.7c-0.1,0.3-0.2,0.7-0.4,0.8c-0.2,0.1-0.5-0.2-0.8-0.3c0.1-0.3,0.2-0.7,0.4-0.8
			C138,99.4,138.4,99.6,138.6,99.7z"/>
		<path class="st7" d="M106.5,95.8c0.4-1.2,1.2-1.9,2.5-1.8C108.9,95.5,108,96,106.5,95.8z"/>
	</g>
</g>
</svg>
