<?xml version="1.0" encoding="utf-8"?>
<!-- Generator: Adobe Illustrator 21.1.0, SVG Export Plug-In . SVG Version: 6.00 Build 0)  -->
<svg version="1.1" id="Layer_1" xmlns="http://www.w3.org/2000/svg" xmlns:xlink="http://www.w3.org/1999/xlink" x="0px" y="0px"
	 viewBox="0 0 380 380" style="enable-background:new 0 0 380 380;" xml:space="preserve">
<style type="text/css">
	.st0{fill:#FEFEFE;}
	.st1{fill:#5F3021;}
	.st2{fill:#5F3121;}
	.st3{fill:#9C523B;}
	.st4{fill:#4E2418;}
	.st5{fill:#613222;}
	.st6{fill:#A15940;}
	.st7{fill:#51281C;}
	.st8{fill:#995039;}
	.st9{fill:#5E362C;}
	.st10{fill:#75483B;}
	.st11{fill:#9E553D;}
	.st12{fill:#AF735E;}
	.st13{fill:#D5AA8F;}
	.st14{fill:#F3D7BC;}
	.st15{fill:#99523B;}
</style>
<g>
	<g>
		<path class="st0" d="M190.5,381c-61.8,0-123.7,0-185.5,0.1c-3.4,0-4.1-0.7-4.1-4.1C1,253,1,129,0.9,5c0-3.4,0.7-4.1,4.1-4.1
			C129,1,253,1,377,0.9c3.4,0,4.1,0.7,4.1,4.1c-0.1,124-0.1,248,0,372c0,3.4-0.7,4.1-4.1,4.1C314.8,381,252.7,381,190.5,381z
			 M175.1,70.4c-2.9-0.3-5.4,1.3-8.1,1.7c-6-1.3-11.4,2-16.7,3.5c-11.6,3.4-22.9,8.2-33.3,14.5c-0.9-0.1-1.7-0.2-2,1
			c-2.2,0.9-4.5,1.8-6.1,3.9c-1.3,0.6-2.8,1.1-3.9,1.9c-12.6,8.6-24.3,18.4-34.1,30.1c-7.2,8.6-8.9,18.3-5.8,28.9
			c2.5,16.9,5.1,33.8,7.4,50.8c1.5,11.4,3.2,22.8,5.5,34.1c1.4,7.4,2.3,14.8,3.7,22.2c1,5.3,2.7,10.5,3.1,15.8
			c0.8,11.4,7,16.9,18.2,21c2.8,0,4,3.6,7,3c5.5,2.2,11.3,3.5,17.1,4.9c3.7,2.5,7.9,0.8,11.8,1.5c0.2,0.9,0.8,1.3,1.8,1.4
			c6.7,1.2,13.5,1.9,20.3,1.3c2.3,0.6,4.6,1.5,7,0.9c8,0,16,0,23.9,0.1c2,0,4,0,6.1,0c8-0.1,16.1,1,24-0.9c2.3-0.1,4.7-0.1,7-0.2
			c3.3-0.1,6.7,0.7,9.9-1c1.8,0.4,3.4-0.1,5-0.6c1.3,0.4,2.5,0.4,3.1-1.1c0.6-0.1,1.3-0.1,1.9-0.2c3,0,6.1,0.8,8.9-1.2
			c5.6-2,11.9-1.5,17.1-4.8c2.6,0.4,4.5-0.7,6-2.8c5.5-0.6,9.8-4.6,11.6-9.6c2.7-7.5,3.4-15.5,4.8-23.2c1.2-6.4,2.9-12.7,3.5-19.2
			c1.4-14.4,4.4-28.6,6.5-42.9c1.5-10.5,3.6-21,5.2-31.6c1.1-7.5,4.2-14.8,3.3-22.6c0.6-2.4,1.2-4.7,1.9-7.1c1.3-2.8,0.3-5.4-0.6-8
			c0-2.2-1-3.7-3-4.5c-5.2-7.4-11.1-14.2-17.9-20.1c-16.1-14.3-34.1-25.4-54.3-33c-10.1-3.7-20.5-6.2-31.2-7.8
			c-4.5-2.2-9.2-1.4-13.9-1.3c-3.3,0-6.6,0-9.9,0C183,69.2,178.9,68.2,175.1,70.4z"/>
		<path class="st1" d="M222,312c-7.9,1.9-16,0.7-24,0.9c0.2-11.9-1.5-23.7-1.8-35.6c-0.6-21.1-0.1-42.1-0.1-63.2
			c9.7-0.3,19.4-0.8,28.8-3c-1,16.6-1.8,33.1-2,49.7c-0.1,10,0.5,19.9-0.8,29.9C221.3,297.7,222,304.9,222,312z"/>
		<path class="st2" d="M161,311.9c-6.8,0.6-13.6-0.1-20.3-1.3c-0.9-0.2-1.5-0.5-1.8-1.4c-2.9-17.1-3.9-34.4-5.9-51.5
			c-1.5-12.4-2.7-24.9-3.7-37.4c-0.5-6.4-2.7-12.6-2.3-19.1c3.5,0.5,6.3,3.1,9.9,3.3c1.5,1.7,2.9,3.3,5.3,1.3
			c0.4-0.1,0.9-0.3,1.3-0.4c0.7-0.1,1.3-0.2,2-0.2c-0.3,2.1,0.5,3.3,2.8,3.7c2.7,0.5,5.3,1.3,8,2c-0.1,2.2-0.4,4.3-0.2,6.5
			c1.5,14,0.7,28.2,1.9,42.2c1.3,16,2.7,32.1,2.2,48.2C160,309,160.7,310.4,161,311.9z"/>
		<path class="st1" d="M127.1,307.7c-5.8-1.4-11.5-2.7-17.1-4.9c0-6.3-0.6-12.6-1.9-18.7c-2.2-10.7-3-21.6-4.8-32.3
			c-1.5-8.9-3.3-17.8-4-26.9C98.1,210.8,94,197,94,182.7c3,0.1,4.8,3.2,7.8,3.2c5.2,6.2,12.9,8.6,19.5,12.5
			c-1.2,8.5,0.2,16.8,1.1,25.2c1.4,13.4,3.9,26.8,4.3,40.3c0.4,12.9,4,25.5,3.6,38.5C130.2,305.6,130.2,307.1,127.1,307.7z"/>
		<path class="st3" d="M224.9,211.1c-9.5,2.2-19.2,2.7-28.8,2.9c-0.4-0.1-0.8-0.1-1.2-0.2c-6.8-0.4-13.1-3.6-20.1-2.8
			c-7.4-1.1-14.6-3.1-21.8-5.1c0.3-4.6-3.4-2.1-5.3-3c-0.5,0.4-1,0.7-1.4,1.1c-1.3-1.1-2.4-2.8-4.6-2c-2.4-0.2-4.6-1-6.7-2
			c4.7-1.3,4.1-5.1,4.2-8.6c1,0.2,1.9,0.4,2.9,0.6c0.3,2.2,1.8,1.9,3.3,1.7c1.9,0.4,3.8,0.8,5.7,1.3c0.3,2.2,1.9,1.9,3.4,1.7
			c0.9,0,1.7,0.1,2.6,0.1c0.1,2.2,1.6,2.1,3.1,2c1.3-0.2,2.6-0.5,3.8-0.7c0.4,2.2,2,1.7,3.5,1.6c2.5-0.7,5.1,0.7,7.6-0.5
			c0.9,0.1,1.7,0.1,2.6,0.2c0.9,1.5,2.1,1.6,3.6,1.1c14.7,1.5,29.2,0,43.6-3.2c19.3-4.2,36-14.2,52.5-24.4
			c7.1-4.4,11.7-11.5,16.8-17.9c2.8-0.3,2.8-0.4,1.6-2.2c0.4-0.6,0.8-1.2,1.2-1.9c3.3,0.4,4.2-1.9,5.1-4.3c2.2-6,3.9-6.7,9.6-4.4
			c2,0.8,3.9,1.8,6.2,1.7c-0.6,2.4-1.2,4.7-1.9,7.1c-0.7,0.6-1.7,1.1-2.2,2c-3.9,6.7-7.8,13.4-13.7,18.7c-0.9,0.8-1.1,2-1.1,3.2
			c-3.6,3.4-7.3,6.7-10.9,10.1c-6.8,5-15.1,7.3-22.1,11.9c-4.5,0.5-7.6,3.5-10.9,6.2c-2.3-0.4-4.3,0.3-6,1.7c-2.3,1.9-5,2.5-7.9,2.4
			c-3,1-6,1.9-9.1,2.9C229.6,210.1,227.1,209.6,224.9,211.1z M144.3,196.6c0.1-0.3,0.4-0.6,0.3-0.8c-0.1-0.2-0.5-0.3-0.8-0.4
			c-0.1,0.3-0.4,0.6-0.3,0.8C143.5,196.5,144,196.5,144.3,196.6z"/>
		<path class="st4" d="M265.9,196.9c7-4.6,15.3-6.9,22.1-11.9c0.2,4.6,1.4,9.5,0.4,13.8c-3.1,12.9-3.3,26.2-5.1,39.3
			c-1.4,10.3-2.6,20.7-3.9,31c-1.4,11.3-1.8,22.8-4.4,33.9c-5.2,3.3-11.5,2.8-17.1,4.8c-0.7-0.9-3-0.1-2.6-1.4
			c1.9-6.1-0.1-12.3,1-18.3c3.6-18.4,3.1-37.2,5.5-55.7C263.3,220.5,265.3,208.8,265.9,196.9z"/>
		<path class="st1" d="M192,312.9c-8,0-16,0-23.9-0.1c-0.4-14.1-2.8-28-2.1-42.1c0.1-1.5,0.1-3,0-4.5c-1.4-18-3.6-35.9-2.9-54
			c3.9,0.9,8,0.7,12,0.9c-0.1,1.6,0.5,2,2.3,1.9c3.9-0.3,7.8,0,11.7,0.1c0,17.9,1.5,35.8,1.1,53.7c-0.3,12.8,0,25.6,0,38.4
			C190,309.3,189.7,311.5,192,312.9z"/>
		<path class="st5" d="M103,299.9c-11.3-4.1-17.4-9.6-18.2-21c-0.4-5.3-2.1-10.5-3.1-15.8c-1.4-7.4-2.3-14.9-3.7-22.2
			c-2.2-11.3-4-22.7-5.5-34.1c-2.2-17-4.9-33.9-7.4-50.8c0.4-1,0.9-2,1.3-3c3.2,5.6,7.2,10.5,9.7,12.1c0.2,1.7,1.3,2.7,2.9,3l0,0
			c0.3,1.7,1.4,2.7,3,3c0,0,0,0,0,0c1,2.4,3.3,3.7,4.7,5.7c-2,0.8-1.4,2.2-1.1,3.7c1.3,5.8,1.7,11.8,2.6,17.6c1.2,8,2.2,16.1,3.5,24
			c2,11.7,3.5,23.5,5.2,35.3c1.2,8.2,2.6,16.3,3.6,24.5C101.3,287.8,102.8,293.8,103,299.9z"/>
		<path class="st6" d="M76.1,165c-2.5-1.5-6.5-6.5-9.7-12.1c-0.4,1-0.9,2-1.3,3c-3.1-10.6-1.4-20.3,5.8-28.9
			c9.9-11.8,21.5-21.5,34.1-30.1c1.2-0.8,2.6-1.3,3.9-1.9c1.3,2.4,6-0.8,5.9,3.4c-0.1,2.7,1.7,3.5,3.2,4.8c-6.4,5-13,9.7-19.1,15
			c-7.5,6.5-14.8,13.3-17.3,23.5c-0.8,3.3-0.4,6.5,3.2,8.3c-0.3,2.6,1.3,4.3,2.8,6.1c8.3,10.1,18.9,17.3,29.8,24.2
			c6.1,3.8,13.3,5.6,18.8,10.4c-0.2,0.3-0.3,0.6-0.5,0.9c0.7,0.2,1-0.3,1.2-0.8c0.7,0.2,1.3,0.5,2,0.7c0,3.5,0.6,7.3-4.2,8.6
			c-0.7-0.3-1.4-0.7-2.1-1c1.4-1.3,2-3-0.1-3.8c-2-0.8-3.4,0.3-3.7,2.5c-1.1,0.1-1.9-0.2-2.1-1.4c-0.1-0.8-0.3-1.2-1-0.3
			c-5.3-1.7-10.4-3.8-15.4-6.6c-2.6-1.5-4.9-4.7-8.8-3.6c-3,0-4.8-3.2-7.8-3.2c-1.3-2.2-2.3-4.8-5-5.8c-1.1-3.5-3.1-5.9-7.1-5.9
			c0,0,0,0,0,0c0.3-2.4-0.9-3.2-3-3c0,0,0,0,0,0C79,166.1,77.8,165.3,76.1,165z"/>
		<path class="st7" d="M298.9,174.8c0-1.2,0.2-2.4,1.1-3.2c5.9-5.2,9.9-11.9,13.7-18.7c0.5-0.8,1.4-1.3,2.2-2
			c0.9,7.8-2.2,15.1-3.3,22.6c-1.6,10.5-3.6,21.1-5.2,31.6c-2.1,14.3-5.1,28.5-6.5,42.9c-0.7,6.5-2.3,12.8-3.5,19.2
			c-1.4,7.7-2.1,15.7-4.8,23.2c-1.8,5-6.2,9-11.6,9.6c0.6-2.2,1.9-3.9,2.2-6.4c0.8-10,1.8-20.1,3.6-30c2.3-12.5,3-25.3,4.9-37.8
			c1.6-10.7,2.3-21.6,5-32.2C298.2,187.5,299.5,181.3,298.9,174.8z"/>
		<path class="st4" d="M241,207.1c2.9,0.1,5.5-0.5,7.9-2.4c1.7-1.4,3.8-2.1,6-1.7c2,7.2,1.9,14.7,0.6,21.7
			c-2.7,15-1.7,30.3-4.7,45.3c-1.8,9-0.1,18.2-1.7,27.2c-0.7,3.7-2.2,7.7-0.2,11.7c-0.6,0.1-1.3,0.1-1.9,0.2c-1.2,0-2.5-0.4-3.1,1.1
			c-1.6,0.6-3.3,1-5,0.6c-1.7-1.8-4.2,0-5-1.3C238.2,275.5,240.8,241.4,241,207.1z"/>
		<path class="st8" d="M317.8,144c-2.2,0.1-4.2-0.9-6.2-1.7c-5.7-2.3-7.4-1.6-9.6,4.4c-0.9,2.5-1.8,4.7-5.1,4.3
			c0-0.9-0.1-1.8-0.1-2.7c1.9-3.8,6-6.7,2.1-12.2c-11.4-16.1-26.8-27.4-43.6-37.2c-4.5-2.6-9.8-3.7-13.5-7.8
			c2.6-4.2,0.6-8.5,0.2-12.8c20.2,7.6,38.2,18.7,54.3,33c6.7,6,12.7,12.8,17.9,20.1c-0.3,2.4-0.1,4.4,3,4.5
			C318.1,138.6,319,141.2,317.8,144z"/>
		<path class="st2" d="M241,207.1c-0.2,34.3-2.9,68.4-7.2,102.4c0.9,1.3,3.4-0.5,5,1.3c-3.2,1.7-6.6,1-9.9,1
			c0.5-15.6-0.4-31.2,0.8-46.8c1.4-18.3,1.5-36.7,2.2-55.1C235,209,238,208.1,241,207.1z"/>
		<path class="st9" d="M298.9,174.8c0.6,6.5-0.7,12.7-2.3,18.9c-2.7,10.6-3.3,21.5-5,32.2c-1.9,12.6-2.6,25.3-4.9,37.8
			c-1.8,9.9-2.7,19.9-3.6,30c-0.2,2.5-1.6,4.2-2.2,6.4c-1.5,2.1-3.4,3.2-6,2.8c2.6-11.1,3-22.6,4.4-33.9c1.3-10.3,2.5-20.7,3.9-31
			c1.8-13.1,1.9-26.4,5.1-39.3c1-4.3-0.2-9.2-0.4-13.8C291.6,181.6,295.3,178.2,298.9,174.8z"/>
		<path class="st10" d="M89,176.9c2.7,1,3.7,3.6,5,5.8c0,14.3,4.1,28.1,5.3,42.2c0.8,9.1,2.5,18,4,26.9c1.8,10.7,2.6,21.6,4.8,32.3
			c1.3,6.1,1.9,12.4,1.9,18.7c-3,0.6-4.3-3-7-3c-0.2-6.1-1.7-12-2.4-18c-1-8.2-2.4-16.4-3.6-24.5c-1.7-11.8-3.2-23.5-5.2-35.3
			c-1.4-7.9-2.3-16-3.5-24c-0.9-5.9-1.2-11.8-2.6-17.6c-0.4-1.6-0.9-2.9,1.1-3.7C87.5,176.8,88.2,176.9,89,176.9z"/>
		<path class="st11" d="M118.1,103.1c-1.5-1.3-3.3-2.1-3.2-4.8c0.1-4.2-4.6-1-5.9-3.4c1.5-2.1,3.8-2.9,6.1-3.9c1.5,1.4,1.7,0.2,2-1
			c10.5-6.3,21.7-11.1,33.3-14.5c5.3-1.6,10.6-4.8,16.7-3.5c1.4,3.4,3.7,1.7,5.8,1c4.2-1.3,8.4-1.8,13.8-0.2c-3.5,1.6-7.1,0-8.4,3.4
			c-1,2.5,1.7,3.2,2.8,4.7c-0.6,0.3-1.1,0.8-1.7,0.8c-13.6,1.2-26.6,5-39,10.5C132.7,95.8,125.4,99.6,118.1,103.1z"/>
		<path class="st9" d="M249,308.9c-2-3.9-0.4-8,0.2-11.7c1.6-9-0.1-18.2,1.7-27.2c3-14.9,2-30.2,4.7-45.3c1.3-7,1.3-14.5-0.6-21.7
			c3.3-2.7,6.4-5.6,10.9-6.2c-0.6,11.9-2.6,23.6-4.2,35.4c-2.5,18.5-1.9,37.3-5.5,55.7c-1.2,6,0.8,12.2-1,18.3
			c-0.4,1.3,1.9,0.5,2.6,1.4C255.1,309.7,252,308.9,249,308.9z"/>
		<path class="st10" d="M127.1,307.7c3.1-0.5,3.2-2.1,3.3-5.3c0.4-13-3.1-25.5-3.6-38.5c-0.5-13.5-2.9-26.8-4.3-40.3
			c-0.9-8.4-2.3-16.7-1.1-25.2c1.9,0.9,3.8,1.8,5.7,2.6c-0.4,6.5,1.7,12.7,2.3,19.1c1,12.5,2.3,24.9,3.7,37.4
			c2,17.2,3,34.5,5.9,51.5C135,308.5,130.8,310.2,127.1,307.7z"/>
		<path class="st3" d="M181,81.1c-1.1-1.5-3.8-2.2-2.8-4.7c1.3-3.3,4.9-1.7,8.4-3.4c-5.4-1.6-9.6-1.1-13.8,0.2c-2,0.6-4.4,2.4-5.8-1
			c2.7-0.4,5.2-2,8.1-1.7c4,0.3,8.2,2.2,11.9-1.2c3.3,0,6.6,0,9.9,0c0.5,2.9,2.7,2.9,4.9,2.7c3-0.3,6-0.9,9-1.4
			c10.7,1.5,21.1,4.1,31.2,7.8c0.5,4.3,2.4,8.6-0.2,12.8c-1-0.1-2.1,0.1-3-0.3c-12.2-5-25.1-7.1-37.9-9.8c-0.2-1-0.6-2-1.8-2
			c-4.5,0-8.9,0-13.4,0c-1.2,0-1.7,0.9-1.8,1.9C183,81,182,81.1,181,81.1z"/>
		<path class="st10" d="M232,210c-0.7,18.4-0.7,36.8-2.2,55.1c-1.2,15.6-0.3,31.2-0.8,46.8c-2.3,0.1-4.7,0.1-7,0.2
			c0-7.1-0.7-14.3,0.2-21.3c1.3-10,0.7-19.9,0.8-29.9c0.2-16.6,1-33.2,2-49.7C227.1,209.6,229.6,210.1,232,210z"/>
		<path class="st10" d="M163,212.2c-0.7,18.1,1.5,36,2.9,54c0.1,1.5,0.1,3,0,4.5c-0.8,14.1,1.7,28.1,2.1,42.1
			c-2.5,0.5-4.7-0.3-7-0.9c-0.3-1.5-1-2.9-0.9-4.3c0.5-16.1-0.9-32.2-2.2-48.2c-1.2-14.1-0.4-28.2-1.9-42.2
			c-0.2-2.1,0.1-4.3,0.2-6.5C158.5,211.1,160.8,211.7,163,212.2z"/>
		<path class="st10" d="M192,312.9c-2.3-1.4-1.9-3.6-1.9-5.8c0-12.8-0.3-25.6,0-38.4c0.4-17.9-1.1-35.8-1.1-53.7
			c2-0.2,4.1,0.2,5.9-1.1c0.4,0.1,0.8,0.1,1.2,0.2c0,21.1-0.5,42.2,0.1,63.2c0.3,11.9,2,23.7,1.8,35.6
			C196,312.9,194,312.9,192,312.9z"/>
		<path class="st12" d="M210.8,70.5c-3,0.5-6,1-9,1.4c-2.2,0.2-4.4,0.2-4.9-2.7C201.6,69.2,206.4,68.3,210.8,70.5z"/>
		<path class="st12" d="M187,69.2c-3.7,3.4-7.9,1.6-11.9,1.2C178.9,68.2,183,69.2,187,69.2z"/>
		<path class="st3" d="M317.2,135.9c-3.1-0.1-3.3-2.1-3-4.5C316.2,132.3,317.2,133.8,317.2,135.9z"/>
		<path class="st2" d="M244,310.2c0.6-1.5,2-1.1,3.1-1.1C246.5,310.6,245.3,310.6,244,310.2z"/>
		<path class="st6" d="M117,90.2c-0.2,1.2-0.5,2.4-2,1C115.3,90,116.1,90,117,90.2z"/>
		<path class="st13" d="M127,201.1c-1.9-0.9-3.8-1.8-5.7-2.6c-6.7-3.9-14.3-6.3-19.5-12.5c3.8-1.1,6.1,2.1,8.8,3.6
			c4.9,2.8,10.1,4.8,15.4,6.6c0.3,0.1,0.6,0.2,1,0.3c0.2,1.2,1,1.5,2.1,1.4c1.3,0.4,2.5,0.9,3.8,1.3c0.7,0.3,1.4,0.7,2.1,1
			c2.1,1.1,4.3,1.9,6.7,2c0.6,1,1.2,2.1,1.8,3.1c-0.4,0.1-0.9,0.3-1.3,0.4c-1.6-1-3.3-1.6-5.3-1.3
			C133.3,204.2,130.5,201.6,127,201.1z"/>
		<path class="st13" d="M163,212.2c-2.3-0.5-4.5-1-6.8-1.6c-2.6-0.7-5.3-1.5-8-2c-2.2-0.4-3.1-1.5-2.8-3.7c0.3-0.3,0.5-0.5,0.8-0.8
			c0.5-0.4,1-0.7,1.4-1.1c0.8,2.7,3.3,2.4,5.3,3c7.2,2,14.4,4,21.8,5.1c0.1,0.6,0.1,1.2,0.2,1.9C171,212.9,167,213.1,163,212.2z"/>
		<path class="st6" d="M136.9,204.4c1.9-0.4,3.6,0.3,5.3,1.3C139.8,207.7,138.4,206,136.9,204.4z"/>
		<path class="st6" d="M146.3,204.2c-0.3,0.3-0.5,0.5-0.8,0.8c-0.7,0.1-1.3,0.2-2,0.2c-0.6-1-1.2-2.1-1.8-3.1
			C143.8,201.4,144.9,203.1,146.3,204.2z"/>
		<path class="st14" d="M296.7,148.3c0,0.9,0.1,1.8,0.1,2.7c-0.4,0.6-0.8,1.2-1.2,1.9c-0.5,0.7-1.1,1.4-1.6,2.2
			c-5.2,6.4-9.7,13.5-16.8,17.9c-16.5,10.2-33.2,20.2-52.5,24.4c-14.3,3.1-28.9,4.7-43.6,3.2c-0.7-1.9-2.1-1.6-3.6-1.1
			c-0.9-0.1-1.7-0.1-2.6-0.2c-8-3.7-16.5-6.1-24.5-9.8c-16.3-7.5-30.7-17.5-43.5-29.9c-3.6-3.4-3.2-5.8,0.1-9
			c9.1-9,18.4-17.6,29.3-24.3c1.6-1,3.2-1.9,3.7-3.8c9.6,1.5,18.8-0.8,28-3.4c2.4-0.7,4.7-1.8,6.8-3c1.2-0.7,2.6-1.7,2-3.6
			c-0.5-1.6-2-1.6-3.3-1.7c-2.5-0.1-5-0.1-7.5-0.1c0-1.2-0.1-2.3,1.5-2.7c5.5-1.4,10.3-4.3,15.3-6.6c3.4-1.5,8-1.3,10.2-5.3
			c19.2-0.7,36.9,5,53.8,13.3C266.2,118.8,282.9,131.8,296.7,148.3z M264.1,146c-0.1-5.6-9.5-19.2-15.1-21.4c-3-1.2-5.5,0.3-4.7,3.3
			c2.5,8.9,7.4,16.3,15.1,21.5C261.8,151.2,264.3,150.2,264.1,146z M175,154.9c-0.8-6.3-3.5-13.2-8.3-19c-1-1.3-2.5-2.9-4.6-1.9
			c-2,0.9-2.1,2.8-2,4.7c0.5,7.7,3.7,14.3,8.5,20.2c1.1,1.4,2.5,2.9,4.6,2.1C175.4,159.9,175,157.9,175,154.9z M224.6,140.4
			c0-1.3,0.3-2.7-0.1-4c-0.6-2.2-1.1-4.8-3.8-5.2c-2.5-0.4-3.8,1.6-4.7,3.6c-3.1,6.7-3.7,13.7-1.8,20.8c0.9,3.4,3.5,3.7,5.8,0.7
			C223.5,151.7,224,146,224.6,140.4z M212.6,112.2c-5.3,0.7-11.1,1.4-16.3,4.7c-1.9,1.2-3.9,2.5-3.3,5c0.6,2.4,3,2.1,4.9,2.1
			c6.8-0.1,13.4-1.5,19.6-4.4c1.7-0.8,3.3-2,3.2-4c-0.2-2.2-2.2-2.7-4-3C215.6,112.2,214.4,112.3,212.6,112.2z M241.8,164.1
			c-6.3-0.2-17.3,7.2-19.1,12.4c-1.2,3.4,0.3,5.8,3.4,5c7.4-2.1,13.4-6.4,17.9-12.6C246.1,165.9,244.6,164.3,241.8,164.1z
			 M135.8,144.7c-0.1-2,0.1-4.5-0.6-6.9c-0.6-1.8-0.8-3.9-3-4.1c-1.8-0.2-3,1.6-3.6,3c-3,6.9-4,14-1.4,21.3c0.5,1.5,1.7,2.6,3.3,2.7
			c1.5,0.1,2.3-1.2,2.9-2.4C135.3,154.1,135.9,149.7,135.8,144.7z M189.9,180.7c0.1,2.4-0.2,5.2,1.5,7.5c1.2,1.5,2.3,3.5,4.7,2.9
			c2-0.5,2.6-2.2,3.1-4.1c1.2-4.3,0.7-8.5-0.2-12.8c-0.5-2-1.5-3.4-3.5-3.7c-1.8-0.2-3.1,0.8-4.1,2.3
			C189.7,175.2,190,177.9,189.9,180.7z M160.4,180.1c1.4-0.2,3.6,0.6,4.4-1.7c0.7-2.1-0.5-3.6-2-4.7c-3.8-3.1-7.8-5.7-12.9-5.6
			c-1.7,0-3.4,0.1-4.2,1.9c-0.9,1.8,0,3.1,1.2,4.4C150.5,178,154.8,180.2,160.4,180.1z"/>
		<path class="st13" d="M140.1,122.6c-0.6,1.9-2.2,2.8-3.7,3.8c-10.9,6.7-20.2,15.3-29.3,24.3c-3.2,3.2-3.6,5.5-0.1,9
			c12.9,12.4,27.3,22.3,43.5,29.9c8,3.7,16.5,6.1,24.5,9.8c-2.5,1.2-5.1-0.2-7.6,0.5c-0.6-1.6-1.9-1.8-3.5-1.6
			c-1.3,0.2-2.6,0.5-3.8,0.7c-0.3-1.9-1.6-2-3.1-2c-0.9,0-1.7-0.1-2.6-0.1c-0.6-1.7-1.9-1.9-3.4-1.7c-1.9-0.4-3.8-0.8-5.7-1.3
			c-0.5-1.7-1.8-1.9-3.3-1.7c-1-0.2-1.9-0.4-2.9-0.6c-0.7-0.2-1.3-0.5-2-0.7c-0.2-0.1-0.5-0.1-0.7-0.1c-5.5-4.8-12.7-6.6-18.8-10.4
			c-11-6.8-21.6-14-29.8-24.2c-1.5-1.8-3-3.5-2.8-6.1c2.5-3,4.8-6.3,7.6-9.1c17-17.7,37.5-30.2,60.6-38.2c12.8-4.5,26.1-7.8,40-6.4
			c-2.1,4-6.8,3.7-10.2,5.3c-5,2.3-9.9,5.2-15.3,6.6c-1.6,0.4-1.5,1.6-1.5,2.7c-6-0.2-11.7,1.9-17.2,3.8
			C145.4,115.8,139.5,116.2,140.1,122.6z"/>
		<path class="st12" d="M175,213c-0.1-0.6-0.1-1.2-0.2-1.9c6.9-0.9,13.3,2.3,20.1,2.8c-1.8,1.3-3.9,0.9-5.9,1.1
			c-3.9-0.1-7.8-0.3-11.7-0.1C175.5,215.1,174.9,214.7,175,213z"/>
		<path class="st6" d="M153,206.1c-2-0.6-4.5-0.2-5.3-3C149.5,204,153.3,201.5,153,206.1z"/>
		<path class="st6" d="M157,197c1.5-0.1,2.9,0.1,3.1,2C158.6,199,157.1,199.1,157,197z"/>
		<path class="st6" d="M142,192.1c1.5-0.2,2.8,0.1,3.3,1.7C143.8,194,142.3,194.3,142,192.1z"/>
		<path class="st6" d="M164,198.2c1.5-0.3,2.8-0.1,3.5,1.6C166,200,164.4,200.4,164,198.2z"/>
		<path class="st13" d="M177.6,199.5c1.5-0.5,2.8-0.8,3.6,1.1C179.7,201.1,178.4,200.9,177.6,199.5z"/>
		<path class="st6" d="M151,195.1c1.5-0.2,2.8,0,3.4,1.7C152.9,197,151.3,197.3,151,195.1z"/>
		<path class="st8" d="M294.1,155c0.5-0.7,1.1-1.4,1.6-2.2C297,154.7,296.9,154.7,294.1,155z"/>
		<path class="st6" d="M144.3,196.6c-0.3-0.1-0.7-0.2-0.8-0.4c-0.1-0.2,0.2-0.5,0.3-0.8c0.3,0.1,0.7,0.2,0.8,0.4
			C144.6,196,144.4,196.4,144.3,196.6z"/>
		<path class="st13" d="M89,176.9c-0.8-0.1-1.6-0.1-2.3-0.2c-1.5-2-3.7-3.4-4.7-5.7C85.9,171,88,173.4,89,176.9z"/>
		<path class="st13" d="M78.9,168c2.2-0.1,3.4,0.7,3,3C80.3,170.7,79.3,169.7,78.9,168z"/>
		<path class="st13" d="M76.1,165c1.7,0.3,2.9,1.1,2.9,3C77.4,167.7,76.3,166.7,76.1,165z"/>
		<path class="st5" d="M193.1,96.2c-13.9-1.3-27.2,2-40,6.4c-23.1,8-43.6,20.5-60.6,38.2c-2.7,2.8-5,6.1-7.6,9.1
			c-3.6-1.8-4-5-3.2-8.3c2.5-10.2,9.8-17,17.3-23.5c6.1-5.3,12.7-10,19.1-15c7.4-3.6,14.7-7.4,22.2-10.7c12.4-5.6,25.4-9.3,39-10.5
			c0.6-0.1,1.2-0.5,1.7-0.8c1,0,2,0,3-0.1c5.7,0,11.3,0,17,0c12.8,2.7,25.7,4.8,37.9,9.8c0.9,0.4,2,0.2,3,0.3
			c3.6,4.1,9,5.2,13.5,7.8c16.8,9.8,32.2,21.1,43.6,37.2c3.9,5.5-0.2,8.3-2.1,12.2c-13.8-16.5-30.5-29.4-49.8-38.8
			C230,101.3,212.3,95.5,193.1,96.2z"/>
		<path class="st3" d="M132.8,199.1c-1.3-0.4-2.5-0.9-3.8-1.3c0.3-2.2,1.7-3.4,3.7-2.5C134.8,196.2,134.2,197.8,132.8,199.1z"/>
		<path class="st3" d="M136.4,190.7c0.2,0,0.5,0,0.7,0.1c-0.3,0.5-0.5,1-1.2,0.8C136,191.3,136.2,191,136.4,190.7z"/>
		<path class="st3" d="M126.9,196.4c-0.3-0.1-0.6-0.2-1-0.3C126.6,195.2,126.8,195.6,126.9,196.4z"/>
		<path class="st11" d="M201,81.1c-5.7,0-11.3,0-17,0c0.2-1.1,0.6-1.9,1.8-1.9c4.5,0,8.9,0,13.4,0C200.4,79.1,200.8,80,201,81.1z"/>
		<path class="st15" d="M140.1,122.6c-0.5-6.4,5.3-6.8,8.8-8c5.5-1.8,11.1-4,17.2-3.8c2.5,0,5,0,7.5,0.1c1.3,0,2.8,0.1,3.3,1.7
			c0.6,1.9-0.9,2.9-2,3.6c-2.1,1.3-4.4,2.4-6.8,3C158.9,121.7,149.7,124.1,140.1,122.6z"/>
		<path class="st15" d="M264.1,146c0.2,4.2-2.3,5.2-4.7,3.5c-7.7-5.2-12.6-12.6-15.1-21.5c-0.8-3,1.7-4.5,4.7-3.3
			C254.5,126.9,263.9,140.5,264.1,146z"/>
		<path class="st15" d="M175,154.9c0,3,0.3,5.1-1.9,5.9c-2.1,0.8-3.5-0.7-4.6-2.1c-4.8-5.9-8-12.5-8.5-20.2c-0.1-1.9,0-3.7,2-4.7
			c2.2-1,3.6,0.7,4.6,1.9C171.5,141.7,174.2,148.5,175,154.9z"/>
		<path class="st15" d="M224.6,140.4c-0.5,5.6-1.1,11.2-4.7,15.9c-2.3,2.9-4.9,2.7-5.8-0.7c-1.9-7.1-1.3-14.1,1.8-20.8
			c0.9-2,2.2-4,4.7-3.6c2.7,0.5,3.3,3.1,3.8,5.2C224.9,137.7,224.6,139.1,224.6,140.4z"/>
		<path class="st15" d="M212.6,112.2c1.8,0.1,3,0,4.1,0.2c1.8,0.4,3.8,0.9,4,3c0.2,2-1.5,3.2-3.2,4c-6.2,2.9-12.8,4.3-19.6,4.4
			c-1.9,0-4.3,0.4-4.9-2.1c-0.6-2.5,1.4-3.8,3.3-5C201.4,113.5,207.3,112.8,212.6,112.2z"/>
		<path class="st15" d="M241.8,164.1c2.8,0.2,4.3,1.8,2.2,4.8c-4.5,6.1-10.5,10.5-17.9,12.6c-3.1,0.9-4.6-1.5-3.4-5
			C224.5,171.2,235.5,163.9,241.8,164.1z"/>
		<path class="st11" d="M135.8,144.7c0.1,5-0.5,9.5-2.5,13.6c-0.6,1.2-1.3,2.5-2.9,2.4c-1.6-0.1-2.8-1.2-3.3-2.7
			c-2.6-7.3-1.6-14.4,1.4-21.3c0.6-1.5,1.9-3.2,3.6-3c2.1,0.2,2.4,2.4,3,4.1C136,140.2,135.7,142.7,135.8,144.7z M133.2,151.7
			c0.2,0.1,0.3,0.1,0.5,0.2c0-4.6,0-9.2,0-13.7c-0.2,0-0.3,0-0.5,0C133.2,142.7,133.2,147.2,133.2,151.7z"/>
		<path class="st15" d="M189.9,180.7c0.1-2.9-0.2-5.6,1.5-7.9c1-1.5,2.3-2.5,4.1-2.3c2,0.3,3.1,1.7,3.5,3.7c1,4.3,1.4,8.5,0.2,12.8
			c-0.5,1.9-1,3.6-3.1,4.1c-2.5,0.6-3.6-1.4-4.7-2.9C189.7,185.9,190,183.2,189.9,180.7z"/>
		<path class="st15" d="M160.4,180.1c-5.6,0.1-9.9-2.1-13.5-5.8c-1.2-1.3-2.1-2.6-1.2-4.4c0.9-1.8,2.5-1.9,4.2-1.9
			c5.1,0,9.1,2.6,12.9,5.6c1.5,1.2,2.7,2.7,2,4.7C164,180.7,161.8,179.9,160.4,180.1z"/>
		<path class="st8" d="M133.2,151.7c0-4.5,0-9,0-13.6c0.2,0,0.3,0,0.5,0c0,4.6,0,9.2,0,13.7C133.5,151.8,133.4,151.8,133.2,151.7z"
			/>
	</g>
</g>
</svg>
