<?xml version="1.0" encoding="utf-8"?>
<!-- Generator: Adobe Illustrator 21.1.0, SVG Export Plug-In . SVG Version: 6.00 Build 0)  -->
<svg version="1.1" id="Layer_1" xmlns="http://www.w3.org/2000/svg" xmlns:xlink="http://www.w3.org/1999/xlink" x="0px" y="0px"
	 viewBox="0 0 380 380" style="enable-background:new 0 0 380 380;" xml:space="preserve">
<style type="text/css">
	.st0{fill:#FEFEFE;}
	.st1{fill:#581B11;}
	.st2{fill:#753A25;}
	.st3{fill:#7F3E29;}
	.st4{fill:#491712;}
	.st5{fill:#4D1B11;}
	.st6{fill:#591D14;}
	.st7{fill:#9A533F;}
	.st8{fill:#CEA77C;}
	.st9{fill:#DEBB9C;}
	.st10{fill:#39160F;}
	.st11{fill:#884732;}
	.st12{fill:#5C2012;}
	.st13{fill:#B16240;}
	.st14{fill:#904C38;}
	.st15{fill:#BA6F4B;}
</style>
<g>
	<g>
		<path class="st0" d="M191,381c-62,0-124,0-186,0.1c-3.4,0-4.1-0.7-4.1-4.1C1,253,1,129,0.9,5c0-3.4,0.7-4.1,4.1-4.1
			C129,1,253,1,377,0.9c3.4,0,4.1,0.7,4.1,4.1c-0.1,124-0.1,248,0,372c0,3.4-0.7,4.1-4.1,4.1C315,381,253,381,191,381z M313.4,196.7
			c3.7-2,1.6-5,0.8-7.2c-1.1-3.1-2.4-6.2-2.5-9.6c0-9.1,1.7-18.3-2.6-27c0.1-5.4-3-9.8-4.6-14.6c-2.2-6.3-6-11.8-9.5-17.4
			c-0.4-1.2-0.5-2.8-1.4-3.5c-5.9-5.5-13.2-9.1-20.4-12c-11.5-4.6-23.9-6.4-36.2-8.3c-3.9-0.6-7.8-1.6-11.8-1.1
			c-1.2-5.4-4.6-9.8-7.8-14.1c-9.1-12.1-20.5-21.6-34.6-27.6c-7.2-3.1-11.7-0.2-11.7,7.6c0,1.8,0.2,3.8-0.4,5.4
			c-2.9,8.5-7.7,15.4-16,19.9c-4.4,2.4-8.3,5.8-10.5,10.6c-0.1,0.3-0.1,0.7-0.2,1c-0.3-0.1-0.6,0-0.9,0.1c-0.7-0.1-1.3-0.2-2-0.3
			c-1.7-1.6-2.7-1.1-3.2,1.1c-0.3,0-0.7,0-0.9,0.2c-3.1,0.4-6.1-2-9.2-0.6c-6.1,2.8-13,2.8-19,5.4c-5.6,2.4-11.4,4.4-15.9,8.9
			c-1.7,0.1-2.6,1.2-3.1,2.6c-3.5,1-5.3,4-7.3,6.5c-4.9,6.2-9.4,12.7-10.6,20.8c-4.2,6.9-3.1,14.5-2.1,21.8c0.2,1.7-1,4.6,2.1,5.4
			c0.1,1.3,0.2,2.6,0.3,3.9c-0.3,2.3-0.3,4.5-1,6.8c-2,6.5-3.7,13-5.6,19.5c-1.4,5-2.7,10-4.2,15c-1.4,4.9-3,9.8-4.4,14.8
			c-1.4,5.3-2.7,10.7-4,16.1c-1.7,5.6-3.4,11.2-5.1,16.8c-0.9,0.5-0.9,1.2-0.7,2.1c-0.8,7.2,4.6,10.1,9.4,12.9
			c9.3,5.4,19.6,7.9,30,10.1c10,2.1,20,4.8,30.4,5c1.3,2.1,3.2,1.4,5.1,1.1c0.3,0,0.6,0,0.9,0c2,0.9,4.1,0.4,6.1,0.6
			c1.7,1.8,3.9,1.1,5.9,1c13.4,0.1,26.7,2.5,40.1,2c4.2,1.9,8.8,0.8,13.1,1c6.5,0.2,13.1,0.7,19.6-0.9c8.5-0.3,17,0,25.4-1.1
			c7.6-1,15.2-0.2,22.8-1.5c10.3-1.9,20.7-3.1,31.1-4.9c14.3-2.4,27.9-6.5,40.9-12.9c6-2.9,10.1-10.2,7.6-14.8
			c-1.7-3.3-2.5-6.7-3.7-10c-4.5-11.9-7.4-24.3-10.8-36.6c-1.8-6.7-3.1-13.5-6.3-19.7c-0.5-0.2-1.1-0.5-1.6-0.7L313.4,196.7z"/>
		<path class="st1" d="M313.2,196.7c0.5,0.2,1.1,0.5,1.6,0.7c-0.9,5,1,9.6,2.3,14.2c1.6,6,4.4,11.8,4.5,17.9c0,3.7,1.1,6.7,2.6,9.7
			c4,7.7,3,11.4-4,16.7c-9.9,7.6-21.5,11.1-33.2,13.9c-9.5,2.3-19.2,3.2-28.8,5c-15.6,2.9-31.5,2.4-47.3,4.2c-0.7-1.2-1.9-1-3-1
			c0.1-6.4-3.5-11.8-4.8-17.9c-3.7-16.7-4.4-33.6-5.1-50.6c-0.4-8.8-0.1-17.7-0.1-26.5c6.3-1.7,11.2-0.3,14.3,5.8
			c0.4,0.8,0.9,2.3,2.6,1.2c4.7-3,9.9-2.1,15-2c3.8,0.1,7.4-0.6,10.6-2.2c3.1-1.5,7.2-3,4.4-8c0-0.8,0.2-1.5,1-1.9
			c4.9-5.5,7.7-5.8,14.2-3.1c4.1,1.7,8.8,3.1,13,1.9c8.1-2.4,13.7,1.5,19.2,6.1c4.6,3.8,8.5,9.7,15.6,4.1c0.2-0.2,0.6,0,1-0.1
			c2.1,2.3,3.2,4.9,3,8C312.4,194.2,312.8,195.5,313.2,196.7z"/>
		<path class="st2" d="M245.9,176c-0.8,0.4-1,1.1-1,1.9c-4.7,3.1-9.7,4.5-15.4,4.2c-4.1-0.2-9.1-1.6-12.1,1.2
			c-4.2,4-5.3,0.2-7.1-1.7c-4.7-5.4-11.7-6.4-17.4-2.2c-2.4,1.7-2.8,3.4-1.1,5.8c0.2,1.8-0.3,3.9,0.6,5.2c2.5,3.6,1.5,6.6-0.5,9.8
			c-1.4,1.8-2.5,3.8-4.9,4.8c-6.7,2.6-13.4,2.7-20.4,1.4c-3.4-0.7-6.8-1.4-8.3-4.6c-2.7-5.6-4.9-11.4-5.5-17.7c0-2.7-0.1-5.3-0.1-8
			c1.3-4.7-1.5-7.6-5-9.7c-2.9-1.7-5.9,1-9,0.6c2.2-4.6,6-6.6,10.8-4.6c3.5,1.4,6.3,4,5.9,8.7c-0.6,7.3,2.1,11.1,9.1,12.4
			c5.2,0.9,10.5,1,15.7,2.1c3.5,0.8,5-0.4,5.6-3.5c0.5-2.8,0.8-5.6,1.4-8.3c1.6-7.5,4.8-14.6,4.7-22.4c1-0.4,2-0.8,3-1.2
			c11.5,1.4,22.4-3.7,33.9-3.1c7.7-2.3,15.9-2,23.4-5.1c3.1-1.3,6.6-2.3,10-2.5c9.8-0.5,18-4.6,25.9-10c3.2-2.2,4.2-5.8,6.7-8.4
			c3.5,5.6,7.3,11.1,9.5,17.4c1.7,4.8,4.7,9.2,4.6,14.6c0,6.7,0,13.3,0,20c0.8,4.4-1.6,6.6-5.4,8.3c-3.6,1.6-5-1.1-7-2.9
			c-2.2-2-4.4-4.1-6.8-5.8c-4.9-3.3-9.9-5.7-16.3-3.8c-4.3,1.3-8.9,0.3-13-1.8C251.7,162.6,246,166.2,245.9,176z"/>
		<path class="st3" d="M294.8,121c-2.5,2.6-3.5,6.3-6.7,8.4c-7.9,5.3-16.1,9.4-25.9,10c-3.4,0.2-6.8,1.2-10,2.5
			c-7.5,3-15.7,2.8-23.4,5.1c-0.2-1.5,1.8-1.5,2-3c-2.7,0-5.3,0-7.9,0c0.5-0.7,1.3-0.9,2.2-1c11.4-1.6,22.9-3.2,33.5-7.9
			c4-1.7,8.7-2.8,10.8-7.3c0.6-1.4,0.9-4.4-1.4-3.3c-6.2,3-13,3.4-19.1,5.7c-6.7,2.5-13.6,2.1-20.2,3.4c-7.9,1.5-16.4,1.9-24.8,1.5
			c-8.6-0.3-17.3,0-26,0c-5.1-1.2-8.6-4.9-12.1-8.4c-2.7-2.6-4.7-5.5-3.8-9.5c0.3,0,0.7,0,1,0c0.9,1.8,2.5,2.1,4.2,1.8
			c7-1,13.9-0.4,20.9,0c4.3,0.3,8.5-2,12.8-0.9c5.6,1.4,10.5-1.5,15.9-2c-0.6-0.1-1.3-0.2-1.9-0.2c0.7-0.6,1.4-1.2,2.2-1.7
			c0.8-0.3,1.6-0.5,2.3-0.8c3-0.8,5.6-2.1,6.8-5.2c3.5-4.3,0.1-8.1-1.1-12c4-0.6,7.9,0.5,11.8,1.1c12.3,1.8,24.7,3.7,36.2,8.3
			c7.2,2.9,14.5,6.5,20.4,12C294.3,118.3,294.4,119.8,294.8,121z"/>
		<path class="st4" d="M211,279c15.7-1.8,31.7-1.2,47.3-4.2c9.6-1.8,19.4-2.6,28.8-5c11.7-2.9,23.3-6.3,33.2-13.9
			c7-5.4,8-9.1,4-16.7c-1.5-3-2.6-6-2.6-9.7c-0.1-6.2-2.8-12-4.5-17.9c-1.3-4.6-3.2-9.2-2.3-14.2c3.2,6.2,4.4,13.1,6.3,19.7
			c3.4,12.3,6.4,24.7,10.8,36.6c1.2,3.3,2,6.7,3.7,10c2.4,4.5-1.7,11.8-7.6,14.8c-13,6.3-26.6,10.4-40.9,12.9
			c-10.4,1.8-20.8,3-31.1,4.9c-7.6,1.4-15.2,0.6-22.8,1.5c-8.4,1.1-16.9,0.8-25.4,1.1c-10.9-1.2-21.8-1.1-32.7,0
			c-13.4,0.5-26.7-1.9-40.1-2c-1.5-3-3.8-1.8-5.9-1c-2.1-0.2-4.2,0.3-6.1-0.6c1.4-1.9,3.4-1.2,5.1-1.1c12.6,0.5,25.1,1.5,37.6,2.6
			c15.4,1.4,31,0.3,46.4,0.4c4.1,0,4.2-1.3,2.2-4.3C211.5,288.6,208.6,284.4,211,279z"/>
		<path class="st5" d="M211,279c-2.4,5.4,0.5,9.6,3.3,13.8c2,2.9,1.9,4.3-2.2,4.3c-15.5-0.1-31.1,1-46.4-0.4
			c-12.5-1.1-25-2.2-37.6-2.6c-1.7-0.1-3.7-0.7-5.1,1.1c-0.3,0-0.6,0-0.9,0c-1.4-1.8-3.3-1-5.1-1.1c-10.4-0.2-20.3-2.8-30.4-5
			c-10.4-2.2-20.7-4.8-30-10.1c-4.8-2.8-10.2-5.8-9.4-12.9c1.4,1.6,2.1,3.9,4.8,3.9c9.8,0.2,19.4,1.3,29,3
			c8.9-1.1,17.5,1.3,26.2,2.3c19.8,2.3,39.7,1.1,59.5,3.5c11,1.3,22.3,0.2,33.4,0.3c2.7,0,5.3-0.3,7.8-1
			C209.1,278,210.3,277.8,211,279z"/>
		<path class="st6" d="M81,273c-9.6-1.8-19.3-2.8-29-3c-2.6-0.1-3.4-2.3-4.8-3.9c-0.2-0.8-0.2-1.6,0.7-2.1c2.4-0.2,2.8-2.1,3-3.9
			c0.3-2.4,0.6-5,2-6.9c1.5-2.1,1.1-4,0.1-6c1.3-5.4,2.5-10.7,4-16.1c1.3-5,3-9.8,4.4-14.8c1.4-5,2.8-10,4.2-15
			c1.8-6.5,3.5-13.1,5.6-19.5c0.7-2.3,0.7-4.5,1-6.8c3.6-3.2,7.3-6.3,9.6-10.6c3.2-6.1,14.9-7.4,19.2-3.4c-4.1-0.3-6,1.5-6.1,5.8
			c-0.1,4.6-1.2,9.2-2.5,13.4c-3.5,11.6-5.3,23.5-7.7,35.2c-3.1,15.7-7.2,31.2-9.1,47.1c-0.6,5.3-1.5,8.5,4.9,9.1
			C80.7,271.7,80.8,272.5,81,273z"/>
		<path class="st7" d="M162,117.2c-0.9,4,1.1,6.9,3.8,9.5c3.6,3.5,7,7.2,12.1,8.4c2.1,2.7,4.5,4.6,8.2,3.4c2.2-0.7,4,0.1,5.5,1.7
			c-1.5,1.5-3.7,0.2-4.7,1.9c-1.6,0-3.3,0-4.9,0c-0.4-0.7-0.7-0.7-1,0c-0.6,0.3-1.2,0.8-1.7,0.8c-14.9-2.2-30.1-1.5-45-3.7
			c-10.5-1.6-20.9-3.3-30.8-7.1c-7.4-2.9-11.5-7.5-10.1-12.2c1.4-4.9-1.4-2.9-3.4-2.7c-0.1-0.1-0.2-0.3-0.2-0.4
			c0.6-1.4,1.5-2.5,3.1-2.6c4.6,2,7.7-1.1,11.3-3.1c10.2-5.8,21.6-7.9,32.8-10.7c0.3-0.2,0.6-0.2,0.9-0.2c1.2,0,2.4,0.2,3.2-1.1
			c0.7,0.1,1.3,0.2,2,0.3c0.2,0.2,0.5,0.5,0.7,0.7c0.1,2.3,0.1,4.6,0.3,6.9c0.4,5.6,4.3,9.5,10.1,10.1
			C156.8,116.9,159.4,117.1,162,117.2z"/>
		<path class="st8" d="M154.1,116.8c-5.8-0.6-9.7-4.5-10.1-10.1c-0.1-2.3-0.2-4.6-0.3-6.9c0.1-0.3,0.2-0.5,0.2-0.8
			c0.1-0.3,0.1-0.7,0.2-1c5.8,0.1,9.9-3.1,14-6.7c8.8-7.7,15.3-16.7,16.8-28.6c0.8-6.3,2.1-7,7.9-4.3c9.5,4.4,16.9,11.2,23.2,19.5
			c7.2,9.7,15.8,18.5,20.2,30.1c-1.2,3.2-3.8,4.5-6.8,5.2c-6.2-10.2-10.7-21.4-18.3-30.9c-5.5-7-10.8-14.2-17.5-20.1
			c-1-0.9-2.4-2.7-3.8-1.8c-1.4,0.9-1.8,3-1.5,4.9c0.6,5.5-0.5,10.9-2.2,15.9c-2.8,8.4-6.2,16.7-11.5,23.9
			C161.6,109.5,159.4,114.7,154.1,116.8z"/>
		<path class="st2" d="M71.9,143.9c1.2-8.1,5.7-14.6,10.6-20.8c2-2.5,3.8-5.5,7.3-6.5c0,0.2,0.1,0.3,0.2,0.4
			c-0.4,1.9-0.8,3.9-1.2,5.8c-4,5.2-2.2,10.4,4.3,12.2c3.2,1.5,5.8,4.4,9.7,4.2c0.4,1.1,1.1,1.8,2.3,1.8l-0.1,0.1
			c0.3,3.4-0.6,7,1.7,10.3c1.1,1.6,0.4,3.8-2,4.7c-15-6.8-19-2.4-26.9,7.8c-1.5,2-3,4.5-5.8,5.1C72,160.6,71.9,152.2,71.9,143.9z"/>
		<path class="st9" d="M226.2,108.1C221.8,96.5,213.3,87.7,206,78c-6.2-8.3-13.7-15.1-23.2-19.5c-5.8-2.7-7.1-2-7.9,4.3
			c-1.5,11.9-8,20.9-16.8,28.6c-4.1,3.6-8.2,6.7-14,6.7c2.2-4.8,6.1-8.2,10.5-10.6c8.3-4.5,13.1-11.3,16-19.9
			c0.6-1.7,0.3-3.6,0.4-5.4c0.1-7.8,4.5-10.6,11.7-7.6c14.1,6,25.5,15.5,34.6,27.6c3.2,4.2,6.6,8.6,7.8,14.1
			C226.3,100.1,229.7,103.8,226.2,108.1z"/>
		<path class="st10" d="M72,168.9c2.9-0.6,4.3-3.1,5.8-5.1c8-10.2,11.9-14.6,26.9-7.8c3.5,8.3,6.3,16.9,12.3,23.9
			c-6.7,0.5-7.1-5.2-8.9-9.2c-1.5-3.4-2.2-7.2-6.1-8.7c-0.3-0.3-0.7-0.7-1-1l0,0c-4.3-3.9-16-2.6-19.2,3.4c-2.3,4.3-6,7.4-9.6,10.6
			c-0.1-1.3-0.2-2.6-0.3-3.9C71.9,170.4,71.9,169.7,72,168.9z"/>
		<path class="st3" d="M136.9,100.2c-11.2,2.8-22.6,4.9-32.8,10.7c-3.5,2-6.7,5-11.3,3.1c4.4-4.5,10.3-6.5,15.9-8.9
			c6.1-2.7,13-2.6,19-5.4C130.8,98.2,133.8,100.6,136.9,100.2z"/>
		<path class="st11" d="M72,168.9c0,0.7-0.1,1.4-0.1,2.2c-3-0.8-1.9-3.8-2.1-5.4c-1-7.4-2-14.9,2.1-21.8
			C71.9,152.2,72,160.6,72,168.9z"/>
		<path class="st7" d="M175.1,298.8c10.9-1.1,21.8-1.1,32.7,0c-6.5,1.7-13.1,1.1-19.6,0.9C183.9,299.6,179.4,300.7,175.1,298.8z"/>
		<path class="st11" d="M309,173c0-6.7,0-13.3,0-20c4.3,8.7,2.6,17.9,2.6,27c-0.5-0.3-1-0.7-1.5-1C309.7,176.9,310.9,174.7,309,173z
			"/>
		<path class="st5" d="M310.1,178.9c0.5,0.3,1,0.7,1.5,1c0.1,3.4,1.4,6.4,2.5,9.6c0.8,2.1,2.9,5.2-0.8,7.2c0.8-1.7,1.1-3.2-1.4-3.7
			c0.2-3.1-0.9-5.8-3-8C309.4,183,309.7,180.9,310.1,178.9z"/>
		<path class="st5" d="M53.1,247.2c1,2,1.4,3.8-0.1,6c-1.4,2-1.7,4.5-2,6.9c-0.2,1.8-0.6,3.6-3,3.9
			C49.7,258.4,51.4,252.8,53.1,247.2z"/>
		<path class="st2" d="M129.1,295.8c2.2-0.7,4.4-2,5.9,1C133,296.9,130.8,297.6,129.1,295.8z"/>
		<path class="st2" d="M117,294.1c1.7,0.1,3.7-0.7,5.1,1.1C120.2,295.5,118.3,296.2,117,294.1z"/>
		<path class="st3" d="M141.1,98.9c-0.7,1.3-2,1.1-3.2,1.1C138.3,97.8,139.3,97.3,141.1,98.9z"/>
		<path class="st4" d="M312,193c2.5,0.5,2.2,2,1.4,3.7c0,0-0.2,0-0.2,0C312.8,195.5,312.4,194.2,312,193z"/>
		<path class="st3" d="M144,99.1c-0.1,0.3-0.1,0.5-0.2,0.8c-0.2-0.2-0.5-0.5-0.7-0.7C143.3,99,143.7,99,144,99.1z"/>
		<path class="st12" d="M102,162c4,1.6,4.6,5.4,6.1,8.7c1.8,4,2.2,9.8,8.9,9.2l0,0c-0.3,5.4,3.2,8.8,6.6,12.1
			c2.9,2.8,6.9,3.8,10.5,2.5c3.6-1.3,4.4-5,3.9-8.7c0-0.3,0-0.6,0-0.9c0.1-0.1,0.4-0.2,0.4-0.2c-0.1-0.2-0.2-0.4-0.3-0.7
			c-0.8-4.1,1.5-8.1,0-12.1c2.7,0.8,5.3,2,8-0.3c1.3-1.1,2.3-0.3,3.3,0.9c1,1.3,2.4,2.3,3.6,3.4c0,2.7,0.1,5.3,0.1,8
			c-2.9,7.8,0.6,20.7,6.9,25.2c0.6,0.5,1.5,0.8,2.3,0.8c8.3,0.6,16.7,1.3,25,0c4.3-0.7,4.6-4.8,6.5-7.6c0.8-1.2,0-2.2-1.6-2.3
			c2-3.2,3-6.2,0.5-9.8c-0.9-1.2-0.4-3.4-0.6-5.2c2-0.7,4-1.4,6.1-2.1c0,8.8-0.3,17.7,0.1,26.5c0.7,16.9,1.4,33.8,5.1,50.6
			c1.3,6.1,5,11.5,4.8,17.9c-2.6,0.8-5.2,1.1-7.8,1c-11.2-0.1-22.4,1.1-33.4-0.3c-19.8-2.4-39.7-1.3-59.5-3.5
			c-8.7-1-17.3-3.4-26.2-2.3c-0.2-0.5-0.3-1.3-0.5-1.3c-6.4-0.6-5.5-3.8-4.9-9.1c2-16,6-31.4,9.1-47.1c2.4-11.8,4.2-23.6,7.7-35.2
			c1.2-4.2,2.4-8.8,2.5-13.4c0.1-4.3,2-6.1,6.1-5.8c0,0,0,0,0,0C101.4,161.3,101.7,161.6,102,162z"/>
		<path class="st10" d="M310.1,178.9c-0.4,2-0.8,4-1.2,6.1c-0.3,0-0.8-0.1-1,0.1c-7.1,5.6-11-0.3-15.6-4.1
			c-5.6-4.7-11.1-8.5-19.2-6.1c-4.2,1.2-9-0.1-13-1.9c-6.5-2.7-9.3-2.4-14.2,3.1c0-9.8,5.7-13.4,14.5-9c4.2,2.1,8.8,3.1,13,1.8
			c6.4-1.9,11.4,0.5,16.3,3.8c2.5,1.7,4.6,3.8,6.8,5.8c2,1.8,3.4,4.6,7,2.9c3.8-1.7,6.2-3.9,5.4-8.3
			C310.9,174.7,309.7,176.9,310.1,178.9z"/>
		<path class="st10" d="M198,183c-2,0.7-4,1.4-6.1,2.1c-1.7-2.3-1.3-4,1.1-5.8c5.7-4.1,12.7-3.2,17.4,2.2c1.7,2,2.8,5.7,7.1,1.7
			c2.9-2.8,8-1.4,12.1-1.2c5.7,0.3,10.7-1.1,15.4-4.2c2.8,5-1.4,6.5-4.4,8c-3.2,1.6-6.8,2.3-10.6,2.2c-5.1-0.1-10.3-1-15,2
			c-1.7,1.1-2.2-0.4-2.6-1.2C209.2,182.7,204.3,181.3,198,183z"/>
		<path class="st11" d="M117.1,179.9c-6.1-6.9-8.8-15.6-12.3-23.9c2.3-0.9,3.1-3.2,2-4.7c-2.4-3.3-1.4-6.8-1.7-10.3c1,0,2,0,2.9,0
			c0.3,1.7,1.1,2.8,2.9,2.8c5,0.3,9.5,2.6,14.3,3.5c14.3,2.8,28.7,3.6,43.2,4.5c8,0.5,15.8-1,23.8-0.8c0.2,7.8-3.1,14.9-4.7,22.4
			c-0.6,2.7-0.9,5.5-1.4,8.3c-0.6,3.2-2.1,4.3-5.6,3.5c-5.1-1.1-10.5-1.2-15.7-2.1c-6.9-1.3-9.7-5.1-9.1-12.4
			c0.4-4.7-2.4-7.3-5.9-8.7c-4.8-2-8.5,0-10.8,4.6c-1.3,1.1-0.8,2.7-1,4.1c-3,0.7-2.8,3.2-3,5.5c-0.4,4.8-2,9-7.1,10.7
			c-2.6-0.1-4.5-1.3-6.4-3.1C120,182.7,119.7,180.1,117.1,179.9L117.1,179.9z"/>
		<path class="st13" d="M192.1,151.2c-7.9-0.2-15.8,1.3-23.8,0.8c-14.5-1-28.9-1.7-43.2-4.5c-4.9-1-9.3-3.3-14.3-3.5
			c-1.8-0.1-2.6-1.2-2.9-2.8c6.9-0.1,13.7,2,20.4,2.6c17.7,1.6,35.6-1.3,53.2,1.8c4.9,0.9,9.8-1.7,14.5,0.5c-0.7,1.2-1.2,2.5-1,4
			C194,150.4,193.1,150.8,192.1,151.2z"/>
		<path class="st10" d="M192.1,200.1c1.5,0.1,2.4,1.1,1.6,2.3c-1.8,2.8-2.2,6.9-6.5,7.6c-8.3,1.3-16.7,0.7-25,0
			c-0.8-0.1-1.6-0.4-2.3-0.8c-6.2-4.5-9.7-17.4-6.9-25.2c0.6,6.3,2.8,12.1,5.5,17.7c1.5,3.2,4.9,4,8.3,4.6c7,1.3,13.7,1.2,20.4-1.4
			C189.6,203.9,190.6,201.8,192.1,200.1z"/>
		<path class="st7" d="M195,150c-0.2-1.5,0.3-2.8,1-4c1.6,0,3.3,0,4.9-0.1c2.2,0,4.3-0.5,6.1-2c0.6,0,1.3,0,1.9,0
			c0.1,1.4,0.9,2,2.3,1.9c1.2-0.1,1.7-0.9,1.8-1.9c3.3,0,6.7,0,10,0c2.6,0,5.2,0,7.9,0c-0.2,1.5-2.3,1.4-2,3
			C217.5,146.3,206.5,151.4,195,150z"/>
		<path class="st10" d="M138,171c0.2-1.4-0.3-3,1-4.1c3.1,0.4,6.1-2.3,9-0.6c3.5,2.1,6.3,4.9,5,9.7c-1.2-1.1-2.6-2.1-3.6-3.4
			c-1-1.2-2-2-3.3-0.9c-2.7,2.3-5.3,1.1-8,0.3C138.1,171.6,138,171.3,138,171z"/>
		<path class="st9" d="M154.1,116.8c5.3-2.1,7.4-7.3,10.5-11.5c5.3-7.2,8.7-15.5,11.5-23.9c1.7-5.1,2.8-10.4,2.2-15.9
			c-0.2-1.9,0.1-4,1.5-4.9c1.3-0.9,2.7,1,3.8,1.8c6.8,5.9,12,13.1,17.5,20.1c7.5,9.5,12,20.7,18.3,30.9c-0.8,0.3-1.6,0.5-2.3,0.8
			c-1.9,0-3.9-0.5-5.3,1.4c-2.3,0.1-4.5,0.3-6.8,0.4c-6.4-1.3-12.8-1-19.2-0.1c-4.3,0.1-8.5,0.1-12.8,0.2c-2.2-1-4.4-1.7-6.1,0.8
			c-1.3,0.1-2.5,0.2-3.8,0.4c-0.3,0-0.7,0-1,0C159.4,117.1,156.8,116.9,154.1,116.8z"/>
		<path class="st14" d="M223.1,144c-3.3,0-6.7,0-10,0c-1.3,0-2.7,0-4,0c-0.6,0-1.3,0-1.9,0c-0.7,0-1.4,0-2,0c-2.7-3.6-5.9-2-9-1
			c-3.1,0.5-6-0.7-9-0.9c1-1.7,3.2-0.5,4.7-1.9c-1.6-1.6-3.3-2.4-5.5-1.7c-3.7,1.2-6.1-0.7-8.2-3.4c8.7,0,17.3-0.3,26,0
			c8.3,0.3,16.8,0,24.8-1.5c6.7-1.3,13.6-0.8,20.2-3.4c6.1-2.3,13-2.7,19.1-5.7c2.4-1.2,2.1,1.9,1.4,3.3c-2.1,4.5-6.8,5.6-10.8,7.3
			c-10.7,4.7-22.1,6.3-33.5,7.9C224.4,143.1,223.6,143.2,223.1,144z"/>
		<path class="st2" d="M163,117.2c1.3-0.1,2.5-0.2,3.8-0.4c2.1,0.1,4.2,0.9,6.1-0.8c4.3-0.1,8.5-0.1,12.8-0.2
			c6.4,1.9,12.8,1.7,19.2,0.1c2.3-0.1,4.5-0.3,6.8-0.4c1,0.1,2.1,0.3,3.1,0.4c0.6,0.1,1.3,0.2,1.9,0.2c-5.3,0.5-10.2,3.4-15.9,2
			c-4.2-1.1-8.4,1.2-12.8,0.9c-7-0.4-13.9-1-20.9,0C165.6,119.2,163.9,119,163,117.2z"/>
		<path class="st15" d="M214.9,115.9c-1-0.1-2.1-0.2-3.1-0.4c1.4-1.9,3.4-1.4,5.3-1.4C216.3,114.7,215.6,115.3,214.9,115.9z"/>
		<path class="st15" d="M187,142c3,0.2,5.9,1.4,9,0.9c1.4,1.7,3.3,0.8,5,1c0,0.7,0,1.3,0,2c-1.6,0-3.3,0-4.9,0.1
			c-4.7-2.3-9.6,0.3-14.5-0.5c-17.6-3.1-35.5-0.2-53.2-1.8c-6.7-0.6-13.5-2.7-20.4-2.6c-1,0-2,0-2.9,0c0,0,0.1-0.1,0.1-0.1
			c-0.1-1.4-0.9-2-2.3-1.8c-3.9,0.2-6.5-2.7-9.7-4.2c-2-3.9-4.1-7.7-4.3-12.2c0.4-1.9,0.8-3.9,1.2-5.8c2-0.2,4.9-2.2,3.4,2.7
			c-1.4,4.7,2.7,9.4,10.1,12.2c9.9,3.9,20.3,5.6,30.8,7.1c14.9,2.2,30.1,1.5,45,3.7c0.5,0.1,1.1-0.5,1.7-0.8c0.3,0,0.7,0,1,0
			C183.7,142,185.3,142,187,142z"/>
		<path class="st14" d="M182,142c-0.3,0-0.7,0-1,0C181.3,141.3,181.7,141.3,182,142z"/>
		<path class="st7" d="M88.7,122.8c0.1,4.5,2.3,8.3,4.3,12.2C86.5,133.3,84.7,128,88.7,122.8z"/>
		<path class="st13" d="M102.7,139.2c1.4-0.3,2.2,0.3,2.3,1.8C103.8,141,103.1,140.3,102.7,139.2z"/>
		<path class="st6" d="M102,162c-0.3-0.3-0.7-0.7-1-1C101.4,161.3,101.7,161.6,102,162z"/>
		<path class="st10" d="M117,179.9c2.6,0.1,3,2.8,4.4,4.1c1.8,1.7,3.8,3,6.4,3.1c4.1,4.8,6.9,0.5,10.1-1.3c0.5,3.7-0.2,7.4-3.9,8.7
			c-3.6,1.3-7.6,0.3-10.5-2.5C120.2,188.8,116.7,185.3,117,179.9z"/>
		<path class="st2" d="M138,185.9c-3.2,1.8-6.1,6.1-10.1,1.3c5.1-1.7,6.7-5.8,7.1-10.7c0.2-2.3,0-4.8,3-5.5c0,0.3,0.1,0.6,0.1,0.9
			c1.5,4.1-0.8,8.1,0,12.1c0,0.3,0,0.6-0.1,0.9C138,185.3,138,185.6,138,185.9z"/>
		<path class="st10" d="M138,185c0-0.3,0-0.6,0.1-0.9c0.1,0.2,0.2,0.4,0.3,0.7C138.4,184.8,138.1,184.9,138,185z"/>
		<path class="st13" d="M201,146c0-0.7,0-1.3,0-2c1.3,0,2.7,0,4-0.1c0.7,0,1.4,0,2,0C205.3,145.5,203.2,146,201,146z"/>
		<path class="st13" d="M209,144c1.3,0,2.7,0,4,0c-0.1,1.1-0.5,1.9-1.8,1.9C209.8,146,209.1,145.4,209,144z"/>
		<path class="st15" d="M205,115.9c-6.4,1.5-12.8,1.8-19.2-0.1C192.2,115,198.6,114.7,205,115.9z"/>
		<path class="st15" d="M173,116c-1.9,1.6-4,0.8-6.1,0.8C168.6,114.3,170.8,115,173,116z"/>
		<path class="st7" d="M205,143.9c-1.3,0-2.7,0-4,0.1c-1.7-0.3-3.6,0.7-5-1C199.2,142,202.4,140.4,205,143.9z"/>
	</g>
</g>
</svg>
