<?xml version="1.0" encoding="utf-8"?>
<!-- Generator: Adobe Illustrator 21.1.0, SVG Export Plug-In . SVG Version: 6.00 Build 0)  -->
<svg version="1.1" id="Layer_1" xmlns="http://www.w3.org/2000/svg" xmlns:xlink="http://www.w3.org/1999/xlink" x="0px" y="0px"
	 viewBox="0 0 380 380" style="enable-background:new 0 0 380 380;" xml:space="preserve">
<style type="text/css">
	.st0{fill:#FEFEFE;}
	.st1{fill:#522216;}
	.st2{fill:#8A4535;}
	.st3{fill:#5C271A;}
	.st4{fill:#642D21;}
	.st5{fill:#854131;}
	.st6{fill:#713628;}
	.st7{fill:#AF6940;}
	.st8{fill:#E7AF77;}
	.st9{fill:#DB9E69;}
	.st10{fill:#ECB67B;}
	.st11{fill:#8F4B3B;}
	.st12{fill:#6E3325;}
	.st13{fill:#9A4D30;}
	.st14{fill:#753A2C;}
	.st15{fill:#955041;}
</style>
<g>
	<g>
		<path class="st0" d="M1,190.5C1,128.7,1,66.8,0.9,5c0-3.4,0.7-4.1,4.1-4.1C129,1,253,1,377,0.9c3.4,0,4.1,0.7,4.1,4.1
			c-0.1,124-0.1,248,0,372c0,3.4-0.7,4.1-4.1,4.1c-124-0.1-248-0.1-372,0c-3.4,0-4.1-0.7-4.1-4.1C1,314.8,1,252.7,1,190.5z
			 M305.4,161.6L305.4,161.6c-0.5-1-1.1-2.1-1.7-3.1l-0.2-0.3c-0.2-0.8-0.4-1.5-0.6-2.3c0.3-2.9-2.1-4.6-3-7
			c0.9-6.7,1.5-13.5,1.1-20.3c-0.7-13.7-3.6-17.9-18.7-17.8c-2.7,0-5.6,0.8-8.2-0.9c-4.6-5.1-9.3-10.1-15-14
			c-3.3-4.8-9.3-5.9-13.2-9.9c0-6.7-3.4-12-7.2-16.9C236,65.7,232,64.4,228,68c-5.1,0.9-9.8,2.8-13.1,7c-2.6-0.1-5.3-0.1-7.9-0.4
			c-10.5-1.3-21-0.6-31.4,1.1c-8.2,1.4-16,4.5-24,6.8c-2.5-1.9-3.7-5.3-7.9-4.8c-5.2,0.6-11.6,6.6-11.7,11.9c0,1.8,0.1,3.6-0.9,5.3
			c-8.3,5.8-15.4,12.7-21.1,21c-2.1,1.5-4.6,0.6-6.8,1.2c-4.5-0.7-8.6-0.2-12.2,3c-7.6,1.4-9.6,7.7-11.8,13.6
			c-3.6,9.5-1.5,14.1,7.8,18.3c0.1,0.4,0.1,0.7,0.2,1.1c-0.4,1.6-0.6,3.2-1.2,4.7C80,171.7,76,186,74,201c-2,3.8-2.2,7.9-1.8,12
			c-0.4,4.3-0.8,8.7-1.2,13c-4.2,2.5-9,3.9-12.1,8.2c-1.5,2.1-2.6,4.3-1.2,6.4c2.9,4.5,6.2,8.9,11.3,11.3c0.6,0.4,1.3,0.7,1.9,1.1
			c0.4,0.7,0.8,1.3,1.2,2c0.6,10.8,3.4,20.7,11.2,28.8c7.9,8.2,17,14.3,27.5,18.3c7.2,2.8,14.2,6.5,22.2,6.8c3,2,6.4,2.7,10,2.9
			c0.3,0,0.7,0,1,0c2,0.4,4,0.8,6,1.2c3.5,1.6,7.2,2.1,11,1.8c1.7,0,3.3,0,5,0c5.3,0.4,10.6,1.7,16,1c1.3,0,2.7,0,4,0l0.5,0.1
			l0.5-0.1c0.7,0,1.4,0,2,0c20.4,0.8,40.8,0.2,60.8-4.2c14.5-3.2,28.7-7.9,41.7-15.3c15.8-9,25.7-21.8,28.3-40.4
			c1.9-14-0.1-27.8-0.7-41.7c1.4-1.8,0-3-1.1-4.2c4.9-4,6.4-9.5,6.9-15.3c0.5-6.2-1.7-8.4-7.9-8.6c-1.3-0.1-2.6-0.1-4-0.1
			c-0.4-1.9-0.2-4.2-1.2-5.7c-2.7-4.2-1.3-10.1-5.8-13.4c0-0.3-0.1-0.6-0.2-0.9c0-0.7,0-1.3,0-2c0-0.3,0-0.7,0-1
			C305.7,162.5,305.6,162.1,305.4,161.6z"/>
		<path class="st1" d="M319.2,214.3c0.6,13.9,2.6,27.6,0.7,41.7c-2.6,18.6-12.5,31.5-28.3,40.4c-13,7.4-27.2,12.1-41.7,15.3
			c-20,4.4-40.4,5-60.8,4.2c17-6.8,32.8-15.5,45-29.5c4.6-5.3,9.2-10.8,12-17.4c1.4-1.4,2.8-2.8,4.2-4.1c2.5,3.2,2.3,7.8,5.7,10.4
			c0.5,4.1,2.7,6,7,5.8c9.9-0.6,19.1-3.5,27.9-8c6.3-3.2,7.1-5.8,4.7-12.4c-2.8-7.5-7.8-13.7-11.6-20.6c0.1-1.5,0.5-2.8,1.5-4.1
			c6.3-8.4,11.9-17.3,16.1-27c5,2.3,9.3,7.7,15.9,3.4C318.2,211.9,318.2,214,319.2,214.3z"/>
		<path class="st2" d="M110,116c5.7-8.4,12.8-15.3,21.1-21c0.6,0.5,1.3,1,1.9,1.6c6.1,5.6,12.8,4.5,16.6-2.8c0.6-1.1,0.4-2.7,2-3.1
			c0.4,0.2,1,0.5,1,0.5c0.6-1.3,0.4-2.3-0.8-3.1c0-1,0-1.9,0-2.9c2.3-0.8,4.7-1.6,7-2.4c0.6-0.2,1.6-0.5,1.7,0.2
			c0.5,6,5.1,3.4,7.1,2.6c8.1-3.3,16.6-1.7,24.5-0.8c10.2,1.2,19.9,6.3,28.5,12.1c3.3,2.2,7.7,3.9,9.4,8.3c-0.7,0-1.3,0-2,0.1
			c-3.1,0.6-5.7,1.7-6,5.4c-0.3,4,0.9,7.2,4.8,8.9c3.2,1.4,5.9,0.6,8.4-2c2.2-2.3,1.6-4.8,1.8-7.4c2.5,3,5.3,6.2,7.1,9.4
			c2.6,4.3,6.9,7.7,7.9,13c0.2,1.3,2,2.6,3.9,2.6c-0.8,6.3,0,12.8-3.8,18.5c-1.1,1.6-2.2,3.7-2,5.4c0.9,6.7-5.1,9.4-7.4,14.3
			c-0.5,1-1.7,0.7-2.7,0.8c-0.2-0.4-0.3-0.8-0.5-1.1c-0.3,0.4-0.6,0.9-0.9,1.3c-3.1-8.2-3.9-8.9-12.5-9c-2.6,0-4.8-1.2-7.1-2
			c-0.1-0.5-0.1-1.2-0.4-1.4c-2.3-1.5-5.9-2.3-5.2-5.7c0.7-3.2,4.7-2.1,7.1-3.1c0.6-0.2,1.2-0.4,1.9-0.7c2.3-0.8,3.1-2.6,2.5-4.7
			c-2.4-8.3-5.6-16.2-13.9-20.5c1.3-1.8,2.1-3.5,2.1-5.9c-0.1-6.1-5.4-12-13-14.1c0.2-4.4-0.6-8.6-2.1-12.6
			c-1.6-4.2-4.2-5.3-8.1-3.3c-1.7,0.8-3.8,1.3-4.9,3.1c-7.2,2.6-11.3,9.1-17,13.7c-0.3,0.4-0.7,0.8-1,1.1c-0.3,0.3-0.5,0.6-0.8,0.9
			c-5-0.9-9,1.5-12.9,4.2c-3.5,2.4-6.7,5.5-11.3,5.8c-0.9-0.4-1.8-0.9-2.7-1.3c-3.8-1.4-9.8,0.7-11.6,4.3c-2.2,4.4,2.5,4.9,4.3,7
			c0,1,0,2,0,3c-3.6-0.7-4.9-5.4-9.1-5.1c-1.5-6.8-4.5-12-12.6-11.6C110.2,116.4,110.1,116.1,110,116z"/>
		<path class="st3" d="M246,269c-2.8,6.6-7.3,12.1-12,17.4c-12.2,14-28,22.7-45,29.5c-0.7,0-1.4,0-2,0c-0.3-0.5-0.6-0.5-1,0
			c-1.3,0-2.7,0-4,0c-2.9-3.6-12.6-4.2-16-1c-1.7,0-3.3,0-5,0c0-0.6-0.1-1.1-0.1-1.7c-4.9-1-9.7-2.2-14.6-3.1
			c-1-0.2-1.7,0.8-2.3,1.7c-0.3,0-0.7,0-1,0c-0.9-4-6.5-5.9-9.9-3.4c-0.1,0.1-0.1,0.3-0.1,0.5c-8-0.3-15-4-22.2-6.8
			c-10.5-4-19.6-10.1-27.5-18.3c-7.8-8.1-10.6-18-11.2-28.8c2-0.4,3.4,0.9,5,1.7c6.1,2.8,12.2,5.5,18.9,6.1
			c-0.5,3.8,2.6,4.9,4.9,6.1c13.9,6.8,28.2,12.7,44,13.5c-1.8,4.4-0.7,7.5,3.8,9.7c3.3,1.6,6.6,3,10.2,3.5c4.2,3.1,9.3,4,14.3,4.4
			c16.1,1.3,16.2,1.2,15.7-15c0-0.3,0-0.7,0-1c3.3,0.4,6.5-0.5,9.8-1c14.8-2.3,29.1-6.3,42.6-12.8C242.7,269.4,244.4,269.4,246,269z
			"/>
		<path class="st4" d="M301.4,209.1c-4.2,9.7-9.7,18.6-16.1,27c-1,1.3-1.4,2.6-1.5,4.1c-1.5-1.2-3-2.4-4.5-3.5
			c-4.7-3.4-11.9-1.9-15.5,3.1c-1.3,0.2-2.6,0.4-3.8,0.5c0.5-6.6,2.8-12.8,4-19.2c-0.7-4.7,1.3-9.3,1-14c1.7-2.8,0.8-6,1-9
			c2.4-3.3,0.3-6.1-1-9c1.3,0.1,2.6,0.3,3.9,0.4c6.3,0.6,11.8-5.7,8.8-12.1c-3-6.3-7.4-10.7-13.7-13.3c-1.7-9.8-3.8-19.5-7-29
			c0-1,0-2,0-3c1.5-5.9,3.4-11.6,1.7-18.1c-1.5-5.7-1.8-12,0.4-17.9c5.7,3.9,10.4,8.9,15,14c-5,1.9-9.4,4-10.6,10.3
			c-0.9,4.5-0.3,6.1,4.5,5.8c6.8-0.5,13.2,0.8,18.1,6.1c3.9,4.2,4.1,10,4.8,15.3c0.5,4.2,2.3,4.1,5.2,3c1.2-0.5,2.5-0.9,3.7-1.4
			c0.9,2.4,3.3,4.1,3,7c-1,0.2-2,0.6-1.6,1.8c0.4,1.3,1.3,1,2.3,0.5c0,0,0.2,0.3,0.2,0.3c-0.8,1.8-1.2,3.4,1.7,3c0,0,0,0,0,0
			c0.1,0.5,0.3,0.9,0.4,1.4c0,0.3,0,0.7,0,1c-0.7,0.1-1.4,0.2-1.4,1c0,0.8,0.8,0.9,1.4,1c0.1,0.3,0.2,0.6,0.2,0.9
			c0.8,4.4,0.3,8.5-2.1,12.4c-1.9,3.1-2.2,6.3,0.1,9.5c-8.8,5.2-10.3,10.9-4.8,17.7C300,207.3,300.7,208.2,301.4,209.1z"/>
		<path class="st5" d="M74,201c2-15,6.1-29.3,12-43.2c0.6-1.5,0.8-3.1,1.2-4.7c0.9,0.1,1.8,0.1,2.7,0.2c3.2,2.8,7.2,2.5,11.1,2.8
			c0.3,0.3,1.3,5.5,1.5,6.8c2.3,14.8,5.8,29.2,14.7,41.7c1.9,2.7,5.3,3.5,6.8,6.5c3.4,6.6,8.1,11.6,15.8,12.9c2,0.3,3.3,1.4,4.2,3.2
			c-6.5,0.7-12.7-1.2-19-2c-4,0.7-7.2-2.2-10.9-2.9c-9.3-1.7-16.9-6.8-25-11.3C83.8,207.9,79.8,203.2,74,201z M91.8,186
			c-4.3,0.1-7.6,3.2-7.7,7.4c-0.1,4.1,4,8.4,8.2,8.5c4.3,0.1,7.7-3.4,7.7-8C100,189.2,96.6,185.9,91.8,186z"/>
		<path class="st5" d="M257,132c0,1,0,2,0,3c-0.3,0-0.7,0-1,0c-1.9,0-3.6-1.3-3.9-2.6c-1-5.4-5.4-8.7-7.9-13
			c-1.9-3.1-4.6-6.3-7.1-9.4c-1.8-2.4-3.4-5.1-7-5.1c-1.7-4.4-6.1-6-9.4-8.3c-8.6-5.8-18.3-10.9-28.5-12.1
			c-7.8-0.9-16.3-2.5-24.5,0.8c-2,0.8-6.6,3.4-7.1-2.6c-0.1-0.7-1.1-0.4-1.7-0.2c-2.3,0.8-4.7,1.6-7,2.4c0-0.8-0.1-1.6-0.2-2.4
			c8-2.3,15.7-5.4,24-6.8c10.4-1.8,20.9-2.4,31.4-1.1c2.6,0.3,5.3,0.3,7.9,0.4c4,2.5,8.9,2,13.1,4c0.5,0.3,0.9,0.6,1.4,0.9l0.3,0
			L230,80c0.2,1.9,1.3,3.3,2.3,4.9c2.7,3.9,5.4,7.8,7.7,11.9c5,8.8,9.4,17.9,12.9,27.4C253.9,126.7,253.7,130.5,257,132z"/>
		<path class="st6" d="M74,201c5.8,2.2,9.9,7,15.2,9.9c8,4.4,15.7,9.6,25,11.3c3.7,0.7,6.8,3.5,10.9,2.9c0,1.6,1.6,1.9,2.3,2.9
			c1.6,2.4,5.3,2.7,5.7,6.1c-6.2,6.5-7.8,14.4-7,23c-3.7,3.2-7.8,1.4-9-4c0.3-3.7,0.1-7.3-2.7-10.1c-3.5-3.5-7.7-5.9-12.2-8.1
			c-1.2-0.6-1,0.8-1.4,1.4c-2.8-2.9-2.5-7.2-4.7-10.5c-2.8-4-6-5-10.1-2.3c-0.2,0-0.4,0-0.6,0.1c-4.2-0.8-8.1,1.5-12.2,1.5
			c0.3-1.6,0.9-3.2,0.8-4.8c-0.2-2.5,1.7-5.6-1.7-7.3C71.8,208.9,72,204.8,74,201z"/>
		<path class="st7" d="M299.9,149c-1.2,0.5-2.5,0.9-3.7,1.4c-3,1.1-4.7,1.2-5.2-3c-0.6-5.3-0.8-11-4.8-15.3
			c-4.9-5.2-11.3-6.5-18.1-6.1c-4.7,0.3-5.4-1.2-4.5-5.8c1.2-6.3,5.5-8.5,10.6-10.3c2.6,1.8,5.5,1,8.2,0.9
			c15-0.1,17.9,4.1,18.7,17.8C301.3,135.5,300.8,142.3,299.9,149z"/>
		<path class="st6" d="M257,132c-3.3-1.5-3.1-5.3-4.1-7.8c-3.5-9.5-7.9-18.6-12.9-27.4c-2.3-4.1-5.1-8-7.7-11.9
			c-1-1.5-2.1-2.9-2.3-4.9c0.4-0.2,0.8-0.4,1.1-0.5c0.5,0,0.9,0,1.4-0.1c4.1,2.9,8.9,4.4,13.3,6.6c3.9,4,9.9,5.2,13.2,9.9
			c-2.2,5.9-1.9,12.2-0.4,17.9C260.4,120.4,258.5,126.1,257,132z"/>
		<path class="st7" d="M85.9,223.5c4.1-2.6,7.3-1.7,10.1,2.3c2.3,3.2,1.9,7.6,4.7,10.5c1,8.4,3.1,16.8-1.8,24.7
			c-1.3,0-2.3,0.6-2.9,1.8c-6.8-0.6-12.9-3.3-18.9-6.1c-1.6-0.7-3-2.1-5-1.7c-0.4-0.7-0.8-1.3-1.2-2c3.9-1.9,8.1-0.4,12-1.1
			c5-0.7,6.8-3.9,7.1-8.7C90.5,236.2,88.4,229.8,85.9,223.5z"/>
		<path class="st7" d="M101,156.1c-3.8-0.4-7.9-0.1-11.1-2.8c6.2,0.9,10.7-2.7,15.1-6.2c8.1-3.6,9.4-19.1,1.1-25.2
			c-0.2-2.1-1.7-3.3-3-4.7c2.3-0.5,4.8,0.4,6.8-1.2c0.1,0.1,0.2,0.3,0.3,0.3c8.1-0.4,11.1,4.8,12.6,11.6c0,2.6-0.1,5.3-0.1,7.9
			c-1.1,0.4-2.3,0.7-0.9,2.2c0,6.4-3.6,11.5-6.1,17C111,156.8,106,155.7,101,156.1z"/>
		<path class="st8" d="M103.2,117.2c1.3,1.4,2.8,2.6,3,4.7c-1.2,1.7-1.2,3.7-1.2,5.7c0,6.5,0,13,0,19.5c-4.4,3.5-8.9,7.1-15.1,6.2
			c-0.9-0.1-1.8-0.1-2.7-0.2c-0.1-0.4-0.1-0.7-0.2-1.1c2.1-1.5,2.5-3.6,3.2-6.1c2.3-8.6-1.3-17.3,0.8-25.8
			C94.5,116.9,98.7,116.5,103.2,117.2z"/>
		<path class="st9" d="M151.6,82.6c0.1,0.8,0.1,1.6,0.2,2.4c0,1,0,1.9,0,2.9c-0.1,0.9-0.1,1.8-0.2,2.7c-1.6,0.4-1.5,2-2,3.1
			c-3.8,7.3-10.5,8.4-16.6,2.8c-0.6-0.6-1.3-1-1.9-1.6c1-1.6,0.8-3.5,0.9-5.3c0.1-5.3,6.5-11.2,11.7-11.9
			C147.9,77.3,149.2,80.7,151.6,82.6z"/>
		<path class="st9" d="M301.4,209.1c-0.7-0.9-1.4-1.8-2.1-2.7c-5.6-6.8-4-12.5,4.8-17.7c0.3,0,0.7,0.1,1,0.2
			c0.1,0.5,0.1,1.1,0.4,1.4c6.4,5.2,8.8,13,12.7,19.8c1,1.2,2.5,2.3,1.1,4.2c-1-0.3-1-2.4-1.9-1.8
			C310.7,216.8,306.4,211.4,301.4,209.1z"/>
		<path class="st10" d="M91,120.1c-2.1,8.5,1.5,17.2-0.8,25.8c-0.7,2.5-1.1,4.6-3.2,6.1c-9.3-4.1-11.4-8.7-7.8-18.3
			C81.4,127.8,83.4,121.5,91,120.1z"/>
		<path class="st10" d="M318.1,210.1c-3.9-6.8-6.3-14.6-12.7-19.8c-0.3-0.3-0.3-0.9-0.4-1.4c2.7-1,5.4-2,8.1-2.9
			c1.3,0,2.6,0.1,4,0.1c6.2,0.3,8.4,2.5,7.9,8.6C324.4,200.6,322.9,206.1,318.1,210.1z"/>
		<path class="st10" d="M69,251.9c-5.1-2.4-8.4-6.7-11.3-11.3c-1.4-2.1-0.3-4.4,1.2-6.4c3-4.3,7.9-5.7,12.1-8.2
			c0.4,0.2,0.8,0.3,1.3,0.5c0.6,0.3,1.2,0.6,1.8,0.8c-4.1,4.7-1.4,10.3-1.9,15.5C71.8,246.2,72.1,249.5,69,251.9z"/>
		<path class="st8" d="M69,251.9c3.1-2.3,2.8-5.6,3.1-9c0.4-5.2-2.2-10.8,1.9-15.5c-0.6-0.3-1.2-0.6-1.8-0.8
			c0.3-0.4,0.6-0.9,0.8-1.3c4.1,0,8-2.3,12.2-1.5c-1.1,1.9-4.7,1.5-4.3,4.8c0.9,7.8-0.7,15.8,2,23.5c-4,0.8-8.2-0.8-12,1.1
			C70.3,252.6,69.6,252.2,69,251.9z"/>
		<path class="st8" d="M232.5,79.4c-0.5,0-0.9,0-1.4,0.1c-0.4-1.1-0.9-1.7-2.1-0.8c-0.3,0.1-0.7,0.3-1,0.4c-4.2-2-9.1-1.5-13.1-4
			c3.3-4.3,7.9-6.1,13.1-7c1.3,1.6,3.1,0.8,4.6,1c1,0.1,2.5,0.5,2.1,1.5C233.4,73.4,235.3,77,232.5,79.4z"/>
		<path class="st9" d="M232.5,79.4c2.8-2.4,0.9-6,2.2-8.9c0.4-1-1-1.4-2.1-1.5c-1.6-0.2-3.4,0.6-4.6-1c4-3.6,8-2.3,10.6,1.1
			c3.8,4.9,7.2,10.2,7.2,16.9C241.4,83.8,236.6,82.3,232.5,79.4z"/>
		<path class="st3" d="M313.1,186c-2.7,1-5.4,2-8.1,2.9c-0.3-0.1-0.6-0.2-1-0.2c-2.3-3.1-2-6.4-0.1-9.5c2.4-3.9,2.9-8,2.1-12.4
			c4.5,3.3,3.1,9.2,5.8,13.4C312.9,181.8,312.7,184.1,313.1,186z"/>
		<path class="st1" d="M166,314.9c3.4-3.2,13.1-2.6,16,1C176.6,316.6,171.3,315.3,166,314.9z"/>
		<path class="st1" d="M133,308.9c0-0.2,0-0.4,0.1-0.5c3.3-2.5,9-0.5,9.9,3.4C139.4,311.6,136,310.9,133,308.9z"/>
		<path class="st4" d="M73.1,225.1c-0.3,0.5-0.6,0.9-0.8,1.3c-0.4-0.2-0.8-0.3-1.3-0.5c0.4-4.3,0.8-8.6,1.2-13
			c3.5,1.7,1.5,4.8,1.7,7.3C74,221.9,73.4,223.5,73.1,225.1z"/>
		<path class="st1" d="M144,311.9c0.5-0.9,1.3-1.9,2.3-1.7c4.9,0.9,9.8,2,14.6,3.1c-3.6-0.1-7.3-0.1-10.9-0.2
			C148,312.6,146,312.2,144,311.9z"/>
		<path class="st11" d="M150,313c3.6,0.1,7.3,0.1,10.9,0.2c0,0.6,0.1,1.1,0.1,1.7C157.2,315.1,153.5,314.6,150,313z"/>
		<path class="st3" d="M303.5,158.3c-0.9,0.5-1.9,0.8-2.3-0.5c-0.3-1.2,0.6-1.6,1.6-1.8C303.1,156.8,303.3,157.5,303.5,158.3z"/>
		<path class="st3" d="M305.5,161.6c-3,0.4-2.5-1.2-1.7-3C304.3,159.6,304.9,160.6,305.5,161.6z"/>
		<path class="st3" d="M305.9,166c-0.7-0.1-1.4-0.2-1.4-1c0-0.8,0.8-0.9,1.4-1C305.9,164.7,305.9,165.3,305.9,166z"/>
		<path class="st3" d="M305.8,163c-0.1-0.5-0.3-0.9-0.4-1.4C305.6,162.1,305.7,162.5,305.8,163z"/>
		<path class="st1" d="M186,315.9c0.3-0.5,0.7-0.5,1,0c0,0-0.5,0.1-0.5,0.1L186,315.9z"/>
		<path class="st12" d="M264,221c-1.2,6.4-3.6,12.6-4,19.2c-8.4,6.2-14.1,13.4-9.8,24.6c-1.4,1.4-2.8,2.8-4.2,4.1
			c-1.6,0.4-3.3,0.4-4.8,1.1c-13.5,6.5-27.8,10.6-42.6,12.8c-3.3,0.5-6.5,1.3-9.8,1c-2.8-6.4-4-13.2-5.9-19.8
			c0.8-1.1,1.5-0.8,2.4,0.1c1.9,2,4.7,2.5,6.9,1.5c3.6-1.7,7.3-1.4,11.1-1.8c2.9-0.3,6.3-0.3,7.6-4.6c-5.7,1.1-10.7,1-13.8-4.4
			c2.2,0,3.8,2.2,6.1,1.8c8.3,3.1,15.3,0.2,21.9-4.7c3.4,0.3,6.2-0.2,8.5-3.6c1.2-1.7,2.9-3.8,5.6-4.5c6.4-1.8,8.6-5.4,8.2-12.5
			c-0.1-1.9,0.5-2.7,2.2-1.7c5.3,3.1,7.5-0.7,9.8-4.3C260.4,223.6,261.2,221.2,264,221z"/>
		<path class="st13" d="M263.8,239.7c3.6-5,10.8-6.4,15.5-3.1c1.6,1.1,3,2.3,4.5,3.5c3.8,6.9,8.8,13.1,11.6,20.6
			c2.4,6.5,1.7,9.2-4.7,12.4c-8.8,4.5-18,7.4-27.9,8c-4.3,0.2-6.5-1.7-7-5.8c1.7-1.9,4.2-2.1,6.3-2.2c5.5-0.2,9.7-3,13.8-5.9
			c3.1-2.2,4.4-11.3,2.1-14.3C274.2,247.7,269.5,243.2,263.8,239.7z"/>
		<path class="st7" d="M263.8,239.7c5.6,3.5,10.4,8,14.4,13.2c2.3,3,1,12.1-2.1,14.3c-4.2,2.9-8.4,5.7-13.8,5.9
			c-2.2,0.1-4.6,0.3-6.3,2.2c-3.4-2.6-3.2-7.3-5.7-10.4c-4.3-11.2,1.4-18.4,9.8-24.6C261.3,240.1,262.5,239.9,263.8,239.7z"/>
		<path class="st14" d="M133,234c-0.4-3.4-4.2-3.7-5.7-6.1c-0.7-1-2.3-1.3-2.3-2.9c6.3,0.8,12.5,2.7,19,2c0.3,0,0.7,0,1,0
			c2.7,1.5,5.3,1.5,8,0c9-1.7,18.2-0.3,27.4-4.3c9.1-4,18.4-7.8,27.2-12.6c2.5-1.3,4.8-3,5.4-6.1c4.9-2.1,10.7-2.3,15-6
			c3.7,0.3,5.8-2.9,8.8-4.3c4.9,3.5,6.6-2,9.3-3.7c3-1.9,3.5-5.2,2-8.9c-1.6-3.9-5.3-5-8.2-7.2l0,0c1,0,2.2,0.2,2.7-0.8
			c2.3-4.8,8.3-7.6,7.4-14.3c-0.2-1.7,0.9-3.8,2-5.4c3.9-5.7,3-12.3,3.8-18.5c0.3,0,0.7,0,1,0c3.2,9.5,5.2,19.2,7,29
			c-8,0-11.2,3.5-8.7,10.7c1.2,3.6,3,7.3,5.7,10.3c-3.7,1.2-2.4,5-3.7,7.5c-4.2,7.8-8.1,15.9-12.4,23.7c-0.4-0.2-1.1-0.3-1.3-0.6
			c-2.2-3.6-5.7-3.1-8.7-2.2c-3.4,1-4.3,4.1-3.9,7.6c0.1,1,0.1,2,0.1,2.9c-3.8,6-9.5,10.1-15.1,14.3c-4.5-0.3-9.1-2.6-13.5,0.5
			c-4.9-0.1-7,3.5-9,7c-0.2-0.2-0.4-0.5-0.7-0.7c-0.1-0.1-0.3,0-0.4,0c-1.1,1.2,0.5,3.4-1.6,4.6c-2.1-2.4-3.7-4.5-8-3.9
			c-11.6,1.7-22.9-1.1-34.1-3.8c-2.9-0.7-2.5,0.4-2.8,2.1c-0.4,2,1.5,4.8-1.9,5.9c0-2.5,0-4.9,0-7.4C144,234.4,140.8,231.9,133,234z
			"/>
		<path class="st15" d="M132,130c-1.8-2.1-6.5-2.6-4.3-7c1.8-3.6,7.8-5.7,11.6-4.3c0.9,0.3,1.8,0.9,2.7,1.3
			c3.1,3.6,6.2,7.2,9.2,10.8c1.8,2.1,1.6,5.5,4.2,7.1c1.8,1.1,3.7,2.6,5.8,1.1c2.2-1.6,2.3-3.9,1-6.1c-0.7-1.2-1.7-2.2,0.3-3.1
			c4.6,1.7,8.2,5.4,13.4,5.6c0.3,0.8,0.8,1.5,1.7,1.5c5.8-0.1,11.8,1.3,17.3-1.9c1,0.2,2.9-0.3,2.6,1.4c-0.9,4.9,2.2,7.2,5.7,9.2
			c1.8,1,3,2.7,3,4.3c0,5.1,3.8,9.2,3.8,14.3c-4.7,3.2-7.1,7.6-7.3,13.3c-1.1,0.5-1.7,1.3-1.5,2.6c-0.1,0.7-0.1,1.3-0.2,2
			c-0.3,0.3-0.7,0.7-1,1c-6.8-8.2-8.2-8.3-16.1-1.3c-0.2,0.2-0.6,0.1-0.9,0.2c-0.6-3.7-2.4-6.6-6-8c0-1.8-0.1-3.7,0-5.5
			c0.2-2.2-0.7-3.2-2.8-4c-5.7-2.2-7.8-1.3-9.1,5.3c-1,4.8-4.1,7.3-8,9.2c-4.6-1.2-3.6-6.5-6.5-8.9c-2.4-2-2.6-3.9-1.3-6.9
			c2.6-5.9,1.1-9.3-4.7-11.1c-4.4-1.4-5.8-4.6-5.4-8.4C139.9,137.3,137.7,132.8,132,130z"/>
		<path class="st8" d="M200.1,183c0.3-0.3,0.7-0.7,1-1c7.3-4,11.3-10.5,13.9-18.1c1.2-1.1,2.7-0.5,4-0.8c2.3,0.9,4.5,2,7.1,2
			c8.6,0.1,9.4,0.8,12.5,9c0,0,0.2-0.1,0.2-0.1c-0.3,2-0.7,3.9-1,5.9c-1.5,0.7-2.9,1.4-4.4,2c-7.8,3.7-9.4,8.5-5.4,16
			c-4.4,3.6-10.1,3.8-15,6c-1.7,0-3.3,0-5,0c-7.2,0-10-3.2-8.9-10.2c0.3-2,1-3.9,0.5-5.9c0-0.9,0-1.9,0-2.8
			C199.8,184.4,199.9,183.7,200.1,183z"/>
		<path class="st8" d="M175.9,135.4c-5.2-0.2-8.8-3.9-13.4-5.6c-3.8-6.6-2.5-13.6,3.6-19.8c0.3-0.3,0.5-0.6,0.8-0.9
			c0.3-0.4,0.7-0.8,1-1.1c5.6-4.6,9.7-11.1,17-13.7c6.6,8.4,8.2,17.6,4,27.4C186.3,127.7,183.1,133.5,175.9,135.4z"/>
		<path class="st11" d="M132,130c5.7,2.8,7.9,7.3,7.1,13.7c-0.5,3.7,1,7,5.4,8.4c5.8,1.8,7.3,5.2,4.7,11.1c-1.3,3-1.1,4.9,1.3,6.9
			c2.9,2.4,1.9,7.7,6.5,8.9c-4.1,5.8-10,5.3-15.9,4.5c-2.7-0.4-5.3-1.8-8.1-1.5c-4.1-2.2-3.7-6.6-5.1-10.2c-2.3-6.1-3.2-12.4-2-18.9
			c1.9-1,3.4-2.4,5.3-3.4c6.2-3,6.3-9.3,0.7-16.6C132,132,132,131,132,130z"/>
		<path class="st11" d="M219,163.1c-1.3,0.3-2.8-0.3-4,0.8c-1.6,0.1-3.3,0.2-4.9,0.3c0.1-5.1-3.7-9.1-3.8-14.3c0-1.6-1.3-3.3-3-4.3
			c-3.5-2-6.5-4.3-5.7-9.2c0.3-1.7-1.5-1.2-2.6-1.4c0-0.8,0.2-1.6,1-2c6.2,0.9,10.4-3.1,15-6c8.3,4.4,11.4,12.2,13.9,20.5
			c0.6,2.1-0.2,3.9-2.5,4.7c-0.6,0.2-1.2,0.4-1.9,0.7c-2.5,1-6.4-0.1-7.1,3.1c-0.7,3.3,3,4.2,5.2,5.7
			C218.9,161.9,218.9,162.6,219,163.1z"/>
		<path class="st7" d="M196,133c-0.8,0.4-1,1.2-1,2c-5.5,3.2-11.5,1.8-17.3,1.9c-0.9,0-1.4-0.7-1.7-1.5c7.1-1.9,10.4-7.6,13-13.7
			c4.2-9.8,2.6-19-4-27.4c1.1-1.9,3.2-2.3,4.9-3.1c4-1.9,6.5-0.9,8.1,3.3c1.5,4,2.3,8.2,2.1,12.6c0,1.7,0,3.3,0,5
			c-1.2,0.8-1,1.9-0.8,3.1C199.4,121.3,198.4,127.3,196,133z"/>
		<path class="st11" d="M166.2,110c-6.2,6.1-7.5,13.2-3.6,19.8c-2,0.9-1,1.9-0.3,3.1c1.3,2.3,1.2,4.6-1,6.1c-2.1,1.5-4,0-5.8-1.1
			c-2.6-1.6-2.4-4.9-4.2-7.1c-3.1-3.6-6.2-7.2-9.2-10.8c4.6-0.3,7.8-3.4,11.3-5.8C157.2,111.5,161.1,109.2,166.2,110z"/>
		<path class="st14" d="M132,133c5.7,7.3,5.6,13.6-0.7,16.6c-2,1-3.5,2.4-5.3,3.4c-3.6-0.6-6.4,3.1-10.1,2c2.5-5.5,6-10.6,6.1-17
			c0.9-0.5,1.1-1.3,0.9-2.2c0-2.6,0.1-5.3,0.1-7.9C127.1,127.6,128.4,132.3,132,133z"/>
		<path class="st14" d="M196,133c2.4-5.7,3.4-11.7,3.2-17.9c1.9-0.6,2.3-1.6,0.8-3.1c0-1.7,0-3.3,0-5c7.7,2.1,12.9,8,13,14.1
			c0.1,2.3-0.8,4.1-2.1,5.9C206.4,129.9,202.1,133.9,196,133z"/>
		<path class="st7" d="M230,104.9c3.6-0.1,5.2,2.7,7,5.1c-0.2,2.6,0.4,5.1-1.8,7.4c-2.5,2.6-5.2,3.4-8.4,2c-3.9-1.7-5.1-4.9-4.8-8.9
			c0.3-3.7,3-4.8,6-5.4C228.7,104.9,229.4,105,230,104.9z"/>
		<path class="st5" d="M151.6,90.6c0.1-0.9,0.1-1.8,0.2-2.7c1.2,0.8,1.5,1.9,0.8,3.1C152.6,91,152,90.7,151.6,90.6z"/>
		<path class="st14" d="M238.6,174.2c0.3-0.4,0.6-0.9,0.9-1.3c0.2,0.4,0.3,0.8,0.5,1.1c0,0,0,0,0,0c-0.4,0-0.8,0.1-1.2,0.1
			L238.6,174.2z"/>
		<path class="st11" d="M168,108c-0.3,0.4-0.6,0.8-1,1.1C167.3,108.7,167.6,108.4,168,108z"/>
		<path class="st12" d="M96,262.8c0.6-1.2,1.6-1.7,2.9-1.8c7.3,0.1,12.8-3.7,18.1-8c1.2,5.4,5.4,7.2,9,4c2.4,1.2,3.3,5,7,4.1
			c0.1,0.8,0.3,1.6,1.3,1.7c1.3,0.2,1.6-0.8,1.7-1.8c1.6-0.4,3.3-0.8,4.9-1.2c0.1,4.9,4.5,5.4,7.6,7.1c1.6,0.9,4.1,0.3,4.5,3.1
			c-2.7,4.1-5.5,8.2-8.2,12.2c-15.8-0.8-30-6.7-44-13.5C98.5,267.7,95.4,266.5,96,262.8z"/>
		<path class="st7" d="M182.9,264.1c2,6.6,3.2,13.4,5.9,19.8c0,0.3,0,0.7,0,1c0.4,16.2,0.4,16.3-15.7,15c-5-0.4-10-1.2-14.3-4.4
			c2.6-1.1,5.7,0.5,8.2-1.4c5.1,0,8.4-2.7,10.1-7.3c1.9-5.1,0.8-10-1.5-14.8c-2.5-5.3-7.6-7.6-11.7-11.1c0.2-1.8,1.7-2.3,3.1-2.8
			C173.4,255.6,176.2,256.7,182.9,264.1z"/>
		<path class="st10" d="M167.1,294.1c-2.5,1.9-5.6,0.3-8.2,1.4c-3.6-0.5-6.9-1.9-10.2-3.5c-4.5-2.2-5.6-5.3-3.8-9.7
			c2.7-4.1,5.5-8.2,8.2-12.2c3.2-2,4.6-6,8.5-7.3c3.6,1.4-0.3,3.2,0.3,5.1c1.6,5.7,1.6,11.8,1.1,17.7
			C162.6,289.5,163.6,292.3,167.1,294.1z"/>
		<path class="st6" d="M244.9,216.2c4.3-7.8,8.2-15.8,12.4-23.7c1.3-2.5,0-6.3,3.7-7.5c1.5,1.1,3.5,1.8,4,4c1.3,2.9,3.4,5.7,1,9
			c-2.2-0.3-3.7-3.8-6-2.1c-1.9,1.4-2.2,4.3-2,6.9c0.4,4.5,3.7,4.3,7,4.3c0.3,4.7-1.7,9.3-1,14c-2.8,0.2-3.5,2.6-4.8,4.5
			c-2.3,3.5-4.5,7.3-9.8,4.3c-1.7-1-2.3-0.3-2.2,1.7c0.4,7.1-1.8,10.7-8.2,12.5c-2.7,0.7-4.4,2.8-5.6,4.5c-2.3,3.4-5,3.8-8.5,3.6
			c1-3,1.6-6.3-0.9-8.7c-2.3-2.1-5.4-3.5-8.1-5.2c5.6-4.2,11.2-8.2,15.1-14.3c0.7,0.4,1.3,0.8,2,1.2c0.3,0.3,0.6,0.6,0.9,0.9
			C241.5,228.8,245.2,225.4,244.9,216.2z"/>
		<path class="st13" d="M265,189c-0.5-2.1-2.5-2.8-4-4c-2.7-3-4.5-6.7-5.7-10.3c-2.4-7.1,0.8-10.7,8.7-10.7
			c6.3,2.6,10.8,7.1,13.7,13.3c3,6.3-2.5,12.6-8.8,12.1C267.6,189.3,266.3,189.1,265,189z"/>
		<path class="st14" d="M265,207c-3.2,0.1-6.6,0.2-7-4.3c-0.2-2.5,0.1-5.4,2-6.9c2.3-1.7,3.8,1.8,6,2.1
			C265.8,201,266.7,204.2,265,207z"/>
		<path class="st2" d="M115.9,155c3.7,1.1,6.5-2.6,10.1-2c-1.3,6.5-0.3,12.8,2,18.9c1.3,3.6,1,8,5.1,10.2c0.3,2.3,0.6,4.6,0.9,7
			c-1.6,1.7-1.1,2.6,1.1,3c5.1,2.8,10.3,5.4,15.8,7.4c7.2,2.7,14.3,2.1,18.1-2.5c0.5,0.3,1.2,1,1.6,0.9c7.7-1.7,12.4-7.7,12.5-15.9
			c0.3-0.1,0.7,0,0.9-0.2c7.9-7,9.3-6.9,16.1,1.3c-0.2,0.7-0.3,1.4-0.5,2.1c-0.8,0.9-0.8,1.9,0,2.8c0.6,2-0.2,3.9-0.5,5.9
			c-1.1,7.1,1.7,10.3,8.9,10.2c1.7,0,3.3,0,5,0c-0.5,3.1-2.9,4.8-5.4,6.1c-8.8,4.8-18.1,8.5-27.2,12.6c-9.2,4.1-18.4,2.6-27.4,4.3
			c-2.7-1.6-5.3-1.6-8,0c-0.3,0-0.7,0-1,0c-0.9-1.8-2.2-2.9-4.2-3.2c-7.7-1.3-12.4-6.3-15.8-12.9c-1.5-2.9-4.9-3.8-6.8-6.5
			c-8.9-12.5-12.5-26.8-14.7-41.7c-0.2-1.3-1.2-6.4-1.5-6.8C106,155.7,111,156.8,115.9,155z"/>
		<path class="st7" d="M91.8,186c4.8-0.1,8.1,3.2,8.2,7.9c0.1,4.6-3.3,8.1-7.7,8c-4.2-0.1-8.3-4.3-8.2-8.5
			C84.3,189.2,87.5,186.1,91.8,186z"/>
		<path class="st9" d="M229,78.6c1.1-0.9,1.7-0.3,2.1,0.8c-0.4,0.2-0.8,0.4-1.1,0.6c0,0-0.3-0.1-0.3-0.1s-0.3,0-0.3,0
			C229.3,79.5,229.2,79.1,229,78.6z"/>
		<path class="st6" d="M229,78.6c0.1,0.4,0.2,0.9,0.3,1.3c-0.5-0.3-0.9-0.6-1.4-0.9C228.4,78.9,228.7,78.8,229,78.6z"/>
		<path class="st13" d="M140.9,259.9c-1.6,0.4-3.3,0.8-4.9,1.2c-1,0-2,0-3,0c-3.6,0.9-4.5-2.9-7-4.1c-0.9-8.6,0.7-16.5,7-23
			c7.8-2,11,0.5,11,8.6c0,2.5,0,4.9,0,7.4C144.9,253.9,140.6,256.1,140.9,259.9z"/>
		<path class="st3" d="M117,253c-5.3,4.3-10.8,8.1-18.1,8c4.9-7.9,2.8-16.4,1.8-24.7c0.4-0.6,0.2-2,1.4-1.4
			c4.4,2.1,8.7,4.6,12.2,8.1C117.1,245.7,117.3,249.3,117,253z"/>
		<path class="st9" d="M83,251.9c-2.6-7.7-1.1-15.7-2-23.5c-0.4-3.3,3.2-2.9,4.3-4.8c0.2-0.1,0.4-0.2,0.6-0.1
			c2.4,6.4,4.6,12.7,4.1,19.8C89.7,248,88,251.2,83,251.9z"/>
		<path class="st9" d="M105,147c0-6.5,0-13,0-19.5c0-2,0-3.9,1.2-5.7C114.4,127.9,113.2,143.5,105,147z"/>
		<path class="st2" d="M122.8,135.8c0.2,0.9,0,1.7-0.9,2.2C120.5,136.6,121.7,136.2,122.8,135.8z"/>
		<path class="st6" d="M140.9,259.9c-0.3-3.7,3.9-6,3.1-9.9c3.4-1.1,1.5-3.9,1.9-5.9c0.3-1.7-0.2-2.8,2.8-2.1
			c11.2,2.7,22.5,5.5,34.1,3.8c4.2-0.6,5.9,1.5,8,3.9c2.1-1.2,0.5-3.3,1.6-4.6c0.1-0.1,0.3-0.1,0.4,0c0.2,0.2,0.5,0.4,0.7,0.7
			c0.3,3.4,0.8,6.7,3.5,9.2c3.1,5.5,8.1,5.5,13.8,4.4c-1.3,4.2-4.7,4.3-7.6,4.6c-3.8,0.3-7.5,0.1-11.1,1.8c-2.2,1-4.9,0.6-6.9-1.5
			c-0.8-0.9-1.5-1.2-2.4-0.1c-6.7-7.5-9.4-8.6-15.8-6c-1.4,0.5-2.9,1-3.1,2.8c-1.2,0.1-2,0.7-2.4,1.9c-3.9,1.2-5.3,5.2-8.5,7.3
			c-0.3-2.7-2.9-2.2-4.5-3.1C145.4,265.3,141.1,264.8,140.9,259.9z"/>
		<path class="st10" d="M197,254.9c-2.7-2.5-3.2-5.8-3.5-9.2c2.1-3.6,4.1-7.1,9-7c3.5,0.2,6.9,0.3,9.8,0.5c-1.1,4.9,2.7,10.2-0.7,15
			c-0.6,0.8,2.1,0.3,2.4,1.7c-3.6,0.8-7.3-0.6-10.8,0.9C200.8,257.1,199.2,254.9,197,254.9z"/>
		<path class="st9" d="M203.1,256.7c3.5-1.5,7.2-0.1,10.8-0.9c-0.2-1.4-2.9-0.9-2.4-1.7c3.4-4.8-0.4-10.1,0.7-15
			c-2.9-0.1-6.3-0.3-9.8-0.5c4.4-3.2,9-0.9,13.5-0.5c2.7,1.7,5.8,3.1,8.1,5.2c2.5,2.3,1.9,5.6,0.9,8.7
			C218.4,256.9,211.4,259.7,203.1,256.7z"/>
		<path class="st7" d="M244.9,216.2c0.3,9.3-3.4,12.6-11,9.8c-0.3-0.3-0.6-0.6-0.9-0.9c-0.7-0.4-1.3-0.8-2-1.2c0-1,0-2-0.1-2.9
			c-0.4-3.4,0.5-6.5,3.9-7.6c3-0.9,6.5-1.4,8.7,2.2C243.8,215.9,244.5,216,244.9,216.2z"/>
		<path class="st9" d="M228,198c-4-7.5-2.4-12.3,5.4-16c1.5-0.7,2.9-1.4,4.4-2c1.6,3.1,0.6,6.4,0.7,9.5c-1,0.5-1.5,1.4-1.3,2.5
			c-0.2,0.6-0.3,1.1-0.5,1.7C233.8,195.1,231.7,198.3,228,198z"/>
		<path class="st4" d="M236.8,193.8c0.2-0.6,0.3-1.1,0.5-1.7c1.5-0.3,1.8-1.2,1.3-2.5c-0.1-3.2,0.9-6.5-0.7-9.5c0.3-2,0.7-3.9,1-5.9
			c0.4,0,0.8-0.1,1.2-0.1c2.9,2.2,6.6,3.2,8.2,7.2c1.5,3.7,1,7-2,8.9C243.4,191.8,241.7,197.2,236.8,193.8z"/>
		<path class="st5" d="M145,227c2.7-1.6,5.3-1.6,8,0C150.3,228.5,147.7,228.5,145,227z"/>
		<path class="st7" d="M134,189c-0.3-2.3-0.6-4.6-0.9-7c2.9-0.3,5.4,1.1,8.1,1.5c5.9,0.8,11.8,1.3,15.9-4.5c4-1.9,7.1-4.5,8-9.2
			c1.3-6.5,3.4-7.5,9.1-5.3c2,0.8,3,1.8,2.8,4c-0.1,1.8,0,3.7,0,5.5c-1.2,8.2-3.7,15.9-8.1,22.9c-3.8,4.6-10.9,5.1-18.1,2.5
			c-5.5-2-10.7-4.6-15.8-7.4C135,190.9,135.2,189.7,134,189z"/>
		<path class="st5" d="M168.9,196.9c4.4-7.1,6.9-14.8,8.1-22.9c3.7,1.4,5.4,4.3,6,8c0,8.1-4.8,14.2-12.5,15.9
			C170.1,197.9,169.5,197.2,168.9,196.9z"/>
		<path class="st10" d="M210,164.2c1.6-0.1,3.3-0.2,4.9-0.3c-2.6,7.6-6.6,14.1-13.9,18.1c0.1-0.7,0.1-1.3,0.2-2
			c1.5-0.2,1.8-1.2,1.5-2.6C202.9,171.8,205.4,167.4,210,164.2z"/>
		<path class="st8" d="M202.8,177.4c0.3,1.3,0,2.3-1.5,2.6C201.1,178.8,201.6,177.9,202.8,177.4z"/>
		<path class="st15" d="M199.6,187.9c-0.8-0.9-0.8-1.9,0-2.8C199.6,186,199.6,187,199.6,187.9z"/>
		<path class="st2" d="M200,112c1.5,1.5,1.1,2.5-0.8,3.1C199,113.9,198.8,112.8,200,112z"/>
		<path class="st6" d="M133,261.1c1,0,2,0,3,0c-0.2,1-0.4,1.9-1.7,1.8C133.3,262.7,133.1,261.9,133,261.1z"/>
		<path class="st8" d="M161.5,262.8c0.4-1.1,1.2-1.8,2.4-1.9c4.1,3.4,9.2,5.8,11.7,11.1c2.3,4.8,3.4,9.7,1.5,14.8
			c-1.7,4.6-5,7.3-10.1,7.3c-3.5-1.8-4.4-4.6-4.1-8.5c0.5-5.9,0.5-12-1.1-17.7C161.3,266,165.1,264.2,161.5,262.8z"/>
		<path class="st14" d="M233,225.1c0.3,0.3,0.6,0.6,0.9,0.9C233.6,225.7,233.3,225.4,233,225.1z"/>
		<path class="st11" d="M134,189c1.2,0.7,1,1.9,1.1,3C132.9,191.6,132.4,190.7,134,189z"/>
		<path class="st2" d="M238.5,189.5c0.5,1.3,0.2,2.2-1.3,2.5C237.1,190.9,237.5,190.1,238.5,189.5z"/>
	</g>
</g>
</svg>
