<?xml version="1.0" encoding="utf-8"?>
<!-- Generator: Adobe Illustrator 21.1.0, SVG Export Plug-In . SVG Version: 6.00 Build 0)  -->
<svg version="1.1" id="Layer_1" xmlns="http://www.w3.org/2000/svg" xmlns:xlink="http://www.w3.org/1999/xlink" x="0px" y="0px"
	 viewBox="0 0 380 380" style="enable-background:new 0 0 380 380;" xml:space="preserve">
<style type="text/css">
	.st0{fill:#FEFEFE;}
	.st1{fill:#3C241A;}
	.st2{fill:#45281E;}
	.st3{fill:#44281D;}
	.st4{fill:#553224;}
	.st5{fill:#563325;}
	.st6{fill:#482C20;}
	.st7{fill:#4D3124;}
	.st8{fill:#5B3626;}
	.st9{fill:#5A3626;}
	.st10{fill:#5B3727;}
	.st11{fill:#46291E;}
	.st12{fill:#F3CA65;}
	.st13{fill:#F3C558;}
</style>
<g>
	<g>
		<path class="st0" d="M1,190.5C1,128.7,1,66.8,0.9,5c0-3.4,0.7-4.1,4.1-4.1C129,1,253,1,377,0.9c3.4,0,4.1,0.7,4.1,4.1
			c-0.1,124-0.1,248,0,372c0,3.4-0.7,4.1-4.1,4.1c-124-0.1-248-0.1-372,0c-3.4,0-4.1-0.7-4.1-4.1C1,314.8,1,252.7,1,190.5z
			 M106.2,277c-0.2,0.7,0.1,0.9,0.8,0.8c5.6,4.1,11.2,8.2,16.8,12.3c2.8,4.5,6.9,5.1,11.5,1.4c9.5-7.5,19.2-14.9,29.1-21.8
			c12.4-8.6,24.4-17.7,36.7-26.4c9.9-7,19.4-14.5,29.2-21.6c12.6-9.1,25.1-18.2,37.7-27.3c16.7-12,33.3-24.3,50-36.4
			c7.2-5.2,7.3-5,0.4-10.9c-7.8-6.7-15.6-13.4-23.5-20.2c-0.4-0.5-0.7-1.2-1.3-1.5c-17.3-11.3-34.7-22.3-51.8-33.9
			c-4.9-3.3-8.5-3-12.9,0.1c-9.2,6.5-18.6,12.8-27.9,19.2c-1.5,1-2.5,2.1-2.3,4.1c-3.4,2.7-3.6,7.1-5.8,10.5
			c-2.8,4.4-3.6,10.5-10,11.8c-1.8,0.3-3.5,0.2-5.1-1c-4.3-3.3-7.7-3.1-11.9,0c-3.1,2.3-6.4,4.4-9.6,6.6
			c-6.9,4.8-14.2,9.2-20.7,14.6c-1.1,0.4-2,1.2-2.4,2.3c-3.7,9.3-7.4,18.5-15.4,25c-2.5,0.8-3.9-1.2-5.6-2.4c-6.7-5-9-4.8-15.4,1
			c-0.6,0.5-1.2,1.1-1.9,1.5c-8.4,5.7-16.6,11.5-24.2,18.2c-0.7-0.1-1.3,0-1.6,0.7L69,204l-0.1,0.4c-1.7,0.1-2.1,1.5-2.4,2.7
			c-1.8,7.6-3.9,15.2-5.3,22.9c-0.6,3.7-2.9,7-2.2,11l-0.1,0.1L59,241c3.2,2.5,6.2,5.4,10,7.1c3.5,4.6,8.7,7.2,13.2,10.5
			c7.9,5.9,15,12.8,23.8,17.5C106,276.4,106.1,276.7,106.2,277z"/>
		<path class="st1" d="M295,127c7.8,6.7,15.7,13.4,23.5,20.2c6.9,5.9,6.7,5.8-0.4,10.9c-16.7,12-33.3,24.4-50,36.4
			c-12.6,9-25.1,18.2-37.7,27.3c-9.8,7.1-19.3,14.6-29.2,21.6c-12.3,8.7-24.4,17.8-36.7,26.4c-9.9,6.9-19.6,14.2-29.1,21.8
			c-4.6,3.7-8.7,3-11.5-1.4c5.3-0.3,3.1-4.3,3-6.8c-0.8-11.8-3-23.4-2.8-35.3c1.4-0.9,2.8-1.7,4.1-2.7c9.2-6.2,17.8-13.4,27.8-18.4
			c4.3,1.1,8.2,3.1,12.6,3.9c10.9,1.9,18.5-1.6,21.1-10.6c1.7-5.9,2.8-12,2.3-18.2c3.2-2.3,6.2-4.9,9.6-7c7.8-4.9,14.2-11.8,22.4-16
			c3.6-0.3,7,0.5,10.2,1.7c3.4,1.2,6.8,1.7,10.3,1.3c6.4-0.7,12.7-3.9,12.5-12.5c-0.1-5.2,0-10.3,0-15.5
			C269.7,145,282.3,136,295,127z"/>
		<path class="st2" d="M192,202c0.5,6.2-0.6,12.3-2.3,18.2c-2.6,9.1-10.3,12.5-21.1,10.6c-4.4-0.8-8.4-2.8-12.6-3.9
			c1.1-4.2,2.5-8.5-1.8-11.9c-8.1-6.3-16.4-12.3-24.2-18.9c-4.2-3.5-10.1-5.4-12-11.3c8-6.6,11.7-15.8,15.4-25
			c0.4-1.1,1.3-1.9,2.4-2.4c0.8,2.1,2.5,3.5,4.2,4.8c11.7,9.2,23.4,18.5,35.4,27.4C180.9,193.8,185.9,198.7,192,202z M132.1,182
			c-1.3,0-2.8-0.1-3.5,1.3c-0.8,1.4,0.6,2.1,1.1,3c1.5,2.9,4,4.9,6.3,7c11.4,9.7,22.6,19.7,36.2,26.4c2.3,1.1,4.8,2.3,6.3,0.4
			c1.7-2-1.2-3.5-2.5-4.7c-12.8-11.8-26.6-22.3-40.5-32.6C134.3,182.2,133.3,182,132.1,182z"/>
		<path class="st3" d="M257,154c0,5.2-0.1,10.3,0,15.5c0.2,8.5-6.1,11.8-12.5,12.5c-3.5,0.4-6.9-0.1-10.3-1.3
			c-3.3-1.2-6.7-2-10.2-1.7c2.8-3.7,2.9-6.5-1.5-9.4c-6.2-4.1-11.9-8.9-17.8-13.4c-7.8-5.8-15.2-12.1-23.6-17
			c0.9-0.3,1.9-0.7,1.9-1.9c6.4-1.4,7.2-7.4,10-11.8c2.2-3.4,2.4-7.8,5.8-10.5c1.8-1.2,3.5-0.5,5.1,0.6c7.7,5.7,15.4,11.4,23.2,17.1
			C237.1,139.8,247,146.9,257,154z M243.9,169.7c-0.9-1-1.8-2.1-2.9-3.2c-10.7-11.1-23.9-19.3-35.6-29.2c-1.8-1.5-3.9-3-6.5-3.4
			c-1.9-0.3-4.1-1.5-5.4,0.7c-1.3,2.2,1,3.2,2.2,4.4c7.5,7.7,15.9,14.6,24.4,21.1c6.1,4.7,12.5,9.2,20.1,11.3
			C241.7,172,243.5,172.7,243.9,169.7z"/>
		<path class="st4" d="M117.9,184.9c1.9,6,7.8,7.8,12,11.3c7.8,6.6,16.2,12.6,24.2,18.9c4.3,3.4,2.9,7.6,1.8,11.9
			c-10,5-18.6,12.2-27.8,18.4c-1.4,0.9-2.8,1.8-4.1,2.7c-0.6-0.2-1.4-0.2-1.9-0.6c-8.3-6.2-16.7-12.4-25-18.8
			c-7.9-6.2-16.5-11.7-23.9-18.6c-1.8-1.7-4.9-2.1-4.4-5.6L69,204c0,0,0.4-0.1,0.4-0.1c0.5-0.2,1.1-0.5,1.6-0.7
			c7.6-6.7,15.8-12.5,24.2-18.2c0.7-0.5,1.3-1,1.9-1.5c6.4-5.8,8.6-6,15.4-1C114.1,183.7,115.4,185.6,117.9,184.9z M123.9,239.1
			c5.6-0.9,10-3.7,13.3-8.4c1.9-2.8,2.1-4.7-0.3-7.4c-8-9.1-17.9-15.7-27.6-22.5c-2.2-1.5-5.1-2.8-8-1c-4.2,2.6-8.5,5.2-12.6,8
			c-3.2,2.1-3.5,4.4-0.4,7.2c8.9,7.7,18.3,14.8,28.2,21.2C118.7,237.6,120.8,239.7,123.9,239.1z M105,187.9c-1.1,0.2-2.5,0-3.4,0.5
			c-7.9,5.3-15.8,10.7-23.6,16.2c-1.1,0.8-2.7,2.1-1.3,3.7c1.2,1.4,2.8,0.6,4-0.4c5.2-4.6,11.5-7.7,16.7-12.4
			c6.2-5.7,8.1-5.7,13.8-0.7c9.1,8,19.3,14.3,28.5,22.2c1.3,1.1,2.7,2,4,3c1.3,1,2.8,1.7,4,0.3c1.1-1.3-0.2-2.4-1.1-3.4
			c-0.5-0.5-0.9-1-1.5-1.3c-11.6-8.7-23.3-17.3-34.9-26.1C108.4,188.2,106.8,187.9,105,187.9z"/>
		<path class="st4" d="M183,137.3c0,1.3-1,1.6-1.9,1.9c8.4,4.9,15.8,11.2,23.6,17c6,4.4,11.6,9.2,17.8,13.4c4.3,2.9,4.3,5.7,1.5,9.4
			c-8.3,4.2-14.6,11.1-22.4,16c-3.3,2.1-6.4,4.6-9.6,7c-6.1-3.3-11.1-8.2-16.7-12.3c-12-8.9-23.6-18.2-35.4-27.4
			c-1.7-1.3-3.4-2.7-4.2-4.8c6.5-5.4,13.7-9.7,20.7-14.6c3.2-2.2,6.5-4.3,9.6-6.6c4.2-3.2,7.6-3.3,11.9,0
			C179.5,137.5,181.2,137.6,183,137.3z M190.3,190.3c7.9-1.2,12.8-4.5,16-10.2c1.3-2.3,0.3-4-1.4-5.7c-7.5-8.1-16.3-14.6-25.2-21
			c-5.1-3.7-10.1-4.4-15.3,0.1c-2.2,2-5,3.2-7.4,4.9c-3.2,2.2-3.9,4.4-0.6,7.5c8.7,8.3,18.4,15.1,28.4,21.6
			C186.7,188.9,188.9,190.8,190.3,190.3z M216.9,172.4c0.1-1.7-0.8-2-1.7-2.5c-1.9-1.1-3.6-2.3-5.3-3.6
			c-11.1-8.4-22.1-16.8-33.2-25.1c-2.6-1.9-5.3-1.8-8.2,0.3c-7.4,5.5-15.3,10.5-22.5,16.3c-1.2,0.9-2.4,1.5-1.7,3
			c1,2.2,2.5,0.7,3.8,0.1c0.7-0.3,1.3-1,2-1.5c6.5-4.6,13-9,19.3-13.7c2.5-1.9,4.5-2.2,7.1-0.1c4.9,3.9,10,7.6,15.1,11.4
			c7.1,5.4,14.2,10.8,21.3,16.2c1,0.8,2.2,1,3.3,0.4C216.5,173.4,216.8,172.6,216.9,172.4z"/>
		<path class="st5" d="M257,154c-10-7.1-19.9-14.2-29.9-21.4c-7.8-5.6-15.5-11.4-23.2-17.1c-1.6-1.1-3.2-1.8-5.1-0.6
			c-0.3-1.9,0.8-3.1,2.3-4.1c9.3-6.4,18.7-12.7,27.9-19.2c4.4-3.1,8.1-3.5,12.9-0.1c17.1,11.6,34.5,22.7,51.8,33.9
			c0.5,0.3,0.8,1,1.3,1.5C282.3,136,269.7,145,257,154z M255.6,144c5.9-1.1,10.5-3.7,13.8-8.8c1.7-2.5,1.9-4.2-0.1-6.5
			c-7.8-9-17.5-15.5-27.4-22c-2.3-1.5-5.4-4.4-8.1-2.3c-4.1,3.1-9.3,4.5-13,8.2c-2.9,2.8-3.4,4.8-0.1,7.7
			c9.5,8.5,19.6,16.3,30.9,22.4C252.8,143.3,254.3,143.6,255.6,144z M237.2,95c-1.2,0-2.3,0-3.4,0.7c-7.7,5.3-15.4,10.6-23,16
			c-1.5,1-4.2,2.2-2.2,4.5c1.5,1.7,3.4-0.2,4.8-1.2c6.4-4.5,12.8-8.9,18.9-13.7c3.6-2.9,6.3-2.2,9.7,0.2c12.4,9.1,25,18,37.5,27
			c1,0.7,1.7,1.8,2.8,0.4c1-1.3,0.7-2.6-0.6-3.4c-2.3-1.6-5-2.7-7-4.5c-9-8.5-20.3-13.9-29.8-21.8C242.8,97.4,240.6,94.8,237.2,95z"
			/>
		<path class="st6" d="M68.8,204.4c-0.5,3.5,2.6,3.9,4.4,5.6c7.4,6.9,15.9,12.4,23.9,18.6c8.2,6.4,16.6,12.6,25,18.8
			c0.5,0.4,1.2,0.4,1.9,0.6c-0.2,11.9,2,23.5,2.8,35.3c0.2,2.4,2.3,6.4-3,6.8c-5.6-4.1-11.2-8.2-16.8-12.3c-0.3-0.3-0.5-0.5-0.8-0.8
			c-0.1-0.3-0.2-0.6-0.3-0.9c0.8-1.9,4,0.4,4.2-2.5c6.3,2.4,7.7,1.5,8-5.5c0.1-3,0-5.9-0.1-8.9c-0.1-2.6,0.1-5.4-2.5-7
			c-0.2-0.4-0.3-1-0.6-1.3c-12.4-11.2-26.3-20.4-40.4-29.3c-2.1-1.3-3.6-0.7-4.6,1.9c-1.7,4.7-3.3,9.4-2.9,14.5
			c0.1,0.9,0.1,1.8,0.2,2.7c-0.1,2.6,2.8,4.6,1.8,7.4c-3.8-1.7-6.8-4.6-10-7.1l-0.1,0c-0.7-3.9,1.6-7.3,2.2-11
			c1.3-7.7,3.4-15.3,5.3-22.9C66.7,205.9,67.2,204.5,68.8,204.4z"/>
		<path class="st7" d="M69,248.1c1-2.9-1.9-4.8-1.8-7.4c2.7,2.4,5.3,4.9,8,7.3c10.8,9.7,22.9,17.6,35,25.6c-0.1,2.9-3.4,0.6-4.2,2.5
			c-8.7-4.7-15.9-11.6-23.8-17.5C77.7,255.3,72.5,252.7,69,248.1z"/>
		<path class="st6" d="M71,203.1c-0.5,0.2-1.1,0.5-1.6,0.7C69.7,203.1,70.3,203,71,203.1z"/>
		<path class="st6" d="M59,241l-0.1,0.1C58.9,241.1,58.9,241,59,241C58.9,241,59,241,59,241z"/>
		<path class="st7" d="M106.2,277c0.3,0.3,0.5,0.5,0.8,0.8C106.3,277.9,106.1,277.7,106.2,277z"/>
		<path class="st8" d="M132.1,182c1.2,0,2.3,0.1,3.3,0.9c14,10.3,27.8,20.8,40.5,32.6c1.3,1.2,4.1,2.7,2.5,4.7
			c-1.5,1.8-4,0.7-6.3-0.4c-13.6-6.7-24.8-16.7-36.2-26.4c-2.4-2-4.8-4.1-6.3-7c-0.5-1-1.8-1.7-1.1-3
			C129.3,181.9,130.8,182,132.1,182z"/>
		<path class="st9" d="M243.9,169.7c-0.4,3-2.2,2.3-3.8,1.8c-7.7-2.1-14-6.6-20.1-11.3c-8.5-6.6-16.8-13.4-24.4-21.1
			c-1.2-1.2-3.5-2.3-2.2-4.4c1.3-2.2,3.5-1,5.4-0.7c2.6,0.4,4.7,1.9,6.5,3.4c11.8,9.9,24.9,18.1,35.6,29.2
			C242.1,167.6,243,168.7,243.9,169.7z"/>
		<path class="st10" d="M123.9,239.1c-3.1,0.6-5.2-1.5-7.3-2.9c-9.9-6.4-19.3-13.5-28.2-21.2c-3.1-2.7-2.8-5,0.4-7.2
			c4.1-2.8,8.4-5.3,12.6-8c2.9-1.8,5.8-0.5,8,1c9.7,6.8,19.7,13.4,27.6,22.5c2.4,2.7,2.2,4.6,0.3,7.4
			C133.9,235.4,129.5,238.2,123.9,239.1z"/>
		<path class="st11" d="M105,187.9c1.9,0,3.5,0.4,5.1,1.6c11.6,8.8,23.2,17.4,34.9,26.1c0.5,0.4,1,0.9,1.5,1.3
			c0.9,1,2.2,2.1,1.1,3.4c-1.2,1.4-2.7,0.7-4-0.3c-1.3-1-2.7-1.9-4-3c-9.1-7.9-19.4-14.2-28.5-22.2c-5.8-5.1-7.6-5-13.8,0.7
			c-5.2,4.7-11.5,7.8-16.7,12.4c-1.2,1.1-2.8,1.8-4,0.4c-1.3-1.6,0.2-2.9,1.3-3.7c7.8-5.5,15.7-10.9,23.6-16.2
			C102.4,187.8,103.8,188,105,187.9z"/>
		<path class="st8" d="M190.3,190.3c-1.4,0.4-3.6-1.4-5.5-2.7c-10-6.5-19.7-13.3-28.4-21.6c-3.3-3.2-2.5-5.3,0.6-7.5
			c2.4-1.7,5.2-3,7.4-4.9c5.2-4.6,10.2-3.8,15.3-0.1c8.9,6.4,17.7,12.9,25.2,21c1.6,1.8,2.7,3.4,1.4,5.7
			C203.1,185.9,198.3,189.2,190.3,190.3z"/>
		<path class="st11" d="M216.9,172.4c-0.1,0.2-0.3,0.9-0.8,1.2c-1.1,0.6-2.2,0.4-3.3-0.4c-7.1-5.4-14.2-10.8-21.3-16.2
			c-5-3.8-10.1-7.5-15.1-11.4c-2.6-2.1-4.6-1.8-7.1,0.1c-6.4,4.7-12.9,9.2-19.3,13.7c-0.7,0.5-1.3,1.1-2,1.5c-1.2,0.5-2.8,2-3.8-0.1
			c-0.7-1.5,0.5-2.1,1.7-3c7.2-5.8,15.1-10.7,22.5-16.3c2.9-2.1,5.6-2.2,8.2-0.3c11.2,8.3,22.2,16.7,33.2,25.1
			c1.7,1.3,3.5,2.5,5.3,3.6C216.1,170.4,217,170.7,216.9,172.4z"/>
		<path class="st10" d="M255.6,144c-1.3-0.4-2.8-0.7-4.1-1.4c-11.3-6-21.3-13.9-30.9-22.4c-3.2-2.9-2.7-4.9,0.1-7.7
			c3.8-3.7,8.9-5,13-8.2c2.7-2.1,5.8,0.8,8.1,2.3c9.8,6.4,19.6,13,27.4,22c2,2.3,1.9,4,0.1,6.5C266.1,140.2,261.5,142.8,255.6,144z"
			/>
		<path class="st11" d="M237.2,95c3.4-0.2,5.6,2.5,7.7,4.2c9.5,7.8,20.8,13.3,29.8,21.8c2,1.9,4.7,3,7,4.5c1.3,0.9,1.6,2.1,0.6,3.4
			c-1.1,1.4-1.9,0.3-2.8-0.4c-12.5-9-25.1-17.9-37.5-27c-3.4-2.5-6.1-3.1-9.7-0.2c-6.1,4.8-12.5,9.2-18.9,13.7c-1.4,1-3.3,3-4.8,1.2
			c-2-2.3,0.8-3.5,2.2-4.5c7.6-5.4,15.4-10.6,23-16C234.9,95,236.1,95,237.2,95z"/>
		<path class="st12" d="M110.1,273.6c-12.1-8-24.2-16-35-25.6c-2.7-2.4-5.3-4.9-8-7.3c-0.1-0.9-0.1-1.8-0.2-2.7
			c4.1,0.7,8,1.7,12,2.9c8.5,2.5,15.6,7.7,23.7,10.9c4,1.6,8.4,4.5,12.8,0.5c2.7,1.7,2.5,4.4,2.5,7c0.1,3,0.2,5.9,0.1,8.9
			C117.8,275.1,116.5,276,110.1,273.6z"/>
		<path class="st13" d="M115.5,252.2c-4.4,4.1-8.8,1.1-12.8-0.5c-8.1-3.1-15.2-8.4-23.7-10.9c-4-1.1-7.9-2.2-12-2.9
			c-0.4-5.1,1.1-9.8,2.9-14.5c0.9-2.5,2.4-3.2,4.6-1.9c14.1,8.8,28,18,40.4,29.3C115.2,251.2,115.3,251.7,115.5,252.2z"/>
	</g>
</g>
</svg>
