<?xml version="1.0" encoding="utf-8"?>
<!-- Generator: Adobe Illustrator 21.1.0, SVG Export Plug-In . SVG Version: 6.00 Build 0)  -->
<svg version="1.1" id="Layer_1" xmlns="http://www.w3.org/2000/svg" xmlns:xlink="http://www.w3.org/1999/xlink" x="0px" y="0px"
	 viewBox="0 0 380 380" style="enable-background:new 0 0 380 380;" xml:space="preserve">
<style type="text/css">
	.st0{fill:#FEFEFE;}
	.st1{fill:#A75944;}
	.st2{fill:#9E4E39;}
	.st3{fill:#8F0D26;}
	.st4{fill:#612B20;}
	.st5{fill:#850A20;}
	.st6{fill:#934632;}
	.st7{fill:#6E352A;}
	.st8{fill:#600512;}
	.st9{fill:#A5615B;}
	.st10{fill:#BEADC5;}
	.st11{fill:#AE1527;}
	.st12{fill:#471A19;}
	.st13{fill:#DC282F;}
	.st14{fill:#CD1F27;}
	.st15{fill:#F76154;}
</style>
<g>
	<g>
		<path class="st0" d="M381,191.5c0,61.8,0,123.7,0.1,185.5c0,3.4-0.7,4.1-4.1,4.1c-124-0.1-248-0.1-372,0c-3.4,0-4.1-0.7-4.1-4.1
			C1,253,1,129,0.9,5c0-3.4,0.7-4.1,4.1-4.1C129,1,253,1,377,0.9c3.4,0,4.1,0.7,4.1,4.1C381,67.2,381,129.3,381,191.5z M70,182
			c-0.7,3-1.5,6-1.9,9c-1.6,10.2-1.6,20.5-0.2,30.6c0.6,4.4,2.6,8.7,2.1,13.4c-11.3,7.4-16.2,22.2-11.8,35c3.1,9.4,9.5,16.6,17,22.6
			c8.8,7,18.4,12.8,28.8,17.1c6.6,2.8,13.4,5.4,20.3,7.2c10.8,2.7,21.5,5.5,32.7,6.8c9,1,17.9,2.7,27.1,2.2c1.3,0,2.6,0,3.9,0
			c1.3,0,2.7,0,4,0c2.6,0,5.3,0,7.9,0c11.2,0.4,22.5,0.5,33.5-2c5.8-1.3,12.2-0.3,17.5-4c9.1-0.4,17.5-3.9,26-6.9
			c9.5-3.3,18.2-8.4,26.5-14c7.9-5.4,14.5-12,18.3-20.9c0-0.3,0-0.7,0-1c0.1-0.6,0.2-1.3,0.3-1.9c2.5-0.8,2.6-3,2.9-5.1
			c1.2-11.6-1.2-22.1-9.2-31c-1.7-6.2,0.4-12.3,0.8-18.4c0.8-14.5,0.3-28.8-2.2-43.1c-1.1-6-2.5-12-4.5-17.7
			c-1.6-4.6-1.9-9.7-4.9-13.8c-5.7-16.5-14.3-31.4-25.1-45c-6.8-8.5-14.1-16.4-23.7-22c-0.2-0.8-0.4-1.4-1.2-1.9
			c-10.8-7.9-23.2-12.7-35.7-17c-4.4-1.6-9.4-2.8-14.4-2.5c-0.9-1.2-2.3-1.2-3.6-1.3c-26.1-2-50.2,3.1-71.7,18.8
			C114.7,85.8,103,99,93.7,114.7c-5.4,9.1-10,18.5-13.8,28.3c-1.6,4-4.8,8.1-3.7,13C72.4,164.3,70.2,172.9,70,182z"/>
		<path class="st1" d="M76.1,156c-1.1-5,2.2-9,3.7-13c3.8-9.7,8.4-19.2,13.8-28.3c9.3-15.7,21-29,35.8-39.8
			c21.5-15.7,45.7-20.7,71.7-18.8c1.3,0.1,2.7,0.1,3.6,1.3c-2.6,0.3-5.2,0.5-8.2,0.8c2.6,1.5,5.5-0.2,9.3,2.3
			c-6.8,0.1-6.4,4.2-5.8,7.7c0.7,4.3,0.1,8.5,0,12.7c-0.3,13.6-0.3,27.2,0,40.8c0.1,4.2-1.3,9.6,4.8,11.6c0.1,0,0.1,0.3,0.1,0.5
			c-3.3-0.3-6.5-0.9-9.8-0.9c-12.8-0.3-25.3,1.3-37,6.5c-9.4,4.2-18.4,9.2-26,16.6c-6.7,6.5-12.9,13.3-17.8,21.2
			c-0.6,0.9-1.2,1.6-2.3,1.7c-2.7-1.5-5.4-3.1-8.2-4.6C94.1,169.1,85.1,162.6,76.1,156z M162,70.7c-9.7,1.6-18.3,5.8-25.5,12.5
			c-2.7,2.5-7.7,5.8-5.5,9.4c2.1,3.6,7.6,1.4,11.6,0.7c9.2-1.5,18-4.4,26.7-7.5c6.7-2.4,13.2-5.1,19.3-8.8c3.7-2.3,3.8-3.8,0.4-6.3
			c-0.3-1.1-0.7-1.9-1.9-0.9c-1-0.2-2.1-0.3-3.1-0.5c-0.5-1.1-1.4-1.2-2.5-1c-3.1,0-6.1,0-9.2,0c-1.6-0.1-3.4-1-4.5,1.1
			c-1,0.1-2,0.2-3.1,0.4C163.4,68.6,162.4,68.9,162,70.7z"/>
		<path class="st2" d="M205,134c0-0.2,0-0.4-0.1-0.5c-6.1-2-4.7-7.4-4.8-11.6c-0.4-13.6-0.3-27.2,0-40.8c0.1-4.2,0.7-8.4,0-12.7
			c-0.6-3.6-1-7.6,5.8-7.7c-3.7-2.5-6.6-0.8-9.3-2.3c3-0.3,5.6-0.6,8.2-0.8c5-0.4,9.9,0.9,14.4,2.5c12.4,4.4,24.9,9.1,35.7,17
			c0.8,0.6,1,1.2,1.2,1.9c-3.7,1.7-5.3,4.5-5.2,8.6c0.2,8.8,0,17.6,0.1,26.5c0,9.8-0.2,19.7,0.2,29.5c0.2,3.8,0.7,6.7-4.4,6.6
			c-1.2,0-1.7,0.8-1.8,1.9c-3.4-2.3-6.9-4.6-10.3-6.9C225.6,139.3,215.9,135.1,205,134z"/>
		<path class="st3" d="M192,325.9c-1.3,0-2.7,0-4,0c-1.3-1.2-2.6-1.2-3.9,0c-9.1,0.5-18.1-1.2-27.1-2.2c-11.2-1.3-21.9-4.1-32.7-6.8
			c-6.9-1.7-13.7-4.4-20.3-7.2c-10.4-4.3-20-10.2-28.8-17.1c-7.5-6-13.9-13.2-17-22.6c2-3.4,4.5-5.9,9-5c1.6,0.3,2.5-1.4,3.9-1.9
			c2.2,2.2,1.9,5.5,3.3,8.1c9,16.7,24,26.2,40.6,33.1c17.8,7.4,37,10.6,56.1,11.5c24.2,1.2,48.4,0.4,71.6-7.9
			c6.9-2.5,13.2-5.9,17.6-12.3c2-2.9,1.6-5.3,0.4-8.3c-2.1-5.4-7.1-7.6-10.7-11.3c1.4-0.3,2.9-1,4.3-0.9c9.2,1,18.3,0.9,27.5,0.8
			c3.5,0,6.8,0.2,10.1,1.8c2.8,1.3,5.6,2.3,8.5-0.9c1.8-1.9,5.6-1.9,7.7,0.3c2,2,1.7,4.7-0.3,7.1c-2.5,2.9-4.4,6.3-7.4,8.7
			c-14.2,11.2-29.5,20.2-47.1,25c-1.2,0.3-2.3,0.4-2.4,1.9c-5.3,3.7-11.7,2.6-17.5,4c-11.1,2.6-22.3,2.5-33.5,2
			C197.3,324.5,194.7,324.5,192,325.9z"/>
		<path class="st4" d="M304.9,146c3,4.1,3.3,9.2,4.9,13.8c2,5.7,3.4,11.7,4.5,17.7c2.5,14.3,3.1,28.6,2.2,43.1
			c-0.4,6.1-2.5,12.2-0.8,18.4c-1.8-0.3-2.5,1-3.6,2.1c-1.6,1.6-2.7,3.6-4.5,5.2c-6.4,5.7-14.1,8.6-21.8,11.7c-0.7,0-1.4,0-2.1,0
			c0.7-8.8-0.3-17.7-1.2-26.4c-1.2-11.1-3.6-22.2-7.6-32.8c-2.5-6.7-5.8-12.9-8.2-19.6c-0.2-2.9,2-4.2,4-5.1
			c7.7-3.3,14.2-8.4,20.6-13.6C296.7,156.4,303.7,153.8,304.9,146z"/>
		<path class="st5" d="M283.9,258c0.7,0,1.4,0,2.1,0c2.3,2.7,5.5,1.7,8.4,2c8.5,0.8,16.3,3.4,21.1,11c1.8,2.8,3.5,4.2,6.7,4.1
			c-0.1,0.6-0.2,1.3-0.3,1.9c-0.1,0.1-0.4,0.2-0.4,0.3c0.1,0.3,0.2,0.5,0.3,0.7c-3.8,9-10.5,15.6-18.3,20.9
			c-8.3,5.7-17,10.7-26.5,14c-8.5,2.9-16.8,6.4-26,6.9c0.1-1.5,1.2-1.6,2.4-1.9c17.6-4.7,32.9-13.8,47.1-25c3-2.4,4.9-5.8,7.4-8.7
			c2.1-2.4,2.4-5,0.3-7.1c-2.1-2.2-5.9-2.2-7.7-0.3c-3,3.1-5.8,2.2-8.5,0.9c-3.3-1.5-6.6-1.8-10.1-1.8c-9.2,0.1-18.4,0.1-27.5-0.8
			c-1.4-0.1-2.9,0.6-4.3,0.9c-6.5-2.2-13-4.1-20.1-4.3c-8.6-0.2-16.6,2.2-24.8,3.3c-4.5-2.8-9.5-1.8-14.3-2.1c-1.8-0.1-4.2,1-4.8-2
			c0.1-1.5,1.2-1.6,2.4-2c3.2-1.2,6.6-2.4,9.4-4.3c13.1-8.7,27-11.2,42-6.2c2.2,0.7,3-0.4,4.2-1.5c9.5,0.8,18.9-1.7,28.3-1.1
			C276.1,257,280,257.7,283.9,258z M312.6,275.7c-0.3-0.1-0.6-0.4-0.8-0.3c-0.2,0.1-0.3,0.5-0.4,0.8c0.3,0.1,0.6,0.4,0.8,0.3
			C312.5,276.5,312.5,276,312.6,275.7z"/>
		<path class="st6" d="M245,152c0.1-1.1,0.6-2,1.8-1.9c5.1,0.2,4.5-2.8,4.4-6.6c-0.4-9.8-0.2-19.6-0.2-29.5c0-8.8,0.1-17.6-0.1-26.5
			c-0.1-4.1,1.5-6.9,5.2-8.6c9.5,5.6,16.9,13.5,23.7,22c-1.8,0.3-1.6,1.7-1.8,3c-0.5,3,1.8,5.3,2,8.1c1.4,19.5-2.6,38.1-10.2,55.9
			c-1,2.4-1,6.2-4.8,7c-0.5-0.2-1.2-0.2-1.4-0.5C258.6,166.1,251.6,159.2,245,152z"/>
		<path class="st5" d="M71,263c-1.4,0.5-2.3,2.2-3.9,1.9c-4.5-0.8-6.9,1.7-9,5c-4.5-12.8,0.5-27.6,11.8-35c1.8,0.6,2,2.5,3,3.8
			c5.9,7.7,13.1,13.5,22.9,15.4c2.2,4.1,4.9,0.5,7.3,0.3c2-0.2,3-1.4,3.1-3.7c0.1-3.2-0.9-6.6,1-9.7c1.7,2.2,0.5,4.8,0.8,7.2
			c0.1,0.8-0.1,1.8,0.9,2.1c1,0.4,1.4-0.5,2-1.1c5.5-5.7,12.4-9,19.4-12.4c3.1,4,3.3,9.3,6.1,13.4c6.4,9.2,14.1,16.5,25.7,18.7
			c-0.9,3.3-3.6,2.9-6.1,2.9c-10.4,0-20.8-0.4-31.2,0.2c-4.9,0.3-10.3-0.5-14.7,2.9c-1.4,0-2.5-0.5-3.7-1.2
			c-6.3-3.7-11.7-8.5-17.7-12.7c-4-2.8-7.6-6.3-12.6-7.2c-0.1-1.4-0.9-2-2.3-1.9c-1.2,0.1-1.6,0.9-1.7,1.9C70,256.8,71.4,260,71,263
			z"/>
		<path class="st7" d="M95.8,254.1c-9.8-1.9-17-7.7-22.9-15.4c-1-1.3-1.2-3.1-3-3.8c0.6-4.7-1.5-8.9-2.1-13.4
			c-1.3-10.2-1.4-20.4,0.2-30.6c0.5-3,1.3-6,1.9-9c1.8,1.9,3.6,3.9,5.3,5.8c7.2,7.9,16.8,12.8,25,19.4
			C97.5,222.7,95.4,238.3,95.8,254.1z"/>
		<path class="st7" d="M265,175c3.7-0.8,3.8-4.6,4.8-7c7.6-17.8,11.6-36.4,10.2-55.9c-0.2-2.8-2.5-5.1-2-8.1c0.2-1.3,0-2.7,1.8-3
			c10.9,13.6,19.5,28.5,25.1,45c-1.2,7.8-8.3,10.4-13.4,14.5c-6.4,5.2-12.9,10.3-20.6,13.6c-2,0.9-4.3,2.1-4,5.1
			C264.6,178.6,265.1,176.6,265,175z"/>
		<path class="st6" d="M100.2,207.1c-8.2-6.6-17.8-11.4-25-19.4c-1.8-1.9-3.5-3.9-5.3-5.8c0.2-9.1,2.5-17.7,6.2-26
			c8.9,6.6,18,13.1,27.8,18.4c2.7,1.5,5.4,3,8.2,4.6c-1.2,6.4-5.1,11.7-7.5,17.5C103,200,103.8,204.5,100.2,207.1z"/>
		<path class="st8" d="M322.1,275.1c-3.2,0.1-4.9-1.3-6.7-4.1c-4.8-7.6-12.5-10.2-21.1-11c-2.9-0.3-6.1,0.7-8.4-2
			c7.7-3.1,15.4-6,21.8-11.7c1.8-1.6,2.9-3.5,4.5-5.2c1.1-1.1,1.8-2.4,3.6-2.1c8,8.9,10.4,19.4,9.2,31
			C324.7,272.1,324.6,274.2,322.1,275.1z"/>
		<path class="st5" d="M192,325.9c2.7-1.4,5.3-1.4,7.9,0C197.3,325.9,194.7,325.9,192,325.9z"/>
		<path class="st5" d="M184,325.9c1.3-1.2,2.6-1.2,3.9,0C186.7,325.9,185.3,325.9,184,325.9z"/>
		<path class="st8" d="M321.8,278c-0.1-0.2-0.3-0.5-0.3-0.7c0-0.1,0.2-0.2,0.4-0.3C321.9,277.3,321.8,277.7,321.8,278z"/>
		<path class="st9" d="M100.2,207.1c3.5-2.7,2.8-7.1,4.3-10.6c2.5-5.8,6.3-11.1,7.5-17.5c1.1,0,1.7-0.8,2.3-1.7
			c5-7.9,11.1-14.7,17.8-21.2c7.6-7.3,16.6-12.4,26-16.6c11.7-5.2,24.2-6.8,37-6.5c3.3,0.1,6.6,0.6,9.8,0.9
			c10.9,1.1,20.6,5.3,29.6,11.2c3.5,2.2,6.9,4.6,10.3,6.9c6.6,7.2,13.6,14,18.6,22.5c0.2,0.3,0.9,0.3,1.4,0.5
			c0.2,1.6-0.4,3.5,1.9,4.2c2.4,6.7,5.7,13,8.2,19.6c4,10.6,6.4,21.7,7.6,32.8c0.9,8.7,1.9,17.5,1.2,26.4c-3.9-0.3-7.8-1-11.6-2.1
			c-0.1-1.8-0.1-3.6-0.2-5.4c-0.6-9.9-0.5-20-4-29.5c-1.5-12.5-6.2-24.1-12.4-34.8c-12.1-20.9-28.4-36.9-53.5-40.5
			c-22.3-3.3-42.6,2.5-59.8,17c-18.4,15.5-27.7,36.2-32.3,59.4c-1.9,3.4-0.9,7.1-1.4,10.7c-1,0.5-2,1-0.8,2.3c-0.4,2-1.2,4-0.8,6.1
			c-2,3-0.9,6.4-1,9.7c-0.1,2.3-1.1,3.5-3.1,3.7c-2.4,0.2-5.1,3.7-7.3-0.3C95.4,238.3,97.5,222.7,100.2,207.1z"/>
		<path class="st10" d="M189.1,70.6c3.4,2.5,3.3,4.1-0.4,6.3c-6.1,3.7-12.7,6.4-19.3,8.8c-8.7,3.1-17.5,6-26.7,7.5
			c-4,0.7-9.5,2.8-11.6-0.7c-2.2-3.6,2.8-6.8,5.5-9.4c7.2-6.7,15.8-10.8,25.5-12.5c1.1,0.2,2.3,0.3,2.9-1c1-0.1,2-0.2,3.1-0.3
			c1.7,0.7,3.3,0.7,4.5-1.1c3.1,0,6.1,0,9.2,0c0.6,0.9,1.2,1.7,2.5,1c1,0.2,2.1,0.3,3.1,0.5C187.5,70.6,188.2,70.8,189.1,70.6z"/>
		<path class="st9" d="M172.4,68.2c-1.1,1.8-2.7,1.8-4.5,1.1C169,67.3,170.8,68.2,172.4,68.2z"/>
		<path class="st9" d="M164.9,69.7c-0.6,1.3-1.8,1.2-2.9,1C162.4,68.9,163.4,68.6,164.9,69.7z"/>
		<path class="st9" d="M184,69.2c-1.2,0.8-1.9,0-2.5-1C182.6,68,183.5,68.1,184,69.2z"/>
		<path class="st9" d="M189.1,70.6c-0.9,0.2-1.6,0-1.9-0.9C188.4,68.6,188.8,69.5,189.1,70.6z"/>
		<path class="st11" d="M76,254c5,0.9,8.6,4.5,12.6,7.2c5.9,4.1,11.4,9,17.7,12.7c1.2,0.7,2.3,1.2,3.7,1.2c0.1,1.1,0.7,1.8,1.7,2.2
			c8.9,4.3,17.5,8.6,27.6,10.2c10,1.6,19.6,1.5,29.6,0c8.9-1.3,17.2-4.5,25.6-7.1c3.6-1.1,8.4-1,10.6-5.4c8.3-1.1,16.2-3.5,24.8-3.3
			c7.2,0.2,13.6,2.1,20.1,4.3c3.6,3.7,8.7,5.9,10.7,11.3c1.2,3,1.6,5.4-0.4,8.3c-4.4,6.4-10.7,9.8-17.6,12.3
			c-23.2,8.3-47.4,9.1-71.6,7.9c-19.2-0.9-38.3-4.1-56.1-11.5c-16.6-6.9-31.6-16.5-40.6-33.1c-1.4-2.7-1.1-5.9-3.3-8.1
			c0.4-3-1-6.2,1-9C73.3,254,74.7,254,76,254z M106.3,293c0.4,0,2,0.4,2.5-1.3c0.6-2,0.5-3.9-1.3-5.4c-9-7.2-17.7-14.8-27.7-20.5
			c-1.1-0.6-2.2-2.2-3.4-0.8c-1,1.2,0.3,2.5,0.9,3.6c5.5,8.8,12.7,16,21.4,21.7C100.9,291.6,102.8,293.2,106.3,293z M135.3,303.7
			c2.4-0.4,5.5,0.9,6.2-2c0.6-2.4-2.4-3.4-4-4.4c-5.7-3.9-12.1-5-18.9-4.3c-1.2,0.1-2.4,0.2-2.9,1.4c-0.7,1.7,1,2.4,1.9,3.1
			C122.9,301.5,129,303.1,135.3,303.7z"/>
		<path class="st11" d="M162,269.1c-11.5-2.1-19.3-9.5-25.7-18.7c-2.8-4.1-3-9.4-6.1-13.4c-0.1-7.3-0.1-14.7-0.2-22
			c2.8-10.9,7.4-20.7,15-29.2c12.5-14,31-18.4,48-7.9c-8.8,0.3-10.9,2.1-10.6,9c0.1,1.9,0.5,3.2,2.6,3.4c2.4,0.3,2.9-1.1,2.8-3
			c-0.1-2.5,0.6-4.3,3.6-3.9c3.6,0.5,3.5-2,3.5-4.4c5.2,4.5,11.2,7.8,17.3,10.9c0.3,3,1.5,5.9,0.9,9c-3.4-0.1-6.3-2.9-9.9-2
			c0-1.1,0-2.3,0-3.4c0-2-0.6-3.4-3-3.7c-2.4-0.2-3.2,1.1-3.3,3.1c-0.6-0.1-1.3-0.1-1.9-0.3c-8-2.1-12.5,1.6-11.7,9.7
			c0.2,2.2,1.3,4.4,1.9,6.5c-2.1,1.9-4.6,0.6-6.9,1c-1.3-1.2-2.3-2.6-3.1-4.3c-2.7-5.6-2.5-11.7-3-17.6c0-1.5,0.1-3,0.1-4.5
			c-0.1-5.1-0.9-5.6-5.5-3.3c-2.8,1.4-5.4,3.1-8.1,4.7c-13.8,8.3-19.5,21.3-20.3,36.7c-0.3,5.5,2.4,10,6.9,13.4c0,3.1,2.4,5.1,3,7.9
			c-0.2,1.9,0.6,3.6,1.7,5.1c8.9,13.1,20.7,16.7,35.3,14.6c3.3-0.5,7.4-1.6,9.1-5.6c2.4,0.5,3.7-2,5.9-2.1c3.4-0.2,6.3-1.8,9.1-3.5
			c10.3-6,18.9-13.3,23.9-24.7c2.6-6,4.3-11.7,5.2-18.2c0.7-5.4-3.8-8.3-4.1-12.8c2.8,0.2,4.8,1.8,7,3.3c6,4.2,8.4,10.8,11.7,16.9
			c-0.1,8.5,0.8,17-1.8,25.4c-1.7,5.5-5,10.2-7.1,15.5c-1.2,1-2,2.2-4.2,1.5c-15-5.1-28.9-2.5-42,6.2c-2.8,1.9-6.2,3.1-9.4,4.3
			c-1.1,0.4-2.2,0.6-2.4,2c-0.6,0-1.3,0-1.9,0c-0.7,0-1.3,0-2,0C175.2,271.5,168.6,270.1,162,269.1z"/>
		<path class="st3" d="M184,271c0.7,0,1.3,0,1.9,0c0.6,3,3,1.9,4.8,2c4.8,0.3,9.8-0.8,14.3,2.1c-2.2,4.4-7,4.3-10.6,5.4
			c-8.4,2.6-16.7,5.8-25.6,7.1c-10,1.5-19.6,1.6-29.6,0c-10-1.6-18.7-5.9-27.6-10.2c-1-0.5-1.6-1.1-1.7-2.2
			c4.4-3.4,9.8-2.6,14.7-2.9c10.4-0.6,20.8-0.2,31.2-0.2c2.5,0,5.2,0.3,6.1-2.9c6.6,1.1,13.2,2.5,20,1.9c0.3,0.5,0.4,1.4,0.8,1.5
			C183.9,272.7,183.9,271.7,184,271z"/>
		<path class="st8" d="M244,257c2.1-5.3,5.3-10,7.1-15.5c2.7-8.4,1.8-16.9,1.8-25.4c5.4,0.6,9.9,4.2,15.3,4.9
			c3.5,9.6,3.4,19.6,4,29.5c0.1,1.8,0.1,3.6,0.2,5.4C262.8,255.3,253.5,257.7,244,257z"/>
		<path class="st3" d="M312.6,275.7c-0.1,0.3-0.2,0.7-0.4,0.8c-0.2,0.1-0.5-0.2-0.8-0.3c0.1-0.3,0.2-0.7,0.4-0.8
			C312,275.4,312.4,275.6,312.6,275.7z"/>
		<path class="st8" d="M130,215c0.1,7.3,0.1,14.7,0.2,22c-6.9,3.3-13.9,6.7-19.4,12.4c-0.6,0.6-1,1.5-2,1.1c-1-0.4-0.7-1.3-0.9-2.1
			c-0.4-2.4,0.8-5-0.8-7.2c-0.4-2.1,0.4-4.1,0.8-6.1c1-0.5,1-1.4,0.8-2.3c0.5-3.6-0.5-7.3,1.4-10.7C116.7,219.7,123.4,217.3,130,215
			z"/>
		<path class="st3" d="M76,254c-1.3,0-2.7,0-4,0c0.1-1.1,0.5-1.8,1.7-1.9C75.1,252,75.9,252.6,76,254z"/>
		<path class="st12" d="M130,215c-6.6,2.3-13.3,4.7-19.9,7c4.5-23.2,13.8-43.9,32.3-59.4c17.3-14.5,37.5-20.3,59.8-17
			c25.1,3.7,41.5,19.6,53.5,40.5c6.2,10.7,10.9,22.3,12.4,34.8c-5.4-0.8-9.8-4.4-15.3-4.9c-3.3-6-5.7-12.6-11.7-16.9
			c-2.2-1.6-4.2-3.1-7-3.3c0,0,0,0,0,0c-0.2-1.3-0.9-1.8-2.2-1.6c-6.5-1.9-13.2-3.4-19.9-4.2c-6.1-3.1-12.1-6.4-17.3-10.9
			c-0.6-0.4-1.2-0.8-1.7-1.1c-17-10.5-35.6-6.1-48,7.9C137.4,194.3,132.8,204.1,130,215z"/>
		<path class="st5" d="M108.7,232.7c0.2,0.9,0.2,1.8-0.8,2.3C106.7,233.7,107.7,233.2,108.7,232.7z"/>
		<path class="st10" d="M106.3,293c-3.5,0.2-5.5-1.4-7.5-2.8c-8.7-5.7-15.9-12.8-21.4-21.7c-0.7-1.1-1.9-2.4-0.9-3.6
			c1.2-1.4,2.3,0.1,3.4,0.8c10,5.8,18.7,13.4,27.7,20.5c1.8,1.5,1.9,3.4,1.3,5.4C108.3,293.4,106.8,293,106.3,293z"/>
		<path class="st10" d="M135.3,303.7c-6.3-0.7-12.5-2.2-17.7-6.3c-0.9-0.7-2.6-1.4-1.9-3.1c0.5-1.3,1.8-1.3,2.9-1.4
			c6.8-0.7,13.2,0.5,18.9,4.3c1.6,1.1,4.6,2,4,4.4C140.8,304.6,137.7,303.4,135.3,303.7z"/>
		<path class="st13" d="M200,255c-2.2,0.1-3.5,2.6-5.9,2.1c-2,0-4-0.2-6,0c-11.3,1-21.4-1.7-30.8-8.1c-3-2-4.8-6.2-9.3-5.9
			c-0.6-2.8-3.1-4.9-3-7.9c0-4.7,0-9.3,0-14c2,0.2,3.4-0.9,4.7-2.2c2.9-2.7,4.9-6.2,7.6-9.2c3.1-3.4,5.2-3.4,7.2,0.5
			c9,17.7,30.3,22.1,46.6,18.8c1.6,6.4-1.5,11.6-4.4,16.9C204.8,249.3,201,251.1,200,255z"/>
		<path class="st14" d="M200,255c1-3.9,4.8-5.7,6.6-9c2.9-5.3,6-10.5,4.4-16.9c2-0.9,4-1.7,5.9-2.7c0.8-0.4,1.8-1.2,1.6-2.3
			c-0.2-1.3-1.4-1.2-2.4-1.1c-2.5,0.1-4.9,0.3-7.4,0.5c-10.5,1.2-24.4-2.6-30.6-13.5c2.3-0.4,4.8,0.9,6.9-1c1.3,0.7,2.7,1.3,4,2
			c0.1,0.3,0,0.7,0.2,1c5.3,7.1,20.5,7.8,26.5,1.4c4.1-4.5,2.8-11.3-2.6-13.4c0-0.3-0.1-0.6-0.1-0.9c0.6-3.1-0.7-6-0.9-9.1
			c6.8,0.9,13.4,2.3,19.9,4.2c0.2,1.3,0.9,1.8,2.2,1.6c0,0,0,0,0,0c0.3,4.6,4.8,7.5,4.1,12.8c-0.9,6.4-2.6,12.2-5.2,18.2
			c-5,11.4-13.6,18.7-23.9,24.7C206.3,253.2,203.4,254.7,200,255z"/>
		<path class="st15" d="M178.1,210c6.2,10.9,20.1,14.7,30.6,13.5c2.5-0.3,4.9-0.5,7.4-0.5c1,0,2.2-0.2,2.4,1.1
			c0.2,1.1-0.8,1.9-1.6,2.3c-1.9,1-3.9,1.8-5.9,2.7c-16.3,3.2-37.6-1.2-46.6-18.8c-2-3.9-4.1-4-7.2-0.5c-2.6,3-4.6,6.4-7.6,9.2
			c-1.4,1.3-2.7,2.4-4.7,2.2c-2.1-2.5-2.2-5.2-1.5-8.3c1.4-6.1,3.9-11.5,7.7-16.3c5.2-6.7,11.5-11.4,20.8-8.3c0.5,6,0.3,12,3,17.6
			C175.7,207.4,176.7,208.8,178.1,210z"/>
		<path class="st14" d="M171.9,188.1c-9.2-3.1-15.5,1.6-20.8,8.3c-3.8,4.8-6.3,10.3-7.7,16.3c-0.7,3.1-0.6,5.8,1.5,8.3
			c0,4.7,0,9.3,0,14c-4.4-3.4-7.2-7.9-6.9-13.4c0.8-15.4,6.5-28.3,20.3-36.7c2.7-1.6,5.3-3.3,8.1-4.7c4.7-2.3,5.5-1.8,5.5,3.3
			C172,185.1,172,186.6,171.9,188.1z"/>
		<path class="st14" d="M148,243c4.5-0.3,6.3,3.9,9.3,5.9c9.4,6.5,19.5,9.1,30.8,8.1c2-0.2,4,0,6,0c-1.7,4-5.8,5.1-9.1,5.6
			c-14.6,2.1-26.4-1.4-35.3-14.6C148.6,246.6,147.8,244.9,148,243z"/>
		<path class="st3" d="M189,211c-1.3-0.7-2.7-1.3-4-2c-0.7-2.2-1.7-4.3-1.9-6.5c-0.8-8.1,3.7-11.8,11.7-9.7c0.6,0.2,1.3,0.2,1.9,0.3
			c0.2,1.8,0.7,4.1-2.1,3.8c-5-0.6-4.9,2.3-4.5,5.7c0,1.5,0,2.9,0,4.4c0,1.3,0.6,2,2,2c0.4,0.8,1.2,1,2,1c0,0.3,0,0.7,0,1
			C192.3,211,190.6,211,189,211z"/>
		<path class="st9" d="M190.1,202.6c-0.4-3.4-0.5-6.3,4.5-5.7c2.8,0.3,2.4-2,2.1-3.8c0.1-2.1,0.9-3.3,3.3-3.1c2.4,0.2,3,1.6,3,3.7
			c0,1.1,0,2.3,0,3.4c-0.1,1.1-0.1,2.2-1.1,3.1C198.6,203.7,194.4,203.4,190.1,202.6z"/>
		<path class="st10" d="M193,177.9c0.6,0.4,1.2,0.8,1.7,1.1c0,2.4,0.2,4.9-3.5,4.4c-3-0.4-3.7,1.4-3.6,3.9c0.1,1.9-0.4,3.3-2.8,3
			c-2.1-0.3-2.5-1.5-2.6-3.4C182.1,180.1,184.2,178.3,193,177.9z"/>
		<path class="st3" d="M201.9,200.1c1-0.8,1-1.9,1.1-3.1c3.6-0.9,6.5,2,9.9,2c0,0.3,0.1,0.6,0.1,0.9c0,1.9-0.1,3.8,0,5.8
			c0.1,2.1-0.5,3.4-2.9,3.3c-0.2-1.8-1-2.9-2.9-3.1C206.8,202.8,203,202.7,201.9,200.1z"/>
		<path class="st5" d="M184,271c-0.2,0.7-0.1,1.7-1.2,1.5c-0.4-0.1-0.5-1-0.8-1.5C182.7,271,183.3,271,184,271z"/>
		<path class="st11" d="M234.1,195.9c-1.3,0.2-2-0.4-2.2-1.6C233.2,194,234,194.6,234.1,195.9z"/>
		<path class="st11" d="M210.1,209.1c2.4,0.1,3-1.2,2.9-3.3c-0.1-1.9,0-3.8,0-5.8c5.4,2.1,6.8,8.9,2.6,13.4
			c-6,6.5-21.2,5.7-26.5-1.4c-0.2-0.2-0.1-0.6-0.2-1c1.7,0,3.3,0,5,0c2.1,1.7,4.8,2.4,7.3,2.7C205,214.3,209.1,214.2,210.1,209.1z"
			/>
		<path class="st8" d="M201.9,200.1c1,2.6,4.9,2.7,5.3,5.9c-1.3,2.4-3.4,3.2-6.1,3.2c-2.3,0-4.9-1-7.1,0.9c-0.8,0-1.5-0.2-2-1
			c0-1.3-0.7-1.9-2-2c0-1.5,0-2.9,0-4.4C194.4,203.4,198.6,203.7,201.9,200.1z"/>
		<path class="st5" d="M194,210c2.2-1.9,4.7-0.9,7.1-0.9c2.7,0,4.8-0.7,6.1-3.2c1.9,0.2,2.7,1.3,2.9,3.1c-1,5.2-5.1,5.2-8.8,4.7
			c-2.5-0.3-5.2-1-7.3-2.7C194,210.7,194,210.3,194,210z"/>
		<path class="st5" d="M190,207c1.2,0.1,1.9,0.7,2,2C190.7,209,190,208.3,190,207z"/>
	</g>
</g>
</svg>
