<?xml version="1.0" encoding="utf-8"?>
<!-- Generator: Adobe Illustrator 21.1.0, SVG Export Plug-In . SVG Version: 6.00 Build 0)  -->
<svg version="1.1" id="Layer_1" xmlns="http://www.w3.org/2000/svg" xmlns:xlink="http://www.w3.org/1999/xlink" x="0px" y="0px"
	 viewBox="0 0 380 380" style="enable-background:new 0 0 380 380;" xml:space="preserve">
<style type="text/css">
	.st0{fill:#FEFEFE;}
	.st1{fill:#632C16;}
	.st2{fill:#FCE498;}
	.st3{fill:#93410C;}
	.st4{fill:#A5490D;}
	.st5{fill:#FBE8AF;}
	.st6{fill:#B88153;}
	.st7{fill:#844B37;}
	.st8{fill:#6D3014;}
	.st9{fill:#592710;}
	.st10{fill:#7A3416;}
	.st11{fill:#853A18;}
	.st12{fill:#EF843D;}
	.st13{fill:#E17E3C;}
	.st14{fill:#B9510D;}
	.st15{fill:#CD590D;}
</style>
<g>
	<g>
		<path class="st0" d="M381,191c0,62,0,124,0.1,186c0,3.4-0.7,4.1-4.1,4.1c-124-0.1-248-0.1-372,0c-3.4,0-4.1-0.7-4.1-4.1
			C1,253,1,129,0.9,5c0-3.4,0.7-4.1,4.1-4.1C129,1,253,1,377,0.9c3.4,0,4.1,0.7,4.1,4.1C381,67,381,129,381,191z M331.5,152.8
			c0.2-0.1,0.3-0.2,0.3-0.4c3.3-5.5,1.4-10.4-4.8-12.3c-1.9-0.5-2.4-2.4-3.9-3.4c-14.1-9.8-28.1-19.8-42.1-29.9
			c-16.9-12.2-33.7-24.6-51-36.3c-7.2-4.8-12.7-2.5-15.6,2.2c-5.2,8.3-10.3,16.7-16,24.7c-3.9,5.5-7.1,11.5-11.1,17
			c-3.4,4.7-8.3,9.4-6,16.4c-0.3,0.4-0.6,0.8-1,1.2c-4.7-4-8-9.1-11.7-13.9c-4.7-6.2-8.6-6.6-15.1-2.1c-7.3,5.1-14.6,10.1-21.9,15.3
			c-14.1,9.9-28.1,20.1-42.5,29.8c-9,6.1-17.6,12.7-26.7,18.7c-3.7,2.4-8.3,3.9-10.6,8.3c-3.7,3.3-3.9,6-0.8,10
			c9.7,12.9,19.4,25.9,29.2,38.8c3.3,4.4,5.6,9.7,10.7,12.5c0,1,0.3,2.1,0,3c-4.8,11.9-3.7,23.8,0,35.8c2.7,8.8,12.7,17.3,21.1,17.1
			c3.6,2.3,7.6,2.9,11.7,2.8c10.3-0.2,20.3-2.1,30.1-5.1c2.9-0.9,5.9-2.1,9.1-1.6c0.3,1.1,1.2,0.9,2,1c1,1,0.9,3.2,3.1,2.9
			c3.5,3.8,8.4,4.6,13,6c2.3,1.9,5.3,1.4,7.9,2.1c6.5,1.8,13.5,1.9,19.9,0.1c3.4-1,8-1.1,10.2-5.2c9.7-4.3,12.6-13.5,15.9-22.3
			c2.1-5.6,1.7-11.7,2.8-17.5c0.9-0.7,1.7-1.6,2.7-2.1c10.7-6,21.5-12,32.2-18c5.2-2.9,10.2-6.4,15.6-8.9
			c8.3-3.7,10.4-10.6,4.9-17.9c-3-4-5.9-7.9-8.2-12.3c-0.4-0.9-1.4-1.8-0.6-2.7c1-1.1,2.1-0.1,3.1,0.5c6.5,3.9,9.9,3,13.9-3.7
			c3.6-6,7.3-11.9,10.9-17.9c5.6-9.3,11.1-18.7,16.7-28C330.9,156.2,331.1,154.4,331.5,152.8z"/>
		<path class="st1" d="M91,249.1c-5.1-2.8-7.4-8.1-10.7-12.5c-9.8-12.9-19.5-25.8-29.2-38.8c1.7-3.2,0.7-6.7,0.8-10
			c2.3-4.3,6.9-5.9,10.6-8.3c9.1-5.9,17.7-12.6,26.7-18.7c14.3-9.7,28.3-19.8,42.5-29.8c7.3-5.1,14.6-10.2,21.9-15.3
			c6.4-4.5,10.3-4.1,15.1,2.1c3.7,4.8,7,10,11.7,13.9c0.6,1.2,1.1,2.4,2.6,2.8c0.8,1.4,1.5,2.9,2.4,4.3c8.4,13.1,23,16.3,35.7,23.2
			c0.2-2.5-1-3.4-2.4-4.4c-8-5.7-15.7-11.9-23.8-17.3c-3.5-2.3-6.5-5.4-10.7-6.6c-0.5-1.5-1.4-2.5-2.8-3.1c-2.3-7,2.6-11.7,6-16.4
			c4-5.5,7.2-11.4,11.1-17c5.7-8,10.8-16.4,16-24.7c3-4.7,8.5-7.1,15.6-2.2c17.3,11.7,34.1,24.1,51,36.3
			c14,10.1,27.9,20.1,42.1,29.9c1.5,1,2,3,3.9,3.4c2.7,3.7,5,7.5,4.8,12.3c-0.1,0.2-0.2,0.3-0.3,0.4c-1.6,1-3.2,2-2.4,4.3
			c-5.6,9.4-11.1,18.7-16.7,28c-3.6,6-7.3,11.9-10.9,17.9c-4.1,6.7-7.4,7.6-13.9,3.7c-1-0.6-2.1-1.6-3.1-0.5
			c-0.7,0.8,0.2,1.8,0.6,2.7c2.3,4.4,5.2,8.4,8.2,12.3c5.5,7.4,3.4,14.2-4.9,17.9c-5.4,2.5-10.4,5.9-15.6,8.9
			c-10.7,6-21.5,12-32.2,18c-1,0.6-1.8,1.4-2.7,2.1c-3.1-2.7-2.4-6.8-3.7-10.2c2.1,0.3,3.9-0.4,5.7-1.4
			c13.9-7.9,27.8-15.8,41.7-23.6c3.4-1.9,4.8-5.8,2.7-8.8c-3.9-5.3-6.7-11.3-11.1-16.2c-0.9-0.1-1.6-0.4-1.9-1.3
			c-2.3-7.6-7.6-13.3-12.1-19.5c-3.2-4.5-7.2-5.2-12.2-3c-4.4,1.9-8.2,4.9-12.3,7.2c-11.8,6.5-23.7,12.8-35.5,19.3
			c-9.8,5.4-19,12-29.2,16.8c-1.2,0.6-1.6,1.6-1.7,2.8c-3.8-2.1-8.3-2.7-11.6-5.8c2.5-0.3,4.9-1.7,5.3-3.7c0.3-1.8-2.4-2.5-4.3-2.9
			c-0.3-0.1-0.4-0.5-0.7-0.6c-6.5-4.1-11.7-2.8-16.2,3.9c-4.6,0.3-9-0.8-13.4-2.1c3-2.3,5.9-4.7,9-6.9c2.4-1.7,3.8-2.9,0.2-4.7
			c-1-0.5-1.8-1.4-3.1-1.4c-5.3-2.6-10.5-5.3-15.1-9.1c0.7-1,0.7-2,0-3c-0.3-2.7,0.7-5.1,1.7-7.6c2.3-5.5,6.2-10.4,7.3-16.5
			c5.5-9.3,8.6-19.7,14.4-30.4c-4.7,1.6-7.2,4.3-10.2,6.2c-9.7,6.3-18.9,13.3-28.2,20.1c-5.4,2.1-10.2,5.2-14.5,9.1
			c-1.8,1.6-4.3,2.8-3.5,6c-1.7-0.1-3.3,0.2-4.9,0.8c-7.1,2.8-13.2,7.6-20.5,10c-2.3,0.7-1.9,2.6-0.4,3.9c3.2,2.8,5.3,6.4,7.6,9.8
			c5.8,8.7,13.2,16.1,19.2,24.7c2.3,3.3,4,8.6,9.9,7.8c0.3,0.7,0.7,1.4,1,2C96,243.7,94.1,246.8,91,249.1z M195,201
			c0.8,0,1.6-0.2,2-1c5.3-1.5,10.4-3.4,14-8c5.5-0.3,8.9-4.8,13.6-6.6c2.4-1,5.4-1.8,5.6-4.2c0.3-2.5-3.2-2.3-4.9-3.2
			c-9.3-4.8-18.8-9.3-28.3-14c-2.1-1.5-4.1-3.5-6.5-4.3c-5.1-1.9-9.4-6.4-15.5-4.7c0-1.4-0.3-2.3-1.7-3.1
			c-5.9-3.6-11.9-7.1-17.1-11.5c-3.6-3-5-1.8-6.5,1.5c-1.8,3.9-3.6,7.8-5.3,11.8c-4.8,10.9-9.6,21.8-14.4,32.8
			c-0.8,1.8-2.1,3.8,1.1,4.6c-0.1,1.4-0.1,2.9,1.2,3.6c5.1,2.5,9.4,6.9,15.7,6.4c1.2,1.9,2.7,3.3,4.7,4.3c5,2.4,10.5,4.2,15,7.3
			c4.5,3.1,7.4,2.1,10.4-1.6C184.2,208.5,190.3,206,195,201z M240,90c-1.5,0-2.3-1.1-3.4-1.9c-3.9-2.9-7.2-6.3-10.7-9.7
			c-2.2-2.1-4-2.3-5.9,0.8c-8.5,13.7-17.2,27.4-25.9,41c-0.8,1.2-2.7,2.1-1.7,3.7c1,1.7,3,0.7,4.6,0.9c0.8,2.1-5,2.2-1.6,4.7
			c4.3,3.1,7.9,7.5,13.6,8.3c1.1,1.5,1.8,3.5,3.2,4.3c8.4,5,15.9,11.2,23.9,16.8c16.9,11.8,33.6,23.9,50.4,35.9
			c4.2,3,7.3,3,10.1-1.3c3.8-5.7,7-11.9,10.4-17.8c5.8-7.7,10.1-16.2,14.8-24.6c0.7-1.3,1.6-2.7,0-4c-3.6-3-6.9-6.5-11.8-7.4
			c0-1.8-1.3-2.4-2.6-3.4c-8.7-6.4-17.9-12.2-26.6-18.7c-10.3-7.7-20.6-15.4-31.3-22.6C246.6,93.4,244.4,89.6,240,90z M171.6,137.1
			c-2.8-5.3-5.6-8.8-9-12c-2.5-2.3-7.6-1.2-8.9,1.9c-0.4,0.9-0.2,1.4,0.8,1.9C159.7,131.4,165,134,171.6,137.1z M283.1,205.6
			c0.1,0.1,0.2,0.2,0.4,0.4c0.1-0.2,0.3-0.4,0.3-0.7c0-0.1-0.2-0.2-0.3-0.3C283.4,205.2,283.3,205.4,283.1,205.6z"/>
		<path class="st2" d="M234,258c1.3,3.4,0.7,7.4,3.7,10.2c-1.1,5.8-0.7,11.9-2.8,17.5c-3.3,8.8-6.2,18-15.9,22.3
			c-3-3.4-6.1,0.4-9.1,0c-8.3-1.2-16.4-2.8-23.5-7.9c-9-6.4-11.3-15.5-11.1-25.5c0.1-5,0.9-10.2,2.6-15.1c2.5-7.3,0.7-14.2-3.9-20.1
			c-2.1-2.7-0.5-3.4,1.1-4.6c3.9,1.5,7.9,2.2,12.1,1.3c11-2.3,22-3.5,32.1,3.2c0.7,1.1,1,2.6,2.6,2.6c3.3,4,6.6,8.1,9.9,12.1
			C232,255.7,232.4,257.2,234,258z M192.8,252c-0.7-1.2-1.8-1.8-3.1-1.5c-0.7,0.2-0.4,1,0,1.5c-0.1,4.9,0.2,9.9-0.6,14.8
			c-0.6,4,0,8.2,3.4,10.9c6.6,5.3,13.6,10.3,20.4,15.4c0.5,0.6,1,1.8,1.5,1.8c1.2,0,1.3-1.3,1.4-2.2c1-7.6,1.5-15.2,0.9-22.9
			c-0.3-4.2-2.9-7.6-6.5-9.5c-5.5-2.9-11-6.1-17.2-7.5C193,252.5,193,252.3,192.8,252z"/>
		<path class="st3" d="M91,249.1c3.1-2.3,5-5.4,6.1-9c0.9-0.8,1.8-1.5,2.6-2.3c6.2-6.9,12.3-13.8,19.4-19.7c-1.1,5-1.3,10.1-3.2,15
			c-1.5,3.8-2.7,8.1-3.4,12c-2.1,12.3,1,23.8,8.5,34c1.2,1.6,2.4,2.2,4.2,2.1c3,2.7,3.8,5.7,1,9.1l0,0c-8.8,1-9.9,1.8-11.1,7.9
			c0,0,0,0,0,0c-0.3,0.3-0.7,0.7-1,1c0,0,0,0,0,0c-0.4,0.2-1.9-0.6-1,1c0,0.6-0.1,1.2-0.1,1.9c-1.1,0.7-1.1,1.9-1,3
			c-8.3,0.2-18.3-8.3-21.1-17.1c-3.7-12-4.8-23.8,0-35.8C91.3,251.2,91,250.1,91,249.1z M107,293c0.1,0.6,0.1,1.4,0.9,1.5
			c0.2,0,0.6-0.4,0.6-0.6C108.4,293.1,107.6,293.1,107,293c-0.6-1.5-1-3.2-1.9-4.6c-3.6-6-4.9-12.3-5.4-19.3
			c-0.5-6.4,0.3-12.7,0.3-19.4c-2.6,1.7-3.1,3.8-3,6.2c0.1,4.8,0.3,9.7,0,14.5c-0.5,7.6,3.1,13.8,6.2,20.2
			C103.8,292.1,105,293.3,107,293z"/>
		<path class="st4" d="M125.1,281c-1.8,0.1-3-0.5-4.2-2.1c-7.5-10.2-10.7-21.7-8.5-34c0.7-3.9,1.9-8.2,3.4-12c1.9-4.9,2.1-10,3.2-15
			c0.3-0.1,0.7-0.1,1-0.1c2.3,0.4,4.7,0.7,7,1.1c4.4,1.3,8.8,2.4,13.4,2.1c5.3,1.3,10.3,3.7,16,3.3c3.2,3.1,7.8,3.7,11.6,5.8
			c0.3,0.3,0.6,0.7,0.9,1c0.3,2,1.9,1.9,3.3,2.3c-0.9,0.9-1.8,1.8-2.8,2.8c-2.8-0.9-1.3,3-3.3,2.9c-1.3-2-3-3.3-5.2-4.3
			c-10.3-4.9-21.6-6.4-32.4-9.6c-2.9-0.8-4.7,0.1-4.5,3.8c0.4,7.7,0.3,15.2,2.5,23c3.2,10.9,14.5,22.2,27.5,21.1
			c0.2,2.1-0.5,4.4,1.2,6.6c1.5-8.6,6.5-15.4,10.4-22.8c0.9-1.8,1.9-3.1,4.2-2.5c-0.3,0.9-0.4,2-0.9,2.8c-6.7,11.5-4.7,23-0.4,34.8
			c2.7,7.5,7.4,13.3,12.6,19.1c-4.6-1.5-9.5-2.2-13-6l0.2-0.2c1.4,0.1,3.1,0.7,1.3-1.8c-2.6-3.6-5.6-7.1-6.5-11.6
			c-1.2-6.1-2.2-12.3-3.3-18.4c-1.2,10.2-1.5,20.2,5.4,28.8l-0.3,0.3c-0.8-0.2-1.7,0.1-2-1c-4.5-4.5-6-10.7-8.9-16.1
			c-0.1-1.1-0.7-1.6-1.8-2c-4.4-1.5-7.9,0.5-11.2,3c-1.3-0.1-2.6-0.5-3.9-0.4c-5.2,0.3-7.7-2.7-8.9-7.2c-1.6-5.9-4.2-11.4-4.3-17.7
			c-0.1-4.8-2.4-9.2-3-14C120.9,258.3,120.6,269.9,125.1,281z"/>
		<path class="st5" d="M169.4,236.1c0.9-0.9,1.8-1.8,2.8-2.8c0.9,0.1,1.8,0.3,2.7,0.4c0.1,0.4,0.1,0.7,0.2,1.1
			c-1.6,1.2-3.2,1.9-1.1,4.6c4.6,5.9,6.3,12.7,3.9,20.1c-1.6,4.9-2.5,10.1-2.6,15.1c-0.2,9.9,2.1,19.1,11.1,25.5
			c7.2,5.1,15.2,6.7,23.5,7.9c3,0.4,6-3.4,9.1,0c-2.1,4.1-6.7,4.2-10.2,5.2c-6.4,1.8-13.4,1.7-19.9-0.1c-2.6-0.7-5.6-0.2-7.9-2.1
			c-5.1-5.7-9.8-11.6-12.6-19.1c-4.3-11.8-6.3-23.3,0.4-34.8c0.5-0.8,0.6-1.9,0.9-2.8c3.6-3.5,2.7-7.6,1.5-11.6
			C170.5,240.6,169.3,238.5,169.4,236.1z"/>
		<path class="st6" d="M154,285c3,5.4,4.4,11.6,8.9,16.1c-3.2-0.5-6.2,0.7-9.1,1.6c-9.9,3-19.8,4.9-30.1,5.1
			c-4.2,0.1-8.2-0.5-11.7-2.8c-0.1-1.1-0.2-2.2,1-3c1.7,0,3.6,0.4,4.7-1.5c0.6-1,3.2-2.2,0.1-3.4c2.1-3.2,6.8-3.1,8.3-6.9
			c0,0,0,0,0,0c5.2,0,9.8-3.1,15-3.1C145.6,287.8,149.7,285.9,154,285z"/>
		<path class="st7" d="M331.8,152.4c0.1-4.8-2.1-8.6-4.8-12.3C333.2,142,335.1,146.9,331.8,152.4z"/>
		<path class="st8" d="M51.9,187.8c-0.2,3.3,0.8,6.8-0.8,10C48,193.8,48.2,191.1,51.9,187.8z"/>
		<path class="st7" d="M329,157.1c-0.8-2.3,0.9-3.3,2.4-4.3C331.1,154.4,330.9,156.2,329,157.1z"/>
		<path class="st4" d="M168,305c-2.2,0.3-2.1-1.9-3.1-2.9c0,0,0.3-0.3,0.3-0.3c1.6,0.3,2.6,1.3,3,3L168,305z"/>
		<path class="st8" d="M208.9,138c-5.7-0.9-9.3-5.2-13.6-8.3c-3.4-2.5,2.4-2.6,1.6-4.7c6.1-0.3,12.2,0.1,18.4-0.8
			c3.4-0.5,7.1-2.5,10.6-0.3c5.7,2.9,10.9,6.7,15.7,10.8c1.6,1.3,3.1,2.4,5.2,2.2c0,0,0,0,0,0c0.2,3.1,2.8,3.4,5,4.1
			c1.8,2.5,3.5,4.9,7,4.9l0,0c0.1,1.9,1.1,2.9,3,3l0,0c2.5,2.8,4.9,5.5,9,6l0,0c0.1,1.9,1.1,2.9,3,3c0.4,0.8,1.2,1,2,1
			c0.3,0,0.7,0,1,0c4.6,6.4,11.5,10,18,14c2,1,3.8,3.8,5.9-0.1c3.4-6.1,7.1-12.1,10.6-18.2c1.4-2.4,3.1-4.9,3.8-7.3
			c0.9-3.1-3.6-3.7-5-5.9c-0.3-0.4-0.2-0.9-0.3-1.4l0,0c4.9,0.9,8.2,4.3,11.8,7.4c1.6,1.3,0.7,2.7,0,4c-4.7,8.3-9,16.9-14.8,24.6
			c-2.3,0-2.8,2.1-3.9,3.4c-5.7,6.9-10.2,8.4-16.7,5.2c-13.8-6.8-26.4-15.4-38.7-24.6c-10.2-7.6-20.6-14.8-31.4-21.4
			C214.2,137.2,211.5,135.7,208.9,138z"/>
		<path class="st8" d="M168.9,231.1c-0.3-0.3-0.6-0.7-0.9-1c0.1-1.2,0.5-2.3,1.7-2.8c10.2-4.8,19.4-11.3,29.2-16.8
			c11.8-6.5,23.7-12.8,35.5-19.3c4.2-2.3,7.9-5.3,12.3-7.2c5.1-2.1,9-1.5,12.2,3c4.5,6.2,9.8,11.9,12.1,19.5c0.3,1,1,1.2,1.9,1.3
			c-0.2,3.6,1.2,7,2.7,10c1.6,3.2,0.8,5.1-1.3,7.5c-6,6.9-14,11.1-21.4,16c-6.8,4.5-14,8.4-21.1,12.6c-3.3-4-6.6-8.1-9.9-12.1
			c0.1-2,1.8-2.3,3-3.2c2.6-2,6.7-2,8-5.7l0,0c2.6,0.3,4.8-0.4,6-3l0,0c2.4,0.2,3.9-1,5-3c5.9-0.7,10.1-4.9,15-7.5
			c2.1-1.1,5.3-1.3,6-4.5c2.2,0,4-0.6,2.2-3.2c-5.4-7.9-10.9-15.6-16.3-23.5c-1.6-2.3-2.7-2.3-5.2-0.9
			c-13.2,7.2-25.9,15.2-39.3,22.2c-4.3,2.3-9.3,4.2-12.5,8.4c-7.1,1.7-12.5,7-19.1,9.9c-1.1,0.5-0.9,2-0.9,3.2
			C172.3,230.2,170.6,229.1,168.9,231.1z"/>
		<path class="st9" d="M96,238c-5.9,0.8-7.6-4.5-9.9-7.8c-6-8.6-13.4-16-19.2-24.7c-2.3-3.4-4.4-7.1-7.6-9.8
			c-1.5-1.3-1.9-3.1,0.4-3.9c7.3-2.4,13.4-7.1,20.5-10c1.6-0.6,3.2-0.9,4.9-0.8c3.5,4.2,5.4,9.5,9.8,13c1.5,4.9,6.5,7.3,8.2,12
			C102.3,217,97.3,227.1,96,238z"/>
		<path class="st9" d="M226,124c-3.6-2.2-7.3-0.2-10.6,0.3c-6.2,0.9-12.3,0.5-18.4,0.8c-1.6-0.3-3.6,0.8-4.6-0.9
			c-1-1.7,0.9-2.6,1.7-3.7c8.7-13.7,17.4-27.3,25.9-41c1.9-3,3.8-2.9,5.9-0.8c3.5,3.3,6.8,6.8,10.7,9.7c1.1,0.8,1.9,1.9,3.4,1.9
			c0.4,2.6,3.4,3.5,4,6c0,1.7-1.4,2.5-2.2,3.7c-2.4,3.3-5.6,6.1-6.8,10.2C231.6,114.4,227.8,118.5,226,124z"/>
		<path class="st9" d="M131,191c-3.3-0.8-1.9-2.9-1.1-4.6c4.8-10.9,9.6-21.9,14.4-32.8c1.7-3.9,3.5-7.8,5.3-11.8
			c1.5-3.3,2.9-4.5,6.5-1.5c5.3,4.4,11.3,7.9,17.1,11.5c1.4,0.9,1.7,1.8,1.7,3.1c0.1,1.6-0.8,2.7-1.4,4.1c-1.5,3.9-4.7,7.2-4.7,11.7
			c-4.2,3-3.7,8.3-6.1,12.2C152.6,187,141.8,188.9,131,191z"/>
		<path class="st10" d="M169,170.8c0-4.5,3.2-7.8,4.7-11.7c0.5-1.4,1.5-2.5,1.4-4.1c6.1-1.7,10.5,2.8,15.5,4.7
			c2.4,0.9,4.3,2.8,6.5,4.3c-0.4,0.9-0.6,1.9-1.2,2.6c-4.4,5.5-4.3,9.4,1.2,13.8c4.8,3.8,9.4,7.7,14,11.6c-3.6,4.5-8.7,6.4-14,8
			c-6-3.5-11.8-7.2-18-10.3c-7.7-3.8-11.9-9-10-17.9C169.1,171.5,169,171.1,169,170.8z"/>
		<path class="st8" d="M131,191c10.8-2.1,21.6-4,31.8-8.1c0.2,1,0.8,1.6,1.8,2.1c10.2,5.2,20.3,10.6,30.4,15.9
			c-4.7,5-10.8,7.5-17,10c-7.6-3.4-15.1-6.9-22.7-10.3c-2.4-1.1-5-1.6-7.4,0.3c-6.3,0.5-10.6-3.9-15.7-6.4
			C130.9,194,131,192.4,131,191z"/>
		<path class="st10" d="M94.8,194c-4.4-3.5-6.3-8.8-9.8-13c-0.8-3.1,1.7-4.4,3.5-6c4.3-3.8,9.1-7,14.5-9.1c0.4,1.2,0.8,2.5,1.4,3.7
			c3.2,6.4,5.6,7.3,12.1,4.6c3.5-1.4,7-2.8,10.5-4.2c-1.1,6.1-5,10.9-7.3,16.5c-1,2.5-2,4.9-1.7,7.6c-0.6,0.2-1.4,0.2-1.9,0.5
			c-6.3,4.4-12.6,6.8-19,0.1C96.6,194.2,95.6,194.2,94.8,194z"/>
		<path class="st7" d="M208.9,138c2.6-2.3,5.2-0.8,7.3,0.5c10.8,6.7,21.2,13.8,31.4,21.4c12.2,9.1,24.9,17.8,38.7,24.6
			c6.5,3.2,11,1.7,16.7-5.2c1.1-1.3,1.6-3.4,3.9-3.4c-3.4,6-6.6,12.1-10.4,17.8c-2.8,4.2-5.9,4.3-10.1,1.3
			c-16.8-12-33.5-24.1-50.4-35.9c-8-5.6-15.5-11.8-23.9-16.8C210.7,141.5,210,139.5,208.9,138z"/>
		<path class="st8" d="M96,238c1.3-10.9,6.3-21,7-32c5-3,10-6,15-9c4.6,3.8,9.8,6.5,15.1,9.1c-0.8,1.5-2.3,2.2-3.5,3.3
			c-3.1,3-7.8,4.2-9.6,8.5c-0.3,0-0.7,0.1-1,0.1c-7.1,5.9-13.2,12.9-19.4,19.7c-0.8,0.9-1.7,1.6-2.6,2.3
			C96.7,239.4,96.3,238.7,96,238z"/>
		<path class="st11" d="M211,192c-4.6-3.9-9.2-7.9-14-11.6c-5.5-4.3-5.6-8.3-1.2-13.8c0.6-0.7,0.8-1.7,1.2-2.6
			c9.4,4.6,19,9.1,28.3,14c1.7,0.9,5.2,0.7,4.9,3.2c-0.3,2.4-3.3,3.3-5.6,4.2C219.9,187.3,216.5,191.8,211,192z"/>
		<path class="st11" d="M127,170c-3.5,1.4-7,2.8-10.5,4.2c-6.5,2.7-8.9,1.9-12.1-4.6c-0.6-1.2-0.9-2.4-1.4-3.7
			c9.3-6.9,18.5-13.8,28.2-20.1c3-1.9,5.5-4.6,10.2-6.2C135.6,150.3,132.5,160.7,127,170z"/>
		<path class="st7" d="M231.9,254.1c7-4.2,14.3-8.1,21.1-12.6c7.4-4.9,15.4-9.1,21.4-16c2.1-2.4,2.9-4.3,1.3-7.5
			c-1.5-3-2.9-6.4-2.7-10c4.5,4.9,7.3,10.9,11.1,16.2c2.2,3,0.7,6.9-2.7,8.8c-13.9,7.9-27.8,15.7-41.7,23.6c-1.8,1-3.6,1.7-5.7,1.4
			C232.4,257.2,232,255.7,231.9,254.1z"/>
		<path class="st8" d="M244,96c-0.6-2.5-3.6-3.4-4-6c4.4-0.4,6.6,3.4,9.6,5.3c10.7,7.2,21,14.9,31.3,22.6
			c8.6,6.5,17.9,12.3,26.6,18.7c1.2,0.9,2.6,1.6,2.6,3.4c0,0,0,0,0,0c-2.1,0.1-3.8-0.8-5.5-2c-8.2-5.9-16.3-11.8-24.5-17.5
			c-5.5-3.8-10-9.1-17-10.5C258.1,103.4,251.2,99.5,244,96z"/>
		<path class="st0" d="M184.1,133.9c4.2,1.2,7.2,4.4,10.7,6.6c8.2,5.4,15.9,11.5,23.8,17.3c1.4,1,2.6,1.9,2.4,4.4
			c-12.7-6.9-27.4-10.1-35.7-23.2c-0.9-1.4-1.6-2.9-2.4-4.3C183.3,134.4,183.7,134.2,184.1,133.9z"/>
		<path class="st7" d="M147.9,201c2.4-1.8,5-1.3,7.4-0.3c7.6,3.3,15.1,6.8,22.7,10.3c-3,3.7-5.9,4.7-10.4,1.6
			c-4.5-3.1-10-4.9-15-7.3C150.6,204.3,149.1,202.9,147.9,201z"/>
		<path class="st7" d="M195,201c-10.1-5.3-20.2-10.7-30.4-15.9c-1-0.5-1.6-1.1-1.8-2.1c2.4-3.9,1.9-9.2,6.1-12.2c0,0.3,0.1,0.7,0,1
			c-1.9,8.9,2.4,14.2,10,17.9c6.2,3,12,6.8,18,10.3C196.6,200.8,195.8,201,195,201z"/>
		<path class="st0" d="M156.4,224.3c-5.6,0.4-10.7-2-16-3.3c4.5-6.7,9.7-8,16.2-3.9c0.3,0.2,0.4,0.6,0.7,0.6
			c1.9,0.4,4.6,1.1,4.3,2.9C161.3,222.6,158.9,224,156.4,224.3z"/>
		<path class="st7" d="M120,217.9c1.8-4.4,6.5-5.6,9.6-8.5c1.1-1.1,2.7-1.8,3.5-3.3c1.3,0,2.1,0.9,3.1,1.4c3.6,1.8,2.3,3-0.2,4.7
			c-3.1,2.1-6,4.6-9,6.9C124.7,218.6,122.3,218.2,120,217.9z"/>
		<path class="st7" d="M118,197c-5,3-10,6-15,9c-1.8-4.7-6.8-7.1-8.2-12c0.8,0.2,1.9,0.1,2.3,0.6c6.4,6.7,12.7,4.3,19-0.1
			c0.5-0.4,1.2-0.4,1.9-0.5C118.7,195,118.7,196,118,197z"/>
		<path class="st8" d="M171.6,137.1c-6.6-3.2-11.9-5.7-17.2-8.2c-1-0.5-1.1-1-0.8-1.9c1.3-3.1,6.5-4.2,8.9-1.9
			C166,128.3,168.8,131.9,171.6,137.1z"/>
		<path class="st0" d="M182.9,134.7c-1.4-0.4-2-1.6-2.6-2.8c0.3-0.4,0.6-0.8,1-1.2c1.4,0.6,2.4,1.7,2.8,3.1
			C183.7,134.2,183.3,134.4,182.9,134.7z"/>
		<path class="st0" d="M283.1,205.6c0.1-0.2,0.2-0.4,0.4-0.6c0.1,0.1,0.3,0.2,0.3,0.3c-0.1,0.2-0.2,0.4-0.3,0.7
			C283.4,205.9,283.3,205.8,283.1,205.6z"/>
		<path class="st10" d="M265,215c-0.7,3.2-3.8,3.3-6,4.5c-5,2.6-9.1,6.8-15,7.5c-2.2,0.1-4.4,0.1-5,3c0,0,0,0,0,0
			c-2.5,0-4.7,0.7-6,3c0,0,0,0,0,0c-5.4,0.3-9.1,4.2-13.7,6.3c-10.1-6.8-21.1-5.5-32.1-3.2c-4.2,0.9-8.2,0.2-12.1-1.3
			c-0.1-0.4-0.1-0.7-0.2-1.1c-0.3-0.9-0.6-1.8-0.9-2.7c0.1-1.1-0.2-2.7,0.9-3.2c6.6-2.9,11.9-8.1,19.1-9.9
			c2.4,8.4,1.8,11.2,14.4,7.8c8.4-2.2,16.5-6,25.6-4.8c1.1,0.1,2.3-0.3,3.4-0.6C246.5,218.2,255.7,216.3,265,215z"/>
		<path class="st12" d="M212.9,293.1c-6.8-5.1-13.7-10-20.4-15.4c-3.3-2.7-4-6.9-3.4-10.9c0.8-5,0.5-9.9,0.6-14.8c1,0,2,0,3.1-0.1
			c0.1,0.3,0.2,0.5,0.2,0.8c1.2,5.8,6.3,8.5,10.4,11.7c4.5,3.5,7.9,7.3,7.6,13.4c-0.1,2.4,0.8,4.6,1.8,6.6
			C214.3,287.5,214.5,290.3,212.9,293.1z"/>
		<path class="st13" d="M212.9,293.1c1.5-2.9,1.3-5.7-0.1-8.5c-1-2.1-2-4.2-1.8-6.6c0.3-6.1-3.1-9.9-7.6-13.4
			c-4.1-3.2-9.1-5.9-10.4-11.7c6.2,1.4,11.6,4.6,17.2,7.5c3.7,1.9,6.2,5.3,6.5,9.5c0.6,7.6,0.1,15.3-0.9,22.9
			c-0.1,0.9-0.2,2.2-1.4,2.2C213.9,294.9,213.4,293.8,212.9,293.1z"/>
		<path class="st11" d="M219.3,239.3c4.5-2.1,8.3-6,13.7-6.3c-1.3,3.7-5.4,3.7-8,5.7c-1.3,1-3,1.2-3,3.2
			C220.3,241.9,220,240.4,219.3,239.3z"/>
		<path class="st13" d="M192.8,252c-1,0-2,0-3.1,0.1c-0.4-0.5-0.7-1.4,0-1.5C191,250.2,192.2,250.8,192.8,252z"/>
		<path class="st10" d="M141,286.9c-5.2,0-9.8,3.1-15,3.1c2.8-3.4,2-6.3-1-9.1c-4.5-11.1-4.2-22.7-4.2-34.4c0.6,4.8,2.9,9.2,3,14
			c0.1,6.3,2.7,11.8,4.3,17.7c1.2,4.5,3.7,7.5,8.9,7.2c1.3-0.1,2.6,0.2,3.9,0.4C141,286.3,141,286.6,141,286.9z"/>
		<path class="st10" d="M107,293c-2,0.3-3.2-0.9-3.9-2.4c-3-6.4-6.7-12.6-6.2-20.2c0.3-4.8,0.1-9.6,0-14.5c0-2.5,0.4-4.5,3-6.2
			c0,6.7-0.8,13-0.3,19.4c0.5,7,1.8,13.3,5.4,19.3C106,289.8,106.4,291.5,107,293L107,293z"/>
		<path class="st10" d="M126.1,290.1c-1.6,3.8-6.3,3.7-8.3,6.9c-0.9,0.3-1.8,0.7-2.7,1C116.2,291.9,117.3,291.1,126.1,290.1z"/>
		<path class="st7" d="M115,298c0.9-0.3,1.8-0.7,2.7-1c3.1,1.2,0.5,2.4-0.1,3.4c-1,1.9-3,1.5-4.7,1.5c0-0.6,0.1-1.2,0.1-1.9
			c0.3-0.3,0.6-0.7,1-1c0,0,0,0,0,0C114.4,298.7,114.7,298.4,115,298C115,298,115,298,115,298z"/>
		<path class="st10" d="M107,293c0.6,0.1,1.4,0.1,1.5,0.9c0,0.2-0.4,0.6-0.6,0.6C107.1,294.4,107.1,293.6,107,293
			C107,293,107,293,107,293z"/>
		<path class="st10" d="M114,299c-0.3,0.3-0.6,0.7-1,1C112.1,298.5,113.6,299.3,114,299z"/>
		<path class="st10" d="M115,298c-0.3,0.3-0.7,0.7-1,1C114.4,298.7,114.7,298.4,115,298z"/>
		<path class="st14" d="M154,273c-13,1.1-24.3-10.2-27.5-21.1c-2.3-7.8-2.1-15.3-2.5-23c-0.2-3.6,1.7-4.6,4.5-3.8
			c10.8,3.2,22.1,4.7,32.4,9.6c2.2,1.1,3.9,2.3,5.2,4.3c-0.6,7.2-5.6,12.2-9,18c-0.9-1.5-2.1-2.8-3.9-1.5c-1.9,1.3-1,2.6,0.2,4
			c0.8,0.9,1.1,2.3,1.6,3.5C154.7,266.4,154.3,269.7,154,273z M156.6,248.8c0.7-0.2,2.8-0.1,3.2-2.4c0.3-2,0.8-4.1-1.4-5.9
			c-6.4-5.2-14.4-6.9-21.6-10.4c-1.1-0.5-2.9-0.7-3.5,0.9c-0.6,1.6-0.7,3.3,0.3,4.8C139,243.6,146.1,248.2,156.6,248.8z"/>
		<path class="st3" d="M157.1,257.1c3.3-5.8,8.3-10.9,9-18c2.1,0.1,0.5-3.9,3.3-2.9c-0.1,2.4,1.1,4.4,1.8,6.6
			c1.3,4,2.1,8.1-1.5,11.6c-2.2-0.6-3.3,0.7-4.2,2.5c-3.9,7.4-8.9,14.2-10.4,22.8c-1.7-2.1-0.9-4.4-1.2-6.6c0.3-3.3,0.7-6.6,1-9.9
			C158.4,262,156.4,259.1,157.1,257.1z"/>
		<path class="st10" d="M168.2,304.8c-0.4-1.6-1.4-2.6-3-3c-6.9-8.6-6.7-18.6-5.4-28.8c1.1,6.1,2.1,12.3,3.3,18.4
			c0.9,4.5,3.8,8,6.5,11.6C171.3,305.4,169.6,304.9,168.2,304.8z"/>
		<path class="st11" d="M141,286.9c0-0.3,0-0.7,0-1c3.3-2.5,6.7-4.5,11.2-3c1.1,0.4,1.7,0.9,1.8,2
			C149.7,285.9,145.6,287.8,141,286.9z"/>
		<path class="st9" d="M174,231c0.3,0.9,0.6,1.8,0.9,2.7c-0.9-0.1-1.8-0.3-2.7-0.4c-1.4-0.4-3-0.3-3.3-2.3
			C170.6,229.1,172.3,230.2,174,231z"/>
		<path class="st11" d="M263,110c7,1.4,11.5,6.8,17,10.5c8.3,5.7,16.4,11.6,24.5,17.5c1.6,1.2,3.3,2.1,5.5,2c0.1,0.5,0.1,1,0.3,1.4
			c1.5,2.3,6,2.8,5,5.9c-0.7,2.4-2.4,4.9-3.8,7.3c-3.5,6.1-7.2,12-10.6,18.2c-2.1,3.9-4,1.1-5.9,0.1c0.3-2.8-1.7-4.6-3.1-6.5
			c-2.7-3.9-5.6-7.6-8.5-11.4c-7.2-9.4-12.6-20.1-21.2-28.6c-6.8-6.7-6.2-9,0.3-15.6C262.7,110.6,262.8,110.3,263,110z"/>
		<path class="st10" d="M263,110c-0.2,0.3-0.3,0.6-0.5,0.9c-6.5,6.6-7,8.9-0.3,15.6c8.6,8.5,14,19.1,21.2,28.6
			c2.9,3.8,5.7,7.6,8.5,11.4c1.4,2,3.4,3.7,3.1,6.5c-6.5-4-13.4-7.6-18-14c-0.3-0.7-0.7-0.7-1,0c-0.8,0-1.6-0.2-2-1
			c-0.1-1.9-1.1-2.9-3-3c0,0,0,0,0,0c-2-3.5-4.8-5.7-9-6c0,0,0,0,0,0c-0.1-1.9-1-2.9-3-3c0,0,0,0,0,0c-0.6-3.3-3.4-4-5.9-5
			c-2-1.4-3.3-3.7-6.1-4c0,0,0,0,0,0c-1.4-2.9-4.2-4.4-6.5-6.4c-6.5-5.5-9.9-10-5.8-17.3c0.5-0.9,0.2-2.3,0.3-3.4
			c1.2-4.1,4.4-6.9,6.8-10.2c0.9-1.2,2.2-2,2.2-3.7C251.2,99.5,258.1,103.4,263,110z"/>
		<path class="st7" d="M235,110c-0.1,1.1,0.2,2.5-0.3,3.4c-4.1,7.3-0.7,11.8,5.8,17.3c2.3,2,5.1,3.4,6.5,6.4
			c-2.1,0.2-3.6-0.9-5.2-2.2c-4.9-4.1-10-7.9-15.7-10.8C227.8,118.5,231.6,114.4,235,110z"/>
		<path class="st11" d="M262,149c4.2,0.2,7,2.4,9,6C267,154.6,264.5,151.8,262,149z"/>
		<path class="st11" d="M253.1,141c2.6,1,5.3,1.7,5.9,5c-3.5,0.1-5.3-2.4-7-4.9C252.3,141.1,252.7,141,253.1,141z"/>
		<path class="st7" d="M253.1,141c-0.4,0-0.7,0.1-1.1,0.1c-2.2-0.7-4.7-1.1-5-4.1C249.7,137.3,251.1,139.7,253.1,141z"/>
		<path class="st11" d="M271,155c1.9,0.1,2.9,1.1,3,3C272.1,157.9,271.1,156.9,271,155z"/>
		<path class="st11" d="M259,146c1.9,0,2.9,1,3,3C260.1,148.9,259.1,147.9,259,146z"/>
		<path class="st11" d="M276,159c0.3-0.7,0.7-0.7,1,0C276.7,159,276.3,159,276,159z"/>
		<path class="st11" d="M265,215c-9.3,1.3-18.5,3.2-27.6,5.3c-1.1,0.3-2.3,0.7-3.4,0.6c-9.1-1.1-17.2,2.6-25.6,4.8
			c-12.5,3.4-12,0.6-14.4-7.8c3.2-4.2,8.2-6.1,12.5-8.4c13.3-7,26.1-14.9,39.3-22.2c2.5-1.4,3.6-1.4,5.2,0.9
			c5.3,7.9,10.9,15.6,16.3,23.5C269,214.4,267.2,215,265,215z"/>
		<path class="st11" d="M233,233c1.3-2.3,3.5-3,6-3C237.8,232.6,235.6,233.3,233,233z"/>
		<path class="st11" d="M239,230c0.6-2.9,2.8-2.9,5-3C243,229,241.4,230.2,239,230z"/>
		<path class="st15" d="M156.6,248.8c-10.5-0.7-17.6-5.3-22.9-12.9c-1-1.5-0.9-3.3-0.3-4.8c0.6-1.6,2.4-1.5,3.5-0.9
			c7.2,3.5,15.2,5.2,21.6,10.4c2.2,1.8,1.8,3.9,1.4,5.9C159.4,248.7,157.2,248.7,156.6,248.8z"/>
		<path class="st15" d="M157.1,257.1c-0.7,2,1.3,4.9-2.1,5.9c-0.5-1.2-0.8-2.6-1.6-3.5c-1.2-1.4-2.1-2.7-0.2-4
			C155.1,254.3,156.2,255.6,157.1,257.1z"/>
	</g>
</g>
</svg>
