
<svg width="648px" height="652px" viewBox="0 0 648 652" version="1.1" xmlns="http://www.w3.org/2000/svg" xmlns:xlink="http://www.w3.org/1999/xlink">
    <!-- Generator: Sketch 50.2 (55047) - http://www.bohemiancoding.com/sketch -->
    <desc>Created with Sketch.</desc>
    <defs></defs>
    <g id="Page-1" stroke="none" stroke-width="1" fill="none" fill-rule="evenodd">
        <g id="facebook_hover" transform="translate(35.000000, 26.000000)">
            <ellipse id="hover" stroke="#FF8729" stroke-width="109" cx="289.001" cy="300" rx="269.4995" ry="271.339087"></ellipse>
            <circle id="Oval" fill="#4E598F" fill-rule="nonzero" cx="289.001" cy="300" r="256"></circle>
            <path d="M544.596,285.7 L424.019,165.085 C422.021,165.69 417.037,163.371 414.846,163.811 C363.129,172.431 313.136,163.811 263.142,177.602 C239.007,184.498 237.283,213.804 228.664,232.767 C216.597,267.245 218.321,305.171 202.805,337.925 C192.462,360.336 168.327,374.127 159.707,399.986 C156.832,410.771 157.002,424.365 153.751,434.676 L274.731,555.598 C279.456,555.858 284.211,556.001 289,556.001 C430.384,556.001 545,441.385 545,300.001 C545.001,295.201 544.858,290.434 544.596,285.7 Z" id="Shape" fill="#364270" fill-rule="nonzero"></path>
            <g id="Group" transform="translate(142.000000, 153.000000)" fill="#FFFFFF" fill-rule="nonzero">
                <path d="M254.043,0.466 L39.958,0.466 C18.149,0.466 0.468,18.146 0.468,39.956 L0.468,254.041 C0.468,275.852 18.148,293.531 39.958,293.531 L145.542,293.531 L145.725,188.809 L118.515,188.809 C114.979,188.809 112.109,185.949 112.097,182.413 L111.964,148.654 C111.95,145.101 114.831,142.21 118.384,142.21 L145.546,142.21 L145.546,109.592 C145.546,71.74 168.664,51.129 202.43,51.129 L230.14,51.129 C233.683,51.129 236.56,54.003 236.56,57.549 L236.56,86.012 C236.56,89.558 233.686,92.432 230.144,92.432 L213.138,92.442 C194.775,92.442 191.217,101.167 191.217,113.975 L191.217,142.214 L231.568,142.214 C235.416,142.214 238.398,145.572 237.943,149.387 L233.942,183.146 C233.561,186.378 230.82,188.811 227.567,188.811 L191.399,188.811 L191.216,293.537 L254.042,293.537 C275.851,293.537 293.532,275.855 293.532,254.046 L293.532,39.956 C293.533,18.147 275.852,0.466 254.043,0.466 Z" id="Shape"></path>
                <polygon id="Shape" points="145.542 293.53 145.725 188.808 145.277 188.808 145.277 293.53"></polygon>
            </g>
            <path d="M396.043,153.466 L287.277,153.466 L287.277,295.207 L287.546,295.207 L287.546,262.59 C287.546,224.738 310.664,204.127 344.43,204.127 L372.14,204.127 C375.683,204.127 378.56,207.001 378.56,210.547 L378.56,239.01 C378.56,242.556 375.686,245.43 372.144,245.43 L355.138,245.44 C336.775,245.44 333.217,254.165 333.217,266.973 L333.217,295.211 L373.568,295.211 C377.416,295.211 380.398,298.569 379.943,302.384 L375.942,336.143 C375.561,339.375 372.82,341.808 369.567,341.808 L333.399,341.808 L333.216,446.534 L396.042,446.534 C417.851,446.534 435.532,428.852 435.532,407.043 L435.532,192.956 C435.533,171.147 417.852,153.466 396.043,153.466 Z" id="Shape" fill="#D1D1D1" fill-rule="nonzero"></path>
        </g>
    </g>
</svg>