<?xml version="1.0" encoding="utf-8"?>
<!-- Generator: Adobe Illustrator 21.1.0, SVG Export Plug-In . SVG Version: 6.00 Build 0)  -->
<svg version="1.1" id="Layer_1" xmlns="http://www.w3.org/2000/svg" xmlns:xlink="http://www.w3.org/1999/xlink" x="0px" y="0px"
	 viewBox="0 0 380 380" style="enable-background:new 0 0 380 380;" xml:space="preserve">
<style type="text/css">
	.st0{fill:#FEFEFE;}
	.st1{fill:#F37723;}
	.st2{fill:#6EB744;}
	.st3{fill:#3C7C3A;}
	.st4{fill:#F58B1F;}
	.st5{fill:#909531;}
	.st6{fill:#F8A01B;}
	.st7{fill:#4B903D;}
	.st8{fill:#879533;}
	.st9{fill:#AEBB33;}
	.st10{fill:#FDFAF3;}
</style>
<g>
	<g>
		<path class="st0" d="M190.5,381c-61.8,0-123.7,0-185.5,0.1c-3.4,0-4.1-0.7-4.1-4.1C1,253,1,129,0.9,5c0-3.4,0.7-4.1,4.1-4.1
			C129,1,253,1,377,0.9c3.4,0,4.1,0.7,4.1,4.1c-0.1,124-0.1,248,0,372c0,3.4-0.7,4.1-4.1,4.1C314.8,381,252.7,381,190.5,381z
			 M210.1,91.2c-1.4-1.6-3-3.1-4-4.9c-7.3-13-19-20.8-32.6-24.7c-19-5.5-37.6-3.3-54.7,7.7c-9.9,6.4-17.9,14.9-25.1,24
			c-7.6,9.6-12.2,21.6-23.5,28.3c-1.4,0.8-2,2.8,0.4,3.2c4.9,0.9,9.1,3.4,13.7,4.9c6.4,2.1,13.4,2.4,20.2,3.5
			c-0.2,0.8-0.1,1.8-0.6,2.4c-7.3,9.4-13,19.7-16.9,31c-3,8.9-5.7,18-6.5,27.2c-1.6,18.3,0.7,36,7.1,53.6
			c5.6,15.4,14.3,28.5,25.1,40.4c10.8,11.8,23.9,20.3,38.6,26.8c11.3,5.1,23,8.3,35.1,9c10.2,0.6,20.3,0.6,30.6-1.3
			c11-1.9,21.4-5.2,31.3-9.7c11.6-5.3,22-12.7,31-21.8c12.1-12.2,21.3-26,27.2-42.3c4.1-11.3,7.3-22.6,7.5-34.6
			c0.4-17.5-0.4-34.7-7.8-51.1c-3.9-8.7-7.6-17.5-13.5-25c-12.6-16-26.9-30-46.1-38.2c-6.6-2.8-13.1-6.3-20.5-6.6
			c-0.3-2.2,0.3-4.2,0.8-6.3c0.5-2.5,0.5-5.3-2.5-6.8c-3.2-1.6-6.1-1.1-8.6,1.3c-1.6,1.5-2.9,3.5-2.6,5.7
			C213.5,89.4,211.8,90.2,210.1,91.2z"/>
		<path class="st1" d="M226.1,92.9c7.4,0.3,13.9,3.8,20.5,6.6c19.1,8.2,33.5,22.3,46.1,38.2c5.9,7.4,9.5,16.3,13.5,25
			c7.4,16.4,8.2,33.6,7.8,51.1c-0.3,12.1-3.4,23.3-7.5,34.6c-6,16.3-15.2,30.2-27.2,42.3c-9,9.1-19.4,16.6-31,21.8
			c-9.9,4.5-20.3,7.7-31.3,9.7c-10.3,1.8-20.5,1.8-30.6,1.3c-12.1-0.7-23.9-3.9-35.1-9c-14.6-6.6-27.8-15-38.6-26.8
			c-10.8-11.9-19.5-24.9-25.1-40.4c-6.4-17.5-8.7-35.3-7.1-53.6c0.8-9.3,3.4-18.4,6.5-27.2c3.9-11.3,9.6-21.6,16.9-31
			c0.5-0.6,0.4-1.6,0.6-2.4c8.8,2.1,17.8,0.5,26.7,1.5c0,1.2-0.7,2.1-1.4,3.1c-6.7,10-11.6,20.9-15,32.5c-3.1,10.4-2.5,21-2.7,31.6
			c-0.2,12.6,3.7,24.3,9.1,35.2c5.7,11.8,13.5,22.1,23.5,31c17.9,15.9,39,23.2,62.4,24.7c13.4,0.9,26.2-2.9,38.6-7.4
			c6.6-2.4,12.8-6.1,18.6-10.2c10.9-8,20.2-17.3,27.4-29c8.5-13.7,13.1-28.4,14.4-44.2c1.1-13.5-0.6-26.7-5.2-39.5
			c-2.8-8-6.4-15.6-11.3-22.5c-5.9-8.3-12.3-15.8-20.7-21.9c-10.5-7.8-21.6-13.7-34.2-17.2c-3-0.8-6.7-0.8-8.8-4
			c-0.1-0.7-0.3-1.4-0.4-2C225.7,94.2,225.9,93.6,226.1,92.9z"/>
		<path class="st2" d="M131,134.8c-8.9-1-17.9,0.6-26.7-1.5c-6.8-1.1-13.7-1.4-20.2-3.5c-4.6-1.5-8.8-4-13.7-4.9
			c-2.4-0.4-1.7-2.4-0.4-3.2c11.3-6.6,15.9-18.6,23.5-28.3c7.1-9.1,15.2-17.6,25.1-24c17.1-11,35.7-13.2,54.7-7.7
			c13.6,3.9,25.3,11.7,32.6,24.7c1,1.8,2.7,3.3,4,4.9c0.2,0.8,1.1,1.6,0.4,2.3c-1.3,1.2-2.5,0.1-3.6-0.6
			c-16.1-9.6-33.5-10.2-51.4-7.2c-14.6,2.5-28,8.4-40.5,16.2c-3.9-0.2-5.4,4.2-8.9,4.8c-0.6,0.1-0.9,1-0.5,1.6
			c0.2,0.3,1.1,0.6,1.3,0.4c2.2-1.9,5.9-1.3,7.2-4.5c1.3-0.1,2.6-0.3,3.9-0.4c1.3,0.2,2-0.5,2.2-1.7c6.1-1.6,12.2-3.2,18.2-4.8
			c14.2-3.7,28.7-5.5,43.1-2.1c7.3,1.7,15.2,2.5,20.7,8.7c-0.8,0.4-1.2,1-1.3,1.9c-10,6.4-20,12.7-30,19.1
			c-5.3,1.8-10.6,3.4-15.8,5.4C147.4,133.1,138.9,132.4,131,134.8z"/>
		<path class="st3" d="M115,101.9c12.5-7.9,25.9-13.7,40.5-16.2c17.9-3.1,35.3-2.4,51.4,7.2c1.1,0.6,2.3,1.8,3.6,0.6
			c0.7-0.7-0.2-1.5-0.4-2.3c1.7-1,3.4-1.7,3.1-4.3c-0.3-2.3,1-4.2,2.6-5.7c2.5-2.4,5.4-2.8,8.6-1.3c3,1.5,3,4.3,2.5,6.8
			c-0.4,2.1-1.1,4.1-0.8,6.3c-0.2,0.6-0.4,1.2-0.7,1.9c-1.9,1.7-2.1,3.8-1.6,6.2c-0.1,0.9-0.3,1.9-0.4,2.8
			c-3.1,4.1-2.4,8.7-2.2,13.3c-0.4,4.2-3.1,6.9-6.8,7.4c-3.2,0.4-5.9-1.8-6.8-5.3c0.7-2.8,0.4-5.6,0.3-8.4c0-0.5,0-1.1-0.1-1.6
			c0.3-2-0.7-3-2.6-3.3l-0.1-0.1c-0.2-1.8-1.5-1.8-2.9-1.9c-5.5-6.2-13.5-6.9-20.7-8.7c-14.5-3.4-28.9-1.6-43.1,2.1
			c-6.1,1.6-12.2,3.2-18.2,4.8c-1.3-0.1-2,0.5-2.2,1.8c-1.3,0.1-2.6,0.3-3.9,0.4C114.3,103.5,114.7,102.7,115,101.9z"/>
		<path class="st4" d="M223.4,103.8c0.1-0.9,0.3-1.9,0.4-2.8c1.7-0.9,0.7-3.1,2.1-4.1c2.1,3.1,5.8,3.1,8.8,4
			c12.6,3.5,23.7,9.5,34.2,17.2c8.3,6.1,14.8,13.7,20.7,21.9c4.9,6.9,8.5,14.5,11.3,22.5c4.6,12.8,6.3,26,5.2,39.5
			c-1.3,15.8-5.9,30.5-14.4,44.2c-7.2,11.7-16.5,21.1-27.4,29c-5.7,4.2-12,7.8-18.6,10.2c-12.4,4.5-25.2,8.3-38.6,7.4
			c-23.4-1.5-44.5-8.8-62.4-24.7c-10-8.9-17.8-19.2-23.5-31c-5.3-11-9.2-22.7-9.1-35.2c0.1-10.6-0.4-21.2,2.7-31.6
			c3.4-11.6,8.3-22.5,15-32.5c0.7-1,1.4-1.9,1.4-3.1c7.9-2.4,16.3-1.7,24.1-4.6c5.2-2,10.5-3.6,15.8-5.4c-1,1.3-1.8,2.8-3,4
			c-10.1,10.1-15.5,22.7-18.3,36.2c-1.7,7.9-2.2,15.9-1.1,24.4c1.8,14.4,6.8,27.4,14.7,39c9.7,14.4,23.1,24.6,40,30.4
			c16.3,5.6,32.5,5.9,48.4,0.1c29.4-10.7,45.1-37.7,46.4-66.8c0.6-13.4-2.2-26-8.1-38c-4.6-9.3-10.2-18.1-17.7-25
			c-13.6-12.6-29.8-20.1-48.4-22.1C223.7,105.9,223.5,104.8,223.4,103.8z"/>
		<path class="st5" d="M225.9,96.8c-1.4,1-0.3,3.3-2.1,4.1c-0.5-2.3-0.3-4.5,1.6-6.2C225.6,95.5,225.7,96.2,225.9,96.8z"/>
		<path class="st6" d="M223.8,107c18.6,2,34.9,9.6,48.4,22.1c7.5,6.9,13.1,15.8,17.7,25c5.9,12,8.7,24.6,8.1,38
			c-1.3,29.1-17,56.1-46.4,66.8c-16,5.8-32.1,5.5-48.4-0.1c-16.9-5.8-30.3-16-40-30.4c-7.8-11.6-12.8-24.6-14.7-39
			c-1.1-8.5-0.6-16.5,1.1-24.4c2.9-13.6,8.3-26.1,18.3-36.2c1.2-1.2,2-2.6,3-4c10-6.4,20-12.7,30-19.1c1.4,0,2.8,0,4.1,0.1
			c0,0,0.1,0.1,0.1,0.1c-0.1,1-0.1,2.1-0.2,3.1c-1.5,0.4-3.4,1-2.9,2.7c1.9,5.6-2.6,6.7-5.7,8.8c-1.2,0.8-2.9,1.2-2.2,3.1
			c0.7,1.9,2.4,1.2,3.8,1.2c4.6,0.8,9.1,1.6,10.3,7.4c0.4,1.8,2.6,2.5,3.9,0.9c4.3-5.2,9.6-3.9,14.9-2.5c1.5,0.4,3,0.9,4-0.6
			c1-1.6-1-2.1-1.4-3.1c-1-2.2-4.9-4-2.4-6.9c2.2-2.6,0.8-3.9-1.1-4.5C221.3,113.7,222.5,110.4,223.8,107z M249.7,139.7
			c0.7,10.5,6.9,18.9,16.7,24.7c3.7,2.1,8.2,3.2,12.3,0.1c4-3,4.4-7.3,3.6-11.7c-2.2-10.9-8.2-19.2-18.4-23.8
			C256,125.4,249.7,129.8,249.7,139.7z"/>
		<path class="st7" d="M115,101.9c-0.3,0.8-0.6,1.5-0.9,2.3c-1.3,3.3-5,2.7-7.2,4.5c-0.2,0.2-1.1-0.1-1.3-0.4
			c-0.4-0.6-0.1-1.5,0.5-1.6C109.6,106.1,111,101.7,115,101.9z"/>
		<path class="st8" d="M205.1,105.8c-1.4,0-2.8,0-4.1-0.1c0.1-0.8,0.5-1.5,1.3-1.9C203.5,104,204.9,104,205.1,105.8z"/>
		<path class="st7" d="M117.9,103.8c0.2-1.3,0.9-1.9,2.2-1.8C119.9,103.3,119.3,104,117.9,103.8z"/>
		<path class="st5" d="M223.8,107c-1.3,3.5-2.5,6.7,2.5,8.4c1.8,0.6,3.3,1.9,1.1,4.5c-2.5,2.9,1.3,4.7,2.4,6.9
			c0.5,1,2.5,1.5,1.4,3.1c-1,1.6-2.5,1-4,0.6c-5.3-1.4-10.6-2.7-14.9,2.5c-1.4,1.6-3.6,1-3.9-0.9c-1.2-5.8-5.7-6.6-10.3-7.4
			c0-0.8,0.3-1.4,1.1-1.8c4.2,0.4,8.7,0.4,10.7,5.4c0.6,1.5,1.6,2.1,3.1,0.9c3-2.5,6.3-4,10.3-2.4c0.9,0.4,3.5,0.2,2.1-1.8
			c-1.5-2.2-2.3-4-1.5-6.7c0.4-1.5-1.4-1.3-2.5-1.4c-0.2-4.6-0.9-9.3,2.2-13.3C223.5,104.8,223.7,105.9,223.8,107z"/>
		<path class="st9" d="M221.2,117.1c1.1,0,3-0.1,2.5,1.4c-0.8,2.7-0.1,4.5,1.5,6.7c1.4,2-1.1,2.1-2.1,1.8c-4.1-1.6-7.3-0.1-10.3,2.4
			c-1.5,1.2-2.5,0.6-3.1-0.9c-2-5-6.4-5-10.7-5.4c0.5-4,8.2-2,6.1-8.3c1.3,1.7,0.2,3.9,2.4,4.5c1,3.5,3.6,5.7,6.8,5.3
			C218.1,124,220.8,121.3,221.2,117.1z"/>
		<path class="st8" d="M207.5,119.2c-2.2-0.6-1.1-2.8-2.4-4.5c2.2,6.3-5.5,4.3-6.1,8.3c-0.8,0.4-1,1-1.1,1.8c-1.4,0-3.1,0.8-3.8-1.2
			c-0.7-2,1-2.3,2.2-3.1c3.1-2.1,7.6-3.2,5.7-8.8c-0.6-1.6,1.4-2.3,2.9-2.7l0,0c-0.1,2.2,1.4,2,2.8,1.8
			C208,113.6,208.2,116.4,207.5,119.2z"/>
		<path class="st8" d="M205,109c0.1-1,0.1-2.1,0.2-3.1c1.9,0.3,2.9,1.3,2.6,3.3C206.8,109.1,205.9,109.1,205,109
			C205,109,205,109,205,109z"/>
		<path class="st6" d="M205,109c0.9,0.1,1.8,0.2,2.7,0.2c0,0.5,0,1.1,0.1,1.6C206.3,111,204.9,111.2,205,109z"/>
		<path class="st10" d="M249.7,139.7c0-9.9,6.3-14.2,14.1-10.7c10.3,4.6,16.2,12.9,18.4,23.8c0.9,4.4,0.4,8.7-3.6,11.7
			c-4.1,3.1-8.6,2-12.3-0.1C256.6,158.6,250.4,150.1,249.7,139.7z"/>
	</g>
</g>
</svg>
