<?xml version="1.0" encoding="utf-8"?>
<!-- Generator: Adobe Illustrator 21.1.0, SVG Export Plug-In . SVG Version: 6.00 Build 0)  -->
<svg version="1.1" id="Layer_1" xmlns="http://www.w3.org/2000/svg" xmlns:xlink="http://www.w3.org/1999/xlink" x="0px" y="0px"
	 viewBox="0 0 380 380" style="enable-background:new 0 0 380 380;" xml:space="preserve">
<style type="text/css">
	.st0{fill:#FEFEFE;}
	.st1{fill:#D6043B;}
	.st2{fill:#7D9D05;}
	.st3{fill:#798912;}
	.st4{fill:#7D9D02;}
	.st5{fill:#7F9F09;}
	.st6{fill:#D50C3C;}
	.st7{fill:#525E02;}
	.st8{fill:#FD2969;}
	.st9{fill:#FC0655;}
	.st10{fill:#FB0755;}
	.st11{fill:#FC2868;}
	.st12{fill:#FA0954;}
	.st13{fill:#F70952;}
	.st14{fill:#FCB9C3;}
</style>
<g>
	<g>
		<path class="st0" d="M191,381c-62,0-124,0-186,0.1c-3.4,0-4.1-0.7-4.1-4.1C1,253,1,129,0.9,5c0-3.4,0.7-4.1,4.1-4.1
			C129,1,253,1,377,0.9c3.4,0,4.1,0.7,4.1,4.1c-0.1,124-0.1,248,0,372c0,3.4-0.7,4.1-4.1,4.1C315,381,253,381,191,381z M136.6,101.2
			c-0.8-0.8-1.3-1.7-1.7-2.9c-2-6.9-4.2-13.8-6.4-20.9c-1.7,1.8-1.2,3.7-1.4,5.5c-0.9,8.9,2.3,17.2,4,25.8
			c-6.9-1.3-13.5-0.2-19.9,2.5c-14.5,6-27.5,21.8-26,35.5c0.5,4.7-1.3,7.5-4.7,10.4c-11.9,10.3-17.3,23.3-14.7,39.2
			c0.6,3.7,2.1,7.2,5.2,9.3c2.4,1.6,1.5,2.4,0.2,4c-6.3,8-5.7,19.7,1.7,26.6c4.4,4.1,4.3,10.7,9,14.5c0.3,0.3,0.1,1.6-0.2,2.3
			c-3.7,9.6-1.2,17.6,6.1,24.2c1.8,1.6,2.3,3.4,2.2,5.7c-0.3,5.9,2.3,10.7,6.3,14.6c2,2,3.1,4,3.7,6.7c2.2,9.4,12.6,17.7,19,16.5
			c0.8,1,1.8,1.1,2.9,0.4c2.3-0.1,3.4,1.1,4.5,3.1c3.6,6.6,9.1,10.6,17,9.7c2.5-0.3,4.1,0.8,5.5,2.5c4.2,4.9,10,6.9,15.7,5.2
			c5.6-1.7,10.4-0.5,15.8-0.1c10.2,0.8,20.6-0.3,30.8-1.1c6.1-0.4,12.1-4.5,13.5-11.5c0.8-3.8,1.8-4,5.2-3.4
			c12.9,2.5,25.1-7.1,25.9-20.4c0.2-3.1,1.4-3.3,3.9-3.3c15.6,0.1,33.6-19.5,31.3-32.3c-0.5-3,0-5,4-4.7c2.9,0.3,5.4-1.2,7.7-3.1
			c12.2-10.3,15.9-27.1,8.8-41.4c-1.5-2.9-1.2-4.6,1.2-6.6c3.7-3.2,5.4-7.3,5.4-12.3c0.2-12.1-7.1-19.3-16.1-25.4
			c13.3-10.2,13.5-22.3,6-34.1c-0.6-1.2-1.2-1.1-1.9,0c-2.1-2-4.5-4.6-7.2-4.2c-5.6,0.9-10.6-0.6-15.9-1.7c0.1-3.3,3.2-5.5,3-8.9
			c1.7-2.3,1.8-5.2,2.8-7.8c2.2-6.1-0.3-13.7,5.9-18.7c0.8-0.7,0.4-2.2-0.7-2.4c-3.8-0.6-2.7-3.5-3-5.8c-0.2-2.4,0.5-4.9-1.2-7.6
			c-2.2,4.1-6.6,4.6-9.2,8.6c-3.9,6.1-10.1,10.8-16.2,15.1c-1.6-1.4-4.3,0.6-5.6-1.7c0.1-0.6,0.2-1.3,0.3-1.9c3.8-2,2.2-6,3.2-9
			c2.3-7.2,4.2-14.5,4.7-22.1c0.9-1.2,1.8-2.3,2.6-3.5c0.9-1.4,0.7-2.5-1.3-2.3c-0.5-8.2,0.7-16.5-1.2-24.6c-0.4-1.7-0.1-3.9-3-3.2
			c-4.3-0.2-8.6-0.7-13.6,1.7c5.5,1,4.7,4.6,4.9,7.7c0.1,1.2,0.3,2.3,0.3,3.5c0.6,8.5-0.5,16.8-2.5,25c-0.6,2.4-3.6,3-3.3,6.3
			c0.8,7.3-3,13.5-6.4,19.7c-6.5-9.5-22.5-12.7-31.6-4c-2.6-5.1-6.6-9.3-11-12.6c-8.3-6.3-10.2-15.2-12-24.6c-1.1-6-0.6-12-1.3-18.5
			c-9.5,8.5-16.1,17.7-19,29.9c-1.8,7.8-0.7,15.5-1.9,23.1C154.7,91.7,145.2,92.9,136.6,101.2z"/>
		<path class="st1" d="M119.1,320.8c-6.4,1.2-16.8-7.1-19-16.5c-0.6-2.7-1.8-4.7-3.7-6.7c-4-4-6.6-8.7-6.3-14.6
			c0.1-2.3-0.4-4.1-2.2-5.7c-7.4-6.7-9.9-14.7-6.1-24.2c0.3-0.7,0.5-2,0.2-2.3c-4.7-3.8-4.6-10.4-9-14.5c-7.4-6.9-8-18.6-1.7-26.6
			c1.3-1.6,2.2-2.4-0.2-4c-3.1-2.1-4.6-5.6-5.2-9.3c-2.6-15.8,2.8-28.8,14.7-39.2c3.4-2.9,5.2-5.8,4.7-10.4
			c-1.5-13.6,11.6-29.5,26-35.5c6.4-2.7,13-3.8,19.9-2.5c0.6,1.8,1.2,3.6,1.8,5.4c-3.6,0.5-7-1.3-10.8-0.7
			c-12.2,2-21.2,8.9-27.4,18.9c-7.5,12-6.4,20.1,4.1,25.6c3.1,1.6,5.3,1.1,7.4-1.6c4-5.3,9.1-9.1,15-11.9c1.6-0.7,3.6-1,4-3.3
			c0.9,0,1.9-0.1,2.8-0.1c7.1-0.4,14.3-0.8,21.4-1.1c6.9,6,14,11.9,18.8,19.8c-3.1,7.2-3.1,7.2,3.6,7.3c0.6,1.8,0.5,3.9,2.2,5.2
			c0,0.2,0,0.5,0,0.7c-9.6-0.7-15.8,4.1-19.6,12.4c-5.5,12-7.6,24.6-5.1,37.7c1.2,6.1,2.7,12.1,9.7,14.4c5,1.7,9.8,0.7,11.2-3.1
			c2.9-7.7,7.8-14.2,12.2-21c5.7-8.7,8.1-18.8,11.6-28.4c2.2,0.3,4.4,0.8,6.2,2.3c-1.7,3.2-3.9,6.2-4.7,9.8
			c-1.8,8.3-5.9,15.5-10.6,22.4c-2.5,3.7-5.3,7.2-7.6,11.1c-4.9,8.2-2.1,14.6,7,16.1c3.1,0.5,6.3,0.5,9.4-0.2
			c17.6-4,23.8-16.2,25.2-33.7c0.7-8.3-1.8-16-7-22.7c2.7,0.5,5.4,0.9,8.1,1.4c6,15.8,5.9,31.2-3.1,45.9c-0.7,1.2-0.7,2.1-0.1,3.2
			c1.7,2.9,3,6,5.1,8.5c7.1,8.9,18.3,8.2,24.6-1.2c5-7.4,6.7-15.7,7.6-24.4c1.4-12.2,0.4-23.5-9.2-32.4c6.7-1.4,13.3-2.7,20-4.1
			c7.6,3.8,14.3,8.6,19.9,15.1c0.4,0.4,1.2,0.7,1.8,0.7c6.9,0.5,12.9,2.7,17.7,7.9c1.2,1.2,2.7,1.8,3.9,0.3c3.1-4.1,6-8.3,4.3-14.1
			c-3.4-11.7-13.2-18.9-26.5-19c2.4-2,4.9-4,7.3-5.9c1.8-0.4,3.6-0.6,5.3-1.1c6.9-2.2,10.3-10.1,7.3-17.1c2.4-3.7,2.2-7.8,2.1-11.9
			c7.5,11.8,7.4,24-5.9,34.1c9,6.2,16.2,13.4,16.1,25.4c-0.1,5-1.7,9.1-5.4,12.3c-2.4,2.1-2.7,3.7-1.2,6.6
			c7.1,14.2,3.4,31.1-8.8,41.4c-2.2,1.9-4.8,3.4-7.7,3.1c-4-0.3-4.5,1.7-4,4.7c2.3,12.8-15.7,32.3-31.3,32.3c-2.5,0-3.7,0.2-3.9,3.3
			c-0.8,13.3-13,22.8-25.9,20.4c-3.4-0.6-4.4-0.4-5.2,3.4c-1.4,7-7.4,11.1-13.5,11.5c-10.2,0.7-20.6,1.8-30.8,1.1
			c-5.4-0.4-10.2-1.6-15.8,0.1c-5.7,1.7-11.5-0.3-15.7-5.2c-1.5-1.7-3-2.8-5.5-2.5c-7.9,0.9-13.4-3-17-9.7c-1.1-2-2.2-3.2-4.5-3.1
			c-0.1-1,1.9-2.5-0.3-3C119.9,317.7,119.2,319.2,119.1,320.8z M92,190.3c-2.5,1.5-3.2,3.7-2.9,6.5c-2.3,4.2-0.6,8.2,0.9,12
			c3,7.7,9.9,9.1,16.1,3.8c1.6-1.4,3.6-2.4,5.3-3.7c2.9-2.4,2.2-6.7-1.2-8.2c-1.4-0.6-2.8-1.1-4.2-1.6c-1-1.6-2.3-3-4-4
			c-1.1-2.5-2.2-5.1-3.4-7.6c-0.6-1.2-0.2-3.4-2.4-3.2c-1.6,0.1-2.5,1.5-3.2,2.8C92.5,188.1,92.3,189.2,92,190.3z M148.1,162.1
			c2.3,0,4.6-0.1,6.9-0.1c2.1,1.6,4.7,1.9,6.3,0.3c1.5-1.5,1-4.1,0.2-6.1c-1.5-3.9-3.9-6.7-8.1-8.2c-18-6.3-37.7,0.8-47.4,17.2
			c-6.3,10.6-5.1,21.8,3.1,28.4c2.1,1.7,4.6,3.1,6-0.5c5.8-14.3,15.9-24.2,30-30.1c0.6,0,1.3,0,1.9,0
			C147.3,162.6,147.7,162.4,148.1,162.1z M180,264c-0.3-1.8,1.1-4.6-0.9-5.3c-2.7-0.9-1.5,3.1-3.3,3.8c-0.3,0.1-0.6,0.2-0.9,0.4
			c2.7-6.8,4.3-13.3-3.8-17.8c-0.1-0.1-0.2-0.3-0.2-0.4c-0.9-1.5-2.1-1.7-3.8-1.3c-7.3,1.5-13.5-0.7-18.3-6.3
			c-1.9-2.3-3.1-2.6-4.8,0c-6.6,9.8-10.8,20.2-7.9,32.3c4.5,18.2,20.5,24.5,35.8,16.7c3-1.5,4.6-3.6,3.2-7.2
			c-1.5-3.8-0.9-7.9-1-11.8C176,266,178,265,180,264c0,3.5-0.1,7,0,10.5c0.2,5,2.4,9.1,6,12.6c7.3,6.9,20.7,5.9,28.8,1
			c9.7-5.8,12.1-14.8,11-24.7c-0.3-2.4-1.1-5-3.4-6.4c-4-2.4-6.7-5.9-8.8-9.9c-0.8-1.4-1.7-2.9-3.4-1.7c-2.9,2.1-6.7,2.8-9.3,5.5
			c-1.3,0.3-2.6,0.7-3.9,1c-12.5,0-12.5,0-16.7,11.7C180.3,263.8,180.1,263.9,180,264z M287.1,229.9c-0.2-8.6-1.8-16.9-7.1-23.9
			c-5.3-6.9-11.2-13.3-21.1-13.1c-2.7,0-3.9,0.1-2.7,3.6c6.6,19.5,5.7,38.4-6.1,56c-1.2,1.8-1.2,3.1,0.9,3.9c4.2,1.5,8.4,2.8,13,2.2
			C277.8,256.7,287.6,243.7,287.1,229.9z M289.6,260c8.9,0,12.5-2.8,17.1-12.4c6.6-13.9,1.7-29.7-11.4-36.4c-2-1-4.3-3.5-6.2-1.6
			c-1.4,1.3,0.7,3.9,1.2,5.9c3.1,13.2,3.5,26-5.7,37.3c-3.9,4.8-3.6,5.8,2.5,7C288.2,260,289.4,260,289.6,260z M259,271.1
			c-0.9-1.9,1.7-5.6-2.5-7.1c-7.5-2.7-14.8-6.2-23.1-3.1c-1.8,0.7-2.7,1.4-2.2,3.1c1.9,5.5,0.1,10.8-1.8,15.5
			c-2.2,5.3,0.1,7.5,3.7,9.6c5.6,3.2,11.4,2.9,17.1-0.1C257.1,285.2,259.2,279.1,259,271.1z M189.4,317c9.6,0,18.9-6.9,22.4-16.8
			c0.4-1.1,1.6-2.5,0.4-3.7c-1.1-1.1-2.5,0-3.8,0.1c-9,0.7-18.2,1.9-25.4-5.2c-2.9-2.9-5.1-3.5-8.2-0.9c-1.7,1.4-5.4,1.2-5.3,3.8
			C169.6,304.6,177.5,317.3,189.4,317z M69.9,186.5c-0.4,6.1,3,10.4,6.7,14.6c1.3,1.5,2.9,2.3,4.9,1.8c2.3-0.6,1.4-2.7,1.6-4.2
			c1.1-6.3,2.4-12.6,7.6-16.9c3.9-3.2,6.6-6.7,7.5-12.1c0.7-3.8,1.4-5.3-2.9-7.7c-4.9-2.7-7.1-3.6-12.4,0.4
			C74.4,168.9,71.3,177,69.9,186.5z M137.4,229.1c6.2,0,7.4-0.8,6.5-5.7c-1.5-8-1.3-15.9,0.3-23.7c2.1-10.4,5-20.7,14.1-27.7
			c0.8-0.6,1.8-1.2,1.3-2.4c-0.4-1-1.3-1.4-2.4-1.5c-6.9-0.4-13.5-0.1-19.4,4.5c-4.6,3.6-8.7,7.7-12.1,12.4
			c-7.1,10-10.5,20.8-4.8,32.7C124.2,224.4,129.1,229.3,137.4,229.1z M260.8,295.9c2.7,0.3,4.4,0,6.1-0.8c8-4.1,13.9-10.3,17.5-18.3
			c3.6-7.8,2-11-5.8-13.9c-0.5-0.2-0.9-0.4-1.4-0.6c-4.8-2.6-8.3,2-12.6,2.4c-0.8,0.1-0.5,1.4-0.4,2.2c1.5,8.1,0,15.4-5.3,21.8
			c-1.6,1.9-1.5,4.5-1.3,6.6C257.9,296.7,260.3,295.7,260.8,295.9z M107,268c0.3,4.3,1.1,8.5,3.2,12.4c4.9,8.9,14,11.6,22.2,7
			c3.1-1.8,4.4-3.7,2.2-7.2c-2.7-4.3-4.2-9-4.6-14c-0.2-3.3-1.6-2.9-3.8-2.2c-5.1,1.7-10.3,2.8-15.5,0.8
			C107.2,263.3,106.8,265.1,107,268z M99.9,240c-1.9,14.1,13,25.7,27.4,17.4c1.5-0.9,3.2-1.6,3.4-3.4c0.9-5.9,2.9-11.2,6.2-16.1
			c1-1.5,1-2.7-1.4-2.9c-11.2-1.1-17.2-8.5-21-18c-1.4-3.5-2.4-2.6-4.3-0.7C103.8,222.7,99.8,230.2,99.9,240z M232.7,312
			c8.4-0.2,13.6-5.2,17.4-12.1c0.6-1.2,1.4-2.5,0.7-3.8c-1-1.8-2.4-0.3-3.5-0.1c-8.1,1.5-15.4,0.4-21.5-5.7
			c-2.5-2.5-4.2-0.9-5.5,1.4C215.5,300.5,222.5,312.1,232.7,312z M138,293.3c-0.1,4.6,1.5,8.3,3.6,11.3c3.1,4.4,7.6,7.1,13.3,6.2
			c4.7-0.8,8.1-3.8,9.5-8.4c1.5-4.8-0.3-7.4-5.1-7.3c-5.5,0.1-10.4-1.8-15.1-4.5c-1.3-0.8-2-3.1-4.1-1.9
			C138,289.8,137.8,291.8,138,293.3z M81,233.6c0,8.8,2.7,13.8,8.1,14.9c2.8,0.6,5.9,0.4,5.4-3.5c-0.9-7.4,0.7-14.1,3.5-20.8
			c0.4-1,1.5-1.9,0.1-3.1c-3.7-3.2-10.7-2.4-13.9,1.7C81.5,226.2,80.6,230,81,233.6z M99.8,277c2,0.1,3.5-0.2,2.7-3.3
			c-0.7-2.9-0.9-6-0.4-8.9c0.8-4.7-2.2-7.5-4.6-10.5c-1.5-1.9-9.9-0.2-11,1.9C82.3,264.1,90.4,277.1,99.8,277z M124.6,305
			c1.2,0,2.3,0.2,3.5,0c3.7-0.6,6.6-4.9,5.8-8.5c-0.9-4-4.1-4.7-6.7-3.2c-4.4,2.7-7.8,1.2-11.5-0.9c-1.6-0.9-3.1-1.1-4.6,0.2
			c-1.5,1.3-1.2,2.9-0.7,4.5C111.9,301.6,117.7,304.9,124.6,305z M75.3,229.9c1.6-7.2,3.4-10.7,8-13.6c2.7-1.7,2.5-3.5,1.3-5.7
			c-1.3-2.4-3.3-1.6-5.2-0.7C73.3,212.7,68.9,223.2,75.3,229.9z M99.6,282.1c-3.9-0.2-4.5,0.2-4.2,2.4c0.5,4.5,2.9,8,6.4,10.7
			c0.7,0.5,1.4,1,2.3,0.5c1-0.5,0.4-1.4,0.3-2.2c-0.5-2.7-1.2-5.5-1.3-8.3C103,282.6,101.8,281.8,99.6,282.1z"/>
		<path class="st2" d="M166.6,97.5c1.2-7.6,0.1-15.3,2-23.1c2.9-12.2,9.5-21.4,19-29.9c0.7,6.5,0.2,12.5,1.3,18.5
			c1.7,9.4,3.7,18.3,12,24.6c4.4,3.4,8.4,7.5,11,12.6c0.7,1.6,1.4,3.3,2.1,4.9c2.4,9,2.6,18.2,2.5,28.3c4.6-3.9,7.9-7.9,12.5-9.7
			c7-2.7,10-8.2,12.2-14.6c1.4-1.3,1.9-3.1,2.4-4.9c3.4-6.2,7.1-12.4,6.4-19.7c-0.4-3.3,2.7-3.9,3.3-6.3c1.9-8.2,3.1-16.5,2.5-25
			c-0.1-1.2-0.2-2.3-0.3-3.5c-0.2-3.1,0.6-6.8-4.9-7.7c5-2.4,9.3-1.9,13.6-1.7c-1.2,9.3,2.5,18.2,2.1,27.4c-0.1,2.3,0.7,3.1,2.1,0.5
			c2.1-0.1,2.2,0.9,1.3,2.3c-0.8,1.2-1.7,2.3-2.6,3.5c-2.9,1.1-3.6,3.9-3.7,6.4c-0.3,7.2-2.4,13.9-5.1,20.5c-0.8,2-0.3,3,1,4.2
			c-0.1,0.6-0.2,1.3-0.3,1.9c0,0-0.3-0.4-0.3-0.4c-4.4,0.2-5.4,3.7-6.6,6.9c-2.4,6.4-5.1,12.6-8.6,18.5c-3.3,5.6-8.4,10.1-11.5,15.5
			c-4,7.3-9.1,13.4-14.9,19.1c-1.1,1.1-2.2,3.4-3.8,2.8c-2.1-0.7-1-3.2-1.1-4.9c-0.1-5.1,3.5-9.3,3.2-14.5
			c7.4-3.5,9.6-11.1,13.6-17.3c1.8-2.8,4.2-5.6,4.4-9.8c-2.5,1.5-3.8,3.4-5.3,5.2c-4.1,4.8-6.3,11.6-13.8,12.8
			c-1.1-2.8-1.3-6-3.8-8.8c0.3,3.4,0.5,6.1,0.7,8.8c-4.1-0.7-6.3-3.2-7.1-7.3c-0.8-4.4-1.3-8.9-2.7-13.1
			c-5.7-18.3-11.6-36.6-17.5-54.9c-0.3-1-0.5-2.4-2.3-2.1c-5.5,24.6-11.1,49.1,0.3,73.9c-6.6-4.6-11.9-9.9-18.8-13.4
			c-6.1-3-12.6-5-18.3-8.8c-1.8-1.2-3.8-2.2-3.5-4.9c12.6,2.2,22.3,10.4,33.4,16.2c-3.3-7.1-5-14.4-7-21.6
			C167.2,102.6,166.9,100,166.6,97.5z M237,126c-2.2,1.7-3,3.7-3,6c0,1.1-0.3,2.5,1.3,2.7c1.7,0.2,1.6-1.3,1.6-2.4
			C237,130.2,237,128.1,237,126z"/>
		<path class="st3" d="M286,127.1c0.2,3.4-2.9,5.6-3,8.9c-1.4,2-2.8,4-4.2,6c-3.3,2.3-6.4,4.9-10.3,6.3c-6.6,0.8-13.2,0.5-19.9,1
			c-4.6,0.3-8.9,2-11.3,6.3c-1.6,3-3.7,5.5-6.2,7.8c-1.9,1.8-2.9,4-3.6,6.4c-0.4,1.4-1.4,3.1,0.4,3.9c1.8,0.8,2.4-1.1,3.3-2.2
			c3.8-5.1,7.5-10.2,13.8-12.5c1.5-0.5,2.6-0.8,4.2,0c7,3.3,14.3,5.8,22.1,6.1c3.2,0.1,6.5,0,11.1,0c-6.6,6.1-12.2,11-19.1,13.9
			c-9.2,3.9-18.6,7.7-28.6,9.2c-4.3-4.9-10-7.4-15.7-10c-3.5-1.6-4.3-3.8-1.1-6.8c3.1-2.9,6.1-6.1,8.9-9.4
			c10.5-12.3,17.3-26.9,25.1-40.9c5.4-0.6,9.7-3.7,14.5-6c6.6-3.2,12.5-7.8,19.5-12C286,111.6,286,119.4,286,127.1z"/>
		<path class="st4" d="M235,188.1c10.1-1.4,19.4-5.2,28.6-9.2c6.9-2.9,12.5-7.8,19.1-13.9c-4.7,0-7.9,0.1-11.1,0
			c-7.8-0.3-15.1-2.9-22.1-6.1c-1.6-0.8-2.7-0.5-4.2,0c-6.3,2.3-10,7.5-13.8,12.5c-0.9,1.2-1.5,3.1-3.3,2.2
			c-1.8-0.8-0.8-2.5-0.4-3.9c0.7-2.5,1.7-4.7,3.6-6.4c2.5-2.3,4.5-4.7,6.2-7.8c2.3-4.3,6.7-6,11.3-6.3c6.6-0.4,13.3-0.1,19.9-1
			c-4.2,3.4-9.8,4.4-14.4,7.8c23.3,5.3,35.2,3,47.9-9.2c1.8-1.3,3.8-2.4,4.1-5c0.6-1,1.3-1.2,1.9,0c0.1,4.1,0.3,8.3-2.1,11.9
			c-4.2,6.1-8.4,12.1-12.6,18.2c-2.4,2-4.9,4-7.3,5.9c-6.7,3.8-13.8,6.7-21,9.1c-6.7,1.4-13.3,2.7-20,4.1c-2.9,0-5.9,0-8.8,0
			C235.8,190.1,235.4,189.1,235,188.1z"/>
		<path class="st5" d="M286,127.1c0-7.7,0-15.5,0-24.1c-7,4.3-12.8,8.9-19.5,12c-4.7,2.3-9.1,5.4-14.5,6c0.8-1.6,1.7-3.3,2.5-4.9
			c0.7-0.1,1.2-0.3,1.4-1.1l0,0c3.4-1.4,5.9-3.9,8.4-6.4c6.1-4.3,12.3-9,16.2-15.1c2.6-4,7-4.5,9.2-8.6c1.7,2.7,1,5.2,1.2,7.6
			c0.2,2.3-0.8,5.2,3,5.8c1.1,0.2,1.6,1.7,0.7,2.4c-6.1,5-3.7,12.5-5.9,18.7C287.9,121.9,287.7,124.8,286,127.1z"/>
		<path class="st2" d="M168.2,159.7c-4.8-8-11.8-13.9-18.8-19.8c-1.1-2-2.7-3.5-4.6-4.8c-4.3-4.7-7.5-10.2-10-16
			c-0.7-1.6-1.3-3.3-2-4.9c-0.6-1.8-1.2-3.6-1.8-5.4c-1.7-8.5-4.9-16.8-4-25.8c0.2-1.8-0.3-3.7,1.4-5.5c2.2,7.1,4.4,14,6.4,20.9
			c0.3,1.2,0.8,2.1,1.7,2.9c0.4,1.8,0.6,3.6,2.1,4.9c0.3,0.9,0.6,1.8,0.8,2.7c-2.8,0.8-3.1-2.4-5.7-3.4c1.2,3.3,2.1,6,3.1,8.7
			c4.9,12.2,12.9,22.2,23.4,29.7c6.5,4.7,9.5,10.7,10.7,18.1c-0.1,0.1-0.3,0.2-0.4,0.3C169.8,161.5,169,160.6,168.2,159.7z"/>
		<path class="st6" d="M213.9,105.1c-0.7-1.6-1.4-3.3-2.1-4.9c9.2-8.7,25.1-5.5,31.6,4c-0.5,1.8-1,3.6-2.4,4.9
			C234.5,99.7,222.1,97.6,213.9,105.1z"/>
		<path class="st6" d="M138.7,106.2c-1.5-1.3-1.7-3.2-2.1-4.9c8.7-8.3,18.2-9.5,30.1-3.7c0.3,2.5,0.6,5.1,0.9,7.6
			c-1.1-0.7-2.2-1.4-3.2-2.2c-6.5-5-14.3-5.2-21.1-0.4C141.7,103.6,140.2,104.9,138.7,106.2z"/>
		<path class="st6" d="M306.1,141.9c-0.3,2.5-2.3,3.7-4.1,5c-1.7-5.2-6.3-5.1-10.4-5.8c-4.3-0.7-8.5,0.7-12.7,0.9c1.4-2,2.8-4,4.2-6
			c5.2,1.2,10.3,2.6,15.9,1.7C301.6,137.2,304,139.9,306.1,141.9z"/>
		<path class="st7" d="M259,105c-1.2-1.2-1.8-2.2-1-4.2c2.7-6.5,4.8-13.3,5.1-20.5c0.1-2.5,0.8-5.3,3.7-6.4
			c-0.4,7.6-2.4,14.9-4.7,22.1C261.2,99,262.8,103,259,105z"/>
		<path class="st7" d="M268.1,68c-1.3,2.6-2.2,1.8-2.1-0.5c0.4-9.2-3.3-18.1-2.1-27.4c2.9-0.7,2.6,1.5,3,3.2
			C268.9,51.6,267.6,59.8,268.1,68z"/>
		<path class="st6" d="M264.3,108.6c-2.5,2.5-5,5.1-8.4,6.4c-0.7-3.3,2.2-5.5,2.4-8.5c0,0,0.3,0.3,0.3,0.4
			C260,109.2,262.7,107.2,264.3,108.6z"/>
		<path class="st8" d="M119.1,320.8c0.1-1.6,0.8-3,2.6-2.6c2.2,0.5,0.3,2,0.3,3C120.9,321.9,119.9,321.8,119.1,320.8z"/>
		<path class="st9" d="M287.1,229.9c0.5,13.8-9.3,26.8-23.1,28.7c-4.6,0.6-8.8-0.7-13-2.2c-2.1-0.7-2.1-2-0.9-3.9
			c11.8-17.6,12.7-36.4,6.1-56c-1.2-3.4,0-3.5,2.7-3.6c9.9-0.2,15.8,6.2,21.1,13.1C285.3,213,286.8,221.3,287.1,229.9z M270.1,206.2
			c0-4.6-2.5-8.6-5.4-8.3c-3.7,0.3-3.8,3.2-3.7,5.9c0.1,3.7,1,7.4,5.4,7.7C269.7,211.8,270.1,208.9,270.1,206.2z"/>
		<path class="st7" d="M258.4,106.5c-0.3,3-3.1,5.2-2.4,8.5c0,0,0,0,0,0c-0.8-0.1-1.1,0.5-1.4,1.1c-0.8,1.6-1.7,3.3-2.5,4.9
			c-7.7,14-14.5,28.6-25.1,40.9c-2.8,3.3-5.7,6.4-8.9,9.4c-3.2,3-2.4,5.2,1.1,6.8c5.7,2.6,11.5,5.1,15.7,10c0.4,1,0.8,2.1,1.2,3.1
			c-5.3,1.7-10.7,0.4-16.1,0.4c-2.7-0.5-5.4-0.9-8.1-1.4c-3.8-1.3-7.8-2.3-11.8-2.8c-1.8-1.5-4-2-6.2-2.3c-7-3.5-14.4-6.3-20.1-12.1
			c0-0.2,0-0.5,0-0.7c1.4-0.3,2.5-0.9,3.2-2.2c7.1-2.9,14.3-4.6,22.1-4.4c4.6,0.1,7.1-3.2,9.2-7.2c2.8-5.6,2.9-11.5,2.6-17.4
			c-0.2-2.7-0.4-5.5-0.7-8.8c2.5,2.8,2.7,6,3.8,8.8c0.4,3,0.7,6.1,1.1,9.1c0.3,5.1-3.3,9.4-3.2,14.5c0,1.7-1,4.2,1.1,4.9
			c1.5,0.5,2.6-1.7,3.8-2.8c5.8-5.7,10.8-11.9,14.9-19.1c3-5.5,8.1-9.9,11.5-15.5c3.5-5.9,6.2-12.1,8.6-18.5
			C253,110.2,254,106.7,258.4,106.5z"/>
		<path class="st10" d="M265,187.1c7.3-2.5,14.3-5.4,21-9.1c13.3,0.1,23.1,7.3,26.5,19c1.7,5.8-1.2,9.9-4.3,14.1
			c-1.2,1.5-2.7,1-3.9-0.3c-4.8-5.1-10.8-7.4-17.7-7.9c-0.6,0-1.4-0.3-1.8-0.7C279.3,195.7,272.5,190.9,265,187.1z"/>
		<path class="st8" d="M134.8,119c2.5,5.8,5.7,11.3,10,16c-5.3,2.8-11.7,2.7-16.9,6c-0.9,0-1.9,0.1-2.8,0.1
			c-7.2,1.3-13.2,5-19.5,8.5c-4.7,2.7-7.9,1.4-10-3.4c-3.5-7.8,4.8-21.1,12.5-22.1c-1,2-4.2,3.6-1.9,6.4c2.1,2.6,5.2,2,7.8,1.2
			c2.8-0.8,5.1-2.5,5.2-5.9c0-3.5-2.9-3.5-5.2-4.1c0.4-1.8,1.9-2.2,3.3-2.6C123.1,117.7,129,117.3,134.8,119z"/>
		<path class="st10" d="M173.9,267c0.2,4-0.5,8,1,11.8c1.4,3.6-0.2,5.7-3.2,7.2c-15.2,7.7-31.3,1.5-35.8-16.7
			c-3-12,1.3-22.5,7.9-32.3c1.8-2.6,2.9-2.3,4.8,0c4.7,5.7,11,7.8,18.3,6.3c1.7-0.3,2.9-0.2,3.8,1.3c0.1,0.1,0.1,0.4,0.2,0.4
			c8.2,4.4,6.5,11,3.8,17.8C172.1,263.7,170.9,264.8,173.9,267z M151.6,245.3c-2.8-1-4.4,0.5-5.8,2.6c-2.7,0.4-3.8,2.6-4.6,4.8
			c-3,9.1-0.7,16.9,5.7,23.8c3.1,3.3,6.4,5.2,11,4.3c8-1.5,12.2-7.5,10.9-16.1c-0.8-4.9,1.7-7.6,5.3-9.7c1.2-0.7,2-1.2,1.7-2.5
			c-0.4-1.8-1.9-1.6-3.2-1.2c-2.9,0.9-5,2.8-4.9,7.1C160.2,246.5,158.2,245,151.6,245.3z"/>
		<path class="st10" d="M200.1,187.4c4,0.5,7.9,1.5,11.8,2.8c5.1,6.7,7.6,14.4,7,22.7c-1.4,17.6-7.6,29.7-25.2,33.7
			c-3.1,0.7-6.3,0.7-9.4,0.2c-9.1-1.5-11.9-7.9-7-16.1c2.3-3.8,5.2-7.3,7.6-11.1c4.6-6.9,8.7-14.2,10.6-22.4
			C196.2,193.6,198.4,190.6,200.1,187.4z M197,207.1c-3,2.6-5,5.7-4.3,9.9c-5.7,3.7-5.8,9.8-6.8,15.6c-0.6,3.9,1.5,6.6,4.6,8
			c3,1.3,6.2,0.7,8.9-1.6c8.7-7.3,14.8-16.3,15.4-27.9c0.3-7.2-1.7-12.2-7-13C202.2,197.1,198,200.8,197,207.1z"/>
		<path class="st10" d="M220,191.6c5.4,0,10.8,1.3,16.1-0.4c2.9,0,5.9,0,8.8,0c9.7,9,10.6,20.2,9.2,32.4c-1,8.7-2.6,17-7.6,24.4
			c-6.4,9.4-17.5,10.1-24.6,1.2c-2.1-2.6-3.4-5.7-5.1-8.5c-0.6-1.1-0.6-2,0.1-3.2C225.9,222.7,226,207.4,220,191.6z M225,234.8
			c0,2.2-0.1,4.3,0,6.5c0.4,6.1,5.3,8.9,10.8,6.2c15.2-7.2,20.6-30.2,11.8-45c-0.6-1.1-1.8-2-2.9-2.6c-6-3.4-12.6-0.7-15.4,6.6
			C225.8,215.6,225.8,225.3,225,234.8z"/>
		<path class="st10" d="M173.9,173c5.6,5.8,13.1,8.5,20.1,12.1c-3.5,9.6-5.9,19.6-11.6,28.4c-4.4,6.8-9.3,13.3-12.2,21
			c-1.4,3.8-6.2,4.7-11.2,3.1c-7-2.3-8.6-8.4-9.7-14.4c-2.5-13.1-0.4-25.7,5.1-37.7C158.2,177.1,164.4,172.3,173.9,173z
			 M163.1,225.9c4,0.8,6.8-1.3,9.3-3.8c8.2-8.3,12-18.6,12.5-30c0.4-8.2-5.7-13.4-12.8-11.9c-16.9,3.4-26.8,26.8-17.5,41.3
			C156.7,224.7,159.1,226.7,163.1,225.9z"/>
		<path class="st9" d="M289.6,260c-0.3,0-1.5,0-2.6-0.2c-6.1-1.2-6.4-2.2-2.5-7c9.3-11.3,8.8-24.1,5.7-37.3c-0.5-2-2.7-4.6-1.2-5.9
			c1.9-1.8,4.3,0.7,6.2,1.6c13.1,6.6,18,22.5,11.4,36.4C302.1,257.2,298.5,260,289.6,260z"/>
		<path class="st8" d="M197,252c1.3-0.3,2.6-0.7,3.9-1c12.3,0.2,20,8.4,19.1,20.3c-0.8,9.5-9.6,16.1-19.7,14.7
			c-11.7-1.6-18.2-15.4-12.2-25.6C190.2,256.5,194,254.7,197,252z M195.9,259.2c-3.5-0.1-5.2,1.4-4.9,4c0.4,3.8,5.2,6.7,8.5,4.8
			c3.5-1.9,7.1-3.5,11-4.6c2-0.6,4.6-1.6,3.8-4.2c-0.8-2.7-3.4-2.1-5.5-1.4C204.4,259.2,200.1,261.5,195.9,259.2z"/>
		<path class="st9" d="M259,271.1c0.2,8-1.9,14.1-8.8,17.8c-5.7,3.1-11.5,3.3-17.1,0.1c-3.6-2.1-6-4.3-3.7-9.6
			c2-4.6,3.7-10,1.8-15.5c-0.6-1.7,0.4-2.4,2.2-3.1c8.3-3.1,15.7,0.4,23.1,3.1C260.7,265.5,258.1,269.2,259,271.1z"/>
		<path class="st9" d="M189.4,317c-11.9,0.3-19.8-12.4-19.8-22.6c0-2.6,3.6-2.4,5.3-3.8c3.1-2.7,5.3-2.1,8.2,0.9
			c7.1,7.1,16.4,5.9,25.4,5.2c1.3-0.1,2.7-1.2,3.8-0.1c1.2,1.2,0,2.6-0.4,3.7C208.3,310.1,199,317,189.4,317z"/>
		<path class="st11" d="M69.9,186.5c1.4-9.6,4.5-17.6,13-24c5.3-4,7.5-3.1,12.4-0.4c4.3,2.4,3.5,3.9,2.9,7.7
			c-1,5.3-3.6,8.8-7.5,12.1c-5.3,4.3-6.6,10.6-7.6,16.9c-0.3,1.5,0.7,3.6-1.6,4.2c-2,0.5-3.6-0.3-4.9-1.8
			C72.9,196.9,69.5,192.6,69.9,186.5z"/>
		<path class="st10" d="M145,163c-14.1,6-24.2,15.8-30,30.1c-1.4,3.5-3.9,2.2-6,0.5c-8.2-6.6-9.4-17.8-3.1-28.4
			c9.7-16.4,29.4-23.5,47.4-17.2c4.2,1.5,6.6,4.3,8.1,8.2c0.8,2.1,1.4,4.7-0.2,6.1c-1.7,1.6-4.3,1.4-6.3-0.3c0-7.7-5.1-12.3-12-10.7
			c-1,0-2,0-3,0c-1-1.6-2.6-1.2-4.1-1c-8.5,1.7-16.2,5.3-22.1,11.6c-6,6.4-10.3,13.6-6.1,22.9c0.5,1.2,0.6,2.7,2.2,3.1
			c2,0.5,2.6-1.4,3.2-2.6c2.8-4.9,5.4-9.9,8.9-14.4C126.7,164.9,137,160.8,145,163z"/>
		<path class="st10" d="M197,252c-3,2.8-6.8,4.5-9,8.4c-5.9,10.3,0.5,24,12.2,25.6c10.1,1.4,19-5.2,19.7-14.7
			c0.9-11.9-6.7-20-19.1-20.3c2.6-2.7,6.3-3.4,9.3-5.5c1.7-1.2,2.6,0.3,3.4,1.7c2.1,4,4.9,7.5,8.8,9.9c2.3,1.4,3.1,4,3.4,6.4
			c1.1,9.9-1.2,18.8-11,24.7c-8.2,4.9-21.6,5.9-28.8-1c-3.7-3.5-5.8-7.6-6-12.6c-0.1-3.5,0-7,0-10.5c0,0,0,0,0,0
			c0.1-0.1,0.3-0.2,0.4-0.3C184.5,252,184.5,252,197,252z"/>
		<path class="st10" d="M137.4,229.1c-8.3,0.2-13.2-4.7-16.5-11.4c-5.7-11.9-2.3-22.6,4.8-32.7c3.4-4.8,7.5-8.8,12.1-12.4
			c5.9-4.6,12.5-4.9,19.4-4.5c1,0.1,2,0.4,2.4,1.5c0.4,1.2-0.5,1.7-1.3,2.4c-9.1,7-12,17.3-14.1,27.7c-1.6,7.8-1.8,15.7-0.3,23.7
			C144.8,228.2,143.6,229,137.4,229.1z M140.9,192.8c0.8-1.9,1.7-3.8,2.5-5.7c4-2.1,5-6.4,7-9.9c0.6-1.1,0.9-2.3,0.2-3.3
			c-1-1.3-2.4-0.8-3.6-0.3c-7.2,2.4-12.5,7.4-17.6,12.7c-12.1,12.7-8.6,28.6,2.1,37.9c1.5,1.3,2.8,2.5,4.8,1.7
			c2.1-0.9,2.9-2.6,2.7-4.9c-0.1-1.2,0.2-2.4-0.2-3.5c-2.6-7.1-1.9-14,1.4-20.7C140.8,195.4,141.1,194.2,140.9,192.8z"/>
		<path class="st8" d="M143,151.2c6.9-1.6,12,3,12,10.7c-2.3,0-4.6,0.1-6.9,0.1c-0.4,0.3-0.7,0.6-1.1,0.9c-0.6,0-1.3,0-1.9,0
			c-8-2.2-18.3,1.9-23,7.9c-3.5,4.5-6.1,9.5-8.9,14.4c-0.7,1.1-1.2,3-3.2,2.6c-1.6-0.4-1.6-1.9-2.2-3.1c-4.2-9.3,0.1-16.5,6.1-22.9
			c5.9-6.3,13.6-10,22.1-11.6c1.4-0.3,3-0.6,4.1,1c-1.6,1.1-3.7,1.4-4.9,3.1c-1.8,2.4-1.5,4.5,1.3,5.6c2.9,1.1,5.5,0.1,7.5-2.3
			C146,155.1,145.1,153.1,143,151.2z"/>
		<path class="st9" d="M260.8,295.9c-0.6-0.1-3,0.9-3.1-0.7c-0.2-2.1-0.3-4.6,1.3-6.6c5.4-6.4,6.8-13.7,5.3-21.8
			c-0.2-0.8-0.4-2.1,0.4-2.2c4.3-0.4,7.8-5,12.6-2.4c0.4,0.2,0.9,0.5,1.4,0.6c7.8,3,9.4,6.1,5.8,13.9c-3.7,8-9.5,14.3-17.5,18.3
			C265.3,295.9,263.5,296.1,260.8,295.9z"/>
		<path class="st11" d="M107,268c-0.2-2.9,0.2-4.7,3.8-3.2c5.2,2.1,10.4,0.9,15.5-0.8c2.2-0.7,3.6-1.1,3.8,2.2c0.3,5,1.9,9.8,4.6,14
			c2.1,3.4,0.9,5.4-2.2,7.2c-8.2,4.6-17.3,1.9-22.2-7C108.1,276.5,107.3,272.3,107,268z"/>
		<path class="st10" d="M99.9,240c-0.1-9.7,3.9-17.3,10.3-23.8c1.9-1.9,2.9-2.8,4.3,0.7c3.8,9.6,9.8,17,21,18
			c2.4,0.2,2.4,1.4,1.4,2.9c-3.3,4.9-5.3,10.3-6.2,16.1c-0.3,1.7-2,2.5-3.4,3.4C112.9,265.7,98,254,99.9,240z M118.1,254
			c7.8,0.1,11.6-4.7,9.6-12.4c-1.4-5.4-5.1-9.4-9.5-12.4c-5.6-3.9-10.4-2.4-13.6,3.6C99.3,242.6,106.5,253.9,118.1,254z"/>
		<path class="st9" d="M232.7,312c-10.1,0.1-17.2-11.5-12.4-20.3c1.2-2.2,3-3.9,5.5-1.4c6.1,6.1,13.4,7.2,21.5,5.7
			c1.1-0.2,2.6-1.7,3.5,0.1c0.7,1.3-0.1,2.6-0.7,3.8C246.2,306.8,241.1,311.8,232.7,312z"/>
		<path class="st12" d="M108.1,124.1c-7.7,1.1-16,14.3-12.5,22.1c2.1,4.8,5.3,6.1,10,3.4c6.2-3.5,12.3-7.2,19.5-8.5
			c-0.4,2.3-2.5,2.5-4,3.3c-5.9,2.8-11,6.7-15,11.9c-2,2.7-4.3,3.2-7.4,1.6c-10.6-5.6-11.6-13.7-4.1-25.6
			c6.3-10,15.2-16.9,27.4-18.9c3.8-0.6,7.2,1.2,10.8,0.7c0.7,1.6,1.3,3.3,2,4.9c-5.9-1.7-11.7-1.3-17.6,0.1
			c-1.4,0.4-2.9,0.8-3.3,2.6C112,122.5,110.1,123.3,108.1,124.1z"/>
		<path class="st9" d="M138,293.3c-0.1-1.5,0-3.5,2.1-4.6c2.1-1.2,2.8,1.1,4.1,1.9c4.7,2.7,9.5,4.6,15.1,4.5
			c4.8-0.1,6.6,2.5,5.1,7.3c-1.4,4.7-4.8,7.7-9.5,8.4c-5.6,0.9-10.2-1.8-13.3-6.2C139.4,301.6,137.9,297.9,138,293.3z"/>
		<path class="st11" d="M81,233.6c-0.4-3.6,0.5-7.4,3.1-10.7c3.2-4.1,10.2-5,13.9-1.7c1.3,1.2,0.3,2.1-0.1,3.1
			c-2.8,6.7-4.4,13.4-3.5,20.8c0.5,3.9-2.6,4.1-5.4,3.5C83.7,247.3,81,242.4,81,233.6z"/>
		<path class="st11" d="M99.8,277c-9.4,0.1-17.5-13-13.4-20.8c1.1-2.2,9.5-3.8,11-1.9c2.4,3,5.4,5.8,4.6,10.5
			c-0.5,2.9-0.2,6,0.4,8.9C103.3,276.8,101.8,277.1,99.8,277z"/>
		<path class="st9" d="M124.6,305c-6.9,0-12.7-3.4-14.1-7.9c-0.5-1.7-0.9-3.2,0.7-4.5c1.5-1.2,3-1.1,4.6-0.2
			c3.7,2.1,7.1,3.6,11.5,0.9c2.6-1.6,5.8-0.8,6.7,3.2c0.8,3.6-2.1,7.9-5.8,8.5C127,305.1,125.8,305,124.6,305z"/>
		<path class="st8" d="M102,195c1.6,1,3,2.3,4,4c0.1,2.7,3.3,4.9,1.4,7.9c-2.1,3.2-5.4,4.4-9,4c-3.6-0.5-5.8-3-6.4-6.6
			c-0.3-1.6-0.1-3.3-0.1-4.9c3.8,0.2,5.2-2,5.5-5.4C98.9,194.3,100.5,194.7,102,195z"/>
		<path class="st12" d="M91.9,199.3c0,1.6-0.1,3.3,0.1,4.9c0.6,3.6,2.8,6.1,6.4,6.6c3.6,0.5,6.9-0.8,9-4c1.9-2.9-1.3-5.2-1.4-7.9
			c1.4,0.5,2.8,1,4.2,1.6c3.4,1.5,4.1,5.8,1.2,8.2c-1.7,1.4-3.6,2.3-5.3,3.7c-6.2,5.3-13.1,3.9-16.1-3.8c-1.4-3.7-3.2-7.8-0.9-12
			C90.1,197.6,91,198.5,91.9,199.3z"/>
		<path class="st11" d="M75.3,229.9c-6.4-6.7-2-17.2,4.1-20.1c1.9-0.9,3.9-1.6,5.2,0.7c1.2,2.2,1.4,4-1.3,5.7
			C78.7,219.2,77,222.7,75.3,229.9z"/>
		<path class="st13" d="M293.3,172c4.2-6.1,8.4-12.1,12.6-18.2c3,6.9-0.3,14.9-7.3,17.1C296.8,171.4,295,171.7,293.3,172z"/>
		<path class="st11" d="M99.6,282.1c2.2-0.3,3.4,0.5,3.5,3.2c0.1,2.8,0.8,5.5,1.3,8.3c0.1,0.8,0.7,1.6-0.3,2.2
			c-0.8,0.4-1.6,0-2.3-0.5c-3.5-2.7-5.9-6.2-6.4-10.7C95.1,282.2,95.7,281.9,99.6,282.1z"/>
		<path class="st14" d="M91.9,199.3c-0.9-0.8-1.9-1.7-2.8-2.5c-0.3-2.7,0.4-5,2.9-6.5c2.5,0.1,4.5,1.1,5.4,3.6
			C97.1,197.3,95.7,199.5,91.9,199.3z"/>
		<path class="st12" d="M128,141c5.2-3.3,11.5-3.2,16.9-6c1.8,1.3,3.4,2.9,4.6,4.8C142.3,140.2,135.1,140.6,128,141z"/>
		<path class="st12" d="M97.4,193.9c-0.9-2.5-2.9-3.5-5.4-3.6c0.3-1.1,0.5-2.2,1-3.3c0.6-1.4,1.6-2.7,3.2-2.8c2.2-0.2,1.8,2,2.4,3.2
			c1.3,2.5,2.3,5.1,3.4,7.6C100.5,194.7,98.9,194.3,97.4,193.9z"/>
		<path class="st11" d="M173.9,267c-3.1-2.2-1.9-3.3,1-4.1c0.3-0.1,0.6-0.2,0.9-0.4c1.8-0.7,0.6-4.7,3.3-3.8c2,0.7,0.6,3.4,0.9,5.3
			c0,0,0,0,0,0C178,265,176,266,173.9,267z"/>
		<path class="st6" d="M168.2,159.7c0.8,0.9,1.6,1.8,2.4,2.6c0.4,1.6,0.8,3.1,1.2,4.7C165.1,166.9,165.1,166.9,168.2,159.7z"/>
		<path class="st2" d="M171.7,167c-0.4-1.6-0.8-3.1-1.2-4.7c0.1-0.1,0.3-0.2,0.4-0.3c3.3,1.7,2.7,6.4,6.1,8
			c-0.6,1.3-1.8,1.9-3.2,2.2C172.3,170.9,172.4,168.8,171.7,167z"/>
		<path class="st10" d="M147,162.9c0.4-0.3,0.7-0.6,1.1-0.9C147.7,162.4,147.3,162.6,147,162.9z"/>
		<path class="st3" d="M177.1,170c-3.4-1.6-2.8-6.3-6.1-8c-1.2-7.4-4.2-13.4-10.7-18.1c-10.5-7.6-18.5-17.5-23.4-29.7
			c-1.1-2.7-2-5.5-3.1-8.7c2.6,1,2.9,4.3,5.7,3.4c0.5,0.5,1.1,1.1,1.6,1.6c-0.3,2.7,1.6,3.6,3.5,4.9c5.7,3.8,12.2,5.8,18.3,8.8
			c6.9,3.5,12.3,8.8,18.8,13.4c-11.4-24.8-5.7-49.3-0.3-73.9c1.8-0.3,2,1.1,2.3,2.1c5.9,18.3,11.8,36.5,17.5,54.9
			c1.3,4.2,1.9,8.7,2.7,13.1c0.7,4.1,2.9,6.6,7.1,7.3c0.2,6,0.2,11.8-2.6,17.4c-2,4-4.5,7.3-9.2,7.2
			C191.4,165.5,184.2,167.2,177.1,170z"/>
		<path class="st12" d="M213.9,105.1c8.2-7.5,20.6-5.3,27.2,4c-2.2,6.4-5.2,11.9-12.2,14.6c-4.6,1.7-7.9,5.8-12.5,9.7
			C216.5,123.3,216.3,114,213.9,105.1z"/>
		<path class="st12" d="M141.1,110.5c-0.5-0.5-1.1-1.1-1.6-1.6c-0.3-0.9-0.5-1.8-0.8-2.7c1.5-1.2,3-2.6,4.6-3.7
			c6.7-4.7,14.5-4.5,21.1,0.4c1,0.8,2.1,1.5,3.2,2.2c2,7.2,3.7,14.4,7,21.6C163.5,120.9,153.7,112.7,141.1,110.5z"/>
		<path class="st3" d="M215.2,150c-0.4-3-0.7-6.1-1.1-9.1c7.4-1.2,9.7-8.1,13.8-12.8c1.5-1.8,2.8-3.6,5.3-5.2
			c-0.2,4.2-2.7,7-4.4,9.8C224.8,138.9,222.6,146.6,215.2,150z"/>
		<path class="st3" d="M237,126c0,2.1,0,4.2,0,6.3c0,1.1,0.1,2.6-1.6,2.4c-1.6-0.1-1.3-1.6-1.3-2.7C234,129.7,234.8,127.7,237,126z"
			/>
		<path class="st13" d="M278.9,142c4.3-0.2,8.4-1.6,12.7-0.9c4.1,0.7,8.7,0.6,10.4,5.8c-12.7,12.2-24.6,14.5-47.9,9.2
			c4.7-3.4,10.3-4.4,14.4-7.8C272.4,146.9,275.6,144.3,278.9,142z"/>
		<path class="st6" d="M254.6,116c0.3-0.6,0.6-1.2,1.4-1.1C255.9,115.7,255.3,115.9,254.6,116z"/>
		<path class="st14" d="M270.1,206.2c0,2.7-0.4,5.6-3.7,5.3c-4.4-0.3-5.2-4-5.4-7.7c-0.1-2.7,0-5.6,3.7-5.9
			C267.6,197.7,270.1,201.7,270.1,206.2z"/>
		<path class="st14" d="M108.1,124.1c1.9-0.8,3.9-1.6,5.8-2.4c2.3,0.7,5.2,0.6,5.2,4.1c0,3.4-2.4,5.1-5.2,5.9
			c-2.6,0.8-5.7,1.4-7.8-1.2C104,127.7,107.1,126.1,108.1,124.1z"/>
		<path class="st8" d="M151.6,245.3c6.6-0.4,8.6,1.2,16.2,13.1c-0.1-4.4,1.9-6.2,4.9-7.1c1.3-0.4,2.8-0.6,3.2,1.2
			c0.3,1.3-0.5,1.9-1.7,2.5c-3.6,2.1-6.1,4.8-5.3,9.7c1.4,8.6-2.8,14.6-10.9,16.1c-4.6,0.9-7.9-1-11-4.3c-6.5-6.9-8.7-14.7-5.7-23.8
			c0.7-2.2,1.8-4.4,4.6-4.8c0.2,1.9-0.3,4.4,2.5,4.7c2,0.2,3.2-1.6,4.1-3.2C153.2,247.9,152.6,246.6,151.6,245.3z"/>
		<path class="st14" d="M151.6,245.3c1,1.2,1.6,2.6,0.8,4.1c-0.9,1.6-2.1,3.4-4.1,3.2c-2.8-0.3-2.3-2.7-2.5-4.7
			C147.2,245.8,148.8,244.3,151.6,245.3z"/>
		<path class="st8" d="M197,207.1c1-6.3,5.2-9.9,10.8-9c5.4,0.9,7.4,5.9,7,13c-0.5,11.6-6.7,20.6-15.4,27.9
			c-2.6,2.2-5.9,2.9-8.9,1.6c-3.1-1.4-5.2-4.1-4.6-8c0.9-5.8,1.1-11.9,6.8-15.6c2.1,2.2,4.4,3.1,7,0.9c2.5-2.2,3.9-5,3-8.4
			C201.9,206.5,199.4,206.8,197,207.1z"/>
		<path class="st14" d="M197,207.1c2.4-0.3,4.8-0.5,5.7,2.5c1,3.4-0.4,6.2-3,8.4c-2.5,2.2-4.9,1.2-7-0.9
			C192.1,212.8,194.1,209.7,197,207.1z"/>
		<path class="st8" d="M225,234.8c0.8-9.5,0.8-19.2,4.3-28.3c2.9-7.3,9.4-10,15.4-6.6c1.1,0.6,2.3,1.5,2.9,2.6
			c8.8,14.8,3.4,37.8-11.8,45c-5.5,2.6-10.4-0.1-10.8-6.2C224.9,239.2,225,237,225,234.8z M241.1,212.5c-0.1-2.4-0.4-5.2-3.1-4.9
			c-3.3,0.4-4.8,3.3-5.1,6.5c-0.2,2.5,1.1,4.6,3.6,4.4C239.9,218.3,240.9,215.5,241.1,212.5z"/>
		<path class="st8" d="M163.1,225.9c-4,0.8-6.4-1.2-8.5-4.5c-9.3-14.5,0.5-37.9,17.5-41.3c7.1-1.4,13.2,3.7,12.8,11.9
			c-0.5,11.4-4.3,21.7-12.5,30C169.9,224.6,167,226.7,163.1,225.9z M171.2,204.3c0.1-2.8-2.1-5.2-4.8-5.1c-3.4,0-7.4,5-7.6,9.2
			c-0.1,2.8,0.9,4.4,3.8,4.6C166.6,213.3,171.1,208.7,171.2,204.3z"/>
		<path class="st14" d="M195.9,259.2c4.3,2.3,8.6,0,12.9-1.4c2.1-0.7,4.7-1.3,5.5,1.4c0.8,2.7-1.9,3.7-3.8,4.2
			c-3.9,1.1-7.4,2.6-11,4.6c-3.4,1.9-8.1-1-8.5-4.8C190.7,260.6,192.3,259.1,195.9,259.2z"/>
		<path class="st14" d="M143,151.2c2.1,1.9,3,3.9,0.9,6.4c-2,2.3-4.6,3.4-7.5,2.3c-2.7-1.1-3-3.2-1.3-5.6c1.3-1.7,3.4-2,4.9-3.1
			C141,151.2,142,151.2,143,151.2z"/>
		<path class="st8" d="M140.9,192.8c0.2,1.4-0.1,2.6-0.7,3.9c-3.2,6.7-4,13.6-1.4,20.7c0.4,1,0.1,2.3,0.2,3.5c0.2,2.2-0.6,4-2.7,4.9
			c-2,0.8-3.4-0.4-4.8-1.7c-10.7-9.2-14.2-25.1-2.1-37.9c5.1-5.3,10.4-10.3,17.6-12.7c1.3-0.4,2.7-1,3.6,0.3c0.7,1,0.4,2.3-0.2,3.3
			c-2,3.5-3,7.8-7,9.9c-0.4-1.8,0.2-4.2-2.4-5c-2.5-0.7-3.9,1.1-5.4,2.7c-0.5,0.5-0.9,1-1.2,1.6c-1.5,2.7-3.9,5.8-1.1,8.6
			C136.4,198,138.5,194,140.9,192.8z"/>
		<path class="st14" d="M140.9,192.8c-2.4,1.2-4.5,5.2-7.6,2.1c-2.8-2.8-0.4-5.8,1.1-8.6c0.3-0.6,0.8-1.1,1.2-1.6
			c1.5-1.6,2.9-3.4,5.4-2.7c2.6,0.7,2,3.1,2.4,5C142.6,189,141.7,190.9,140.9,192.8z"/>
		<path class="st8" d="M118.1,254c-11.6-0.1-18.7-11.4-13.5-21.2c3.2-6,8-7.5,13.6-3.6c4.4,3.1,8.1,7,9.5,12.4
			C129.7,249.3,125.9,254.1,118.1,254z M118,234.3c-0.3-2.6-1.9-3.5-4.2-3.4c-2.7,0.2-5.2,1.3-5.2,4.2c0.1,2.5,2.5,3.6,4.8,3.5
			C116,238.5,117.5,236.8,118,234.3z"/>
		<path class="st14" d="M241.1,212.5c-0.2,3-1.2,5.8-4.6,6c-2.5,0.2-3.8-1.9-3.6-4.4c0.3-3.2,1.8-6.1,5.1-6.5
			C240.8,207.4,241.1,210.1,241.1,212.5z"/>
		<path class="st14" d="M171.2,204.3c-0.1,4.4-4.7,9-8.5,8.7c-2.9-0.2-4-1.8-3.8-4.6c0.2-4.3,4.2-9.2,7.6-9.2
			C169.1,199.2,171.3,201.5,171.2,204.3z"/>
		<path class="st14" d="M118,234.3c-0.4,2.5-2,4.3-4.6,4.4c-2.3,0.1-4.7-1-4.8-3.5c-0.1-3,2.4-4.1,5.2-4.2
			C116.1,230.8,117.7,231.7,118,234.3z"/>
	</g>
</g>
</svg>
