<?xml version="1.0" encoding="utf-8"?>
<!-- Generator: Adobe Illustrator 21.1.0, SVG Export Plug-In . SVG Version: 6.00 Build 0)  -->
<svg version="1.1" id="Layer_1" xmlns="http://www.w3.org/2000/svg" xmlns:xlink="http://www.w3.org/1999/xlink" x="0px" y="0px"
	 viewBox="0 0 380 380" style="enable-background:new 0 0 380 380;" xml:space="preserve">
<style type="text/css">
	.st0{fill:#FEFEFE;}
	.st1{fill:#DC2326;}
	.st2{fill:#C52127;}
	.st3{fill:#258741;}
	.st4{fill:#B31F23;}
	.st5{fill:#3EB34D;}
	.st6{fill:#3BB24B;}
	.st7{fill:#41B44F;}
	.st8{fill:#46B551;}
	.st9{fill:#65BE5F;}
	.st10{fill:#EE2A24;}
	.st11{fill:#9F1B20;}
	.st12{fill:#A01B20;}
	.st13{fill:#206C36;}
</style>
<g>
	<g>
		<path class="st0" d="M190.5,381c-61.8,0-123.7,0-185.5,0.1c-3.4,0-4.1-0.7-4.1-4.1C1,253,1,129,0.9,5c0-3.4,0.7-4.1,4.1-4.1
			C129,1,253,1,377,0.9c3.4,0,4.1,0.7,4.1,4.1c-0.1,124-0.1,248,0,372c0,3.4-0.7,4.1-4.1,4.1C314.8,381,252.7,381,190.5,381z
			 M196,64.1l-0.1-0.1c0.2,0.5,0,1.3,0.9,1.2l-0.1,0.1c0.5,1.6,0.9,3.2,1.4,4.7c4.4,11.3,8.1,22.9,9.9,34.9
			c-6.1-5.2-12.6-10.2-18.4-15.8c-12.3-12-26.9-14.2-43-11.5c-1.8,0.5-4-0.1-5.5,1.9c7,4,14.9,6.5,21,12.1c-1.8,0.2-3.5,0.4-5.3,0.6
			c-0.3-0.2-0.5-0.1-0.7,0.1c-0.7,0-1.4,0-2.2,0c-3-0.6-6-0.4-8.9,0c-13.7,1.6-26.2,6.6-37,15.2c-12.3,9.9-23.7,20.6-30.2,35.6
			c-10.9,25.4-9.2,51.3-3.3,77.4c0.6,3.9,0.5,8.1,1.8,11.8c5.4,15.8,11.3,31.5,17.2,47.2c11.9,31.8,48.9,51.4,82.4,45.1
			c18.9-3.6,37-9.9,54-19.2c13.6-6.9,27.1-14.2,39.6-23c30.5-21.4,46-50.1,42.4-87.9c-1.2-12.2-5.7-23.1-12.8-33
			c-1.5-2.1-4.2-3.5-4.3-6.5c3.2-1,4.6,3,7.8,2.6c0.5-5.1-0.8-9.8-3.7-14c-6.8-9.8-17-12.1-28.1-12.7c2.7-4,7-5.8,11.1-8
			c5.7-1.9,11.5-2.9,17.9-3.2c-16.6-13.1-34.3-13.8-53.5-6.6c2.4-10.3,5.2-19.8,10.5-29.6c-9.4,2.1-18.3,2.4-24,10.3
			c-4.1,1.4-6.1,4.8-7.9,8.3c-1.8-1.2-1.8-3.3-2-5.1c-0.5-5.3-0.8-10.7-1.2-16c-2.3-8.4-8.6-13.2-15.8-17l0,0c-0.3-1-1.2-1-2-1.1
			c-3.4-2.4-7.2-4.2-11.1-5.6c-1.5,0.4-1.1,1.1-0.4,1.9l0,0.1c0.1,0.9,0.6,1.5,1.4,1.8l-0.1-0.1c0.2,0.8,0.1,1.7,1.1,2.1
			c0,0-0.1-0.1-0.1-0.1C195.3,63.4,195.6,63.8,196,64.1z"/>
		<path class="st1" d="M294.9,155.1c0.1,3,2.8,4.4,4.3,6.5c7.1,10,11.6,20.9,12.8,33c3.7,37.9-11.8,66.6-42.4,87.9
			c-12.5,8.8-26,16.1-39.6,23c2.2-4.2,5.2-7.9,6.4-12.8c0.9-3.9-0.8-3.9-3.4-3.8c0.4-0.7,0.8-1.5,1.1-2.2c1.1-2.2,1.6-4.4-0.3-6.4
			c-2-2.2-4.2-1.2-6.3-0.1c-4.6,2.2-6.5,5.9-6.4,10.8c-7.4,2.4-15.2,2.5-22.9,3.5c-9.5,1.2-18.7,0.8-27.6-3.5
			c-8.4-4.1-10.6-9.9-9-19.2c0.3-1.8,1.5-4-1.6-4.8c0.3-3.1,1.6-6.1,1-9.3c-0.5-2.5-1.7-4.2-4.1-5.2c-2.5-1-4,0.4-5.7,1.8
			c-4.1,3.3-5.8,7.5-5.2,12.7c-3.3,0-6.2,2-9.6,2.1c-12.4,0.5-20.7-6.5-28.1-14.9c-2.3-2.6-5.4-5.1-5.2-9.2c4.6,2.2,7.7,0.1,9.8-3.8
			c2.1-4,1.7-8.5,0.6-12.7c-0.6-2.2-2.7-4.2-5.5-4.5c-2.8-0.3-4.2,1.6-5.6,3.5c-2.3,3.1-2.6,6.8-2.3,10.5c-0.1,0.3-0.1,0.7-0.3,1
			c0,0.1-0.4,0.2-0.4,0.2c-0.4-0.8-1-1.6-1.3-2.5c-4.4-13.6-7.9-27.4-9.8-41.5c-1.9-14-2-28.1-0.5-42.2c0.5-4.6,2-9.1,1-13.8
			c-0.3-1.2-0.7-2.9-1.7-3.4c-1.4-0.8-2.2,1-3.1,1.9c-2.1,1.8-3,4.3-4,6.8c-4.5,11.8-5.4,24.2-5.9,36.6c-0.5,13.3-0.4,26.6,0.5,39.8
			c-6-26.1-7.7-52,3.3-77.4c6.4-15,17.9-25.7,30.2-35.6c10.8-8.7,23.3-13.6,37-15.2c3-0.4,6-0.6,8.9,0c0.7,2.2-6.2,4.3-0.3,6.2
			c10.2,3.3,18.8,9.8,28.6,14c1.6,0.7,2.8,1.8,3.8,3.1c1,1.3,1.2,2.9,0.5,4.2c-0.8,1.5-2.3,0.9-3.6,0.5c-3-0.9-6.1-1.6-9-2.7
			c-3.1-1.1-6.2-0.9-9.4-0.7c-1.8,0.1-3.2,1.3-3.5,3.1c-0.3,1.8,1.4,2.1,2.5,2.7c3,1.5,6,2.8,9,4.2c16.9,8.2,33.9,16.1,49.2,27.2
			c6,4.4,11.4,9.7,18.1,13.2c1.5,0.8,3.2,2.4,5,0.8c1.9-1.7,0.7-3.7,0.1-5.5c-1.4-4.1-4.7-6.8-7.5-9.8c-1.2-1.3-3.3-2.2-3.1-4.5
			c2.2-0.7,3.4,0.7,4.9,1.3c6.7,2.7,11.4,8.5,17.6,12c1.7,1,3.3,2.1,4.9,0.5c2.1-1.9,0.5-3.8-0.7-5.3c-1.5-2-3.5-3.6-5.2-5.4
			c-0.8-0.9-2.4-1.7-1.5-3.3c0.7-1.4,2.2-1.4,3.6-1.2c1.3,0.1,2.6,0.5,3.9,0.8c5.7,1.4,10.7,4.2,15.8,8.7c-0.7-4.4-1.3-7.6-1.8-10.8
			c4.6,1.8,9.3,3.6,13.9,5.4c1,0.9,2,1.9,3,2.8C293.4,154.7,293.7,156,294.9,155.1L294.9,155.1z M279.8,243c0.2,2.9,0.3,6.2,3.8,6.6
			c3.1,0.4,4.7-2.3,6.1-4.9c1.2-2.1,1.3-4.4,1.3-6.7c3.2,0.3,5.1-1.8,6-4.3c3.1-8.7,8.8-17.1,4.1-27c-0.1-0.3-0.1-0.7-0.1-1
			c0.4-16.8-9.9-28.9-18.5-41.6c-1.3-1.9-3.4-3.6-5.9-2.7c-2.6,1-2.4,3.5-2.6,5.9c-0.7,6.1,3.1,11,4.1,16.7c-1.3,0-2.7,0-4,0.1
			c-1.1-2.4-3.6-2.8-5.6-3.8c-6.1-3.2-9.3-0.4-11.3,5.8c-1.1,3.5-0.4,7.1-0.2,10.7c0.7,11.5,3.4,22.5,7.4,33.2
			C266.8,237.1,271.2,242.8,279.8,243z M120,128.9c0-4.2-2.3-7.1-5.4-6.7c-6.4,0.8-12.2,8.2-11.6,14.6c0.4,3.8,2.4,5.5,6.3,5.1
			C114.6,141.5,120.1,134.9,120,128.9z M202,224.1c0-2.4,0-5.4-3.4-7c-3.8-1.8-5.8,0.7-8.1,2.9c-4,3.8-4.2,8.6-3.2,13.4
			c0.9,4.5,5.2,5.8,8.8,2.9C199.8,233.3,202.2,229.6,202,224.1z M226,190.1c-0.2,3.5,0.2,7.1,3.7,8.5c3.7,1.4,6.1-1.7,8.3-4.2
			c2.7-3.2,3.4-7.1,3-11.2c-0.3-2.8-2.3-4.3-4.6-5.4c-2.3-1.2-3.8,0.4-5.3,1.6C227.8,182.1,225.7,185.5,226,190.1z M195,172.9
			c0.7-2.8-1-5-3.7-6.8c-1.8-1.2-3.4-0.8-5,0.2c-5,3.3-7.6,9.8-6.2,15.6c1.2,4.6,5.4,6.1,9.1,3.2C192.9,182.2,195.2,178.5,195,172.9
			z M182,277.7c0,3.5,0.5,6.9,4.3,8.1c3.8,1.2,6.1-1.2,8.1-4.3c1.4-2.3,2.9-4.6,3.3-7.2c0.6-3.5-0.4-6.5-3.8-8.5
			c-3.3-1.9-5.3,0.2-7.4,2.1C183.7,270.7,182,273.8,182,277.7z M108,184.6c0.1-1.7,0.1-4.2-1.5-6.3c-1.7-2.2-4.1-3.7-6.8-2.3
			c-5.6,2.9-7.8,12.8-4.2,18c2.7,3.9,6.1,4.1,9.5,0.6C107.5,192,108.1,188.8,108,184.6z M240.9,239.6c-0.4,2.9,0.4,6.1,4.3,7.2
			c3.6,1,5.8-1.5,7.7-4.1c2.3-3.2,3.5-6.8,3.1-10.7c-0.6-5.1-4.9-7.1-9.2-4.4C242.4,230.2,240.9,234,240.9,239.6z M131.9,207.2
			c-0.2,2.8,0.5,6.2,4.1,7.5c3.7,1.4,5.8-1.8,7.7-4.1c2.6-3,3.5-6.7,3.2-10.6c-0.3-4.9-5.1-7.6-9.2-4.9
			C133.8,197.8,131.8,201.6,131.9,207.2z M149,152.2c0-5.4-4.5-9.3-8.2-7c-3.6,2.2-6.3,5.4-7.4,9.6c-0.9,3.4,0.2,6.9,2.6,9.1
			c1.9,1.8,5.3,0.7,7.2-0.8C146.4,160.4,149.1,156.9,149,152.2z"/>
		<path class="st2" d="M233,289c2.6-0.1,4.4-0.1,3.4,3.8c-1.2,4.9-4.1,8.6-6.4,12.8c-17,9.3-35.1,15.7-54,19.2
			c-33.4,6.3-70.5-13.3-82.4-45.1c-5.9-15.7-11.8-31.4-17.2-47.2c-1.3-3.7-1.2-7.8-1.8-11.8c-0.9-13.3-1.1-26.6-0.5-39.8
			c0.5-12.4,1.5-24.8,5.9-36.6c0.9-2.5,1.9-5,4-6.8c0.9-0.8,1.7-2.7,3.1-1.9c0.9,0.5,1.4,2.2,1.7,3.4c1,4.7-0.6,9.2-1,13.8
			c-1.5,14.1-1.4,28.2,0.5,42.2c1.9,14.1,5.4,27.9,9.8,41.5c0.3,0.9,0.8,1.7,1.3,2.5c0,0,0.3-0.1,0.4-0.2c0.1-0.3,0.2-0.6,0.3-1
			c1,2,2,4,3,6c-0.7,0.4-0.6,0.7,0.1,1l0,0c-0.2,4.1,2.9,6.6,5.2,9.2c7.4,8.4,15.7,15.5,28.1,14.9c3.4-0.1,6.3-2.1,9.6-2.1
			c0,3,1.6,5,4.3,5.9c2.7,0.9,5.1-0.2,6.9-2.5c0.9-1.2,1.9-2.2,2.8-3.3c3.1,0.7,1.9,2.9,1.6,4.8c-1.6,9.3,0.6,15,9,19.2
			c8.9,4.4,18.1,4.7,27.6,3.5c7.7-0.9,15.5-1.1,22.9-3.5C225.9,295.3,229.2,291.1,233,289z M112,273.5c0,5.4,2.9,9.5,6.8,9.4
			c3.5-0.1,4.3-2.5,4.2-5.5c-0.1-4.5-3.8-9.3-7.3-9.4C111.6,267.9,112,270.9,112,273.5z M185,307.4c-0.2-1.4,0.5-4.4-2.7-4.1
			c-3.5,0.3-5.7,2.5-5.3,6.5c0.2,2.3-0.4,5.3,3,5.1C183.8,314.5,185.2,311.7,185,307.4z M156,302c-0.2-2,0.5-5-2.7-4.7
			c-3.5,0.3-5.7,2.5-5.4,6.4c0.2,2.3-0.5,5.4,3,5.1C154.7,308.6,156.2,305.7,156,302z"/>
		<path class="st3" d="M289.9,151.3c-4.6-1.8-9.3-3.6-13.9-5.4c-5.1-3.2-10.7-4-16.7-4c-7.5,0-14.9,2.1-22.4,0.2
			c3.4-2.2,7.9-2.5,10.8-5.9c0.6-0.7,2-1,1.7-2.1c-0.2-1.3-1.5-0.9-2.5-1.1c-4.9-0.8-9.9-1.4-14.8-1c-3.3,0.3-4.4-1.1-4.2-4.3
			c0.1-2.5,0.7-5.3-2.2-7.6c-1.2,2.9-2.3,5.6-3.9,9.3c-0.9-3.7-1.6-6.1-3.2-7.9c-1.5-1.7-2.1-5.2-4.5-4.9c-2.4,0.3-1.7,3.9-2.6,5.8
			c-0.6,1.3,0.1,3.5-1.5,3.9c-1.9,0.5-2.7-1.6-3.8-2.7c-6-6-11.9-12.1-19.6-15.9c-1.7-0.8-3.2-1.8-4.7,0.2
			c-6.6-5.5-12.2-12.2-19.9-16.3c-6.1-5.5-14-8-21-12.1c1.5-2.1,3.7-1.5,5.5-1.9c24.6,5.3,45.2,17.6,62.2,37.2
			c0.2-3.9,0.7-7-0.8-9.9c-1.8-12.1-5.5-23.6-9.9-34.9c-0.6-1.5-1-3.1-1.4-4.7c1.6-0.1,2.4,1.1,3,2.2c4.6,7.7,8.7,15.6,12.2,23.9
			c2.9,6.8,4.8,13.9,9.8,20.8c0.2-4.3,2.2-7,3.3-10c1.9-3.5,3.8-6.9,7.9-8.3c0,0.7,0,1.3,0,2c0,6.7-1.7,13.4-0.1,20.2
			c0.7,2.8,1.5,4.8,4.5,4.8c4,0,7.9,0.1,11.9-0.4c6.2-0.8,12.5-2.4,18.8-1.3c4.7,0.8,10-0.2,13.9,3.8c-4,2.2-8.4,3.9-11.1,8
			c-3.6,0.8-6.4,3-10.2,5.7c9.9,1.7,17.5,6.6,25.6,10.5C288.1,148,290.2,148.6,289.9,151.3z"/>
		<path class="st4" d="M162.1,91.8c7.7,4.1,13.3,10.8,19.9,16.3c2.6,3,5.3,5.9,7.8,9c12.2,15.1,27.8,23.5,47.2,25
			c7.5,2,14.9-0.1,22.4-0.2c6,0,11.6,0.7,16.7,4c0.5,3.2,1.1,6.4,1.8,10.8c-5.2-4.5-10.2-7.3-15.8-8.7c-1.3-0.3-2.6-0.7-3.9-0.8
			c-1.3-0.1-2.8-0.2-3.6,1.2c-0.8,1.6,0.7,2.4,1.5,3.3c1.7,1.8,3.6,3.4,5.2,5.4c1.2,1.5,2.8,3.4,0.7,5.3c-1.7,1.5-3.3,0.4-4.9-0.5
			c-6.2-3.5-10.9-9.3-17.6-12c-1.5-0.6-2.8-2-4.9-1.3c-0.3,2.4,1.9,3.2,3.1,4.5c2.8,3,6.1,5.7,7.5,9.8c0.6,1.8,1.8,3.9-0.1,5.5
			c-1.8,1.6-3.5,0-5-0.8c-6.7-3.5-12-8.8-18.1-13.2c-15.3-11.1-32.3-19-49.2-27.2c-3-1.4-6-2.8-9-4.2c-1.1-0.6-2.8-0.9-2.5-2.7
			c0.3-1.8,1.7-3,3.5-3.1c3.1-0.2,6.3-0.4,9.4,0.7c2.9,1.1,6,1.8,9,2.7c1.3,0.4,2.8,0.9,3.6-0.5c0.7-1.3,0.6-2.9-0.5-4.2
			c-1.1-1.3-2.2-2.4-3.8-3.1c-9.8-4.2-18.4-10.7-28.6-14c-5.9-1.9,1-4.1,0.3-6.2c0.7,0,1.4,0,2.2,0c0,0,0.4,0.2,0.4,0.2l0.3-0.3
			C158.6,92.2,160.4,92,162.1,91.8z"/>
		<path class="st5" d="M282,123c-3.8-4-9.2-3-13.9-3.8c-6.2-1-12.6,0.5-18.8,1.3c-4,0.5-7.9,0.4-11.9,0.4c-3,0-3.9-2-4.5-4.8
			c-1.6-6.8,0.1-13.5,0.1-20.2c0-0.7,0-1.3,0-2c5.7-8,14.6-8.2,24-10.3c-5.3,9.8-8.1,19.3-10.5,29.6c19.2-7.3,36.8-6.5,53.5,6.6
			C293.5,120.1,287.7,121.1,282,123z"/>
		<path class="st6" d="M225,102.2c-1.1,3.1-3.1,5.8-3.3,10c-4.9-6.8-6.9-14-9.8-20.8c-3.5-8.2-7.7-16.2-12.2-23.9
			c-0.7-1.1-1.4-2.3-3-2.2c0,0,0.1-0.1,0.1-0.1c-0.3-0.4-0.6-0.8-0.9-1.2c0,0,0.1,0.1,0.1,0.1c-0.4-0.4-0.7-0.7-1.1-1.1
			c0,0,0.1,0.1,0.1,0.1c0-0.9-0.1-1.7-1.1-2.1c0,0,0.1,0.1,0.1,0.1c0-1-0.1-1.9-1.4-1.8c0,0,0-0.1,0-0.1c0.1-0.6,0.2-1.3,0.4-1.9
			c3.9,1.4,7.7,3.2,11.1,5.6c0.4,0.9,1.1,1.1,2,1.1c0,0,0,0,0,0c4.3,5.5,8.6,10.9,13,16.3c0.5,0.6,1.8,0.5,2.8,0.7
			c0.4,5.3,0.7,10.7,1.2,16C223.2,98.9,223.2,100.9,225,102.2z"/>
		<path class="st7" d="M289.9,151.3c0.3-2.6-1.8-3.3-3.6-4.1c-8.1-3.9-15.7-8.8-25.6-10.5c3.7-2.7,6.5-4.9,10.2-5.7
			c11,0.6,21.3,2.9,28.1,12.7c2.9,4.1,4.2,8.8,3.7,14c-3.2,0.4-4.6-3.6-7.8-2.6c0,0,0.1,0,0.1,0c-0.2-1.4-1.1-1.4-2.1-1
			C291.9,153.1,290.9,152.2,289.9,151.3z"/>
		<path class="st8" d="M208,105c1.5,2.9,0.9,6,0.8,9.9c-17-19.6-37.5-31.9-62.2-37.2c16.1-2.7,30.7-0.5,43,11.5
			C195.4,94.9,201.9,99.8,208,105z"/>
		<path class="st9" d="M221.8,81c-0.9-0.2-2.3-0.1-2.8-0.7c-4.4-5.4-8.7-10.9-13-16.3C213.2,67.9,219.5,72.6,221.8,81z"/>
		<path class="st3" d="M192.6,59.3c1.3,0,1.4,0.9,1.4,1.8C193.1,60.8,192.7,60.2,192.6,59.3z"/>
		<path class="st9" d="M206,64c-0.9,0-1.6-0.2-2-1.1C204.8,63,205.7,63,206,64z"/>
		<path class="st3" d="M193.8,61c1,0.3,1.1,1.2,1.1,2.1C194,62.7,194,61.8,193.8,61z"/>
		<path class="st3" d="M193,57.3c-0.1,0.6-0.2,1.3-0.4,1.9C191.8,58.4,191.5,57.7,193,57.3z"/>
		<path class="st1" d="M156.8,92.4l-0.3,0.3c0,0-0.4-0.2-0.4-0.2C156.4,92.2,156.6,92.2,156.8,92.4z"/>
		<path class="st3" d="M195.9,64c0.3,0.4,0.6,0.8,0.9,1.2C195.9,65.3,196.1,64.5,195.9,64z"/>
		<path class="st3" d="M194.9,63c0.4,0.4,0.7,0.7,1.1,1.1C195.6,63.8,195.3,63.4,194.9,63z"/>
		<path class="st10" d="M278,184c-0.9-5.7-4.7-10.6-4.1-16.7c0.3-2.4,0-4.9,2.6-5.9c2.6-0.9,4.7,0.8,5.9,2.7
			c8.7,12.7,18.9,24.8,18.5,41.6c0,0.3,0,0.7,0.1,1c4.8,9.9-1,18.3-4.1,27c-0.9,2.5-2.8,4.6-6,4.3c-2.4-4.8-5.6-5.3-8.8-1.3
			c-1.5,1.8-2.5,3.8-2.4,6.3c-8.7-0.2-13-5.9-15.6-13c-3.9-10.7-6.7-21.7-7.4-33.2c-0.2-3.6-0.9-7.2,0.2-10.7c2-6.2,5.2-9,11.3-5.8
			c2,1,4.5,1.5,5.6,3.8c-1,1.1-2,2.2-2.9,3.4c-4.2,5.3-3.8,13.2,0.8,17.1c1.2,1,2.3,1.7,4,0.9C284.3,201.4,285.4,189.8,278,184z"/>
		<path class="st11" d="M120,128.9c0,6-5.4,12.6-10.7,13.1c-3.9,0.4-5.9-1.3-6.3-5.1c-0.7-6.4,5.2-13.8,11.6-14.6
			C117.7,121.9,120,124.7,120,128.9z"/>
		<path class="st11" d="M202,224.1c0.1,5.5-2.2,9.2-5.9,12.1c-3.6,2.9-7.9,1.6-8.8-2.9c-1-4.8-0.8-9.6,3.2-13.4
			c2.3-2.2,4.4-4.7,8.1-2.9C202.1,218.6,202,221.6,202,224.1z"/>
		<path class="st11" d="M226,190.1c-0.3-4.5,1.8-8,5.2-10.7c1.5-1.2,3-2.8,5.3-1.6c2.3,1.2,4.3,2.6,4.6,5.4c0.4,4.1-0.3,8-3,11.2
			c-2.1,2.5-4.5,5.6-8.3,4.2C226.2,197.2,225.8,193.6,226,190.1z"/>
		<path class="st11" d="M195,172.9c0.2,5.6-2.2,9.3-5.8,12.2c-3.7,3-7.9,1.4-9.1-3.2c-1.5-5.8,1.1-12.3,6.2-15.6
			c1.7-1.1,3.3-1.4,5-0.2C194.1,167.9,195.8,170.2,195,172.9z"/>
		<path class="st11" d="M182,277.7c0-3.9,1.7-7,4.5-9.6c2.1-2,4.2-4,7.4-2.1c3.3,1.9,4.3,5,3.8,8.5c-0.4,2.6-1.8,4.9-3.3,7.2
			c-2,3.1-4.3,5.4-8.1,4.3C182.4,284.7,182,281.2,182,277.7z"/>
		<path class="st11" d="M160,267c-0.9,1.1-1.9,2.2-2.8,3.3c-1.8,2.3-4.2,3.4-6.9,2.5c-2.7-0.8-4.3-2.8-4.3-5.9
			c-0.6-5.2,1.1-9.4,5.2-12.7c1.8-1.4,3.2-2.9,5.7-1.8c2.4,1,3.6,2.8,4.1,5.2C161.6,260.9,160.3,263.9,160,267z"/>
		<path class="st11" d="M103,244c-1-2-2-4-3-6c-0.3-3.7,0-7.3,2.3-10.5c1.4-1.9,2.8-3.8,5.6-3.5c2.8,0.3,5,2.3,5.5,4.5
			c1.1,4.1,1.5,8.6-0.6,12.7c-2.1,3.9-5.2,6-9.8,3.8c0,0,0,0,0,0C103,244.7,103,244.3,103,244z"/>
		<path class="st12" d="M278,184c7.4,5.8,6.3,17.4-2.1,21.5c-1.7,0.8-2.8,0.1-4-0.9c-4.6-3.8-5.1-11.8-0.8-17.1
			c0.9-1.2,1.9-2.3,2.9-3.4C275.4,184,276.7,184,278,184z"/>
		<path class="st11" d="M108,184.6c0,4.2-0.6,7.4-3,10c-3.4,3.5-6.7,3.3-9.5-0.6c-3.6-5.2-1.4-15.1,4.2-18c2.7-1.4,5.1,0.1,6.8,2.3
			C108.2,180.4,108.2,182.9,108,184.6z"/>
		<path class="st11" d="M240.9,239.6c-0.1-5.5,1.5-9.4,5.8-12c4.3-2.7,8.7-0.7,9.2,4.4c0.4,3.9-0.8,7.5-3.1,10.7
			c-1.9,2.6-4.1,5.2-7.7,4.1C241.4,245.7,240.6,242.4,240.9,239.6z"/>
		<path class="st11" d="M131.9,207.2c-0.1-5.6,1.8-9.4,5.8-12.1c4.1-2.7,8.9,0,9.2,4.9c0.2,3.9-0.7,7.6-3.2,10.6
			c-2,2.3-4,5.5-7.7,4.1C132.4,213.4,131.8,210,131.9,207.2z"/>
		<path class="st12" d="M149,152.2c0.1,4.7-2.6,8.2-5.9,10.9c-1.9,1.5-5.3,2.6-7.2,0.8c-2.4-2.2-3.5-5.7-2.6-9.1
			c1.1-4.1,3.8-7.3,7.4-9.6C144.6,142.8,149,146.7,149,152.2z"/>
		<path class="st11" d="M233,289c-3.7,2.1-7.1,6.3-11.9,2c-0.1-4.9,1.8-8.6,6.4-10.8c2.1-1,4.3-2.1,6.3,0.1c1.9,2,1.4,4.2,0.3,6.4
			C233.7,287.5,233.3,288.3,233,289z"/>
		<path class="st12" d="M279.8,243c-0.1-2.4,0.9-4.5,2.4-6.3c3.2-4,6.5-3.5,8.8,1.3c0,2.3-0.2,4.5-1.3,6.7c-1.4,2.6-3,5.3-6.1,4.9
			C280.2,249.1,280,245.8,279.8,243z"/>
		<path class="st0" d="M292.9,154.1c1-0.4,1.9-0.4,2.1,1C293.7,156,293.4,154.7,292.9,154.1z"/>
		<path class="st11" d="M112,273.5c0-2.7-0.4-5.6,3.7-5.5c3.5,0.1,7.2,4.9,7.3,9.4c0.1,3-0.7,5.4-4.2,5.5
			C114.9,283,112,278.9,112,273.5z"/>
		<path class="st12" d="M185,307.4c0.2,4.3-1.2,7.1-5,7.4c-3.5,0.3-2.9-2.8-3-5.1c-0.3-3.9,1.9-6.2,5.3-6.5
			C185.5,303,184.8,306.1,185,307.4z"/>
		<path class="st11" d="M156,302c0.1,3.7-1.3,6.5-5,6.8c-3.5,0.3-2.8-2.8-3-5.1c-0.3-3.9,1.9-6.2,5.4-6.4
			C156.5,297,155.9,300.1,156,302z"/>
		<path class="st1" d="M103,244c0,0.3,0,0.6,0.1,1C102.4,244.7,102.2,244.4,103,244z"/>
		<path class="st13" d="M237,142c-19.4-1.5-35-9.9-47.2-25c-2.5-3.1-5.2-6-7.8-9c1.5-2,3-1,4.7-0.2c7.7,3.8,13.7,9.9,19.6,15.9
			c1.1,1.1,2,3.2,3.8,2.7c1.6-0.5,0.9-2.6,1.5-3.9c0.9-2,0.2-5.5,2.6-5.8c2.3-0.3,3,3.2,4.5,4.9c1.6,1.9,2.4,4.3,3.2,7.9
			c1.6-3.7,2.7-6.4,3.9-9.3c2.8,2.3,2.3,5.1,2.2,7.6c-0.2,3.2,0.9,4.6,4.2,4.3c5-0.4,9.9,0.2,14.8,1c0.9,0.2,2.2-0.2,2.5,1.1
			c0.2,1.1-1.1,1.4-1.7,2.1C244.9,139.5,240.4,139.8,237,142z"/>
	</g>
</g>
</svg>
