
<svg width="648px" height="652px" viewBox="0 0 648 652" version="1.1" xmlns="http://www.w3.org/2000/svg" xmlns:xlink="http://www.w3.org/1999/xlink">
    <!-- Generator: Sketch 50.2 (55047) - http://www.bohemiancoding.com/sketch -->
    <desc>Created with Sketch.</desc>
    <defs></defs>
    <g id="Page-1" stroke="none" stroke-width="1" fill="none" fill-rule="evenodd">
        <g id="twitter_hover" transform="translate(54.000000, 54.000000)">
            <ellipse id="hover" stroke="#FF8729" stroke-width="109" cx="270" cy="272" rx="269.4995" ry="271.339087"></ellipse>
            <circle id="Oval" fill="#65A2D9" fill-rule="nonzero" cx="270" cy="272" r="256"></circle>
            <path d="M407.014,155.326 C380.311,178.495 353.761,198.801 332.06,227.178 C278.679,291.55 213.447,382.878 124.674,369.264 L283.284,527.66 C417.74,520.787 524.781,410.167 525.97,274.284 L407.014,155.326 Z" id="Shape" fill="#3A7CA5" fill-rule="nonzero"></path>
            <path d="M411.872,178.471 C405.359,181.36 398.601,183.638 391.664,185.286 C399.308,178.025 405.054,168.94 408.295,158.802 C409.221,155.909 406.076,153.404 403.463,154.954 C393.813,160.679 383.419,164.97 372.569,167.716 C371.941,167.876 371.293,167.956 370.64,167.956 C368.661,167.956 366.744,167.223 365.229,165.891 C353.687,155.717 338.839,150.114 323.424,150.114 C316.752,150.114 310.019,151.154 303.408,153.205 C282.921,159.558 267.113,176.459 262.151,197.308 C260.291,205.126 259.789,212.956 260.655,220.572 C260.752,221.448 260.341,222.058 260.086,222.344 C259.636,222.846 259.002,223.135 258.341,223.135 C258.269,223.135 258.191,223.132 258.117,223.125 C213.271,218.957 172.83,197.353 144.248,162.288 C142.793,160.499 139.995,160.719 138.833,162.71 C133.237,172.316 130.279,183.299 130.279,194.476 C130.279,211.603 137.163,227.746 149.116,239.515 C144.089,238.322 139.223,236.445 134.702,233.933 C132.514,232.719 129.825,234.283 129.794,236.784 C129.484,262.229 144.382,284.871 166.699,295.066 C166.249,295.076 165.799,295.08 165.349,295.08 C161.812,295.08 158.228,294.742 154.704,294.065 C152.241,293.598 150.172,295.932 150.936,298.318 C158.182,320.936 177.653,337.606 200.957,341.388 C181.618,354.371 159.094,361.218 135.655,361.218 L128.349,361.215 C126.094,361.215 124.189,362.684 123.619,364.865 C123.054,367.01 124.093,369.278 126.015,370.395 C152.427,385.767 182.556,393.89 213.153,393.89 C239.937,393.89 264.991,388.577 287.619,378.092 C308.364,368.483 326.695,354.747 342.105,337.265 C356.462,320.979 367.686,302.18 375.47,281.386 C382.888,261.57 386.81,240.419 386.81,220.232 L386.81,219.268 C386.81,216.027 388.275,212.977 390.834,210.898 C400.54,203.016 408.994,193.74 415.956,183.326 C417.796,180.578 414.896,177.13 411.872,178.471 Z" id="Shape" fill="#FFFFFF" fill-rule="nonzero"></path>
            <path d="M411.872,178.471 C405.357,181.36 398.601,183.638 391.664,185.286 C399.308,178.025 405.054,168.94 408.296,158.802 C409.222,155.909 406.077,153.404 403.464,154.954 C393.814,160.679 383.42,164.97 372.57,167.716 C371.942,167.876 371.294,167.956 370.641,167.956 C368.662,167.956 366.745,167.223 365.23,165.891 C353.688,155.717 338.84,150.114 323.425,150.114 C316.754,150.114 310.02,151.154 303.409,153.205 C289.087,157.646 277.066,167.253 269.424,179.751 L269.424,385.228 C275.646,383.199 281.717,380.825 287.622,378.089 C308.367,368.48 326.698,354.744 342.108,337.262 C356.465,320.975 367.689,302.177 375.473,281.383 C382.891,261.567 386.813,240.416 386.813,220.229 L386.813,219.265 C386.813,216.024 388.278,212.974 390.837,210.895 C400.543,203.013 408.997,193.737 415.959,183.323 C417.796,180.578 414.896,177.13 411.872,178.471 Z" id="Shape" fill="#D1D1D1" fill-rule="nonzero"></path>
        </g>
    </g>
</svg>