
<svg width="231px" height="196px" viewBox="0 0 231 196" version="1.1" xmlns="http://www.w3.org/2000/svg" xmlns:xlink="http://www.w3.org/1999/xlink">
    <!-- Generator: Sketch 50.2 (55047) - http://www.bohemiancoding.com/sketch -->
    <desc>Created with Sketch.</desc>
    <defs></defs>
    <g id="Page-1" stroke="none" stroke-width="1" fill="none" fill-rule="evenodd">
        <g id="FREE-CHOCOLATE-ICONS-01" transform="translate(0.000000, -361.000000)" fill="#8a6354" fill-rule="nonzero">
            <g id="XMLID_52_" transform="translate(0.000000, 361.000000)">
                <g id="XMLID_292_">
                    <g id="XMLID_295_">
                        <path d="M115.9,195.7 C115.5,195.7 115,195.7 114.6,195.6 C47,182.2 12.6,129.4 3.6,88.2 C-3.5,55.6 4,26.7 23.1,12.9 C37.7,2.4 52.8,-1.3 68.1,2 C90.6,6.9 107.5,25.9 115.9,37.3 C124.3,25.8 141.2,6.9 163.7,2 C179,-1.3 194.1,2.3 208.7,12.9 C227.2,26.3 234.6,52.9 228.3,84 C219.3,128.7 181.6,180.5 117.4,195.6 C117,195.6 116.5,195.7 115.9,195.7 Z M57.2,14.3 C48.5,14.3 39.9,17.4 31.1,23.8 C16.4,34.4 10.9,58 16.9,85.3 C24.9,122.1 55.7,169.4 115.9,182 C173.3,167.9 207.1,121.4 215.2,81.3 C220.4,55.5 215,34 200.9,23.8 C189.4,15.5 178.2,12.7 166.7,15.2 C140.4,20.9 122.1,52.6 121.9,52.9 C120.7,55 118.5,56.3 116,56.3 C113.6,56.3 111.3,55 110.1,52.9 C109.9,52.6 91.5,20.9 65.3,15.2 C62.5,14.6 59.9,14.3 57.2,14.3 Z" id="XMLID_297_"></path>
                    </g>
                    <g id="XMLID_293_" transform="translate(11.000000, 60.000000)">
                        <path d="M71.3,72.1 C70,72.1 68.6,71.9 67.2,71.6 C53.8,68.5 52.3,53.4 51,40.1 C49.4,23.9 47.7,16.3 39.2,16.3 C17.3,16.3 10.3,47.5 10.2,47.8 C9.6,50.4 7.1,52 4.6,51.4 C2,50.8 0.4,48.3 1,45.8 C1.3,44.2 9.8,6.8 39.3,6.8 C57.3,6.8 59.1,24.7 60.6,39.1 C61.9,52.2 63.2,60.8 69.5,62.3 C72.1,62.9 73.1,62.3 73.4,62.1 C76,60.5 77.4,54 78.7,48.3 C81.1,37.4 84.4,22.4 100.2,22.4 C100.3,22.4 100.4,22.4 100.5,22.4 C115.3,22.6 120.9,33.9 125.5,43 C130.1,52.3 133.1,57.5 141.1,56.7 C149.7,55.8 153.3,43 156.8,30.6 C160.9,16 165.1,0.9 178.8,0.1 C193.7,-0.8 198.5,8.7 202,15.7 C204.7,21.1 206.3,23.9 210.1,24.3 C212.7,24.6 214.5,27 214.2,29.6 C213.9,32.2 211.5,34 208.9,33.7 C200,32.6 196.4,25.6 193.5,20 C189.8,12.8 187.5,9 179.3,9.5 C172.8,9.9 169.8,19.1 165.9,33.1 C161.8,47.9 157.1,64.6 142.1,66.1 C127.2,67.6 121.6,56.3 117.1,47.2 C112.4,37.7 109.1,31.9 100.5,31.8 C100.4,31.8 100.4,31.8 100.3,31.8 C92.9,31.8 90.8,37.7 88,50.3 C86.3,58.2 84.5,66.3 78.5,70 C76.3,71.5 73.9,72.1 71.3,72.1 Z" id="XMLID_294_"></path>
                    </g>
                </g>
            </g>
        </g>
    </g>
</svg>