
<svg width="217px" height="223px" viewBox="0 0 217 223" version="1.1" xmlns="http://www.w3.org/2000/svg" xmlns:xlink="http://www.w3.org/1999/xlink">
    <!-- Generator: Sketch 50.2 (55047) - http://www.bohemiancoding.com/sketch -->
    <desc>Created with Sketch.</desc>
    <defs></defs>
    <g id="Page-1" stroke="none" stroke-width="1" fill="none" fill-rule="evenodd">
        <g id="FREE-CHOCOLATE-ICONS-01" transform="translate(-610.000000, -347.000000)" fill="#8a6354" fill-rule="nonzero">
            <g id="XMLID_65_" transform="translate(610.000000, 347.000000)">
                <g id="XMLID_355_">
                    <g id="XMLID_358_" transform="translate(0.000000, 15.000000)">
                        <g id="XMLID_368_">
                            <path d="M68.2,207.5 C49.1,207.5 33.8,202.8 24.2,198.9 C17.3,196 11.9,190.6 9,183.7 C2.1,166.9 -7,132.7 10.5,91.5 C25.8,55.2 70,10.7 114.7,2 C138.5,-2.6 159.7,3.5 175.9,19.7 L188.3,32.1 C204.5,48.3 210.7,69.5 206,93.3 C197.3,137.9 152.8,182.1 116.5,197.5 C98.9,204.9 82.5,207.5 68.2,207.5 Z M129.9,13.9 C125.8,13.9 121.6,14.3 117.3,15.2 C77,23.1 37,63.6 23,96.7 C7.5,133.4 15.5,163.7 21.6,178.5 C23.1,182.1 25.9,184.9 29.5,186.4 C44.3,192.5 74.6,200.5 111.3,185 C144.4,171 185,131 192.8,90.7 C196.6,71.2 191.9,54.7 178.8,41.6 L166.4,29.2 C156.2,19.1 144,13.9 129.9,13.9 Z" id="XMLID_369_"></path>
                        </g>
                        <g id="XMLID_366_" transform="translate(15.000000, 23.000000)">
                            <path d="M5,169.8 C4.4,169.8 3.8,169.7 3.3,169.5 C0.9,168.6 -0.3,165.8 0.6,163.4 C12.6,132.5 38.8,94.7 72.3,59.8 C103.3,27.4 133.4,5.1 150.9,1.4 C157.3,-6.32827124e-15 162.3,1.1 165.7,4.5 C167.6,6.3 167.6,9.3 165.7,11.2 C163.9,13.1 160.9,13.1 159,11.2 C157.7,9.9 154.5,10.3 152.8,10.7 C121.3,17.4 35.3,100.3 9.4,167 C8.6,168.6 6.8,169.8 5,169.8 Z" id="XMLID_367_"></path>
                        </g>
                        <g id="XMLID_364_" transform="translate(13.000000, 15.000000)">
                            <path d="M6.9,177.8 C4.7,177.8 2.7,176.2 2.2,173.9 C-5,135.3 10.5,100.7 24.8,78.5 C42.4,51 67.9,27.2 94.6,13.1 C125.3,-3 151.9,-3.3 167.6,12.4 C169.4,14.2 169.4,17.2 167.6,19.1 C165.8,20.9 162.8,20.9 160.9,19.1 C148.3,6.5 125.8,7.4 99,21.5 C48.4,48.1 0.5,113.4 11.5,172.3 C12,174.9 10.3,177.3 7.7,177.8 C7.5,177.7 7.2,177.8 6.9,177.8 Z" id="XMLID_365_"></path>
                        </g>
                        <g id="XMLID_361_" transform="translate(15.000000, 25.000000)">
                            <path d="M5,167.8 C3.1,167.8 1.3,166.6 0.6,164.7 C-0.3,162.3 0.9,159.5 3.4,158.6 C71.2,133.1 152.7,48.8 159.8,16.1 C160.2,14.1 160.7,10.5 159.1,9 C157.3,7.2 157.3,4.2 159.1,2.3 C160.9,0.5 163.9,0.4 165.8,2.3 C169.4,5.9 170.5,11.3 169,18.1 C161.4,53.4 78.3,140.5 6.7,167.4 C6.1,167.7 5.5,167.8 5,167.8 Z" id="XMLID_363_"></path>
                        </g>
                        <g id="XMLID_359_" transform="translate(15.000000, 25.000000)">
                            <path d="M23,169.4 C16.7,169.4 10.3,168.8 4.1,167.7 C1.5,167.2 -0.2,164.8 0.3,162.2 C0.8,159.6 3.2,157.9 5.8,158.4 C11.6,159.5 17.4,160 23.2,160 C76.7,160 130.8,116.9 155.5,70 C169.4,43.6 170.7,20.7 159,9 C157.2,7.2 157.2,4.2 159,2.3 C160.8,0.5 163.8,0.5 165.7,2.3 C180.8,17.4 180.1,43.6 163.9,74.4 C137.8,124 80.3,169.4 23,169.4 Z" id="XMLID_360_"></path>
                        </g>
                    </g>
                    <g id="XMLID_356_" transform="translate(173.000000, 0.000000)">
                        <path d="M6.7,52.4 L0.2,40.6 C0.5,40.5 26.8,25.6 30.6,0.1 L44,2.1 C39.1,34.3 8,51.7 6.7,52.4 Z" id="XMLID_357_"></path>
                    </g>
                </g>
            </g>
        </g>
    </g>
</svg>