
<svg width="250px" height="235px" viewBox="0 0 250 235" version="1.1" xmlns="http://www.w3.org/2000/svg" xmlns:xlink="http://www.w3.org/1999/xlink">
    <!-- Generator: Sketch 50.2 (55047) - http://www.bohemiancoding.com/sketch -->
    <desc>Created with Sketch.</desc>
    <defs></defs>
    <g id="Page-1" stroke="none" stroke-width="1" fill="none" fill-rule="evenodd">
        <g id="Scone" transform="translate(-421.000000, -9.000000)" fill="#8a6354" fill-rule="nonzero">
            <g id="Group" transform="translate(421.000000, 9.000000)">
                <path d="M160.308,234.413 C160.305,234.413 160.308,234.413 160.305,234.413 C138.865,234.413 118.998,232.886 105.799,230.229 C73.947,223.814 71.472,175.148 71.472,160.385 C71.472,111.198 111.491,71.182 160.677,71.182 C209.864,71.182 249.881,111.199 249.881,160.385 C249.881,175.217 247.404,224.086 215.527,230.232 C201.764,232.888 181.636,234.413 160.308,234.413 Z M160.677,77.881 C115.185,77.881 78.172,114.892 78.172,160.385 C78.172,188.157 85.777,219.362 107.121,223.66 C119.905,226.234 139.29,227.713 160.305,227.713 C181.231,227.713 200.894,226.234 214.257,223.656 C235.582,219.541 243.181,188.275 243.181,160.384 C243.181,114.892 206.17,77.881 160.677,77.881 Z" id="Shape"></path>
                <path d="M74.708,163.6 C58.934,163.057 45.29,161.7 35.25,159.678 C3.398,153.263 0.923,104.597 0.923,89.834 C0.923,40.648 40.94,0.631 90.126,0.631 C133.97,0.631 170.981,31.976 178.128,75.159 L171.521,76.252 C164.91,36.316 130.676,7.33 90.126,7.33 C44.633,7.33 7.622,44.341 7.622,89.834 C7.622,117.607 15.228,148.811 36.571,153.109 C46.12,155.033 59.745,156.38 74.94,156.907 L74.708,163.6 Z" id="Shape"></path>
                <path d="M206.53,217.314 L113.457,217.314 L114.245,213.316 C114.32,212.94 122.116,175.645 160.536,175.645 C198.663,175.645 205.762,212.999 205.83,213.375 L206.53,217.314 Z M121.93,210.614 L198.205,210.614 C195.474,201.985 186.405,182.344 160.536,182.344 C134.291,182.345 124.828,201.946 121.93,210.614 Z" id="Shape"></path>
                <path d="M217.822,225.171 C217.642,222.816 212.84,167.486 160.821,167.486 C108.275,167.486 103.805,222.796 103.64,225.148 L96.957,224.693 C96.999,224.052 101.978,160.786 160.821,160.786 C219.097,160.786 224.453,224.032 224.502,224.67 L217.822,225.171 Z" id="Shape"></path>
            </g>
        </g>
    </g>
</svg>