
<svg width="207px" height="196px" viewBox="0 0 207 196" version="1.1" xmlns="http://www.w3.org/2000/svg" xmlns:xlink="http://www.w3.org/1999/xlink">
    <!-- Generator: Sketch 50.2 (55047) - http://www.bohemiancoding.com/sketch -->
    <desc>Created with Sketch.</desc>
    <defs></defs>
    <g id="Page-1" stroke="none" stroke-width="1" fill="none" fill-rule="evenodd">
        <g id="Scone" transform="translate(-142.000000, -10.000000)" fill="#8a6354" fill-rule="nonzero">
            <g id="Group" transform="translate(142.000000, 10.000000)">
                <path d="M103.98,127.579 C45.032,127.579 8.413,107.203 8.413,74.402 C8.413,40.129 50.159,0.289 103.98,0.289 C157.801,0.289 199.547,40.129 199.547,74.402 C199.547,107.202 162.928,127.579 103.98,127.579 Z M103.98,6.988 C53.932,6.988 15.112,43.227 15.112,74.402 C15.112,108.672 61.019,120.88 103.98,120.88 C146.941,120.88 192.848,108.672 192.848,74.402 C192.848,43.227 154.028,6.988 103.98,6.988 Z" id="Shape"></path>
                <path d="M103.98,195.561 C45.032,195.561 8.413,175.185 8.413,142.384 L8.412,141.278 C8.402,136.568 8.395,134.202 10.505,128.56 L16.779,130.902 C15.097,135.407 15.101,136.764 15.111,141.262 L15.113,142.384 C15.113,176.653 61.02,188.862 103.981,188.862 C146.942,188.862 192.849,176.654 192.849,142.384 C192.849,138.069 192.103,133.6 190.629,129.096 L196.998,127.015 C198.689,132.19 199.548,137.362 199.548,142.384 C199.547,175.185 162.928,195.561 103.98,195.561 Z" id="Shape"></path>
                <path d="M30.901,141.298 C17.809,138.966 8.844,133.084 4.256,123.814 C-5.392,104.314 8.327,77.222 8.916,76.077 L14.874,79.142 C14.745,79.394 2.109,104.399 10.268,120.857 C13.863,128.106 21.199,132.768 32.074,134.704 L30.901,141.298 Z" id="Shape"></path>
                <path d="M67.438,159.78 C54.232,159.78 43.66,156.159 35.866,148.939 C18.116,132.495 21.777,103.796 21.942,102.583 L28.581,103.479 C28.545,103.744 25.243,129.996 40.442,144.045 C50.128,153.002 65.429,155.308 85.925,150.924 L87.328,157.473 C80.154,159.012 73.517,159.78 67.438,159.78 Z" id="Shape"></path>
                <path d="M106.329,162.185 C101.959,162.185 97.611,161.57 93.302,160.336 C64.518,152.106 47.779,119.417 47.081,118.026 L53.064,115.013 C53.222,115.327 69.222,146.499 95.169,153.905 C107.058,157.291 119.384,155.175 131.81,147.605 L135.297,153.323 C125.613,159.225 115.914,162.185 106.329,162.185 Z" id="Shape"></path>
                <path d="M143.696,155.077 C116.757,155.077 91.847,126.797 91.523,126.424 L96.586,122.034 C96.961,122.466 134.626,165.169 163.542,140.818 L167.857,145.941 C160.026,152.535 151.77,155.077 143.696,155.077 Z" id="Shape"></path>
                <path d="M168.682,145.773 C168.437,145.773 168.195,145.77 167.95,145.763 C149.452,145.292 135.898,126.98 135.331,126.201 L140.743,122.253 C140.862,122.417 152.963,138.697 168.146,139.067 C176.246,139.228 183.976,134.854 191.184,125.953 L196.388,130.173 C188,140.526 178.682,145.773 168.682,145.773 Z" id="Shape"></path>
                <path d="M193.589,129.348 C182.666,129.348 167.372,118.841 163.742,116.23 L167.653,110.793 C177.346,117.754 192.783,125.451 196.566,121.817 C198.677,119.779 199.708,114.045 199.253,106.848 C198.576,96.121 195.203,86.822 193.272,85.382 L197.276,80.011 C202.044,83.567 205.299,96.275 205.94,106.426 C206.365,113.161 205.891,122.134 201.214,126.639 C199.212,128.57 196.563,129.348 193.589,129.348 Z" id="Shape"></path>
            </g>
        </g>
    </g>
</svg>