
<svg width="227px" height="178px" viewBox="0 0 227 178" version="1.1" xmlns="http://www.w3.org/2000/svg" xmlns:xlink="http://www.w3.org/1999/xlink">
    <!-- Generator: Sketch 50.2 (55047) - http://www.bohemiancoding.com/sketch -->
    <desc>Created with Sketch.</desc>
    <defs></defs>
    <g id="Page-1" stroke="none" stroke-width="1" fill="none" fill-rule="evenodd">
        <g id="Scone" transform="translate(-393.000000, -533.000000)" fill="#8a6354" fill-rule="nonzero">
            <g id="Group" transform="translate(393.000000, 533.000000)">
                <path d="M113.326,178.004 C38.421,178.004 0.44,152.871 0.44,103.306 C0.44,46.603 51.081,0.468 113.326,0.468 C175.572,0.468 226.215,46.603 226.215,103.306 C226.215,152.871 188.232,178.004 113.326,178.004 Z M113.326,7.168 C54.774,7.168 7.14,50.296 7.14,103.306 C7.14,149.064 41.874,171.305 113.326,171.305 C184.781,171.305 219.515,149.064 219.515,103.306 C219.516,50.296 171.879,7.168 113.326,7.168 Z" id="Shape"></path>
                <path d="M113.326,83.541 C87.652,83.541 66.764,68.064 66.764,49.039 C66.764,30.014 87.651,14.537 113.326,14.537 C139,14.537 159.89,30.014 159.89,49.039 C159.89,68.064 139,83.541 113.326,83.541 Z M113.326,21.237 C91.347,21.237 73.464,33.71 73.464,49.039 C73.464,64.368 91.346,76.842 113.326,76.842 C135.307,76.842 153.19,64.368 153.19,49.039 C153.19,33.71 135.307,21.237 113.326,21.237 Z" id="Shape"></path>
            </g>
        </g>
    </g>
</svg>