
<svg width="224px" height="222px" viewBox="0 0 224 222" version="1.1" xmlns="http://www.w3.org/2000/svg" xmlns:xlink="http://www.w3.org/1999/xlink">
    <!-- Generator: Sketch 50.2 (55047) - http://www.bohemiancoding.com/sketch -->
    <desc>Created with Sketch.</desc>
    <defs></defs>
    <g id="Page-1" stroke="none" stroke-width="1" fill="none" fill-rule="evenodd">
        <g id="Scone" transform="translate(-92.000000, -490.000000)" fill="#8a6354" fill-rule="nonzero">
            <g id="Group" transform="translate(92.000000, 490.000000)">
                <path d="M24.161,211.966 C22.615,211.966 21.225,210.89 20.888,209.317 C20.312,206.631 7.1,143.022 34.351,103.787 C45.354,87.948 61.458,78.373 82.214,75.327 C102.022,72.413 119.251,76.927 133.393,88.729 C171.233,120.3 174.152,192.699 174.259,195.767 L174.279,196.33 L174.112,196.867 C173.992,197.256 171.039,206.37 157.962,207.044 C148.603,207.528 73.102,207.19 48.289,207.08 C43.958,207.06 41.171,207.047 40.549,207.047 C39.285,207.047 38.07,206.517 37.126,205.556 C33.616,201.974 33.3,189.89 33.431,182.873 C33.05,178.273 27.889,104.327 84.732,95.988 C98.286,93.996 110.069,97.094 119.762,105.18 C144.568,125.877 147.213,172.247 147.422,177.088 C147.673,178.276 148.042,181.249 146.316,184.118 C144.772,186.685 142.091,188.367 138.349,189.116 C132.637,190.258 110.857,189.385 85.099,188.223 C76.619,187.836 69.294,187.506 66.509,187.506 C64.309,187.506 61.098,186.704 58.298,182.884 C52.215,174.581 51.491,156.093 56.615,139.874 C61.082,125.732 75.743,113.71 89.991,112.5 C100.111,111.656 108.284,116.262 113.034,125.496 C120.347,139.713 121.405,152.353 115.935,160.178 C111.887,165.975 104.589,168.527 95.403,167.382 C81.323,165.621 74.547,157.051 74.209,149.831 C73.928,143.815 77.852,139.019 84.208,137.61 C86.004,137.217 87.803,138.349 88.202,140.155 C88.602,141.964 87.463,143.75 85.657,144.152 C82.508,144.848 80.775,146.805 80.902,149.517 C81.119,154.165 86.457,159.51 96.234,160.734 C100.909,161.316 107.168,161.028 110.444,156.34 C114.384,150.703 113.125,140.318 107.076,128.558 C102.682,120.017 95.671,118.754 90.556,119.176 C79.011,120.154 66.65,130.344 63.003,141.888 C58.083,157.462 59.535,173.24 63.701,178.925 C64.617,180.171 65.561,180.806 66.508,180.806 C69.444,180.806 76.486,181.123 85.401,181.529 C102.703,182.311 131.663,183.63 137.032,182.547 C138.264,182.302 139.872,181.781 140.549,180.705 C141.174,179.711 140.863,178.461 140.86,178.448 L140.737,177.663 C140.72,177.185 138.79,129.768 115.458,110.314 C107.293,103.506 97.283,100.916 85.701,102.614 C33.579,110.259 40.043,181.709 40.115,182.428 L40.135,182.628 L40.132,182.824 C39.985,190.21 40.68,197.881 41.661,200.347 C42.97,200.351 45.26,200.364 48.316,200.376 C73.079,200.484 148.444,200.818 157.616,200.347 C164.484,199.993 166.88,196.533 167.528,195.277 C167.128,187.662 162.713,121.903 129.09,93.862 C116.474,83.339 101.026,79.339 83.185,81.952 C64.336,84.717 49.756,93.349 39.852,107.608 C14.24,144.481 27.304,207.283 27.439,207.914 C27.825,209.724 26.673,211.503 24.865,211.889 C24.629,211.943 24.394,211.966 24.161,211.966 Z" id="Shape"></path>
                <path d="M142.715,221.004 L35.524,221.004 C27.5,221.004 23.409,216.225 21.726,212.172 L5.332,213.497 L4.678,210.684 C4.095,208.182 -9.317,148.822 13.546,96.894 C17.517,87.875 60.223,45.147 94.826,17.22 C107.908,6.663 125.85,0.847 145.347,0.847 C175.966,0.847 202.072,14.685 210.309,35.278 C221.236,62.592 223.696,142.875 223.796,146.28 L223.82,147.089 L190.906,216.148 L189.259,216.475 C188.33,216.66 166.223,221.004 142.715,221.004 Z M27.028,205.024 L27.48,208.135 C27.647,209.139 28.844,214.304 35.524,214.304 L142.715,214.304 C161.989,214.304 180.773,211.206 186.316,210.208 L217.074,145.67 C216.786,137.08 214.015,62.581 204.087,37.762 C196.972,19.973 172.817,7.546 145.347,7.546 C127.377,7.546 110.927,12.832 99.033,22.433 C61.942,52.366 22.55,93.066 19.676,99.595 C0.446,143.276 8.282,193.984 10.63,206.345 L27.028,205.024 Z" id="Shape"></path>
                <path d="M188.604,216.539 C186.793,216.539 185.305,215.097 185.257,213.274 C185.231,212.27 182.115,112.331 136.068,80.577 C99.169,55.133 54.336,62.774 19.058,100.531 C17.797,101.885 15.677,101.958 14.325,100.691 C12.972,99.428 12.9,97.309 14.164,95.958 C51.873,55.598 100.039,47.593 139.873,75.062 C188.727,108.75 191.846,208.859 191.954,213.105 C192.001,214.954 190.541,216.491 188.693,216.54 C188.663,216.539 188.634,216.539 188.604,216.539 Z" id="Shape"></path>
            </g>
        </g>
    </g>
</svg>