
<svg width="176px" height="245px" viewBox="0 0 176 245" version="1.1" xmlns="http://www.w3.org/2000/svg" xmlns:xlink="http://www.w3.org/1999/xlink">
    <!-- Generator: Sketch 50.2 (55047) - http://www.bohemiancoding.com/sketch -->
    <desc>Created with Sketch.</desc>
    <defs></defs>
    <g id="Page-1" stroke="none" stroke-width="1" fill="none" fill-rule="evenodd">
        <g id="Scone" transform="translate(-731.000000, -1.000000)" fill="#8a6354" fill-rule="nonzero">
            <g id="Group" transform="translate(731.000000, 0.000000)">
                <path d="M58.548,166.82 C58.267,166.82 57.985,166.784 57.704,166.712 C57,166.899 56.231,166.853 55.516,166.532 C55.339,166.453 37.831,158.328 45.852,131.798 C53.769,105.605 77.305,98.14 99.285,94.293 C106.478,93.034 114.925,91.948 123.09,90.897 C135.816,89.261 153.166,87.03 156.116,84.764 L157.48,81.692 L160.693,83.511 C160.931,83.645 166.585,86.913 167.85,93.711 C168.873,99.21 166.784,105.173 161.631,111.444 C155.87,118.454 140.417,123.812 122.524,130.015 C98.412,138.376 68.405,148.779 61.636,164.775 C61.096,166.055 59.853,166.82 58.548,166.82 Z M159.069,90.744 C154.208,93.413 143.668,95.007 123.943,97.545 C115.853,98.586 107.485,99.662 100.439,100.895 C79.463,104.565 59.113,111.085 52.263,133.735 C47.307,150.137 53.686,157.167 56.778,159.486 C66.33,142.407 94.94,132.488 120.328,123.686 C136.56,118.06 151.892,112.744 156.456,107.192 C160.237,102.589 161.899,98.35 161.265,94.938 C160.918,93.077 159.949,91.677 159.069,90.744 Z" id="Shape"></path>
                <path d="M37.138,160.556 C29.218,160.556 22.522,154.485 22.228,154.213 L21.786,153.807 L21.512,153.274 C20.998,152.27 9.072,128.465 21.646,108.114 C29.343,95.651 50.773,89.664 71.497,83.874 C84.608,80.21 98.164,76.426 106.852,71.267 C125.521,60.181 121.665,53.154 121.625,53.082 L117.074,45.372 L125.488,48.078 C127.173,48.637 166.699,62.115 162.342,87.006 C162.025,88.828 160.287,90.032 158.465,89.728 C156.644,89.407 155.427,87.673 155.743,85.848 C158.311,71.183 138.413,60.709 128.608,56.489 C128.562,56.865 128.497,57.255 128.412,57.657 C127.018,64.19 120.915,70.709 110.273,77.026 C100.823,82.639 87.453,86.375 73.298,90.327 C53.815,95.77 33.667,101.4 27.344,111.636 C17.703,127.246 25.604,146.177 27.206,149.657 C28.643,150.822 33.336,154.273 37.926,153.818 C40.396,153.586 42.516,152.251 44.406,149.735 C45.515,148.256 47.618,147.959 49.096,149.068 C50.575,150.18 50.872,152.28 49.76,153.759 C46.705,157.825 42.92,160.089 38.514,160.495 C38.054,160.536 37.592,160.556 37.138,160.556 Z" id="Shape"></path>
                <path d="M89.693,166.823 L89.281,166.82 C87.893,166.814 75.525,166.555 69.189,160.049 C66.735,157.533 65.479,154.327 65.551,150.781 C65.587,148.933 67.121,147.53 68.969,147.5 C70.818,147.54 72.286,149.07 72.25,150.918 C72.211,152.701 72.761,154.114 73.98,155.367 C77.539,159.034 85.603,160.015 88.917,160.114 C93.195,159.021 129.539,149.414 141.388,135.095 C154.037,119.808 155.709,108.951 155.726,108.843 C155.988,107.011 157.679,105.752 159.517,106.001 C161.345,106.263 162.619,107.96 162.357,109.792 C162.285,110.309 160.39,122.638 146.55,139.367 C132.601,156.221 91.821,166.303 90.091,166.724 L89.693,166.823 Z" id="Shape"></path>
                <path d="M134.287,154.658 C131.146,154.658 127.97,154.357 124.8,153.732 C122.985,153.372 121.804,151.612 122.163,149.796 C122.519,147.981 124.273,146.803 126.096,147.156 C143.145,150.535 160.444,143.129 167.212,129.59 C173.391,117.228 161.667,102.681 161.549,102.533 C160.378,101.104 160.584,98.993 162.01,97.823 C163.437,96.649 165.547,96.848 166.721,98.278 C167.32,99.004 181.34,116.306 173.204,132.587 C166.396,146.202 150.911,154.654 134.287,154.658 Z" id="Shape"></path>
                <path d="M13.3,106.43 C13.29,106.43 13.28,106.43 13.268,106.43 C11.419,106.414 9.934,104.899 9.951,103.051 C10.167,78.997 33.956,56.622 53.275,55.173 C73.812,53.632 90.891,31.581 91.061,31.359 L91.807,30.381 L93.007,30.119 C112.987,25.732 126.736,48.578 127.313,49.553 C128.251,51.143 127.725,53.194 126.131,54.136 C124.535,55.069 122.487,54.548 121.545,52.958 C121.431,52.769 110.285,34.279 95.562,36.455 C91.672,41.211 74.835,60.273 53.776,61.852 C37.567,63.069 16.834,82.736 16.65,103.109 C16.634,104.951 15.135,106.43 13.3,106.43 Z" id="Shape"></path>
                <path d="M20.987,145.289 C20.356,145.289 19.717,145.109 19.152,144.736 C18.144,144.075 -5.452,128.295 1.271,110.902 C7.827,93.934 40.222,93.715 41.805,93.715 C41.808,93.715 41.815,93.715 41.818,93.715 C43.67,93.718 45.165,95.216 45.165,97.065 C45.165,98.917 43.664,100.415 41.815,100.415 C33.663,100.415 11.608,102.734 7.519,113.317 C2.74,125.685 22.635,139.009 22.835,139.143 C24.379,140.164 24.804,142.241 23.786,143.782 C23.144,144.759 22.077,145.289 20.987,145.289 Z" id="Shape"></path>
                <path d="M43.791,64.349 C43.313,64.349 42.826,64.245 42.365,64.025 C40.693,63.236 39.976,61.241 40.765,59.569 C41.088,58.885 48.819,42.748 63.363,32.853 C71.09,27.6 71.805,17.959 72.329,10.919 C72.699,5.927 73.019,1.616 77.059,1.04 C79.618,0.67 82.882,2.568 86.703,6.68 C92.781,13.216 99.124,24.318 96.994,34.103 C96.601,35.909 94.815,37.05 93.01,36.664 C91.204,36.268 90.057,34.485 90.449,32.677 C92.376,23.815 83.687,12.372 79.231,8.764 C79.146,9.602 79.074,10.56 79.009,11.417 C78.455,18.862 77.53,31.319 67.131,38.395 C54.131,47.234 46.895,62.282 46.822,62.432 C46.251,63.639 45.047,64.349 43.791,64.349 Z" id="Shape"></path>
                <path d="M84.996,185.803 C41.442,185.803 7.327,168.269 7.327,145.887 C7.327,141.867 8.439,137.912 10.631,134.137 C11.56,132.534 13.608,131.991 15.21,132.923 C16.811,133.852 17.354,135.9 16.424,137.5 C14.834,140.241 14.027,143.064 14.027,145.887 C14.027,163.892 46.527,179.103 84.997,179.103 C123.47,179.103 155.973,163.892 155.973,145.887 C155.973,145.269 155.934,144.654 155.859,144.042 C155.632,142.204 156.938,140.535 158.773,140.31 C160.605,140.071 162.28,141.386 162.509,143.225 C162.616,144.105 162.672,144.995 162.672,145.888 C162.671,168.269 128.552,185.803 84.996,185.803 Z" id="Shape"></path>
                <path d="M85.807,245.657 L84.953,245.647 C84.766,245.647 84.573,245.647 84.387,245.647 C43.915,245.647 26.945,222.647 26.238,221.662 L25.731,220.955 L19.493,166.299 C19.284,164.461 20.602,162.802 22.44,162.593 C24.269,162.347 25.941,163.698 26.15,165.54 L32.182,218.396 C35.122,222.001 50.752,238.946 84.45,238.946 C84.627,238.946 84.801,238.946 84.98,238.946 L85.807,238.956 L86.491,238.946 C120.581,239.142 136.378,222.037 139.351,218.393 L145.582,164.165 C145.791,162.327 147.45,160.995 149.292,161.221 C151.13,161.43 152.448,163.092 152.239,164.93 L145.801,220.953 L145.294,221.66 C144.588,222.645 127.61,245.645 87.083,245.645 C86.896,245.645 86.706,245.645 86.517,245.645 L85.807,245.657 Z" id="Shape"></path>
                <path d="M128.34,211.764 C128.248,211.764 128.159,211.761 128.069,211.754 C126.223,211.607 124.85,209.991 124.997,208.146 L127.706,174.315 C127.85,172.47 129.495,171.112 131.31,171.243 C133.155,171.39 134.529,173.006 134.382,174.851 L131.673,208.682 C131.535,210.436 130.066,211.764 128.34,211.764 Z" id="Shape"></path>
                <path d="M108.564,217.066 C108.502,217.066 108.44,217.066 108.378,217.059 C106.529,216.957 105.116,215.378 105.218,213.533 L107.06,180.078 C107.161,178.23 108.741,176.748 110.589,176.918 C112.437,177.019 113.851,178.599 113.749,180.444 L111.907,213.899 C111.81,215.686 110.331,217.066 108.564,217.066 Z" id="Shape"></path>
                <path d="M44.521,211.989 C42.797,211.989 41.332,210.667 41.184,208.917 L38.479,176.535 C38.326,174.693 39.693,173.074 41.538,172.92 C43.37,172.711 45.003,174.134 45.156,175.979 L47.861,208.361 C48.015,210.203 46.647,211.822 44.802,211.976 C44.707,211.986 44.612,211.989 44.521,211.989 Z" id="Shape"></path>
                <path d="M64.292,217.066 C62.532,217.066 61.054,215.689 60.952,213.909 L59.107,181.887 C59.002,180.039 60.412,178.456 62.26,178.351 C64.105,178.295 65.692,179.656 65.796,181.501 L67.641,213.523 C67.745,215.371 66.336,216.955 64.488,217.059 C64.423,217.063 64.357,217.066 64.292,217.066 Z" id="Shape"></path>
                <path d="M89.304,220.975 C89.242,220.975 89.183,220.975 89.121,220.969 C87.272,220.871 85.855,219.291 85.957,217.446 L87.864,182.274 C87.963,180.426 89.526,178.914 91.39,179.11 C93.236,179.208 94.652,180.788 94.554,182.633 L92.647,217.805 C92.549,219.592 91.07,220.975 89.304,220.975 Z" id="Shape"></path>
            </g>
        </g>
    </g>
</svg>