
<svg width="279px" height="218px" viewBox="0 0 279 218" version="1.1" xmlns="http://www.w3.org/2000/svg" xmlns:xlink="http://www.w3.org/1999/xlink">
    <!-- Generator: Sketch 50.2 (55047) - http://www.bohemiancoding.com/sketch -->
    <desc>Created with Sketch.</desc>
    <defs></defs>
    <g id="Page-1" stroke="none" stroke-width="1" fill="none" fill-rule="evenodd">
        <g id="Scone" transform="translate(-226.000000, -239.000000)" fill="#8a6354" fill-rule="nonzero">
            <g id="Group" transform="translate(226.000000, 239.000000)">
                <path d="M225.822,217.741 L137.734,217.741 C137.551,217.741 137.369,217.724 137.19,217.695 C113.542,213.796 95.995,195.088 91.395,168.872 C87.126,144.537 95.368,112.949 123.404,97.237 C141.828,86.91 155.032,70.743 162.126,62.055 C166.699,56.454 168.08,54.766 170.43,54.766 C170.782,54.766 171.228,54.835 171.562,54.943 C226.282,72.726 255.795,109.183 256.907,160.374 C257.33,179.909 243.757,202.766 233.982,212.753 C229.607,217.225 227.229,217.741 225.822,217.741 Z M138.013,211.042 L225.597,211.042 C230.515,209.19 250.689,182.7 250.206,160.518 C249.159,112.243 222.533,79.046 171.059,61.833 C170.123,62.854 168.653,64.656 167.313,66.295 C159.939,75.324 146.212,92.135 126.678,103.08 C101.506,117.189 94.133,145.709 97.994,167.714 C101.19,185.932 113.382,206.842 138.013,211.042 Z" id="Shape"></path>
                <path d="M167.651,217.741 C167.471,217.741 167.288,217.728 167.103,217.695 C153.361,215.428 142.943,205.464 137.769,189.632 C129.291,163.694 136.506,128.194 153.853,110.506 C173.397,90.568 171.49,69.341 170.862,62.366 C170.622,59.68 170.476,58.061 172.076,56.785 C172.959,56.078 174.24,55.856 175.309,56.202 C177.067,56.775 178.031,58.665 177.456,60.425 C177.446,60.458 177.435,60.49 177.423,60.524 C177.448,60.857 177.49,61.273 177.534,61.764 C178.229,69.504 180.346,93.05 158.635,115.196 C143.128,131.01 136.487,164.145 144.137,187.55 C147.22,196.985 153.897,208.728 168.192,211.087 C170.018,211.388 171.254,213.111 170.953,214.937 C170.683,216.577 169.263,217.741 167.651,217.741 Z" id="Shape"></path>
                <path d="M225.178,201.346 L177.662,201.346 C177.427,201.346 177.191,201.32 176.959,201.271 C166.917,199.119 159.95,190.587 156.81,176.603 C151.848,154.499 157.888,123.488 168.779,115.158 C178.297,107.869 185.395,96.839 189.21,90.911 C192.156,86.334 193.044,84.954 195.298,84.954 C195.748,84.954 196.248,85.056 196.662,85.232 C217.598,94.081 242.724,114.254 243.488,160.076 C243.753,175.781 234.211,194.201 229.234,199.262 C228.353,200.155 226.976,201.346 225.178,201.346 Z M178.035,194.646 L224.401,194.646 C227.555,191.741 237.03,174.489 236.788,160.187 C236.238,127.2 222.604,104.397 196.251,92.369 C195.817,93.023 195.315,93.802 194.844,94.535 C190.809,100.806 183.297,112.478 172.85,120.474 C164.908,126.552 158.756,154.688 163.347,175.133 C165.085,182.883 169.045,192.51 178.035,194.646 Z" id="Shape"></path>
                <path d="M216.766,183.537 L184.678,183.537 C184.443,183.537 184.205,183.511 183.975,183.462 C176.749,181.911 171.755,175.866 169.536,165.978 C166.109,150.714 170.39,129.219 178.02,123.383 C184.297,118.579 189.024,111.232 191.564,107.283 C193.62,104.084 194.472,102.762 196.587,102.762 C197.04,102.762 197.523,102.86 197.938,103.037 C212.367,109.138 229.69,123.029 230.218,154.563 C230.4,165.463 223.748,178.277 220.279,181.806 C219.859,182.235 218.577,183.537 216.766,183.537 Z M185.063,176.838 L215.765,176.838 C217.899,174.381 223.671,163.746 223.519,154.675 C223.161,133.216 214.453,118.281 197.627,110.24 C197.483,110.463 197.337,110.688 197.197,110.907 C194.436,115.199 189.297,123.186 182.091,128.7 C176.964,132.623 173.049,151.046 176.072,164.508 C177.171,169.402 179.621,175.461 185.063,176.838 Z" id="Shape"></path>
                <path d="M52.36,157.704 C48.894,157.704 46.415,157.658 45.637,157.551 C20.638,154.018 4.83,132.349 1.127,96.534 C-3.123,55.471 36.142,29.245 53.221,19.873 C64.425,13.729 70.441,2.346 70.501,2.231 C70.99,1.289 71.898,0.634 72.945,0.468 C73.988,0.295 75.058,0.638 75.817,1.377 C75.997,1.554 93.902,19.022 104.138,25.087 L106.114,26.245 C119.296,33.926 150.161,51.917 151.373,82.582 C151.447,84.43 150.007,85.987 148.159,86.06 C146.23,86.184 144.752,84.696 144.68,82.844 C143.612,55.853 114.971,39.16 102.74,32.032 L100.723,30.851 C92.347,25.889 79.877,14.469 74.166,9.071 C71.173,13.52 65.26,20.913 56.444,25.748 C40.538,34.473 3.956,58.774 7.791,95.847 C10.166,118.805 18.821,146.994 46.576,150.916 C49.106,151.23 76.742,150.736 93.562,150.353 C95.361,150.396 96.944,151.777 96.987,153.627 C97.029,155.476 95.564,157.01 93.716,157.053 C87.963,157.185 64.31,157.704 52.36,157.704 Z" id="Shape"></path>
                <path d="M121.481,105.68 C120.382,105.68 119.306,105.14 118.665,104.149 C117.87,102.919 117.983,101.362 118.838,100.266 C119.469,99.013 126.592,83.438 108.944,61.479 C89.189,36.905 70.774,5.783 70.59,5.472 C69.65,3.879 70.179,1.825 71.774,0.886 C73.364,-0.05 75.419,0.474 76.36,2.07 C76.542,2.378 94.718,33.091 114.164,57.282 C128.029,74.534 128.197,88.895 127.065,95.922 C126.642,98.542 125.31,103.841 123.295,105.143 C122.734,105.507 122.104,105.68 121.481,105.68 Z" id="Shape"></path>
                <path d="M253.327,158.166 C252.354,158.166 251.388,157.743 250.725,156.929 C249.559,155.493 249.778,153.383 251.214,152.215 C262.203,143.288 269.209,126.987 271.476,105.085 C275.313,67.999 238.729,43.707 222.823,34.986 C214.005,30.151 208.093,22.758 205.101,18.309 C199.39,23.706 186.919,35.123 178.543,40.085 L176.515,41.273 C169.029,45.64 155.09,53.766 145.322,65.784 C144.159,67.22 142.046,67.436 140.61,66.271 C139.176,65.104 138.957,62.994 140.124,61.557 C150.663,48.593 165.285,40.065 173.141,35.486 L175.128,34.321 C185.365,28.256 203.269,10.791 203.449,10.614 C204.208,9.875 205.271,9.531 206.321,9.705 C207.368,9.872 208.276,10.526 208.765,11.468 C208.826,11.582 214.841,22.967 226.045,29.11 C243.124,38.476 282.39,64.694 278.139,105.772 C275.651,129.823 268.013,147.197 255.437,157.416 C254.817,157.92 254.069,158.166 253.327,158.166 Z" id="Shape"></path>
                <path d="M174.649,63.017 C173.95,63.017 173.246,62.798 172.642,62.347 C171.162,61.238 170.862,59.138 171.973,57.659 C188.62,35.46 202.765,11.548 202.906,11.309 C203.843,9.712 205.903,9.186 207.492,10.124 C209.087,11.063 209.617,13.118 208.676,14.71 C208.533,14.952 194.199,39.189 177.331,61.675 C176.674,62.556 175.668,63.017 174.649,63.017 Z" id="Shape"></path>
            </g>
        </g>
    </g>
</svg>