
<svg width="187px" height="216px" viewBox="0 0 187 216" version="1.1" xmlns="http://www.w3.org/2000/svg" xmlns:xlink="http://www.w3.org/1999/xlink">
    <!-- Generator: Sketch 50.2 (55047) - http://www.bohemiancoding.com/sketch -->
    <desc>Created with Sketch.</desc>
    <defs></defs>
    <g id="Page-1" stroke="none" stroke-width="1" fill="none" fill-rule="evenodd">
        <g id="Scone" transform="translate(0.000000, -240.000000)" fill="#8a6354" fill-rule="nonzero">
            <g id="Group" transform="translate(0.000000, 240.000000)">
                <path d="M44.506,174.353 C44.319,174.353 44.131,174.336 43.942,174.307 C33.594,172.547 19.799,168.958 12.854,161.847 C4.283,153.071 0.178,138.935 0.979,120.97 C2.552,85.701 23.544,37.967 45.901,18.817 C73.442,-4.766 111.602,-5.56 130.971,17.047 C139.363,26.851 137.598,42.968 136.153,55.955 C149.203,56.524 165.404,57.254 173.8,67.051 C193.169,89.665 186.52,127.254 158.978,150.842 C153.781,155.295 147.574,159.276 140.526,162.671 C138.858,163.473 136.859,162.775 136.054,161.105 C135.251,159.44 135.951,157.438 137.617,156.633 C144.141,153.492 149.861,149.828 154.617,145.752 C179.354,124.567 185.676,91.216 168.711,71.409 C162.185,63.793 147.531,63.156 135.757,62.642 L128.734,62.309 L129.48,55.338 C130.785,43.617 132.408,29.031 125.882,21.405 C108.919,1.601 74.991,2.73 50.257,23.908 C29.076,42.05 9.175,87.546 7.671,121.267 C6.953,137.335 10.402,149.75 17.645,157.169 C22.017,161.644 32.01,165.484 45.062,167.699 C46.886,168.01 48.113,169.74 47.804,171.562 C47.527,173.198 46.111,174.353 44.506,174.353 Z" id="Shape"></path>
                <path d="M136.655,196.018 C133.546,196.018 130.093,194.876 126.719,193.764 C124.292,192.966 121.782,192.139 120.23,192.076 L114.56,191.837 C110.088,191.641 105.711,191.448 101.375,191.396 C99.525,191.374 98.043,189.856 98.066,188.007 C98.09,186.155 99.631,184.755 101.457,184.696 C105.863,184.749 110.311,184.945 114.853,185.144 L120.491,185.382 C122.987,185.481 125.818,186.413 128.816,187.401 C131.793,188.382 136.286,189.878 137.797,189.135 C144.25,186.007 149.911,182.376 154.621,178.339 C163.249,170.949 169.942,161.797 173.977,151.875 C176.687,145.208 183.637,109.501 177.93,92.612 C177.338,90.859 178.278,88.958 180.03,88.366 C181.792,87.767 183.684,88.713 184.276,90.466 C190.902,110.074 182.861,147.806 180.182,154.401 C175.746,165.307 168.413,175.346 158.978,183.43 C153.832,187.836 147.687,191.784 140.716,195.163 C139.465,195.772 138.098,196.018 136.655,196.018 Z" id="Shape"></path>
                <path d="M47.025,207.268 C46.598,207.268 46.16,207.239 45.71,207.176 C29.807,204.962 19.06,200.794 12.853,194.432 C5.314,186.715 0.921,146.244 1.165,131.915 C1.196,130.061 2.769,128.686 4.572,128.621 C6.422,128.653 7.895,130.178 7.864,132.026 C7.56,149.844 12.975,184.97 17.647,189.75 C22.778,195.011 32.259,198.54 46.636,200.542 C48.149,200.735 49.726,199.473 52.155,197.34 C53.85,195.855 55.768,194.17 58.083,193.07 C67.406,188.651 76.74,186.138 87.457,185.167 C89.299,184.997 90.93,186.358 91.096,188.203 C91.263,190.045 89.904,191.674 88.062,191.841 C78.155,192.737 69.542,195.053 60.954,199.122 C59.487,199.819 58.074,201.062 56.577,202.374 C53.947,204.684 51,207.268 47.025,207.268 Z" id="Shape"></path>
                <path d="M46.17,207.209 C44.399,207.209 42.918,205.818 42.828,204.029 L41.119,170.401 L41.42,169.691 C42.019,168.284 56.327,135.166 77.332,132.209 C96.874,129.448 138.486,147.633 142.551,158.287 L142.772,158.863 L142.772,191.494 C142.772,193.346 141.272,194.844 139.422,194.844 C137.572,194.844 136.072,193.346 136.072,191.494 L136.072,160.237 C132.335,154.103 96.744,136.272 78.268,138.843 C64.285,140.812 51.91,162.52 47.89,171.614 L49.519,203.689 C49.614,205.537 48.192,207.11 46.344,207.206 C46.286,207.209 46.227,207.209 46.17,207.209 Z" id="Shape"></path>
                <path d="M92.919,215.612 C89.888,215.612 87.24,214.415 85.459,212.243 C83.835,210.264 82.18,206.499 83.518,199.816 C85.09,191.955 84.413,186.213 83.675,184.074 C83.271,184.179 82.797,184.306 82.398,184.415 C80.659,184.883 78.496,185.465 76.397,185.465 C72.61,185.465 70.689,183.587 69.743,182.011 C69.364,181.379 67.506,180.169 66.276,179.367 C63.149,177.333 59.259,174.801 58.721,170.698 C58.406,168.298 59.305,165.903 61.394,163.584 C64.428,160.005 73.074,151.889 89.433,151.889 C91.016,151.889 92.652,151.968 94.298,152.118 C112.635,153.819 118.624,161.444 120.35,164.643 C121.959,167.629 122.146,170.724 120.862,173.132 C119.297,176.07 115.806,177.359 112.43,178.605 C109.504,179.684 106.187,180.908 105.503,182.792 C104.873,184.522 104.693,189.024 104.535,192.992 C104.142,202.812 103.771,212.086 98.218,214.468 C96.473,215.217 94.641,215.609 92.919,215.612 Z M84.638,177.195 L85.262,177.228 C86.204,177.332 87.57,177.787 88.726,179.371 C91.37,182.982 91.929,191.929 90.087,201.131 C89.454,204.294 89.657,206.797 90.642,207.997 C91.541,209.093 93.532,209.185 95.578,208.311 C97.269,206.989 97.656,197.355 97.84,192.723 C98.045,187.62 98.221,183.214 99.206,180.502 C100.953,175.699 106.03,173.825 110.111,172.317 C111.77,171.705 114.545,170.681 114.951,169.977 C115.019,169.846 115.14,169.097 114.452,167.819 C112.504,164.204 106.024,159.931 93.68,158.79 C77.347,157.279 69.17,164.773 66.581,167.822 C65.575,168.954 65.33,169.569 65.364,169.824 C65.501,170.868 68.274,172.674 69.93,173.753 C72.185,175.219 74.315,176.606 75.488,178.562 C75.594,178.739 76.103,178.765 76.397,178.765 C77.607,178.765 79.227,178.329 80.654,177.944 C82.145,177.542 83.434,177.195 84.638,177.195 Z" id="Shape"></path>
            </g>
        </g>
    </g>
</svg>