
<svg width="193px" height="178px" viewBox="0 0 193 178" version="1.1" xmlns="http://www.w3.org/2000/svg" xmlns:xlink="http://www.w3.org/1999/xlink">
    <!-- Generator: Sketch 50.2 (55047) - http://www.bohemiancoding.com/sketch -->
    <desc>Created with Sketch.</desc>
    <defs></defs>
    <g id="Page-1" stroke="none" stroke-width="1" fill="none" fill-rule="evenodd">
        <g id="Scone" transform="translate(-647.000000, -533.000000)" fill="#8a6354" fill-rule="nonzero">
            <g id="Group" transform="translate(647.000000, 533.000000)">
                <path d="M96.878,113.211 C43.894,113.211 0.789,87.94 0.789,56.881 C0.789,25.82 43.893,0.55 96.878,0.55 C149.865,0.55 192.971,25.821 192.971,56.881 C192.971,87.94 149.865,113.211 96.878,113.211 Z M96.878,7.249 C47.587,7.249 7.488,29.514 7.488,56.881 C7.488,84.248 47.587,106.512 96.878,106.512 C146.169,106.512 186.272,84.248 186.272,56.881 C186.272,29.514 146.169,7.249 96.878,7.249 Z" id="Shape"></path>
                <path d="M96.878,132.361 C43.894,132.361 0.789,107.09 0.789,76.03 L0.789,56.881 C0.789,55.029 2.287,53.53 4.139,53.53 C5.987,53.53 7.489,55.029 7.489,56.881 L7.489,76.03 C7.489,103.397 47.588,125.661 96.879,125.661 C146.17,125.661 186.273,103.397 186.273,76.03 L186.273,56.881 C186.273,55.029 187.774,53.53 189.623,53.53 C191.475,53.53 192.973,55.029 192.973,56.881 L192.973,76.03 C192.971,107.091 149.865,132.361 96.878,132.361 Z" id="Shape"></path>
                <path d="M96.878,158.854 C43.894,158.854 0.789,133.583 0.789,102.524 C0.789,97.561 1.871,92.641 4.008,87.898 C4.767,86.21 6.749,85.467 8.437,86.219 C10.125,86.982 10.877,88.964 10.116,90.652 C8.372,94.522 7.489,98.516 7.489,102.524 C7.489,129.89 47.588,152.155 96.879,152.155 C146.17,152.155 186.273,129.89 186.273,102.524 C186.273,98.516 185.389,94.525 183.649,90.656 C182.89,88.971 183.642,86.985 185.327,86.226 C187.018,85.474 188.998,86.216 189.76,87.908 C191.893,92.644 192.973,97.564 192.973,102.524 C192.971,133.584 149.865,158.854 96.878,158.854 Z" id="Shape"></path>
                <path d="M96.878,149.276 C46.566,149.276 5.634,124.005 5.634,92.945 C5.634,91.094 7.135,89.595 8.984,89.595 C10.836,89.595 12.334,91.094 12.334,92.945 C12.334,120.312 50.261,142.577 96.879,142.577 C143.501,142.577 181.428,120.312 181.428,92.945 C181.428,91.094 182.926,89.595 184.778,89.595 C186.626,89.595 188.128,91.094 188.128,92.945 C188.126,124.006 147.193,149.276 96.878,149.276 Z" id="Shape"></path>
                <path d="M96.878,178.004 C43.894,178.004 0.789,152.734 0.789,121.674 L0.789,102.525 C0.789,100.673 2.287,99.174 4.139,99.174 C5.987,99.174 7.489,100.673 7.489,102.525 L7.489,121.674 C7.489,149.041 47.588,171.305 96.879,171.305 C146.17,171.305 186.273,149.041 186.273,121.674 L186.273,102.525 C186.273,100.673 187.774,99.174 189.623,99.174 C191.475,99.174 192.973,100.673 192.973,102.525 L192.973,121.674 C192.971,152.734 149.865,178.004 96.878,178.004 Z" id="Shape"></path>
                <g transform="translate(18.000000, 10.000000)" id="Shape">
                    <path d="M78.878,38.843 C71.397,38.843 65.535,30.476 65.535,19.795 C65.535,9.114 71.396,0.746 78.878,0.746 C86.36,0.746 92.218,9.114 92.218,19.795 C92.218,30.476 86.359,38.843 78.878,38.843 Z M78.878,7.445 C75.737,7.445 72.234,12.515 72.234,19.795 C72.234,27.073 75.737,32.144 78.878,32.144 C82.019,32.144 85.519,27.074 85.519,19.795 C85.519,12.516 82.019,7.445 78.878,7.445 Z"></path>
                    <path d="M78.878,93.012 C71.397,93.012 65.535,84.644 65.535,73.963 C65.535,63.282 71.396,54.915 78.878,54.915 C86.36,54.915 92.218,63.282 92.218,73.963 C92.218,84.644 86.359,93.012 78.878,93.012 Z M78.878,61.614 C75.737,61.614 72.234,66.684 72.234,73.963 C72.234,81.242 75.737,86.312 78.878,86.312 C82.019,86.312 85.519,81.242 85.519,73.963 C85.519,66.684 82.019,61.614 78.878,61.614 Z"></path>
                    <path d="M126.291,55.938 C117.02,55.938 95.46,55.055 95.46,46.88 C95.46,38.705 117.021,37.821 126.291,37.821 C135.559,37.821 157.116,38.705 157.116,46.88 C157.116,55.055 135.559,55.938 126.291,55.938 Z M104.459,46.881 C108.234,48.023 115.647,49.239 126.291,49.239 C136.933,49.239 144.342,48.022 148.117,46.881 C144.342,45.738 136.932,44.522 126.291,44.522 C115.646,44.521 108.234,45.738 104.459,46.881 Z"></path>
                    <path d="M31.468,55.938 C22.197,55.938 0.637,55.055 0.637,46.88 C0.637,38.705 22.198,37.821 31.468,37.821 C40.738,37.821 62.296,38.705 62.296,46.88 C62.296,55.055 40.738,55.938 31.468,55.938 Z M9.639,46.881 C13.414,48.023 20.827,49.239 31.468,49.239 C42.11,49.239 49.522,48.022 53.297,46.881 C49.522,45.738 42.109,44.522 31.468,44.522 C20.827,44.521 13.414,45.738 9.639,46.881 Z"></path>
                    <path d="M96.553,42.893 C94.384,42.893 92.67,42.514 91.309,41.735 C89.445,40.669 88.371,38.867 88.371,36.783 C88.368,30.234 99.071,23.41 103.674,20.783 C112.418,15.792 122.065,12.562 128.251,12.562 C130.42,12.562 132.134,12.942 133.494,13.72 C135.362,14.79 136.435,16.596 136.432,18.676 C136.432,25.225 125.732,32.045 121.129,34.672 C112.389,39.664 102.742,42.893 96.553,42.893 Z M95.346,36.111 C95.637,36.157 96.033,36.193 96.553,36.193 C101.502,36.193 110.242,33.173 117.806,28.855 C125.104,24.688 128.516,21.043 129.458,19.342 C129.167,19.297 128.774,19.261 128.251,19.261 C123.302,19.261 114.561,22.281 106.998,26.598 C99.699,30.767 96.291,34.407 95.346,36.111 Z"></path>
                    <path d="M29.499,81.195 C27.333,81.195 25.622,80.819 24.262,80.041 C22.391,78.975 21.321,77.169 21.321,75.085 C21.325,68.533 32.028,61.712 36.628,59.085 C45.368,54.094 55.016,50.865 61.204,50.865 C63.37,50.865 65.084,51.244 66.448,52.022 C68.312,53.085 69.386,54.891 69.386,56.975 C69.386,63.524 58.686,70.344 54.086,72.974 C45.342,77.971 35.691,81.195 29.499,81.195 Z M28.298,74.418 C28.586,74.46 28.979,74.496 29.499,74.496 C34.455,74.496 43.195,71.48 50.762,67.159 C58.057,62.991 61.465,59.35 62.408,57.646 C62.117,57.6 61.724,57.564 61.204,57.564 C56.252,57.564 47.511,60.584 39.951,64.901 C32.652,69.069 29.243,72.713 28.298,74.418 Z"></path>
                    <path d="M128.257,81.195 C122.065,81.195 112.418,77.97 103.678,72.974 C99.074,70.344 88.368,63.524 88.371,56.972 C88.371,54.891 89.444,53.085 91.312,52.022 C92.672,51.244 94.386,50.865 96.552,50.865 C102.741,50.865 112.388,54.094 121.128,59.085 C125.731,61.716 136.435,68.539 136.435,75.088 C136.435,77.169 135.362,78.975 133.494,80.041 C132.134,80.819 130.42,81.195 128.257,81.195 Z M95.346,57.646 C96.294,59.35 99.706,62.991 107.001,67.159 C114.564,71.48 123.305,74.496 128.257,74.496 C128.775,74.496 129.17,74.46 129.458,74.418 C128.513,72.713 125.104,69.072 117.806,64.901 C110.243,60.584 101.505,57.564 96.553,57.564 C96.032,57.564 95.637,57.601 95.346,57.646 Z"></path>
                    <path d="M61.207,42.893 C55.018,42.893 45.367,39.667 36.627,34.672 C32.027,32.045 21.324,25.225 21.32,18.676 C21.32,16.592 22.39,14.786 24.258,13.72 C25.622,12.942 27.337,12.562 29.502,12.562 C35.694,12.562 45.345,15.791 54.085,20.787 C58.685,23.413 69.385,30.23 69.385,36.783 C69.385,38.867 68.312,40.673 66.445,41.739 C65.083,42.517 63.372,42.893 61.207,42.893 Z M28.298,19.343 C29.243,21.044 32.652,24.689 39.95,28.856 C47.513,33.178 56.254,36.194 61.207,36.194 C61.727,36.194 62.119,36.158 62.41,36.116 C61.465,34.411 58.056,30.77 50.762,26.602 C43.199,22.282 34.458,19.262 29.502,19.262 C28.982,19.262 28.59,19.298 28.298,19.343 Z"></path>
                </g>
            </g>
        </g>
    </g>
</svg>