

<svg width="147px" height="157px" viewBox="0 0 147 157" version="1.1" xmlns="http://www.w3.org/2000/svg" xmlns:xlink="http://www.w3.org/1999/xlink">
    <!-- Generator: Sketch 50.2 (55047) - http://www.bohemiancoding.com/sketch -->
    <desc>Created with Sketch.</desc>
    <defs></defs>
    <g id="Page-1" stroke="none" stroke-width="1" fill="none" fill-rule="evenodd">
        <g id="Chocolate_01" transform="translate(-593.000000, -356.000000)" fill="#8a6354" fill-rule="nonzero">
            <g id="Layer_2" transform="translate(167.000000, 145.000000)">
                <g id="Group">
                    <path d="M572.3,324.5 L556.9,298 C556.9,298 556.9,298 556.9,298 C556.9,298 556.9,298 556.9,298 L542.5,273.2 C542.5,273.2 542.5,273.2 542.5,273.2 C542.5,273.2 542.5,273.2 542.5,273.2 L528.1,248.4 C528.1,248.4 528.1,248.4 528.1,248.4 C528.1,248.4 528.1,248.4 528.1,248.4 L513.7,223.6 C513.7,223.6 513.7,223.6 513.7,223.6 C513.7,223.6 513.7,223.6 513.7,223.6 C512.8,222 510.7,221.4 509.1,222.2 C503.4,225.1 496.5,223.1 493.2,217.6 C493.2,217.6 493.2,217.6 493.2,217.6 C493,217.3 492.8,216.9 492.7,216.6 C492.3,215.7 491.5,215 490.6,214.7 C489.7,214.4 488.6,214.5 487.8,215 C487.8,215 487.7,215 487.7,215.1 C482.8,217.9 476.6,216.9 472.8,212.7 C471.7,211.5 469.9,211.2 468.4,212 L461.4,216.1 C461.4,216.1 461.4,216.1 461.4,216.1 C461.4,216.1 461.4,216.1 461.4,216.1 L428.5,235.2 C427.7,235.7 427.1,236.4 426.9,237.3 C426.7,238.2 426.8,239.2 427.3,240 L442,265.4 C442,265.4 442,265.4 442,265.4 C442,265.4 442,265.4 442,265.4 L500.5,366.3 C501.1,367.4 502.3,368 503.5,368 C504.1,368 504.7,367.8 505.3,367.5 L571,329.4 C571.8,328.9 572.4,328.2 572.6,327.3 C572.8,326.4 572.8,325.4 572.3,324.5 Z M478.6,314.4 L505.4,298.8 L516.3,317.5 L489.5,333.1 L478.6,314.4 Z M464.2,289.6 L491,274 L501.9,292.7 L475.1,308.3 L464.2,289.6 Z M449.8,264.8 L476.6,249.2 L487.5,267.9 L460.7,283.5 L449.8,264.8 Z M509.5,230.2 L520.4,248.9 L493.6,264.5 L482.7,245.8 L509.5,230.2 Z M534.8,273.7 L508,289.3 L497.1,270.6 L523.9,255 L534.8,273.7 Z M511.5,295.3 L538.3,279.7 L549.2,298.4 L522.4,314 L511.5,295.3 Z M469.7,219.4 C474.8,223.6 481.9,224.8 488.2,222.6 C490.4,225.8 493.6,228.1 497,229.4 L479.2,239.7 L468,220.4 L469.7,219.4 Z M461.9,223.9 L473.1,243.2 L446.3,258.8 L435.1,239.5 L461.9,223.9 Z M504.8,359.7 L493,339.2 L519.8,323.6 L531.7,344.1 L504.8,359.7 Z M537.7,340.6 L525.8,320.1 L552.6,304.5 L564.5,325 L537.7,340.6 Z" id="Shape"></path>
                </g>
            </g>
        </g>
    </g>
</svg>