
<svg width="193px" height="252px" viewBox="0 0 193 252" version="1.1" xmlns="http://www.w3.org/2000/svg" xmlns:xlink="http://www.w3.org/1999/xlink">
    <!-- Generator: Sketch 50.2 (55047) - http://www.bohemiancoding.com/sketch -->
    <desc>Created with Sketch.</desc>
    <defs></defs>
    <g id="Page-1" stroke="none" stroke-width="1" fill="none" fill-rule="evenodd">
        <g id="FREE-CHOCOLATE-ICONS-01" transform="translate(-19.000000, -15.000000)" fill="#8a6354" fill-rule="nonzero">
            <g id="XMLID_15_" transform="translate(19.000000, 15.000000)">
                <g id="XMLID_550_">
                    <g id="XMLID_581_" transform="translate(13.000000, 0.000000)">
                        <path d="M13.7,133.4 L0.2,133.4 L0.2,7 C0.2,3.3 3.2,0.2 7,0.2 L162.6,0.2 C166.3,0.2 169.4,3.2 169.4,7 L169.4,105.4 L155.9,105.4 L155.9,13.8 L13.7,13.8 L13.7,133.4 Z" id="XMLID_582_"></path>
                    </g>
                    <g id="XMLID_578_" transform="translate(13.000000, 163.000000)">
                        <path d="M162.5,88.2 L6.9,88.2 C3.2,88.2 0.1,85.2 0.1,81.4 L0.1,22.9 L13.6,22.9 L13.6,74.6 L155.7,74.6 L155.7,0.5 L169.2,0.5 L169.2,81.3 C169.3,85.1 166.3,88.2 162.5,88.2 Z" id="XMLID_579_"></path>
                    </g>
                    <g id="XMLID_573_" transform="translate(0.000000, 98.000000)">
                        <path d="M7.6,99.6 C6.1,99.6 4.6,99.1 3.4,98.1 C1.4,96.5 0.5,94 1,91.5 L13.3,29.7 C13.9,26.9 16.1,24.8 18.9,24.3 L174.5,0.6 C178.1,4.4408921e-16 181.5,2.5 182.2,6.1 L192.9,64.5 C193.4,67 192.4,69.5 190.4,71 C188.4,72.5 185.7,72.9 183.5,71.8 C183.2,71.7 151.4,58.2 95.2,72.2 C37.2,86.7 10.7,98.7 10.5,98.8 C9.6,99.4 8.6,99.6 7.6,99.6 Z M25.6,37 L16.7,81.8 C29.9,76.8 54.3,68.5 91.9,59.1 C133.4,48.7 162.6,52.3 177.5,55.9 L170,14.9 L25.6,37 Z" id="XMLID_574_"></path>
                    </g>
                    <g id="XMLID_560_" transform="translate(34.000000, 24.000000)">
                        <g id="XMLID_569_">
                            <path d="M32.9,46.4 L5.2,46.4 C2.6,46.4 0.5,44.3 0.5,41.7 L0.5,5.6 C0.5,3 2.6,0.9 5.2,0.9 L32.9,0.9 C35.5,0.9 37.6,3 37.6,5.6 L37.6,41.7 C37.7,44.2 35.6,46.4 32.9,46.4 Z M9.9,36.9 L28.2,36.9 L28.2,10.3 L9.9,10.3 L9.9,36.9 Z" id="XMLID_570_"></path>
                        </g>
                        <g id="XMLID_565_" transform="translate(45.000000, 0.000000)">
                            <path d="M32.6,46.4 L4.9,46.4 C2.3,46.4 0.2,44.3 0.2,41.7 L0.2,5.6 C0.2,3 2.3,0.9 4.9,0.9 L32.6,0.9 C35.2,0.9 37.3,3 37.3,5.6 L37.3,41.7 C37.3,44.2 35.2,46.4 32.6,46.4 Z M9.6,36.9 L27.9,36.9 L27.9,10.3 L9.6,10.3 L9.6,36.9 Z" id="XMLID_566_"></path>
                        </g>
                        <g id="XMLID_561_" transform="translate(89.000000, 0.000000)">
                            <path d="M33.2,46.4 L5.5,46.4 C2.9,46.4 0.8,44.3 0.8,41.7 L0.8,5.6 C0.8,3 2.9,0.9 5.5,0.9 L33.2,0.9 C35.8,0.9 37.9,3 37.9,5.6 L37.9,41.7 C38,44.2 35.8,46.4 33.2,46.4 Z M10.2,36.9 L28.5,36.9 L28.5,10.3 L10.2,10.3 L10.2,36.9 Z" id="XMLID_562_"></path>
                        </g>
                    </g>
                    <g id="XMLID_551_" transform="translate(34.000000, 82.000000)">
                        <g id="XMLID_556_">
                            <path d="M32.9,46.2 L5.2,46.2 C2.6,46.2 0.5,44.1 0.5,41.5 L0.5,5.4 C0.5,2.8 2.6,0.7 5.2,0.7 L32.9,0.7 C35.5,0.7 37.6,2.8 37.6,5.4 L37.6,41.5 C37.7,44.1 35.6,46.2 32.9,46.2 Z M9.9,36.7 L28.2,36.7 L28.2,10.1 L9.9,10.1 L9.9,36.7 Z" id="XMLID_557_"></path>
                        </g>
                        <g id="XMLID_554_" transform="translate(45.000000, 0.000000)">
                            <path d="M4.8,42.1 C2.2,42.1 0.1,40 0.1,37.4 L0.1,5.4 C0.1,2.8 2.2,0.7 4.8,0.7 L32.5,0.7 C35.1,0.7 37.2,2.8 37.2,5.4 L37.2,33.2 C37.2,35.8 35.1,37.9 32.5,37.9 C29.9,37.9 27.8,35.8 27.8,33.2 L27.8,10.2 L9.5,10.2 L9.5,37.5 C9.6,40 7.5,42.1 4.8,42.1 Z" id="XMLID_555_"></path>
                        </g>
                        <g id="XMLID_552_" transform="translate(89.000000, 0.000000)">
                            <path d="M5.5,36.6 C2.9,36.6 0.8,34.5 0.8,31.9 L0.8,5.4 C0.8,2.8 2.9,0.7 5.5,0.7 L33.2,0.7 C35.8,0.7 37.9,2.8 37.9,5.4 L37.9,23.4 C37.9,26 35.8,28.1 33.2,28.1 C30.6,28.1 28.5,26 28.5,23.4 L28.5,10.1 L10.2,10.1 L10.2,31.9 C10.2,34.5 8.1,36.6 5.5,36.6 Z" id="XMLID_553_"></path>
                        </g>
                    </g>
                </g>
            </g>
        </g>
    </g>
</svg>