
<svg width="274px" height="222px" viewBox="0 0 274 222" version="1.1" xmlns="http://www.w3.org/2000/svg" xmlns:xlink="http://www.w3.org/1999/xlink">
    <!-- Generator: Sketch 50.2 (55047) - http://www.bohemiancoding.com/sketch -->
    <desc>Created with Sketch.</desc>
    <defs></defs>
    <g id="Page-1" stroke="none" stroke-width="1" fill="none" fill-rule="evenodd">
        <g id="FREE-CHOCOLATE-ICONS-01" transform="translate(-566.000000, -50.000000)" fill="#8a6354" fill-rule="nonzero">
            <g id="XMLID_29_" transform="translate(566.000000, 50.000000)">
                <g id="XMLID_629_">
                    <g id="XMLID_654_" transform="translate(0.000000, 55.000000)">
                        <g id="XMLID_670_">
                            <path d="M111.8,86.6 L7.1,86.6 C3.4,86.6 0.3,83.6 0.3,79.8 L0.3,7.7 C0.3,4 3.3,0.9 7.1,0.9 L34.2,0.9 L34.2,14.4 L13.9,14.4 L13.9,73 L111.7,73 L111.7,86.6 L111.8,86.6 Z" id="XMLID_671_"></path>
                        </g>
                        <g id="XMLID_668_" transform="translate(142.000000, 1.000000)">
                            <path d="M124.9,85.6 L74.5,85.6 L74.5,72.1 L118.1,72.1 L118.1,13.5 L0.9,13.5 L0.9,0 L124.9,0 C128.6,0 131.7,3 131.7,6.8 L131.7,78.9 C131.6,82.6 128.6,85.6 124.9,85.6 Z" id="XMLID_669_"></path>
                        </g>
                        <g id="XMLID_655_" transform="translate(24.000000, 20.000000)">
                            <g id="XMLID_664_">
                                <path d="M31.8,47 L4.7,47 C2.1,47 -1.13686838e-13,44.9 -1.13686838e-13,42.3 L-1.13686838e-13,5.4 C-1.13686838e-13,2.8 2.1,0.7 4.7,0.7 L31.8,0.7 C34.4,0.7 36.5,2.8 36.5,5.4 L36.5,42.3 C36.6,44.9 34.5,47 31.8,47 Z M9.5,37.5 L27.1,37.5 L27.1,10.1 L9.5,10.1 L9.5,37.5 Z" id="XMLID_665_"></path>
                            </g>
                            <g id="XMLID_662_" transform="translate(47.000000, 22.000000)">
                                <path d="M18.7,25 L5.2,25 C2.6,25 0.5,22.9 0.5,20.3 L0.5,5.5 C0.5,2.9 2.6,0.8 5.2,0.8 C7.8,0.8 9.9,2.9 9.9,5.5 L9.9,15.5 L18.7,15.5 C21.3,15.5 23.4,17.6 23.4,20.2 C23.4,22.8 21.3,25 18.7,25 Z" id="XMLID_663_"></path>
                            </g>
                            <g id="XMLID_660_" transform="translate(142.000000, 0.000000)">
                                <path d="M31.9,47 C29.3,47 27.2,44.9 27.2,42.3 L27.2,10.2 L9.6,10.2 L9.6,15.9 C9.6,18.5 7.5,20.6 4.9,20.6 C2.3,20.6 0.2,18.5 0.2,15.9 L0.2,5.4 C0.2,2.8 2.3,0.7 4.9,0.7 L32,0.7 C34.6,0.7 36.7,2.8 36.7,5.4 L36.7,42.3 C36.6,44.9 34.5,47 31.9,47 Z" id="XMLID_661_"></path>
                            </g>
                            <g id="XMLID_656_" transform="translate(189.000000, 0.000000)">
                                <path d="M32.2,47 L5.1,47 C2.5,47 0.4,44.9 0.4,42.3 L0.4,5.4 C0.4,2.8 2.5,0.7 5.1,0.7 L32.2,0.7 C34.8,0.7 36.9,2.8 36.9,5.4 L36.9,42.3 C37,44.9 34.8,47 32.2,47 Z M9.9,37.5 L27.5,37.5 L27.5,10.1 L9.9,10.1 L9.9,37.5 Z" id="XMLID_657_"></path>
                            </g>
                        </g>
                    </g>
                    <g id="XMLID_630_">
                        <g id="XMLID_650_">
                            <path d="M195.5,221.2 C193.8,221.2 192.2,220.6 190.8,219.3 L2.5,40.4 C1.2,39.2 0.4,37.5 0.4,35.7 C0.4,33.9 1,32.2 2.3,30.9 L29.1,2.7 C31,0.7 33.9,0.1 36.5,1.1 C36.8,1.2 66.1,12.5 91.3,9.9 C93.3,9.7 95.2,10.4 96.7,11.7 L250,157.3 C251.3,158.5 252.1,160.2 252.1,162 C252.1,163.8 251.5,165.5 250.2,166.8 L200.5,219.1 C199.1,220.5 197.3,221.2 195.5,221.2 Z M16.7,35.3 L195.2,204.8 L235.6,162.3 L89.4,23.5 C67.7,24.9 45.1,18.3 35.8,15.2 L16.7,35.3 Z" id="XMLID_651_"></path>
                        </g>
                        <g id="XMLID_631_" transform="translate(30.000000, 9.000000)">
                            <g id="XMLID_648_">
                                <path d="M25.1,51.4 C23.9,51.4 22.8,51 21.8,50.1 L2.2,31.5 C0.3,29.7 0.2,26.7 2,24.8 L23.5,2.2 C25.3,0.3 28.3,0.2 30.2,2 C32.1,3.8 32.2,6.8 30.4,8.7 L12.2,27.9 L25,40 L43.9,20.1 L35.5,12.1 C33.6,10.3 33.5,7.3 35.3,5.4 C37.1,3.5 40.1,3.4 42,5.2 L53.8,16.4 C55.7,18.2 55.8,21.2 54,23.1 L28.6,49.8 C27.6,50.9 26.4,51.4 25.1,51.4 Z" id="XMLID_649_"></path>
                            </g>
                            <g id="XMLID_644_" transform="translate(35.000000, 29.000000)">
                                <path d="M24.4,55 C23.2,55 22.1,54.6 21.1,53.7 L1.6,35 C0.7,34.1 0.2,32.9 0.1,31.7 C0.1,30.4 0.5,29.2 1.4,28.3 L26.8,1.6 C28.6,-0.3 31.6,-0.4 33.5,1.4 L53.1,20 C54,20.9 54.5,22.1 54.6,23.3 C54.6,24.6 54.2,25.8 53.3,26.7 L27.9,53.4 C27,54.5 25.7,55 24.4,55 Z M11.5,31.4 L24.3,43.5 L43.2,23.6 L30.4,11.5 L11.5,31.4 Z" id="XMLID_645_"></path>
                            </g>
                            <g id="XMLID_640_" transform="translate(69.000000, 61.000000)">
                                <path d="M24.8,55.6 C23.6,55.6 22.5,55.2 21.5,54.3 L1.9,35.7 C1,34.8 0.5,33.6 0.4,32.4 C0.4,31.1 0.8,29.9 1.7,29 L27.1,2.3 C28.9,0.4 31.9,0.3 33.8,2.1 L53.4,20.7 C54.3,21.6 54.8,22.8 54.9,24 C54.9,25.3 54.5,26.5 53.6,27.4 L28.2,54.1 C27.3,55.1 26,55.6 24.8,55.6 Z M11.9,32 L24.7,44.1 L43.6,24.2 L30.8,12.1 L11.9,32 Z" id="XMLID_641_"></path>
                            </g>
                            <g id="XMLID_636_" transform="translate(103.000000, 94.000000)">
                                <path d="M25.1,55.2 C23.9,55.2 22.7,54.7 21.8,53.9 L2.2,35.3 C0.3,33.5 0.2,30.5 2,28.6 L27.4,1.9 C28.3,1 29.5,0.5 30.7,0.4 C32,0.4 33.2,0.8 34.1,1.7 L53.7,20.3 C55.6,22.1 55.7,25.1 53.9,27 L28.5,53.7 C27.6,54.6 26.4,55.1 25.2,55.2 C25.2,55.2 25.2,55.2 25.1,55.2 Z M12.2,31.6 L25,43.7 L43.9,23.8 L31.1,11.7 L12.2,31.6 Z" id="XMLID_637_"></path>
                            </g>
                            <g id="XMLID_632_" transform="translate(138.000000, 127.000000)">
                                <path d="M24.4,54.8 C23.2,54.8 22.1,54.4 21.1,53.5 L1.5,34.9 C0.6,34 0.1,32.8 0,31.6 C0,30.3 0.4,29.1 1.3,28.2 L26.7,1.5 C28.5,-0.4 31.5,-0.5 33.4,1.3 L53,19.9 C53.9,20.8 54.4,22 54.5,23.2 C54.5,24.5 54.1,25.7 53.2,26.6 L27.8,53.3 C26.9,54.3 25.7,54.8 24.4,54.8 Z M11.5,31.2 L24.3,43.3 L43.2,23.4 L30.4,11.3 L11.5,31.2 Z" id="XMLID_633_"></path>
                            </g>
                        </g>
                    </g>
                </g>
            </g>
        </g>
    </g>
</svg>