
<svg width="116px" height="97px" viewBox="0 0 116 97" version="1.1" xmlns="http://www.w3.org/2000/svg" xmlns:xlink="http://www.w3.org/1999/xlink">
    <!-- Generator: Sketch 50.2 (55047) - http://www.bohemiancoding.com/sketch -->
    <desc>Created with Sketch.</desc>
    <defs></defs>
    <g id="Board" stroke="none" stroke-width="1" fill="none" fill-rule="evenodd" stroke-linecap="round" stroke-linejoin="round">
        <g id="Social-Line-Icons" transform="translate(-339.000000, -158.000000)" stroke="#78B5CC" stroke-width="4">
            <g id="Icons" transform="translate(126.000000, 160.000000)">
                <path d="M241.001953,80.3574219 C227.539848,86.1074219 216.79194,82.6547902 215,82.4219276 C225.154328,89.1024136 237.249925,93 250.200427,93 C292.501417,93 315.613713,57.2307692 315.613713,26.19514 C315.613713,25.206428 315.568914,24.1719071 315.531582,23.1793777 C320.018899,19.850587 323.901437,15.7277728 327,11.0361629 C322.889737,12.9028815 318.450952,14.1626303 313.821773,14.7008866 C318.566681,11.7958296 322.184161,7.2187423 323.901437,1.71783926 C319.458918,4.42820786 314.531082,6.37509236 309.30459,7.44397012 C305.123396,2.86306543 299.150262,0 292.538749,0 C279.853305,0 269.58698,10.5398982 269.58698,23.4771365 C269.58698,25.3094984 269.773641,27.1075035 270.139495,28.8215253 C251.070264,27.8671702 234.121496,18.5183072 222.80614,4.31368525 C220.827539,7.78753797 219.707576,11.7958296 219.707576,16.1133322 C219.707576,24.2444381 223.739442,31.4211887 229.895503,35.6547082 C226.124963,35.5020113 222.619479,34.4713078 219.520916,32.7152943 L219.483584,33.020688 C219.483584,44.3622445 227.435319,53.8638043 237.921903,56.0015598 C236.017966,56.5436335 233.964701,56.8490272 231.870371,56.8490272 C230.384554,56.8490272 228.962201,56.6963304 227.539849,56.4291109 C229.239761,61.7911205 232.928034,66.3827179 237.575803,69.3139975 C241.001812,71.4747307 244.949173,72.7333134 249.0058,72.7333142" id="Twitter"></path>
            </g>
        </g>
    </g>
</svg>