
<svg width="108px" height="97px" viewBox="0 0 108 97" version="1.1" xmlns="http://www.w3.org/2000/svg" xmlns:xlink="http://www.w3.org/1999/xlink">
    <!-- Generator: Sketch 50.2 (55047) - http://www.bohemiancoding.com/sketch -->
    <desc>Created with Sketch.</desc>
    <defs></defs>
    <g id="Board" stroke="none" stroke-width="1" fill="none" fill-rule="evenodd" stroke-linecap="round" stroke-linejoin="round">
        <g id="Social-Line-Icons" transform="translate(-124.000000, -358.000000)" stroke="#78B5CC" stroke-width="4">
            <g id="Icons" transform="translate(126.000000, 160.000000)">
                <path d="M92.3433172,204.642633 C88.0490506,201.713404 82.8539105,200 77.2571429,200 C65.5754667,200 55.6429714,207.465943 52,217.871668 C48.358019,207.465943 38.4255238,200 26.7428571,200 C11.9738667,200 0,211.932873 0,226.653504 C0,233.384008 2.50392381,239.532083 6.63321905,244.2231 L50.0873905,293 L95.576,246.072063 C100.762133,241.210267 104,234.308983 104,226.653504 M17.334961,215.244141 C13.9267578,217.401367 6.6276065,228.299547 18.3885431,240.310677 C19.8794988,241.83335 21.6348286,243.57473 23.7705371,245.269055" id="Love"></path>
            </g>
        </g>
    </g>
</svg>