<svg id="Laag_1" data-name="Laag 1" xmlns="http://www.w3.org/2000/svg" viewBox="0 0 40 40"><defs><style>.cls-1{fill:#fbb2ff;}</style></defs><title>wiggle kopie</title><path class="cls-1" d="M20.67,18.2a1.42,1.42,0,0,1-.43-1l0-1.47a3.88,3.88,0,0,0-1.13-2.83,4,4,0,0,0-2.81-1.18H14.68a1.53,1.53,0,0,1-1-.44,1.42,1.42,0,0,1-.41-1l0-1.47a3.93,3.93,0,0,0-4-4H8.54a1.25,1.25,0,1,0,.05,2.5h.7a1.47,1.47,0,0,1,1.47,1.47l0,1.46A3.91,3.91,0,0,0,11.87,13a4,4,0,0,0,2.81,1.18h1.64a1.49,1.49,0,0,1,1,.43,1.44,1.44,0,0,1,.41,1l0,1.46A3.92,3.92,0,0,0,18.89,20Z"/><path class="cls-1" d="M20.68,18.22a1.49,1.49,0,0,0,.44-1l0-1.47a3.9,3.9,0,0,1,1.13-2.83A4.05,4.05,0,0,1,25,11.7h1.63a1.55,1.55,0,0,0,1-.43,1.45,1.45,0,0,0,.42-1l0-1.47a3.95,3.95,0,0,1,4-4h.7a1.25,1.25,0,0,1,0,2.5h-.71a1.48,1.48,0,0,0-1.47,1.47l0,1.46A4,4,0,0,1,29.49,13a4,4,0,0,1-2.82,1.18H25a1.47,1.47,0,0,0-1,.43,1.41,1.41,0,0,0-.42,1l0,1.47A3.86,3.86,0,0,1,22.46,20Z"/><rect class="cls-1" x="19.4" y="18.72" width="2.57" height="2.57" transform="translate(-8.09 20.49) rotate(-45)"/><path class="cls-1" d="M20.68,21.8a1.42,1.42,0,0,1,.43,1l0,1.47a3.88,3.88,0,0,0,1.13,2.83A4,4,0,0,0,25,28.31h1.64a1.53,1.53,0,0,1,1,.44,1.42,1.42,0,0,1,.41,1l0,1.47a3.93,3.93,0,0,0,4,4h.71A1.25,1.25,0,0,0,34,34a1.27,1.27,0,0,0-1.28-1.23h-.7a1.47,1.47,0,0,1-1.47-1.47l0-1.46A3.91,3.91,0,0,0,29.48,27a4,4,0,0,0-2.81-1.18H25a1.49,1.49,0,0,1-1-.43,1.44,1.44,0,0,1-.41-1l0-1.46A3.92,3.92,0,0,0,22.46,20Z"/><path class="cls-1" d="M20.67,21.78a1.49,1.49,0,0,0-.44,1l0,1.47a3.9,3.9,0,0,1-1.13,2.83,4.05,4.05,0,0,1-2.82,1.18H14.68a1.55,1.55,0,0,0-1,.43,1.45,1.45,0,0,0-.42,1l0,1.47a3.95,3.95,0,0,1-4,4h-.7a1.25,1.25,0,1,1,0-2.5h.71a1.48,1.48,0,0,0,1.47-1.47l0-1.46A4,4,0,0,1,11.86,27a4,4,0,0,1,2.82-1.18h1.63a1.49,1.49,0,0,0,1-.43,1.41,1.41,0,0,0,.42-1l0-1.47A3.86,3.86,0,0,1,18.89,20Z"/></svg>