<svg id="Laag_1" data-name="Laag 1" xmlns="http://www.w3.org/2000/svg" viewBox="0 0 40 12"><defs><style>.cls-1{fill:#fbb2ff;}</style></defs><title>wiggle</title><path class="cls-1" d="M29.86,8.62a3.88,3.88,0,0,1-2.78-1.16L25.92,6.31a1.48,1.48,0,0,0-1-.43,1.45,1.45,0,0,0-1,.44l-1,1.06a4,4,0,0,1-5.68,0l-1-1.06a1.45,1.45,0,0,0-1-.44,1.54,1.54,0,0,0-1,.43L12.92,7.46A4,4,0,0,1,10.1,8.62,3.9,3.9,0,0,1,7.3,7.41l-1-1a1.48,1.48,0,0,0-2.08,0l-.49.51a1.25,1.25,0,0,1-1.8-1.74l.49-.51a4,4,0,0,1,5.68,0l1,1.06a1.45,1.45,0,0,0,1,.44,1.57,1.57,0,0,0,1-.43l1.15-1.15a4,4,0,0,1,2.83-1.16,3.9,3.9,0,0,1,2.8,1.21l1,1a1.48,1.48,0,0,0,2.08,0l1-1a3.9,3.9,0,0,1,2.8-1.21,4,4,0,0,1,2.83,1.16l1.15,1.15a1.5,1.5,0,0,0,1,.43,1.45,1.45,0,0,0,1-.44l1-1.06a4,4,0,0,1,5.68,0l.49.51a1.25,1.25,0,1,1-1.8,1.74l-.49-.51a1.48,1.48,0,0,0-2.08,0l-1,1a3.9,3.9,0,0,1-2.8,1.21Z"/></svg>